<svg width="111" height="51" viewBox="0 0 111 51" fill="none" xmlns="http://www.w3.org/2000/svg">
<path d="M0.7 5.62L13.51 0.999997H23.31V50H12.11V12.83L3.43 15.21L0.7 5.62ZM65.9124 44.05C62.4124 48.67 57.5358 50.98 51.2824 50.98C45.0758 50.98 40.1758 48.67 36.5824 44.05C33.0824 39.3833 31.3324 33.2 31.3324 25.5C31.3324 17.8 33.0824 11.64 36.5824 7.02C40.1291 2.35333 45.0291 0.0199968 51.2824 0.0199968C57.5358 0.0199968 62.4124 2.35333 65.9124 7.02C69.4591 11.5933 71.2324 17.7533 71.2324 25.5C71.2324 33.2 69.4591 39.3833 65.9124 44.05ZM51.2824 10.94C45.4491 10.94 42.5324 15.7933 42.5324 25.5C42.5324 35.2067 45.4491 40.06 51.2824 40.06C57.1158 40.06 60.0324 35.2067 60.0324 25.5C60.0324 15.7933 57.1158 10.94 51.2824 10.94ZM98.8242 20.6H110.024V30.4H98.8242V41.6H89.0242V30.4H77.8242V20.6H89.0242V9.4H98.8242V20.6Z" fill="url(#paint0_linear_812_6088)"/>
<defs>
<linearGradient id="paint0_linear_812_6088" x1="-32.4999" y1="55" x2="-27.8819" y2="0.700216" gradientUnits="userSpaceOnUse">
<stop offset="0.0364583" stop-color="#00E0FF"/>
<stop offset="1" stop-color="#0188FF"/>
</linearGradient>
</defs>
</svg>
