<svg width="156" height="51" viewBox="0 0 156 51" fill="none" xmlns="http://www.w3.org/2000/svg">
<path d="M0.7 5.62L13.51 0.999997H23.31V50H12.11V12.83L3.43 15.21L0.7 5.62ZM65.9124 44.05C62.4124 48.67 57.5358 50.98 51.2824 50.98C45.0758 50.98 40.1758 48.67 36.5824 44.05C33.0824 39.3833 31.3324 33.2 31.3324 25.5C31.3324 17.8 33.0824 11.64 36.5824 7.02C40.1291 2.35333 45.0291 0.0199968 51.2824 0.0199968C57.5358 0.0199968 62.4124 2.35333 65.9124 7.02C69.4591 11.5933 71.2324 17.7533 71.2324 25.5C71.2324 33.2 69.4591 39.3833 65.9124 44.05ZM51.2824 10.94C45.4491 10.94 42.5324 15.7933 42.5324 25.5C42.5324 35.2067 45.4491 40.06 51.2824 40.06C57.1158 40.06 60.0324 35.2067 60.0324 25.5C60.0324 15.7933 57.1158 10.94 51.2824 10.94ZM111.004 44.05C107.504 48.67 102.628 50.98 96.3742 50.98C90.1676 50.98 85.2676 48.67 81.6742 44.05C78.1742 39.3833 76.4242 33.2 76.4242 25.5C76.4242 17.8 78.1742 11.64 81.6742 7.02C85.2209 2.35333 90.1209 0.0199968 96.3742 0.0199968C102.628 0.0199968 107.504 2.35333 111.004 7.02C114.551 11.5933 116.324 17.7533 116.324 25.5C116.324 33.2 114.551 39.3833 111.004 44.05ZM96.3742 10.94C90.5409 10.94 87.6242 15.7933 87.6242 25.5C87.6242 35.2067 90.5409 40.06 96.3742 40.06C102.208 40.06 105.124 35.2067 105.124 25.5C105.124 15.7933 102.208 10.94 96.3742 10.94ZM143.916 20.6H155.116V30.4H143.916V41.6H134.116V30.4H122.916V20.6H134.116V9.4H143.916V20.6Z" fill="url(#paint0_linear_812_6099)"/>
<defs>
<linearGradient id="paint0_linear_812_6099" x1="-44.4443" y1="55" x2="-41.056" y2="0.518185" gradientUnits="userSpaceOnUse">
<stop offset="0.0364583" stop-color="#00E0FF"/>
<stop offset="1" stop-color="#0188FF"/>
</linearGradient>
</defs>
</svg>
