<svg width="163" height="51" viewBox="0 0 163 51" fill="none" xmlns="http://www.w3.org/2000/svg">
<path d="M33.86 50H0.54V41.88L16.99 24.8C20.3033 21.3467 21.96 18.4533 21.96 16.12C21.96 14.58 21.4933 13.3433 20.56 12.41C19.6267 11.43 18.3433 10.94 16.71 10.94C13.4433 10.94 11.04 12.7133 9.5 16.26L0.05 10.73C1.54333 7.32333 3.76 4.68667 6.7 2.82C9.64 0.953331 12.93 0.0199968 16.57 0.0199968C21.19 0.0199968 25.0867 1.44333 28.26 4.29C31.5267 7.09 33.16 10.87 33.16 15.63C33.16 20.81 30.6167 25.9433 25.53 31.03L17.41 39.22H33.86V50ZM73.3206 44.05C69.8206 48.67 64.944 50.98 58.6906 50.98C52.484 50.98 47.584 48.67 43.9906 44.05C40.4906 39.3833 38.7406 33.2 38.7406 25.5C38.7406 17.8 40.4906 11.64 43.9906 7.02C47.5373 2.35333 52.4373 0.0199968 58.6906 0.0199968C64.944 0.0199968 69.8206 2.35333 73.3206 7.02C76.8673 11.5933 78.6406 17.7533 78.6406 25.5C78.6406 33.2 76.8673 39.3833 73.3206 44.05ZM58.6906 10.94C52.8573 10.94 49.9406 15.7933 49.9406 25.5C49.9406 35.2067 52.8573 40.06 58.6906 40.06C64.524 40.06 67.4406 35.2067 67.4406 25.5C67.4406 15.7933 64.524 10.94 58.6906 10.94ZM118.412 44.05C114.912 48.67 110.036 50.98 103.782 50.98C97.5758 50.98 92.6758 48.67 89.0824 44.05C85.5824 39.3833 83.8324 33.2 83.8324 25.5C83.8324 17.8 85.5824 11.64 89.0824 7.02C92.6291 2.35333 97.5291 0.0199968 103.782 0.0199968C110.036 0.0199968 114.912 2.35333 118.412 7.02C121.959 11.5933 123.732 17.7533 123.732 25.5C123.732 33.2 121.959 39.3833 118.412 44.05ZM103.782 10.94C97.9491 10.94 95.0324 15.7933 95.0324 25.5C95.0324 35.2067 97.9491 40.06 103.782 40.06C109.616 40.06 112.532 35.2067 112.532 25.5C112.532 15.7933 109.616 10.94 103.782 10.94ZM151.324 20.6H162.524V30.4H151.324V41.6H141.524V30.4H130.324V20.6H141.524V9.4H151.324V20.6Z" fill="url(#paint0_linear_812_6091)"/>
<defs>
<linearGradient id="paint0_linear_812_6091" x1="-47.3887" y1="55" x2="-44.1415" y2="0.500952" gradientUnits="userSpaceOnUse">
<stop offset="0.0364583" stop-color="#00E0FF"/>
<stop offset="1" stop-color="#0188FF"/>
</linearGradient>
</defs>
</svg>
