<svg width="119" height="51" viewBox="0 0 119 51" fill="none" xmlns="http://www.w3.org/2000/svg">
<path d="M14.96 18.22H18.95C23.7567 18.22 27.7467 19.6667 30.92 22.56C34.14 25.4533 35.75 29.4667 35.75 34.6C35.75 39.7333 34.0233 43.7467 30.57 46.64C27.1167 49.5333 22.8933 50.98 17.9 50.98C13.7467 50.98 10.13 50.0933 7.05 48.32C4.01667 46.5467 1.8 43.9333 0.4 40.48L10.06 34.88C11.2733 38.3333 13.8867 40.06 17.9 40.06C20.7 40.2467 22.66 39.3833 23.78 37.47C24.9467 35.5567 24.97 33.6433 23.85 31.73C22.73 29.8167 20.8633 28.9533 18.25 29.14H2.92L4.95 0.999997H33.3V11.5H15.45L14.96 18.22ZM74.4827 44.05C70.9827 48.67 66.1061 50.98 59.8527 50.98C53.6461 50.98 48.7461 48.67 45.1527 44.05C41.6527 39.3833 39.9027 33.2 39.9027 25.5C39.9027 17.8 41.6527 11.64 45.1527 7.02C48.6994 2.35333 53.5994 0.0199968 59.8527 0.0199968C66.1061 0.0199968 70.9827 2.35333 74.4827 7.02C78.0294 11.5933 79.8027 17.7533 79.8027 25.5C79.8027 33.2 78.0294 39.3833 74.4827 44.05ZM59.8527 10.94C54.0194 10.94 51.1027 15.7933 51.1027 25.5C51.1027 35.2067 54.0194 40.06 59.8527 40.06C65.6861 40.06 68.6027 35.2067 68.6027 25.5C68.6027 15.7933 65.6861 10.94 59.8527 10.94ZM107.395 20.6H118.595V30.4H107.395V41.6H97.5945V30.4H86.3945V20.6H97.5945V9.4H107.395V20.6Z" fill="url(#paint0_linear_812_6102)"/>
<defs>
<linearGradient id="paint0_linear_812_6102" x1="-35.9999" y1="55" x2="-31.7075" y2="0.646449" gradientUnits="userSpaceOnUse">
<stop offset="0.0364583" stop-color="#00E0FF"/>
<stop offset="1" stop-color="#0188FF"/>
</linearGradient>
</defs>
</svg>
