<svg width="30" height="40" viewBox="0 0 30 40" fill="none" xmlns="http://www.w3.org/2000/svg">
<mask id="mask0_993_26380" style="mask-type:luminance" maskUnits="userSpaceOnUse" x="0" y="0" width="30" height="40">
<path d="M29.6297 0H0V40H29.6297V0Z" fill="white"/>
</mask>
<g mask="url(#mask0_993_26380)">
<path d="M9.5551 30.9216C9.5551 30.9216 8.0278 31.8089 10.6421 32.1091C13.8093 32.47 15.4279 32.4184 18.9182 31.7584C18.9182 31.7584 19.8359 32.3332 21.1173 32.8311C13.2931 36.181 3.40952 32.637 9.5551 30.9216Z" fill="#585858"/>
<path d="M8.59938 26.55C8.59938 26.55 6.88633 27.8168 9.50258 28.0871C12.8858 28.4358 15.5577 28.4644 20.181 27.575C20.181 27.575 20.8205 28.2226 21.826 28.5768C12.366 31.3403 1.82937 28.7948 8.59938 26.55Z" fill="#585858"/>
<path d="M16.6589 19.1347C18.5869 21.3521 16.1524 23.3475 16.1524 23.3475C16.1524 23.3475 21.0476 20.823 18.7995 17.6616C16.6998 14.7136 15.0895 13.2486 23.8065 8.19824C23.8065 8.19824 10.1237 11.6122 16.6589 19.1347Z" fill="#9C9C9C"/>
<path d="M27.0082 34.1551C27.0082 34.1551 28.1384 35.0854 25.7633 35.8051C21.2472 37.1719 6.9663 37.5847 2.9991 35.8596C1.57305 35.2399 4.2474 34.3798 5.0886 34.1992C5.9659 34.0092 6.4673 34.0447 6.4673 34.0447C4.88133 32.9285 -3.78375 36.2362 2.06592 37.1834C18.0187 39.7679 31.1461 36.0197 27.0082 34.1551Z" fill="#585858"/>
<path d="M10.2897 22.0209C10.2897 22.0209 3.02562 23.7446 7.71735 24.3704C9.6983 24.6354 13.6474 24.5755 17.3258 24.2675C20.3321 24.0143 23.3507 23.4756 23.3507 23.4756C23.3507 23.4756 22.2906 23.9291 21.5238 24.4523C14.1472 26.3904 -0.103171 25.4888 3.99931 23.5062C7.4688 21.8309 10.2897 22.0209 10.2897 22.0209Z" fill="#585858"/>
<path d="M23.3206 29.2976C30.8194 25.4048 27.3523 21.664 24.9323 22.1681C24.3391 22.2913 24.0747 22.3981 24.0747 22.3981C24.0747 22.3981 24.2949 22.0536 24.7154 21.9045C29.5029 20.223 33.1848 26.8637 23.1699 29.4937C23.1699 29.4937 23.286 29.3903 23.3206 29.2976Z" fill="#585858"/>
<path d="M18.7996 0.0428402C18.7996 0.0428402 22.9525 4.19313 14.8607 10.5747C8.37204 15.694 13.3811 18.6129 14.8581 21.9478C11.0705 18.5339 8.29084 15.5286 10.1557 12.7317C12.8926 8.6256 20.4751 6.63512 18.7996 0.0428402Z" fill="#9C9C9C"/>
<path d="M11.0266 39.8455C18.2244 40.3059 29.2775 39.5901 29.5392 36.1877C29.5392 36.1877 29.0361 37.4777 23.5906 38.5019C17.4471 39.6569 9.87008 39.5221 5.37598 38.7818C5.37613 38.7818 6.29588 39.5425 11.0266 39.8455Z" fill="#585858"/>
</g>
</svg>
