<svg width="35" height="60" viewBox="0 0 35 60" fill="none" xmlns="http://www.w3.org/2000/svg">
<g clip-path="url(#clip0_993_26442)">
<g clip-path="url(#clip1_993_26442)">
<path d="M17.4788 39.7121L3.23561 35.7594L0.0615234 0.170898H34.9386L31.7612 35.7539L17.4788 39.7121Z" fill="#585858"/>
<path d="M29.041 33.4884L31.7561 3.08105H17.5V36.6869L29.041 33.4884Z" fill="#9C9C9C"/>
<path d="M7.33789 16.2803L7.72914 20.6451H17.4999V16.2803H7.33789Z" fill="#EBEBEB"/>
<path d="M6.55176 7.44629L6.94866 11.811H17.5002V7.44629H6.55176Z" fill="#EBEBEB"/>
<path d="M17.4995 27.6167L17.4804 27.6218L12.6177 26.3092L12.3068 22.8281H7.92383L8.53548 29.6815L17.4794 32.1634L17.4995 32.158V27.6167Z" fill="#EBEBEB"/>
<path d="M27.6337 16.2807L28.4219 7.44629H17.4845V11.811H23.6369L23.2396 16.2807H17.4845V20.6454H22.861L22.3541 26.3063L17.4844 27.6202V32.1611L26.4354 29.6813L26.501 28.9438L27.5272 17.4527L27.6337 16.2807Z" fill="white"/>
</g>
</g>
<path d="M11.444 56.643C10.2707 56.643 9.30633 56.258 8.551 55.488C7.79567 54.7253 7.418 53.7793 7.418 52.65C7.418 51.5207 7.79567 50.5747 8.551 49.812C9.30633 49.042 10.2707 48.657 11.444 48.657C12.1407 48.657 12.786 48.8257 13.38 49.163C13.974 49.5003 14.436 49.955 14.766 50.527L13.875 51.044C13.655 50.6187 13.325 50.2813 12.885 50.032C12.4523 49.7753 11.972 49.647 11.444 49.647C10.5493 49.647 9.82333 49.933 9.266 50.505C8.70867 51.0697 8.43 51.7847 8.43 52.65C8.43 53.508 8.70867 54.2193 9.266 54.784C9.82333 55.356 10.5493 55.642 11.444 55.642C11.972 55.642 12.4523 55.5173 12.885 55.268C13.325 55.0113 13.655 54.674 13.875 54.256L14.766 54.762C14.4433 55.334 13.985 55.7923 13.391 56.137C12.8043 56.4743 12.1553 56.643 11.444 56.643ZM18.4106 56.643C17.6919 56.643 17.0759 56.478 16.5626 56.148C16.0566 55.8107 15.7009 55.345 15.4956 54.751L16.3756 54.245C16.6689 55.1763 17.3546 55.642 18.4326 55.642C18.9533 55.642 19.3529 55.5357 19.6316 55.323C19.9176 55.1103 20.0606 54.8207 20.0606 54.454C20.0606 54.0947 19.9213 53.8197 19.6426 53.629C19.3933 53.4603 18.9276 53.266 18.2456 53.046L17.5086 52.804C17.3473 52.738 17.1346 52.6427 16.8706 52.518C16.6139 52.386 16.4269 52.254 16.3096 52.122C15.9869 51.77 15.8256 51.341 15.8256 50.835C15.8256 50.1603 16.0603 49.6323 16.5296 49.251C16.9989 48.855 17.5709 48.657 18.2456 48.657C18.8469 48.657 19.3749 48.8073 19.8296 49.108C20.2843 49.4087 20.6253 49.8193 20.8526 50.34L19.9946 50.835C19.6646 50.043 19.0816 49.647 18.2456 49.647C17.8276 49.647 17.4903 49.7497 17.2336 49.955C16.9769 50.1603 16.8486 50.439 16.8486 50.791C16.8486 51.1283 16.9696 51.385 17.2116 51.561C17.4609 51.7443 17.8789 51.9277 18.4656 52.111L18.9166 52.254C19.1659 52.3493 19.3016 52.4007 19.3236 52.408C19.5583 52.496 19.8149 52.617 20.0936 52.771C20.2916 52.881 20.4896 53.0497 20.6876 53.277C20.9443 53.5337 21.0726 53.9187 21.0726 54.432C21.0726 55.1067 20.8269 55.6457 20.3356 56.049C19.8369 56.445 19.1953 56.643 18.4106 56.643ZM24.5014 56.643C23.7828 56.643 23.1668 56.478 22.6534 56.148C22.1474 55.8107 21.7918 55.345 21.5864 54.751L22.4664 54.245C22.7598 55.1763 23.4454 55.642 24.5234 55.642C25.0441 55.642 25.4438 55.5357 25.7224 55.323C26.0084 55.1103 26.1514 54.8207 26.1514 54.454C26.1514 54.0947 26.0121 53.8197 25.7334 53.629C25.4841 53.4603 25.0184 53.266 24.3364 53.046L23.5994 52.804C23.4381 52.738 23.2254 52.6427 22.9614 52.518C22.7048 52.386 22.5178 52.254 22.4004 52.122C22.0778 51.77 21.9164 51.341 21.9164 50.835C21.9164 50.1603 22.1511 49.6323 22.6204 49.251C23.0898 48.855 23.6618 48.657 24.3364 48.657C24.9378 48.657 25.4658 48.8073 25.9204 49.108C26.3751 49.4087 26.7161 49.8193 26.9434 50.34L26.0854 50.835C25.7554 50.043 25.1724 49.647 24.3364 49.647C23.9184 49.647 23.5811 49.7497 23.3244 49.955C23.0678 50.1603 22.9394 50.439 22.9394 50.791C22.9394 51.1283 23.0604 51.385 23.3024 51.561C23.5518 51.7443 23.9698 51.9277 24.5564 52.111L25.0074 52.254C25.2568 52.3493 25.3924 52.4007 25.4144 52.408C25.6491 52.496 25.9058 52.617 26.1844 52.771C26.3824 52.881 26.5804 53.0497 26.7784 53.277C27.0351 53.5337 27.1634 53.9187 27.1634 54.432C27.1634 55.1067 26.9178 55.6457 26.4264 56.049C25.9278 56.445 25.2861 56.643 24.5014 56.643Z" fill="#121212"/>
<defs>
<clipPath id="clip0_993_26442">
<rect width="35" height="40" fill="white"/>
</clipPath>
<clipPath id="clip1_993_26442">
<rect width="35" height="40" fill="white"/>
</clipPath>
</defs>
</svg>
