<svg width="47" height="60" viewBox="0 0 47 60" fill="none" xmlns="http://www.w3.org/2000/svg">
<path d="M3.5 0H43.5V40H3.5V0Z" fill="#9C9C9C"/>
<path d="M4.4 52.683H8.25V53.145C8.25 54.1497 7.90533 54.9857 7.216 55.653C6.52667 56.313 5.61367 56.643 4.477 56.643C3.30367 56.643 2.332 56.258 1.562 55.488C0.799333 54.7033 0.418 53.7573 0.418 52.65C0.418 51.5427 0.799333 50.6003 1.562 49.823C2.332 49.0457 3.29633 48.657 4.455 48.657C5.159 48.657 5.81167 48.8293 6.413 49.174C7.02167 49.5187 7.48 49.966 7.788 50.516L6.908 51.033C6.688 50.615 6.35433 50.2813 5.907 50.032C5.45967 49.7753 4.972 49.647 4.444 49.647C3.55667 49.647 2.83433 49.9367 2.277 50.516C1.71233 51.0953 1.43 51.8067 1.43 52.65C1.43 53.4933 1.71233 54.2047 2.277 54.784C2.849 55.356 3.586 55.642 4.488 55.642C5.24333 55.642 5.85933 55.4587 6.336 55.092C6.82 54.718 7.117 54.223 7.227 53.607H4.4V52.683ZM9.08695 52.65C9.08695 51.5353 9.47195 50.593 10.2419 49.823C11.0119 49.0457 11.9543 48.657 13.0689 48.657C14.1836 48.657 15.1259 49.0457 15.8959 49.823C16.6733 50.593 17.0619 51.5353 17.0619 52.65C17.0619 53.7573 16.6733 54.6997 15.8959 55.477C15.1259 56.2543 14.1836 56.643 13.0689 56.643C11.9543 56.643 11.0119 56.2543 10.2419 55.477C9.47195 54.6923 9.08695 53.75 9.08695 52.65ZM16.0389 52.65C16.0389 51.7993 15.7529 51.088 15.1809 50.516C14.6236 49.9367 13.9196 49.647 13.0689 49.647C12.2256 49.647 11.5179 49.9367 10.9459 50.516C10.3813 51.0953 10.0989 51.8067 10.0989 52.65C10.0989 53.486 10.3813 54.1973 10.9459 54.784C11.5179 55.356 12.2256 55.642 13.0689 55.642C13.9196 55.642 14.6236 55.356 15.1809 54.784C15.7529 54.1973 16.0389 53.486 16.0389 52.65ZM19.3148 48.8V55.532H22.6368V56.5H18.2918V48.8H19.3148ZM30.0377 56.5H28.9487L28.3217 54.773H24.8567L24.2297 56.5H23.1407L26.0117 48.8H27.1667L30.0377 56.5ZM26.5837 50.021L25.2087 53.816H27.9697L26.5837 50.021ZM35.7311 54.542V48.8H36.7541V56.5H35.9291L31.9691 50.747V56.5H30.9461V48.8H31.7711L35.7311 54.542ZM41.9762 52.683H45.8262V53.145C45.8262 54.1497 45.4815 54.9857 44.7922 55.653C44.1028 56.313 43.1898 56.643 42.0532 56.643C40.8798 56.643 39.9082 56.258 39.1382 55.488C38.3755 54.7033 37.9942 53.7573 37.9942 52.65C37.9942 51.5427 38.3755 50.6003 39.1382 49.823C39.9082 49.0457 40.8725 48.657 42.0312 48.657C42.7352 48.657 43.3878 48.8293 43.9892 49.174C44.5978 49.5187 45.0562 49.966 45.3642 50.516L44.4842 51.033C44.2642 50.615 43.9305 50.2813 43.4832 50.032C43.0358 49.7753 42.5482 49.647 42.0202 49.647C41.1328 49.647 40.4105 49.9367 39.8532 50.516C39.2885 51.0953 39.0062 51.8067 39.0062 52.65C39.0062 53.4933 39.2885 54.2047 39.8532 54.784C40.4252 55.356 41.1622 55.642 42.0642 55.642C42.8195 55.642 43.4355 55.4587 43.9122 55.092C44.3962 54.718 44.6932 54.223 44.8032 53.607H41.9762V52.683Z" fill="#121212"/>
<path d="M26.8175 17.3665C26.264 17.5068 25.8069 17.582 25.3397 17.7474C24.969 17.8426 24.5933 17.9428 24.1616 18.053L24.1312 18.058C23.9179 18.1181 23.8976 18.1232 23.6995 17.8977C23.4608 17.6321 23.2882 17.4617 22.9581 17.3014C21.9577 16.8204 20.9929 16.9607 20.0941 17.5369C19.0175 18.2234 18.464 19.2405 18.4792 20.5032C18.4945 21.7559 19.3628 22.7831 20.5714 22.9535C21.6886 23.0938 22.5925 22.723 23.3034 21.9263C23.4101 21.796 23.5065 21.6607 23.6132 21.5104C23.6538 21.4603 23.6894 21.4052 23.73 21.345H20.678C20.348 21.345 20.2667 21.1446 20.3784 20.8791C20.5816 20.393 20.9624 19.5813 21.1859 19.1754C21.2316 19.0852 21.3433 18.8848 21.5362 18.8848H26.6702C26.8987 18.2134 27.2694 17.5369 27.7671 16.8955C28.9198 15.3973 30.2706 14.6157 32.1952 14.29C33.81 14.0094 35.3284 14.1647 36.7096 15.0867C37.9588 15.9285 38.7307 17.0709 38.9389 18.5691C39.208 20.6786 38.5885 22.3923 37.0752 23.8604C36.0748 24.9077 34.7952 25.5641 33.3225 25.8597C33.0381 25.9098 32.7588 25.9349 32.4846 25.9599C32.3374 25.9699 32.1952 25.985 32.053 26C30.6159 25.9699 29.3007 25.5641 28.1936 24.6271C27.4167 23.9606 26.8784 23.1439 26.6143 22.1969C26.4265 22.5627 26.2081 22.9184 25.9034 23.2541C24.8065 24.7373 23.3187 25.6593 21.4398 25.9048C19.8859 26.1102 18.4488 25.8146 17.1792 24.8776C16.0113 24.0007 15.346 22.8483 15.1734 21.4102C14.9652 19.7065 15.473 18.1332 16.514 16.8354C17.6413 15.3823 19.1292 14.4603 20.9472 14.1346C22.4351 13.824 23.8569 14.0394 25.1417 14.9013C25.9796 15.4474 26.5788 16.194 26.9749 17.101C27.0714 17.2413 27.0054 17.3214 26.8175 17.3665ZM8.95272 17.6471C8.88925 17.6471 8.8735 17.6171 8.90499 17.567L9.2376 17.1461C9.26909 17.101 9.34831 17.0709 9.41178 17.0709H15.0617C15.1226 17.0709 15.1378 17.116 15.1074 17.1611L14.8382 17.567C14.8078 17.6171 14.7265 17.6622 14.6808 17.6622L8.95272 17.6471ZM6.56327 19.0852C6.5 19.0852 6.48418 19.0501 6.51582 19.005L6.8481 18.5841C6.87979 18.539 6.95891 18.504 7.02203 18.504H14.239C14.3 18.504 14.3304 18.5541 14.3152 18.5992L14.1882 18.975C14.173 19.0351 14.1121 19.0702 14.0461 19.0702L6.56327 19.0852ZM10.3451 20.4281C10.3137 20.4732 10.3294 20.5183 10.3924 20.5183L13.8429 20.5333C13.8886 20.5333 13.9546 20.4882 13.9546 20.4281L13.9851 20.0523C13.9851 19.9871 13.9546 19.942 13.8886 19.942H10.725C10.6615 19.942 10.5985 19.9871 10.5665 20.0373L10.3451 20.4281ZM35.8108 19.5262C35.8006 19.3959 35.7955 19.2856 35.7752 19.1754C35.4909 17.6321 34.0487 16.7552 32.5456 17.101C31.0729 17.4267 30.1233 18.3486 29.778 19.8168C29.4936 21.0344 30.0928 22.267 31.2303 22.7681C32.1038 23.1439 32.9721 23.0988 33.81 22.6729C35.0592 21.9914 35.7397 21.0344 35.8209 19.6915C35.8159 19.6314 35.8159 19.5763 35.8108 19.5262Z" fill="#585858"/>
</svg>
