<svg width="43" height="60" viewBox="0 0 43 60" fill="none" xmlns="http://www.w3.org/2000/svg">
<g clip-path="url(#clip0_993_26396)">
<g clip-path="url(#clip1_993_26396)">
<g clip-path="url(#clip2_993_26396)">
<path d="M21.3314 0.0117188C11.2039 0.0117188 11.8363 4.42192 11.8363 4.42192L11.8475 8.991H21.5121V10.3628H8.00895C8.00895 10.3628 1.52832 9.62475 1.52832 19.8859C1.52832 30.1474 7.18475 29.7835 7.18475 29.7835H10.5605V25.0217C10.5605 25.0217 10.3785 19.3417 16.1266 19.3417H25.7121C25.7121 19.3417 31.0975 19.4291 31.0975 14.1152V5.32905C31.0975 5.32905 31.9154 0.0117188 21.3314 0.0117188ZM16.0024 3.08435C16.2308 3.08414 16.457 3.12916 16.668 3.21683C16.8791 3.30449 17.0708 3.43308 17.2323 3.59524C17.3938 3.7574 17.5218 3.94995 17.6091 4.16187C17.6964 4.37378 17.7413 4.6009 17.7411 4.83023C17.7413 5.05955 17.6964 5.2867 17.6091 5.4986C17.5218 5.7105 17.3938 5.90305 17.2323 6.0652C17.0708 6.2274 16.8791 6.35595 16.668 6.44365C16.457 6.5313 16.2308 6.5763 16.0024 6.5761C15.774 6.5763 15.5479 6.5313 15.3369 6.44365C15.1258 6.35595 14.9341 6.2274 14.7726 6.0652C14.6111 5.90305 14.4831 5.7105 14.3958 5.4986C14.3084 5.2867 14.2636 5.05955 14.2638 4.83023C14.2636 4.6009 14.3084 4.37378 14.3958 4.16187C14.4831 3.94995 14.6111 3.7574 14.7726 3.59524C14.9341 3.43308 15.1258 3.30449 15.3369 3.21683C15.5479 3.12916 15.774 3.08414 16.0024 3.08435Z" fill="#585858"/>
<path d="M21.6178 39.8629C31.7453 39.8629 31.113 35.4527 31.113 35.4527L31.1017 30.8838H21.4371V29.512H34.9402C34.9402 29.512 41.4208 30.2501 41.4208 19.9886C41.4208 9.72725 35.7644 10.0912 35.7644 10.0912H32.3886V14.8527C32.3886 14.8527 32.5706 20.5327 26.8225 20.5327H17.237C17.237 20.5327 11.8516 20.4454 11.8516 25.7594V34.5458C11.8516 34.5458 11.034 39.8629 21.6178 39.8629ZM26.9468 36.7906C26.7184 36.7908 26.4923 36.7458 26.2812 36.6581C26.0702 36.5705 25.8784 36.4419 25.717 36.2797C25.5555 36.1176 25.4274 35.925 25.3401 35.7131C25.2528 35.5012 25.208 35.2741 25.2082 35.0447C25.2079 34.8154 25.2528 34.5883 25.3401 34.3763C25.4274 34.1644 25.5554 33.9718 25.7169 33.8096C25.8784 33.6475 26.0701 33.5189 26.2812 33.4312C26.4922 33.3435 26.7184 33.2985 26.9468 33.2987C27.1752 33.2985 27.4014 33.3435 27.6124 33.4312C27.8234 33.5188 28.0152 33.6474 28.1767 33.8096C28.3382 33.9718 28.4662 34.1643 28.5535 34.3762C28.6408 34.5881 28.6857 34.8152 28.6855 35.0446C28.6857 35.2739 28.6408 35.501 28.5535 35.7129C28.4662 35.9249 28.3382 36.1174 28.1767 36.2796C28.0152 36.4417 27.8234 36.5703 27.6124 36.658C27.4014 36.7456 27.1752 36.7908 26.9468 36.7906Z" fill="#9C9C9C"/>
</g>
</g>
</g>
<path d="M0.825 48.8H3.619C4.323 48.8 4.91333 49.0383 5.39 49.515C5.86667 49.9917 6.105 50.5783 6.105 51.275C6.105 51.9717 5.86667 52.5583 5.39 53.035C4.91333 53.5117 4.323 53.75 3.619 53.75H1.848V56.5H0.825V48.8ZM1.848 52.793H3.619C4.05167 52.793 4.40367 52.65 4.675 52.364C4.95367 52.0633 5.093 51.7003 5.093 51.275C5.093 50.835 4.95367 50.472 4.675 50.186C4.39633 49.9 4.04433 49.757 3.619 49.757H1.848V52.793ZM11.6854 48.8H12.8294L10.1014 53.387V56.5H9.07844V53.376L6.36144 48.8H7.50544L9.59544 52.408L11.6854 48.8ZM13.1101 48.8H18.6651V49.768H16.3881V56.5H15.3761V49.768H13.1101V48.8ZM24.4405 52.067V48.8H25.4525V56.5H24.4405V53.035H20.7005V56.5H19.6775V48.8H20.7005V52.067H24.4405ZM26.6934 52.65C26.6934 51.5353 27.0784 50.593 27.8484 49.823C28.6184 49.0457 29.5607 48.657 30.6754 48.657C31.7901 48.657 32.7324 49.0457 33.5024 49.823C34.2797 50.593 34.6684 51.5353 34.6684 52.65C34.6684 53.7573 34.2797 54.6997 33.5024 55.477C32.7324 56.2543 31.7901 56.643 30.6754 56.643C29.5607 56.643 28.6184 56.2543 27.8484 55.477C27.0784 54.6923 26.6934 53.75 26.6934 52.65ZM33.6454 52.65C33.6454 51.7993 33.3594 51.088 32.7874 50.516C32.2301 49.9367 31.5261 49.647 30.6754 49.647C29.8321 49.647 29.1244 49.9367 28.5524 50.516C27.9877 51.0953 27.7054 51.8067 27.7054 52.65C27.7054 53.486 27.9877 54.1973 28.5524 54.784C29.1244 55.356 29.8321 55.642 30.6754 55.642C31.5261 55.642 32.2301 55.356 32.7874 54.784C33.3594 54.1973 33.6454 53.486 33.6454 52.65ZM40.6832 54.542V48.8H41.7062V56.5H40.8812L36.9212 50.747V56.5H35.8982V48.8H36.7232L40.6832 54.542Z" fill="#121212"/>
<defs>
<clipPath id="clip0_993_26396">
<rect width="40" height="40" fill="white" transform="translate(1.5)"/>
</clipPath>
<clipPath id="clip1_993_26396">
<rect width="40" height="40" fill="white" transform="translate(1.5)"/>
</clipPath>
<clipPath id="clip2_993_26396">
<rect width="40" height="40" fill="white" transform="translate(1.5)"/>
</clipPath>
</defs>
</svg>
