<svg width="35" height="60" viewBox="0 0 35 60" fill="none" xmlns="http://www.w3.org/2000/svg">

<path d="M34.9386 -0.223633L31.7612 35.7472L17.4788 39.7485L3.23561 35.7527L0.0615234 -0.223633H34.9386Z" fill="#585858"/>
<path d="M17.5 36.6908L29.041 33.4575L31.7561 2.71875H17.5V36.6908Z" fill="#9C9C9C"/>
<path d="M11.3235 11.5432H17.5002V7.13086H6.55176L6.65621 8.31461L7.72941 20.4739H17.5002V16.0615H11.7226L11.3235 11.5432Z" fill="#EBEBEB"/>
<path d="M12.3079 22.6797H7.9248L8.53646 29.6077L17.4804 32.1167L17.5005 32.1112V27.5204L17.4814 27.5256L12.6188 26.1987L12.3079 22.6797Z" fill="#EBEBEB"/>
<path d="M17.4845 20.4739H22.861L22.3541 26.1964L17.4844 27.5246V32.1151L26.4354 29.6082L26.501 28.8627L27.5272 17.2464L27.6337 16.0615H17.4845V20.4739Z" fill="white"/>
<path d="M17.4854 11.5325V11.5432H28.0319L28.1194 10.5515L28.3184 8.31461L28.4228 7.13086H17.4854V11.5325Z" fill="white"/>
<path d="M9.088 52.067V48.8H10.1V56.5H9.088V53.035H5.348V56.5H4.325V48.8H5.348V52.067H9.088ZM11.1209 48.8H16.6759V49.768H14.3989V56.5H13.3869V49.768H11.1209V48.8ZM23.7383 48.8H24.8933V56.5H23.8813V50.483L21.3623 54.674H21.2303L18.7113 50.494V56.5H17.6883V48.8H18.8433L21.2963 52.87L23.7383 48.8ZM27.5628 48.8V55.532H30.8848V56.5H26.5398V48.8H27.5628Z" fill="#121212"/>

</svg>
