<svg width="62" height="60" viewBox="0 0 62 60" fill="none" xmlns="http://www.w3.org/2000/svg">
<g clip-path="url(#clip0_993_26338)">
<g clip-path="url(#clip1_993_26338)">
<path d="M11 0H51V40H11V0Z" fill="#9C9C9C"/>
<path d="M21.5177 33.427L24.5786 31.5745C25.1693 32.6215 25.7065 33.5075 26.9951 33.5075C28.2302 33.5075 29.0091 33.0244 29.0091 31.145V18.364H32.768V31.1981C32.768 35.0914 30.4858 36.8636 27.1561 36.8636C24.1491 36.8636 22.4038 35.3066 21.5177 33.427Z" fill="#585858"/>
<path d="M34.8098 33.0241L37.8704 31.252C38.6762 32.5678 39.7233 33.5344 41.5758 33.5344C43.1335 33.5344 44.1266 32.7556 44.1266 31.6816C44.1266 30.3928 43.1063 29.9362 41.3879 29.1847L40.4483 28.7816C37.7363 27.6273 35.9374 26.1773 35.9374 23.1164C35.9374 20.297 38.0854 18.1489 41.4418 18.1489C43.8315 18.1489 45.5499 18.9814 46.7849 21.1562L43.858 23.0359C43.2135 21.8814 42.5157 21.425 41.4416 21.425C40.3407 21.425 39.6426 22.1231 39.6426 23.0359C39.6426 24.1636 40.3407 24.6203 41.9516 25.3184L42.8913 25.7211C46.0866 27.0906 47.8855 28.4867 47.8855 31.628C47.8855 35.0114 45.2274 36.8639 41.6563 36.8639C38.1658 36.8639 35.9106 35.1991 34.8098 33.0241Z" fill="#585858"/>
</g>
</g>
<path d="M2.827 56.643C2.26233 56.643 1.76733 56.5257 1.342 56.291C0.924 56.049 0.616 55.708 0.418 55.268L1.287 54.762C1.52167 55.3487 2.035 55.642 2.827 55.642C3.32567 55.642 3.71067 55.5247 3.982 55.29C4.26067 55.048 4.4 54.6997 4.4 54.245V48.8H5.412V54.245C5.412 55.015 5.16633 55.609 4.675 56.027C4.18367 56.4377 3.56767 56.643 2.827 56.643ZM12.9039 56.5H11.8149L11.1879 54.773H7.72295L7.09595 56.5H6.00695L8.87795 48.8H10.0329L12.9039 56.5ZM9.44995 50.021L8.07495 53.816H10.8359L9.44995 50.021ZM16.5399 56.5H15.3849L12.6349 48.8H13.7349L15.9679 55.224L18.1899 48.8H19.3009L16.5399 56.5ZM25.9235 56.5H24.8345L24.2075 54.773H20.7425L20.1155 56.5H19.0265L21.8975 48.8H23.0525L25.9235 56.5ZM22.4695 50.021L21.0945 53.816H23.8555L22.4695 50.021ZM29.1137 56.643C28.3951 56.643 27.7791 56.478 27.2657 56.148C26.7597 55.8107 26.4041 55.345 26.1987 54.751L27.0787 54.245C27.3721 55.1763 28.0577 55.642 29.1357 55.642C29.6564 55.642 30.0561 55.5357 30.3347 55.323C30.6207 55.1103 30.7637 54.8207 30.7637 54.454C30.7637 54.0947 30.6244 53.8197 30.3457 53.629C30.0964 53.4603 29.6307 53.266 28.9487 53.046L28.2117 52.804C28.0504 52.738 27.8377 52.6427 27.5737 52.518C27.3171 52.386 27.1301 52.254 27.0127 52.122C26.6901 51.77 26.5287 51.341 26.5287 50.835C26.5287 50.1603 26.7634 49.6323 27.2327 49.251C27.7021 48.855 28.2741 48.657 28.9487 48.657C29.5501 48.657 30.0781 48.8073 30.5327 49.108C30.9874 49.4087 31.3284 49.8193 31.5557 50.34L30.6977 50.835C30.3677 50.043 29.7847 49.647 28.9487 49.647C28.5307 49.647 28.1934 49.7497 27.9367 49.955C27.6801 50.1603 27.5517 50.439 27.5517 50.791C27.5517 51.1283 27.6727 51.385 27.9147 51.561C28.1641 51.7443 28.5821 51.9277 29.1687 52.111L29.6197 52.254C29.8691 52.3493 30.0047 52.4007 30.0267 52.408C30.2614 52.496 30.5181 52.617 30.7967 52.771C30.9947 52.881 31.1927 53.0497 31.3907 53.277C31.6474 53.5337 31.7757 53.9187 31.7757 54.432C31.7757 55.1067 31.5301 55.6457 31.0387 56.049C30.5401 56.445 29.8984 56.643 29.1137 56.643ZM36.5524 56.643C35.3791 56.643 34.4147 56.258 33.6594 55.488C32.9041 54.7253 32.5264 53.7793 32.5264 52.65C32.5264 51.5207 32.9041 50.5747 33.6594 49.812C34.4147 49.042 35.3791 48.657 36.5524 48.657C37.2491 48.657 37.8944 48.8257 38.4884 49.163C39.0824 49.5003 39.5444 49.955 39.8744 50.527L38.9834 51.044C38.7634 50.6187 38.4334 50.2813 37.9934 50.032C37.5607 49.7753 37.0804 49.647 36.5524 49.647C35.6577 49.647 34.9317 49.933 34.3744 50.505C33.8171 51.0697 33.5384 51.7847 33.5384 52.65C33.5384 53.508 33.8171 54.2193 34.3744 54.784C34.9317 55.356 35.6577 55.642 36.5524 55.642C37.0804 55.642 37.5607 55.5173 37.9934 55.268C38.4334 55.0113 38.7634 54.674 38.9834 54.256L39.8744 54.762C39.5517 55.334 39.0934 55.7923 38.4994 56.137C37.9127 56.4743 37.2637 56.643 36.5524 56.643ZM46.731 56.5H45.598L43.871 53.552H42.056V56.5H41.033V48.8H44.113C44.773 48.8 45.3377 49.0347 45.807 49.504C46.2763 49.966 46.511 50.527 46.511 51.187C46.511 51.6857 46.3607 52.1403 46.06 52.551C45.752 52.969 45.3707 53.2587 44.916 53.42L46.731 56.5ZM44.113 49.757H42.056V52.628H44.113C44.4943 52.628 44.817 52.4887 45.081 52.21C45.3523 51.9313 45.488 51.5903 45.488 51.187C45.488 50.7837 45.3523 50.4463 45.081 50.175C44.817 49.8963 44.4943 49.757 44.113 49.757ZM47.7576 56.5V48.8H48.7806V56.5H47.7576ZM50.4324 48.8H53.2264C53.9304 48.8 54.5208 49.0383 54.9974 49.515C55.4741 49.9917 55.7124 50.5783 55.7124 51.275C55.7124 51.9717 55.4741 52.5583 54.9974 53.035C54.5208 53.5117 53.9304 53.75 53.2264 53.75H51.4554V56.5H50.4324V48.8ZM51.4554 52.793H53.2264C53.6591 52.793 54.0111 52.65 54.2824 52.364C54.5611 52.0633 54.7004 51.7003 54.7004 51.275C54.7004 50.835 54.5611 50.472 54.2824 50.186C54.0038 49.9 53.6518 49.757 53.2264 49.757H51.4554V52.793ZM56.1003 48.8H61.6553V49.768H59.3783V56.5H58.3663V49.768H56.1003V48.8Z" fill="#121212"/>
<defs>
<clipPath id="clip0_993_26338">
<rect width="40" height="40" fill="white" transform="translate(11)"/>
</clipPath>
<clipPath id="clip1_993_26338">
<rect width="40" height="40" fill="white" transform="translate(11)"/>
</clipPath>
</defs>
</svg>
