<svg width="40" height="60" viewBox="0 0 40 60" fill="none" xmlns="http://www.w3.org/2000/svg">
<g clip-path="url(#clip0_993_26354)">
<g clip-path="url(#clip1_993_26354)">
<path d="M27.7158 27.9357C29.1918 27.7747 30.3117 26.4343 30.2608 24.8256C30.21 23.2171 28.9373 21.9303 27.4103 21.9303H27.3086C25.7304 21.9839 24.5089 23.378 24.5599 25.0401C24.6108 25.8444 24.9161 26.5415 25.3742 27.024C23.6436 30.6166 20.9967 33.2439 17.0264 35.4423C14.3286 36.9436 11.5291 37.4799 8.72955 37.1046C6.4389 36.7828 4.65734 35.7105 3.53734 33.9409C1.90859 31.3136 1.75594 28.4717 3.13031 25.63C4.0975 23.5924 5.62435 22.0911 6.59155 21.3404C6.38795 20.6434 6.0825 19.4638 5.92985 18.6059C-1.45094 24.236 -0.687345 31.8498 1.55234 35.4423C3.23203 38.1234 6.6425 39.7855 10.4092 39.7855C11.4272 39.7855 12.4451 39.6782 13.4633 39.4103C19.9788 38.0698 24.9162 33.9946 27.7158 27.9357ZM36.6745 21.2869C32.806 16.5147 27.105 13.8875 20.5896 13.8875H19.7752C19.3171 12.9223 18.3498 12.2788 17.281 12.2788H17.1791C15.6013 12.3324 14.3797 13.7264 14.4305 15.3888C14.4814 16.9973 15.7539 18.2842 17.281 18.2842H17.3827C18.5025 18.2306 19.4697 17.4799 19.8769 16.4611H20.7931C24.6617 16.4611 28.3265 17.6406 31.6353 19.9464C34.1803 21.7158 36.0128 24.0215 37.0308 26.8096C37.8961 29.0616 37.8451 31.26 36.9289 33.1367C35.5037 35.9785 33.1114 37.5335 29.9555 37.5335C27.9193 37.5335 25.9852 36.89 24.9671 36.4074C24.4072 36.9436 23.389 37.8014 22.6764 38.3378C24.8653 39.4101 27.105 40 29.2428 40C34.1293 40 37.7435 37.1581 39.1178 34.3163C40.5939 31.2063 40.492 25.8444 36.6745 21.2869ZM10.8164 28.847C10.8673 30.4557 12.1399 31.7424 13.6669 31.7424H13.7688C15.3467 31.6889 16.5683 30.2947 16.5173 28.6325C16.4665 27.0238 15.1939 25.7372 13.6669 25.7372H13.5652C13.4633 25.7372 13.3105 25.7372 13.2089 25.7906C11.1219 22.1446 10.2565 18.1769 10.562 13.8872C10.7654 10.6701 11.7836 7.88185 13.5652 5.57615C15.0413 3.59226 17.8917 2.62712 19.8261 2.57363C25.2215 2.46632 27.5121 9.544 27.6649 12.3859C28.3265 12.5467 29.4464 12.9222 30.21 13.1903C29.599 4.50406 24.5089 0 19.6225 0C15.0412 0 10.8164 3.48527 9.13655 8.6327C6.79515 15.4959 8.3222 22.0911 11.1727 27.2922C10.9183 27.6674 10.7654 28.2572 10.8164 28.847Z" fill="#585858"/>
</g>
</g>
<path d="M9.023 56.5H7.89L6.163 53.552H4.348V56.5H3.325V48.8H6.405C7.065 48.8 7.62967 49.0347 8.099 49.504C8.56833 49.966 8.803 50.527 8.803 51.187C8.803 51.6857 8.65267 52.1403 8.352 52.551C8.044 52.969 7.66267 53.2587 7.208 53.42L9.023 56.5ZM6.405 49.757H4.348V52.628H6.405C6.78633 52.628 7.109 52.4887 7.373 52.21C7.64433 51.9313 7.78 51.5903 7.78 51.187C7.78 50.7837 7.64433 50.4463 7.373 50.175C7.109 49.8963 6.78633 49.757 6.405 49.757ZM11.0726 53.09V55.532H14.6476V56.5H10.0496V48.8H14.5926V49.768H11.0726V52.133H14.3176V53.09H11.0726ZM15.8826 48.8H18.8856C19.927 48.8 20.796 49.174 21.4926 49.922C22.1893 50.6627 22.5376 51.572 22.5376 52.65C22.5376 53.7207 22.1893 54.6337 21.4926 55.389C20.796 56.1297 19.927 56.5 18.8856 56.5H15.8826V48.8ZM16.9056 55.532H18.8856C19.6703 55.532 20.312 55.257 20.8106 54.707C21.3093 54.1497 21.5586 53.464 21.5586 52.65C21.5586 51.836 21.3093 51.1503 20.8106 50.593C20.312 50.043 19.6703 49.768 18.8856 49.768H16.9056V55.532ZM23.6254 53.915V48.8H24.6484V53.871C24.6484 54.421 24.8097 54.8537 25.1324 55.169C25.4624 55.4843 25.9244 55.642 26.5184 55.642C27.1124 55.642 27.5707 55.4843 27.8934 55.169C28.2234 54.8537 28.3884 54.421 28.3884 53.871V48.8H29.4004V53.915C29.4004 54.751 29.1327 55.4147 28.5974 55.906C28.0621 56.3973 27.3691 56.643 26.5184 56.643C25.6604 56.643 24.9637 56.3973 24.4284 55.906C23.8931 55.4147 23.6254 54.751 23.6254 53.915ZM33.8495 52.529L36.3245 56.5H35.1585L33.2665 53.464L31.3745 56.5H30.2195L32.6945 52.54L30.3625 48.8H31.5175L33.2665 51.605L35.0155 48.8H36.1705L33.8495 52.529Z" fill="#121212"/>
<defs>
<clipPath id="clip0_993_26354">
<rect width="40" height="40" fill="white"/>
</clipPath>
<clipPath id="clip1_993_26354">
<rect width="40" height="40" fill="white"/>
</clipPath>
</defs>
</svg>
