<svg width="64" height="60" viewBox="0 0 64 60" fill="none" xmlns="http://www.w3.org/2000/svg">
<g clip-path="url(#clip0_993_26406)">
<mask id="mask0_993_26406" style="mask-type:luminance" maskUnits="userSpaceOnUse" x="0" y="1" width="64" height="38">
<path d="M0.900391 20C0.900391 30.4697 14.8247 38.9573 32.0004 38.9573C49.1762 38.9573 63.1006 30.4697 63.1006 20C63.1006 9.53047 49.1762 1.0428 32.0004 1.0428C14.8247 1.0428 0.900391 9.53047 0.900391 20Z" fill="white"/>
</mask>
<g mask="url(#mask0_993_26406)">
<path d="M0.900391 20C0.900391 30.4697 14.8247 38.9573 32.0004 38.9573C49.1762 38.9573 63.1006 30.4697 63.1006 20C63.1006 9.53047 49.1762 1.0428 32.0004 1.0428C14.8247 1.0428 0.900391 9.53047 0.900391 20Z" fill="#585858"/>
</g>
<mask id="mask1_993_26406" style="mask-type:luminance" maskUnits="userSpaceOnUse" x="-1" y="-2" width="66" height="44">
<path d="M-0.395508 -1.11586H64.3963V41.1159H-0.395508V-1.11586Z" fill="white"/>
</mask>
<g mask="url(#mask1_993_26406)">
<path d="M32.0004 37.5497C48.5054 37.5497 61.8857 29.6924 61.8857 20C61.8857 10.3076 48.5054 2.45019 32.0004 2.45019C15.4955 2.45019 2.11523 10.3076 2.11523 20C2.11523 29.6924 15.4955 37.5497 32.0004 37.5497Z" fill="#9C9C9C"/>
</g>
<mask id="mask2_993_26406" style="mask-type:luminance" maskUnits="userSpaceOnUse" x="-1" y="-2" width="66" height="44">
<path d="M-0.395508 -1.11586H64.3963V41.1159H-0.395508V-1.11586Z" fill="white"/>
</mask>
<g mask="url(#mask2_993_26406)">
<path d="M17.7973 22.1759C19.1544 22.1759 20.1676 21.8859 20.8086 21.3142C21.4428 20.7484 21.8808 19.768 22.1104 18.4006C22.3245 17.1224 22.2429 16.23 21.8681 15.7483C21.4849 15.2564 20.6563 15.0069 19.4055 15.0069H17.2366L16.0343 22.1759H17.7973ZM10.7036 31.0068C10.6029 31.0068 10.5073 30.9546 10.4433 30.8644C10.3792 30.7744 10.3532 30.6558 10.3724 30.5412L13.5589 11.5433C13.5897 11.3596 13.7287 11.2269 13.8902 11.2269H20.7579C22.9163 11.2269 24.5228 11.906 25.5326 13.2456C26.5478 14.5922 26.8613 16.4745 26.4643 18.8401C26.3028 19.8039 26.0249 20.699 25.6385 21.5003C25.2517 22.3026 24.7404 23.0449 24.1187 23.7071C23.3745 24.5142 22.5322 25.0994 21.6175 25.4438C20.7173 25.7836 19.5612 25.9559 18.1813 25.9559H15.4004L14.6063 30.6903C14.5754 30.8741 14.4366 31.0068 14.2751 31.0068H10.7036Z" fill="#585858"/>
<path d="M17.5144 15.3979H19.4051C20.9147 15.3979 21.4391 15.7818 21.6173 16.0105C21.9129 16.3904 21.9687 17.1912 21.7787 18.3264C21.5652 19.5972 21.1695 20.4983 20.6024 21.0043C20.0217 21.5223 19.0777 21.7848 17.7969 21.7848H16.4432L17.5144 15.3979ZM20.7575 10.8358H13.8897C13.5666 10.8358 13.2889 11.1012 13.2272 11.4687L10.0407 30.4666C10.0023 30.6959 10.0542 30.933 10.1824 31.1132C10.3106 31.2935 10.5016 31.3978 10.7032 31.3978H14.2746C14.5978 31.3978 14.8755 31.1324 14.9371 30.7649L15.6782 26.3469H18.1809C19.5962 26.3469 20.7876 26.1681 21.7218 25.8155C22.6826 25.4538 23.5665 24.8405 24.3488 23.9927C24.9958 23.303 25.5288 22.5287 25.9326 21.6912C26.3365 20.8535 26.6268 19.9193 26.7951 18.9146C27.213 16.4245 26.8736 14.4305 25.7863 12.9884C24.7096 11.56 23.0175 10.8358 20.7575 10.8358ZM15.6244 22.5669H17.7969C19.2368 22.5669 20.3093 22.2526 21.0141 21.624C21.7189 20.9952 22.1943 19.9458 22.4413 18.4752C22.6776 17.0633 22.57 16.067 22.1183 15.4866C21.6661 14.9061 20.7619 14.6159 19.4051 14.6159H16.958L15.6244 22.5669ZM20.7575 11.6179C22.8235 11.6179 24.3307 12.2462 25.2781 13.5028C26.2253 14.7595 26.5106 16.5135 26.1326 18.7655C25.977 19.6932 25.7139 20.5413 25.3435 21.3097C24.9727 22.0786 24.4884 22.7817 23.89 23.4192C23.1768 24.1926 22.3846 24.7437 21.5128 25.0719C20.6411 25.401 19.5307 25.5648 18.1809 25.5648H15.1217L14.2746 30.6157H10.7032L13.8897 11.6179H20.7575Z" fill="white"/>
<path d="M34.6526 25.9559C34.5518 25.9559 34.4563 25.9038 34.3923 25.8136C34.3281 25.7235 34.3021 25.605 34.3213 25.4903L35.7309 17.0845C35.865 16.2851 35.8319 15.7113 35.6378 15.4689C35.5191 15.3207 35.1623 15.0721 34.1072 15.0721H31.5536L29.7814 25.6395C29.7506 25.8232 29.6116 25.9559 29.4501 25.9559H25.9068C25.806 25.9559 25.7105 25.9038 25.6464 25.8136C25.5823 25.7235 25.5563 25.6049 25.5755 25.4903L28.762 6.49243C28.7929 6.30878 28.9318 6.17608 29.0933 6.17608H32.6366C32.7374 6.17608 32.8329 6.22822 32.897 6.31829C32.9611 6.40849 32.9871 6.52698 32.9679 6.64168L32.1989 11.227H34.9461C37.0389 11.227 38.458 11.6545 39.2845 12.5341C40.127 13.4313 40.3899 14.8661 40.066 16.7988L38.5834 25.6395C38.5526 25.8232 38.4138 25.9559 38.2521 25.9559H34.6526Z" fill="#585858"/>
<path d="M32.6372 5.78501H29.0939C28.7707 5.78501 28.493 6.05039 28.4313 6.41783L25.2448 25.4157C25.2064 25.645 25.2583 25.8821 25.3866 26.0624C25.5148 26.2426 25.7058 26.3469 25.9074 26.3469H29.4507C29.7737 26.3469 30.0516 26.0815 30.1132 25.7141L31.8323 15.4631H34.1078C35.161 15.4631 35.382 15.7238 35.3909 15.735C35.4548 15.8147 35.5389 16.1835 35.4002 17.0099L33.9906 25.4157C33.9521 25.645 34.0041 25.8821 34.1323 26.0624C34.2606 26.2426 34.4516 26.3469 34.6531 26.3469H38.2527C38.5757 26.3469 38.8536 26.0815 38.9152 25.7141L40.3977 16.8735C40.7456 14.7982 40.448 13.2415 39.5134 12.2462C38.6216 11.2972 37.1278 10.8359 34.9466 10.8359H32.6087L33.2997 6.71632C33.3381 6.48705 33.2862 6.24982 33.158 6.06968C33.0297 5.88941 32.8387 5.78501 32.6372 5.78501ZM32.6372 6.56708L31.79 11.6179H34.9466C36.9328 11.6179 38.3027 12.0197 39.0567 12.8221C39.8107 13.625 40.0366 14.926 39.7352 16.7243L38.2527 25.5649H34.6531L36.0627 17.1592C36.2231 16.203 36.1642 15.5507 35.8856 15.203C35.607 14.8552 35.0143 14.6811 34.1078 14.6811H31.2759L29.4507 25.5649H25.9074L29.0939 6.56708H32.6372Z" fill="white"/>
<path d="M45.6722 22.1759C47.0294 22.1759 48.0425 21.8859 48.6836 21.3142C49.3178 20.7485 49.7558 19.7682 49.9855 18.4006C50.1996 17.1224 50.118 16.23 49.7431 15.7483C49.3599 15.2564 48.5313 15.0069 47.2805 15.0069H45.1116L43.9093 22.1759H45.6722ZM38.5787 31.0068C38.478 31.0068 38.3824 30.9546 38.3184 30.8644C38.2543 30.7744 38.2282 30.6558 38.2474 30.5412L41.4339 11.5433C41.4648 11.3596 41.6036 11.2269 41.7653 11.2269H48.6329C50.7914 11.2269 52.3978 11.906 53.4077 13.2456C54.4229 14.592 54.7362 16.4744 54.3394 18.8401C54.1776 19.8039 53.8999 20.699 53.5135 21.5003C53.1267 22.3026 52.6154 23.0449 51.9937 23.7071C51.2495 24.5142 50.4072 25.0994 49.4925 25.4438C48.5923 25.7836 47.4361 25.9559 46.0563 25.9559H43.2753L42.4815 30.6903C42.4505 30.8741 42.3117 31.0068 42.1501 31.0068H38.5787Z" fill="#585858"/>
<path d="M45.3903 15.3979H47.2809C48.7906 15.3979 49.315 15.7818 49.4932 16.0105C49.7889 16.3904 49.8447 17.1912 49.6546 18.3263C49.4411 19.5972 49.0453 20.4983 48.4782 21.0043C47.8976 21.5223 46.9536 21.7848 45.6727 21.7848H44.3192L45.3903 15.3979ZM48.6333 10.8358H41.7656C41.4426 10.8358 41.1648 11.1012 41.1032 11.4687L37.9167 30.4666C37.8782 30.6959 37.9302 30.933 38.0583 31.1132C38.1866 31.2935 38.3776 31.3978 38.5791 31.3978H42.1506C42.4736 31.3978 42.7515 31.1324 42.8131 30.7649L43.554 26.3469H46.0567C47.472 26.3469 48.6635 26.1681 49.5977 25.8155C50.5584 25.4538 51.4426 24.8404 52.2249 23.9925C52.8719 23.3028 53.4046 22.5287 53.8085 21.6912C54.2124 20.8535 54.5026 19.9193 54.671 18.9146C55.0889 16.4244 54.7494 14.4304 53.6621 12.9882C52.5854 11.56 50.8935 10.8358 48.6333 10.8358ZM43.5004 22.5669H45.6727C47.1126 22.5669 48.1852 22.2526 48.8899 21.624C49.5949 20.9952 50.0701 19.9458 50.3171 18.4752C50.5536 17.0633 50.4459 16.067 49.9942 15.4866C49.542 14.9061 48.6377 14.6159 47.2809 14.6159H44.8339L43.5004 22.5669ZM48.6333 11.6179C50.6994 11.6179 52.2066 12.2462 53.1539 13.5028C54.1013 14.7595 54.3864 16.5135 54.0085 18.7655C53.8529 19.6932 53.5898 20.5413 53.2194 21.3097C52.8485 22.0786 52.3643 22.7817 51.7658 23.4192C51.0527 24.1926 50.2604 24.7437 49.3887 25.0719C48.5169 25.401 47.4066 25.5648 46.0567 25.5648H42.9976L42.1506 30.6157H38.5791L41.7656 11.6179H48.6333Z" fill="white"/>
</g>
</g>
<path d="M22.825 48.8H25.619C26.323 48.8 26.9133 49.0383 27.39 49.515C27.8667 49.9917 28.105 50.5783 28.105 51.275C28.105 51.9717 27.8667 52.5583 27.39 53.035C26.9133 53.5117 26.323 53.75 25.619 53.75H23.848V56.5H22.825V48.8ZM23.848 52.793H25.619C26.0517 52.793 26.4037 52.65 26.675 52.364C26.9537 52.0633 27.093 51.7003 27.093 51.275C27.093 50.835 26.9537 50.472 26.675 50.186C26.3963 49.9 26.0443 49.757 25.619 49.757H23.848V52.793ZM34.0763 52.067V48.8H35.0883V56.5H34.0763V53.035H30.3363V56.5H29.3133V48.8H30.3363V52.067H34.0763ZM36.7361 48.8H39.5301C40.2341 48.8 40.8245 49.0383 41.3011 49.515C41.7778 49.9917 42.0161 50.5783 42.0161 51.275C42.0161 51.9717 41.7778 52.5583 41.3011 53.035C40.8245 53.5117 40.2341 53.75 39.5301 53.75H37.7591V56.5H36.7361V48.8ZM37.7591 52.793H39.5301C39.9628 52.793 40.3148 52.65 40.5861 52.364C40.8648 52.0633 41.0041 51.7003 41.0041 51.275C41.0041 50.835 40.8648 50.472 40.5861 50.186C40.3075 49.9 39.9555 49.757 39.5301 49.757H37.7591V52.793Z" fill="#121212"/>
<defs>
<clipPath id="clip0_993_26406">
<rect width="64" height="40" fill="white"/>
</clipPath>
</defs>
</svg>
