<svg width="45" height="60" viewBox="0 0 45 60" fill="none" xmlns="http://www.w3.org/2000/svg">
<g clip-path="url(#clip0_993_26345)">
<g clip-path="url(#clip1_993_26345)">
<mask id="mask0_993_26345" style="mask-type:luminance" maskUnits="userSpaceOnUse" x="0" y="0" width="45" height="40">
<path d="M44.9383 0H0V40H44.9383V0Z" fill="white"/>
</mask>
<g mask="url(#mask0_993_26345)">
<path d="M36.9459 12.9515C36.4678 12.7875 35.9855 12.6356 35.4997 12.4959C35.5813 12.1626 35.6565 11.8333 35.7232 11.5098C36.818 6.19735 36.1022 1.91751 33.6577 0.508389C31.3139 -0.842486 27.4808 0.56611 23.6096 3.934C23.2281 4.26652 22.8549 4.60861 22.4907 4.95997C22.2469 4.72633 21.9988 4.49722 21.7465 4.27277C17.6892 0.671725 13.6225 -0.845996 11.1805 0.567159C8.83885 1.92225 8.14545 5.9456 9.13105 10.9803C9.2291 11.4789 9.3398 11.975 9.4631 12.468C8.88745 12.6315 8.332 12.8056 7.8004 12.9908C3.04361 14.6487 0.00585938 17.2468 0.00585938 19.9417C0.00585938 22.725 3.26703 25.5168 8.2214 27.2096C8.6231 27.3463 9.0281 27.4729 9.43605 27.5895C9.30355 28.1205 9.18595 28.6551 9.0833 29.1926C8.1437 34.1399 8.87745 38.0682 11.2128 39.4147C13.6249 40.8052 17.6734 39.3761 21.6154 35.9314C21.935 35.6513 22.2476 35.3633 22.5529 35.0677C22.9473 35.4482 23.3523 35.8175 23.7673 36.1754C27.5859 39.4599 31.3571 40.7863 33.6902 39.4361C36.1 38.0415 36.8833 33.8215 35.8664 28.6873C35.7863 28.2851 35.6964 27.8848 35.597 27.487C35.8813 27.4028 36.1604 27.3161 36.4324 27.226C41.583 25.5201 44.9342 22.7622 44.9342 19.9417C44.9342 17.237 41.7983 14.6213 36.9459 12.9515ZM35.8288 25.4049C35.5831 25.4861 35.3311 25.5646 35.0742 25.6409C34.5056 23.8414 33.7382 21.9281 32.7991 19.951C33.6952 18.0212 34.433 16.1322 34.9857 14.3445C35.4453 14.4775 35.8913 14.6177 36.3213 14.7656C40.4789 16.1964 43.0149 18.3117 43.0149 19.9417C43.0149 21.6779 40.2761 23.9317 35.8288 25.4049ZM33.9836 29.0599C34.4333 31.3302 34.4973 33.3827 34.1995 34.9875C33.932 36.4295 33.3939 37.3906 32.7284 37.7757C31.3127 38.5951 28.2847 37.5302 25.0191 34.721C24.6332 34.3883 24.2564 34.0448 23.8895 33.6912C25.1556 32.3072 26.4207 30.6982 27.6556 28.9112C29.8275 28.7185 31.8795 28.4035 33.7403 27.9735C33.8319 28.3431 33.9134 28.7056 33.9836 29.0599ZM15.3229 37.6342C13.9396 38.1225 12.8378 38.1365 12.1718 37.7526C10.7546 36.9356 10.1655 33.7813 10.9691 29.5505C11.0646 29.0506 11.174 28.5534 11.2971 28.0595C13.1374 28.4664 15.1744 28.7591 17.3515 28.9356C18.5948 30.6842 19.8965 32.2914 21.2083 33.6987C20.9296 33.9684 20.6441 34.2312 20.3524 34.4868C18.6091 36.01 16.8624 37.0907 15.3229 37.6342ZM8.84235 25.3942C6.65155 24.6456 4.84233 23.6728 3.60223 22.6112C2.4878 21.6574 1.92532 20.7101 1.92532 19.9417C1.92532 18.3063 4.36426 16.2203 8.4322 14.8026C8.9259 14.6306 9.44255 14.4684 9.9787 14.3161C10.541 16.1442 11.2785 18.0556 12.1685 19.9884C11.2669 21.9498 10.5189 23.8917 9.95115 25.7414C9.57875 25.6348 9.20905 25.5189 8.84235 25.3942ZM11.0147 10.6117C10.1704 6.2982 10.7311 3.04435 12.1423 2.22769C13.6453 1.35786 16.9689 2.59804 20.4721 5.7075C20.7006 5.91075 20.9253 6.1181 21.1462 6.32945C19.8409 7.73065 18.5511 9.32595 17.3189 11.0642C15.2058 11.2599 13.1832 11.5743 11.3236 11.9956C11.209 11.537 11.106 11.0754 11.0147 10.6117ZM30.3948 15.3956C29.9556 14.6371 29.5 13.8882 29.0285 13.1494C30.462 13.3306 31.8355 13.5712 33.1253 13.8652C32.7381 15.1059 32.2554 16.403 31.6873 17.7327C31.2721 16.9452 30.8412 16.1659 30.3948 15.3956ZM22.4916 7.70065C23.3769 8.65945 24.2634 9.7298 25.1355 10.8912C23.3665 10.8077 21.5945 10.8073 19.8254 10.8901C20.6983 9.73945 21.5925 8.6705 22.4916 7.70065ZM14.5377 15.4087C14.0969 16.1729 13.674 16.9473 13.2694 17.7312C12.7106 16.4061 12.2324 15.1031 11.8419 13.8449C13.1237 13.5582 14.4907 13.3238 15.915 13.1459C15.4383 13.8892 14.979 14.6439 14.5377 15.4087ZM15.9559 26.874C14.4844 26.7098 13.0968 26.4875 11.8153 26.2085C12.2119 24.9278 12.7008 23.5972 13.2717 22.2437C13.6779 23.0282 14.1025 23.803 14.5452 24.5675C15.0005 25.3535 15.4719 26.1233 15.9559 26.874ZM22.5446 32.3178C21.6348 31.3368 20.7275 30.2514 19.8414 29.084C20.7017 29.1177 21.5786 29.1349 22.47 29.1349C23.3858 29.1349 24.291 29.1143 25.1821 29.0747C24.3071 30.2631 23.4238 31.3501 22.5446 32.3178ZM31.7054 22.1745C32.306 23.5429 32.8121 24.8666 33.2141 26.1254C31.9114 26.4226 30.505 26.6619 29.0231 26.8396C29.4979 26.0871 29.9578 25.3252 30.4023 24.5543C30.8543 23.7708 31.2888 22.9773 31.7054 22.1745ZM28.7398 23.5958C28.0592 24.7776 27.3404 25.937 26.5844 27.0721C25.2151 27.169 23.8428 27.2172 22.47 27.2164C21.0718 27.2164 19.7119 27.173 18.4023 27.0881C17.6266 25.9556 16.8941 24.7942 16.2062 23.6063C15.5216 22.4247 14.8823 21.2176 14.2894 19.9875C14.8808 18.7571 15.5183 17.5494 16.2006 16.367C16.8826 15.1843 17.6091 14.0279 18.3789 12.9003C19.715 12.7992 21.0851 12.7466 22.4699 12.7466C23.8609 12.7466 25.233 12.7998 26.5687 12.9015C27.3307 14.0275 28.0527 15.1799 28.7335 16.3568C29.418 17.5366 30.0639 18.7385 30.6703 19.9603C30.0702 21.1947 29.4263 22.4073 28.7398 23.5958ZM32.6991 2.17049C34.2035 3.03786 34.7887 6.5356 33.8434 11.1224C33.783 11.415 33.7152 11.7131 33.6415 12.0154C31.7774 11.5852 29.7533 11.2654 27.6341 11.0666C26.3996 9.30925 25.1204 7.71155 23.8363 6.3284C24.1728 6.0041 24.5174 5.6882 24.8696 5.381C28.1866 2.49558 31.2867 1.35628 32.6991 2.17049ZM22.47 15.9312C24.6857 15.9312 26.482 17.7268 26.482 19.9417C26.482 22.1567 24.6857 23.9522 22.47 23.9522C20.2543 23.9522 18.458 22.1567 18.458 19.9417C18.458 17.7268 20.2543 15.9312 22.47 15.9312Z" fill="#585858"/>
</g>
</g>
</g>
<path d="M12.023 56.5H10.89L9.163 53.552H7.348V56.5H6.325V48.8H9.405C10.065 48.8 10.6297 49.0347 11.099 49.504C11.5683 49.966 11.803 50.527 11.803 51.187C11.803 51.6857 11.6527 52.1403 11.352 52.551C11.044 52.969 10.6627 53.2587 10.208 53.42L12.023 56.5ZM9.405 49.757H7.348V52.628H9.405C9.78633 52.628 10.109 52.4887 10.373 52.21C10.6443 51.9313 10.78 51.5903 10.78 51.187C10.78 50.7837 10.6443 50.4463 10.373 50.175C10.109 49.8963 9.78633 49.757 9.405 49.757ZM14.0726 53.09V55.532H17.6476V56.5H13.0496V48.8H17.5926V49.768H14.0726V52.133H17.3176V53.09H14.0726ZM25.1608 56.5H24.0718L23.4448 54.773H19.9798L19.3528 56.5H18.2638L21.1348 48.8H22.2898L25.1608 56.5ZM21.7068 50.021L20.3318 53.816H23.0928L21.7068 50.021ZM29.4088 56.643C28.2355 56.643 27.2712 56.258 26.5158 55.488C25.7605 54.7253 25.3828 53.7793 25.3828 52.65C25.3828 51.5207 25.7605 50.5747 26.5158 49.812C27.2712 49.042 28.2355 48.657 29.4088 48.657C30.1055 48.657 30.7508 48.8257 31.3448 49.163C31.9388 49.5003 32.4008 49.955 32.7308 50.527L31.8398 51.044C31.6198 50.6187 31.2898 50.2813 30.8498 50.032C30.4172 49.7753 29.9368 49.647 29.4088 49.647C28.5142 49.647 27.7882 49.933 27.2308 50.505C26.6735 51.0697 26.3948 51.7847 26.3948 52.65C26.3948 53.508 26.6735 54.2193 27.2308 54.784C27.7882 55.356 28.5142 55.642 29.4088 55.642C29.9368 55.642 30.4172 55.5173 30.8498 55.268C31.2898 55.0113 31.6198 54.674 31.8398 54.256L32.7308 54.762C32.4082 55.334 31.9498 55.7923 31.3558 56.137C30.7692 56.4743 30.1202 56.643 29.4088 56.643ZM33.1765 48.8H38.7315V49.768H36.4545V56.5H35.4425V49.768H33.1765V48.8Z" fill="#121212"/>
<defs>
<clipPath id="clip0_993_26345">
<rect width="45" height="40" fill="white"/>
</clipPath>
<clipPath id="clip1_993_26345">
<rect width="45" height="40" fill="white"/>
</clipPath>
</defs>
</svg>
