<svg width="40" height="60" viewBox="0 0 40 60" fill="none" xmlns="http://www.w3.org/2000/svg">
<g clip-path="url(#clip0_993_26370)">
<g clip-path="url(#clip1_993_26370)">
<g clip-path="url(#clip2_993_26370)">
<path d="M8.89102 0H31.0473C32.1254 0 33.1723 0.171875 34.1879 0.53125C35.6566 1.0625 36.9848 2 37.9848 3.21875C39.0004 4.4375 39.6723 5.9375 39.9066 7.5C40.0004 8.07812 40.016 8.65625 40.016 9.23438V30.8438C40.016 31.5312 39.9848 32.2344 39.8441 32.9062C39.5316 34.4531 38.7973 35.9062 37.7348 37.0781C36.6879 38.25 35.3129 39.125 33.8285 39.5938C32.9223 39.875 31.9848 40 31.0316 40C30.6098 40 8.82852 40 8.50039 39.9844C6.90664 39.9062 5.32852 39.3906 4.00039 38.5C2.70352 37.625 1.64102 36.4062 0.953517 35C0.359768 33.7969 0.0628926 32.4531 0.0628926 31.1094V8.89062C0.0316426 7.5625 0.312893 6.25 0.891017 5.0625C1.56289 3.65625 2.60977 2.42188 3.90664 1.54688C5.23477 0.640625 6.79727 0.109375 8.39102 0.03125C8.54727 0 8.71914 0 8.89102 0Z" fill="#9C9C9C"/>
<path d="M33.75 32.7188C33.6094 32.5 33.4531 32.2812 33.2813 32.0781C32.8906 31.6094 32.4375 31.2031 31.9375 30.8594C31.3125 30.4375 30.5781 30.1719 29.8281 30.1406C29.2969 30.1094 28.7656 30.2031 28.2656 30.3906C27.7656 30.5625 27.2813 30.8125 26.8125 31.0625C26.2656 31.3438 25.7188 31.625 25.1406 31.8594C24.4531 32.1406 23.7344 32.3594 23 32.5156C22.0781 32.6875 21.1406 32.75 20.2188 32.7344C18.5469 32.7031 16.875 32.4531 15.2813 31.9844C13.875 31.5625 12.5313 30.9844 11.2656 30.25C10.1563 29.6094 9.125 28.875 8.15625 28.0469C7.35938 27.3594 6.625 26.625 5.9375 25.8438C5.46875 25.2969 5.01563 24.7187 4.59375 24.125C4.42188 23.8906 4.26563 23.6406 4.125 23.3906L0 18.9375V8.85938C0 3.96875 3.95313 0 8.84375 0H16.7344L22.5781 5.9375C35.7656 14.9062 31.5 24.7969 31.5 24.7969C31.5 24.7969 35.25 29.0156 33.75 32.7188Z" fill="#585858"/>
<path d="M22.6094 5.9375C35.7969 14.9062 31.5313 24.7969 31.5313 24.7969C31.5313 24.7969 35.2813 29.0312 33.7656 32.7344C33.7656 32.7344 32.2188 30.1406 29.625 30.1406C27.125 30.1406 25.6562 32.7344 20.625 32.7344C9.42188 32.7344 4.125 23.375 4.125 23.375C14.2188 30.0156 21.1094 25.3125 21.1094 25.3125C16.5625 22.6719 6.89062 10.0469 6.89062 10.0469C15.3125 17.2188 18.9531 19.1094 18.9531 19.1094C16.7812 17.3125 10.6875 8.53125 10.6875 8.53125C15.5625 13.4688 25.25 20.3594 25.25 20.3594C28 12.7344 22.6094 5.9375 22.6094 5.9375Z" fill="white"/>
</g>
</g>
</g>
<path d="M7.311 56.643C6.59233 56.643 5.97633 56.478 5.463 56.148C4.957 55.8107 4.60133 55.345 4.396 54.751L5.276 54.245C5.56933 55.1763 6.255 55.642 7.333 55.642C7.85367 55.642 8.25333 55.5357 8.532 55.323C8.818 55.1103 8.961 54.8207 8.961 54.454C8.961 54.0947 8.82167 53.8197 8.543 53.629C8.29367 53.4603 7.828 53.266 7.146 53.046L6.409 52.804C6.24767 52.738 6.035 52.6427 5.771 52.518C5.51433 52.386 5.32733 52.254 5.21 52.122C4.88733 51.77 4.726 51.341 4.726 50.835C4.726 50.1603 4.96067 49.6323 5.43 49.251C5.89933 48.855 6.47133 48.657 7.146 48.657C7.74733 48.657 8.27533 48.8073 8.73 49.108C9.18467 49.4087 9.52567 49.8193 9.753 50.34L8.895 50.835C8.565 50.043 7.982 49.647 7.146 49.647C6.728 49.647 6.39067 49.7497 6.134 49.955C5.87733 50.1603 5.749 50.439 5.749 50.791C5.749 51.1283 5.87 51.385 6.112 51.561C6.36133 51.7443 6.77933 51.9277 7.366 52.111L7.817 52.254C8.06633 52.3493 8.202 52.4007 8.224 52.408C8.45867 52.496 8.71533 52.617 8.994 52.771C9.192 52.881 9.39 53.0497 9.588 53.277C9.84467 53.5337 9.973 53.9187 9.973 54.432C9.973 55.1067 9.72733 55.6457 9.236 56.049C8.73733 56.445 8.09567 56.643 7.311 56.643ZM13.8185 56.5H12.6305L10.4195 48.8H11.4975L13.2575 55.136L15.1275 48.8H16.1615L18.0315 55.136L19.7915 48.8H20.8695L18.6585 56.5H17.4705L15.6445 50.351L13.8185 56.5ZM21.9695 56.5V48.8H22.9925V56.5H21.9695ZM29.0773 48.8V49.768H25.6673V52.265H28.9343V53.233H25.6673V56.5H24.6443V48.8H29.0773ZM29.6892 48.8H35.2442V49.768H32.9672V56.5H31.9552V49.768H29.6892V48.8Z" fill="#121212"/>
<defs>
<clipPath id="clip0_993_26370">
<rect width="40" height="40" fill="white"/>
</clipPath>
<clipPath id="clip1_993_26370">
<rect width="40" height="40" fill="white"/>
</clipPath>
<clipPath id="clip2_993_26370">
<rect width="40" height="40" fill="white"/>
</clipPath>
</defs>
</svg>
