<svg width="45" height="60" viewBox="0 0 45 60" fill="none" xmlns="http://www.w3.org/2000/svg">
<path d="M2.348 48.8V55.532H5.67V56.5H1.325V48.8H2.348ZM13.0709 56.5H11.9819L11.3549 54.773H7.88994L7.26294 56.5H6.17394L9.04494 48.8H10.1999L13.0709 56.5ZM9.61694 50.021L8.24194 53.816H11.0029L9.61694 50.021ZM19.6773 56.5H18.5443L16.8173 53.552H15.0023V56.5H13.9793V48.8H17.0593C17.7193 48.8 18.284 49.0347 18.7533 49.504C19.2226 49.966 19.4573 50.527 19.4573 51.187C19.4573 51.6857 19.307 52.1403 19.0063 52.551C18.6983 52.969 18.317 53.2587 17.8623 53.42L19.6773 56.5ZM17.0593 49.757H15.0023V52.628H17.0593C17.4406 52.628 17.7633 52.4887 18.0273 52.21C18.2986 51.9313 18.4343 51.5903 18.4343 51.187C18.4343 50.7837 18.2986 50.4463 18.0273 50.175C17.7633 49.8963 17.4406 49.757 17.0593 49.757ZM26.8639 56.5H25.7749L25.1479 54.773H21.6829L21.0559 56.5H19.9669L22.8379 48.8H23.9929L26.8639 56.5ZM23.4099 50.021L22.0349 53.816H24.7959L23.4099 50.021ZM30.4998 56.5H29.3448L26.5948 48.8H27.6948L29.9278 55.224L32.1498 48.8H33.2608L30.4998 56.5ZM35.1869 53.09V55.532H38.7619V56.5H34.1639V48.8H38.7069V49.768H35.1869V52.133H38.4319V53.09H35.1869ZM41.0199 48.8V55.532H44.3419V56.5H39.9969V48.8H41.0199Z" fill="#121212"/>
<g clip-path="url(#clip0_993_26465)">
<path d="M42.4059 9.04924C42.3997 9.03108 42.3924 9.01333 42.384 8.99611C42.3728 8.96251 42.359 8.92986 42.3426 8.89846C42.3299 8.87895 42.3158 8.86041 42.3004 8.84299C42.2832 8.81735 42.2644 8.79282 42.2441 8.76955C42.2262 8.75236 42.2035 8.7383 42.184 8.72268C42.1617 8.70349 42.1382 8.68574 42.1137 8.66955L34.5934 4.33986C34.4984 4.28501 34.3906 4.25613 34.2809 4.25613C34.1712 4.25613 34.0634 4.28501 33.9684 4.33986L26.4465 8.67189C26.4224 8.68825 26.3994 8.70626 26.3777 8.7258C26.3564 8.74011 26.3361 8.75576 26.3168 8.77268C26.2963 8.79552 26.2775 8.8198 26.2606 8.84533C26.2473 8.86408 26.2301 8.88049 26.2184 8.9008C26.2026 8.93237 26.189 8.965 26.1777 8.99846C26.1715 9.01643 26.1613 9.03283 26.1559 9.05158C26.1415 9.10457 26.1342 9.15919 26.134 9.21408V17.436L19.8668 21.0446V4.95627C19.8669 4.9011 19.8596 4.84617 19.8449 4.79299C19.8402 4.77424 19.8293 4.75783 19.823 4.73986C19.8121 4.70653 19.7985 4.67413 19.7824 4.64299C19.7715 4.62267 19.7535 4.60627 19.7402 4.58674C19.7231 4.5611 19.7043 4.53657 19.684 4.5133C19.6645 4.49663 19.6442 4.48098 19.6231 4.46642C19.6012 4.44743 19.5782 4.42969 19.5543 4.4133L12.0316 0.0836121C11.9366 0.0287568 11.8289 -0.00012207 11.7191 -0.00012207C11.6094 -0.00012207 11.5017 0.0287568 11.4066 0.0836121L3.88555 4.4133C3.86113 4.42927 3.83813 4.4473 3.8168 4.46721C3.79525 4.48151 3.77464 4.49716 3.75508 4.51408C3.73487 4.53694 3.71634 4.56122 3.69961 4.58674C3.68555 4.60627 3.66836 4.62267 3.65664 4.64299C3.64063 4.67409 3.6273 4.7065 3.6168 4.73986C3.60827 4.75687 3.6007 4.77435 3.59414 4.79221C3.57977 4.84571 3.57242 4.90086 3.57227 4.95627V30.7141C3.57197 30.8241 3.60071 30.9322 3.65558 31.0276C3.71045 31.1229 3.78951 31.2021 3.88477 31.2571L18.9238 39.9164C18.9573 39.9333 18.992 39.9474 19.0277 39.9586C19.0441 39.9649 19.0598 39.9742 19.077 39.9789C19.1819 40.007 19.2923 40.007 19.3973 39.9789C19.4129 39.975 19.4262 39.9664 19.4402 39.9617C19.478 39.9499 19.5146 39.9347 19.5496 39.9164L34.5934 31.2571C34.6886 31.2021 34.7677 31.1229 34.8226 31.0276C34.8774 30.9322 34.9062 30.8241 34.9059 30.7141V22.4906L42.1121 18.3414C42.208 18.2861 42.2874 18.2063 42.3423 18.1102C42.3972 18.0142 42.4256 17.9052 42.4246 17.7946V9.21252C42.425 9.15753 42.4188 9.1027 42.4059 9.04924ZM11.7184 1.35002L17.9832 4.95549L11.7176 8.5633L5.45352 4.95627L11.7184 1.35002ZM18.6129 6.03752V21.7656L14.9777 23.8586L12.3457 25.3742V9.64846L15.9809 7.55549L18.6129 6.03752ZM18.6129 38.286L4.82539 30.3516V6.04064L7.45742 7.55471L11.0918 9.64846V26.4594C11.0934 26.483 11.0965 26.5065 11.1012 26.5297C11.103 26.5607 11.1072 26.5915 11.1137 26.6219C11.1216 26.6461 11.1315 26.6696 11.1434 26.6922C11.1521 26.7191 11.163 26.7453 11.1762 26.7703C11.1906 26.7915 11.2063 26.8119 11.2231 26.8313C11.2387 26.8543 11.2559 26.8763 11.2746 26.8969C11.2926 26.9141 11.3152 26.9266 11.3348 26.9422C11.3561 26.9607 11.3785 26.978 11.402 26.9938L18.6043 31.0703L18.6129 38.286ZM19.2379 29.9914L12.9832 26.4508L19.5527 22.6688L26.7606 18.5196L33.0207 22.1235L28.427 24.7453L19.2379 29.9914ZM33.6535 30.3485L19.8652 38.2899V31.0781L30.0777 25.25L33.6535 23.2071V30.3485ZM33.6535 21.0414L31.0215 19.5313L27.3863 17.4383V10.2961L30.0184 11.8117L33.6535 13.9063V21.0414ZM34.2785 12.8164L28.0129 9.20939L34.2785 5.60314L40.5426 9.20861L34.2785 12.8164ZM34.9035 21.0414V13.9063L38.5465 11.8117L41.1777 10.2961V17.436L34.9035 21.0414Z" fill="#585858"/>
</g>
<defs>
<clipPath id="clip0_993_26465">
<rect width="40" height="40" fill="white" transform="translate(3)"/>
</clipPath>
</defs>
</svg>
