<svg width="72" height="60" viewBox="0 0 72 60" fill="none" xmlns="http://www.w3.org/2000/svg">
<g clip-path="url(#clip0_993_26359)">
<g clip-path="url(#clip1_993_26359)">
<mask id="mask0_993_26359" style="mask-type:luminance" maskUnits="userSpaceOnUse" x="13" y="0" width="46" height="40">
<path d="M58.1428 0H13V40H58.1428V0Z" fill="white"/>
</mask>
<g mask="url(#mask0_993_26359)">
<path d="M50.114 12.9515C49.6337 12.7875 49.1493 12.6356 48.6613 12.4959C48.7433 12.1626 48.8188 11.8333 48.8858 11.5098C49.9855 6.19735 49.2666 1.91751 46.8109 0.508389C44.4564 -0.842486 40.6058 0.56611 36.717 3.934C36.3337 4.26652 35.959 4.60861 35.5931 4.95997C35.3481 4.72633 35.0989 4.49722 34.8454 4.27277C30.7697 0.671725 26.6845 -0.845996 24.2314 0.567159C21.879 1.92225 21.1825 5.9456 22.1726 10.9803C22.2711 11.4789 22.3823 11.975 22.5061 12.468C21.9279 12.6315 21.3699 12.8056 20.8359 12.9908C16.0574 14.6487 13.0059 17.2468 13.0059 19.9417C13.0059 22.725 16.2819 25.5168 21.2588 27.2096C21.6623 27.3463 22.0692 27.4729 22.479 27.5895C22.3459 28.1205 22.2277 28.6551 22.1246 29.1926C21.1807 34.1399 21.9178 38.0682 24.2639 39.4147C26.6869 40.8052 30.7538 39.3761 34.7137 35.9314C35.0348 35.6513 35.3488 35.3633 35.6555 35.0677C36.0517 35.4482 36.4586 35.8175 36.8755 36.1754C40.7114 39.4599 44.4998 40.7863 46.8435 39.4361C49.2643 38.0415 50.0511 33.8215 49.0296 28.6873C48.9492 28.2851 48.8589 27.8848 48.759 27.487C49.0446 27.4028 49.3249 27.3161 49.5982 27.226C54.7723 25.5201 58.1387 22.7622 58.1387 19.9417C58.1387 17.237 54.9886 14.6213 50.114 12.9515ZM48.9919 25.4049C48.7451 25.4861 48.4919 25.5646 48.2338 25.6409C47.6626 23.8414 46.8918 21.9281 45.9484 19.951C46.8486 18.0212 47.5898 16.1322 48.145 14.3445C48.6067 14.4775 49.0547 14.6177 49.4866 14.7656C53.6631 16.1964 56.2107 18.3117 56.2107 19.9417C56.2107 21.6779 53.4593 23.9317 48.9919 25.4049ZM47.1383 29.0599C47.59 31.3302 47.6543 33.3827 47.3551 34.9875C47.0864 36.4295 46.5459 37.3906 45.8774 37.7757C44.4552 38.5951 41.4135 37.5302 38.133 34.721C37.7452 34.3883 37.3668 34.0448 36.9982 33.6912C38.27 32.3072 39.541 30.6982 40.7814 28.9112C42.9633 28.7185 45.0246 28.4035 46.8939 27.9735C46.986 28.3431 47.0678 28.7056 47.1383 29.0599ZM28.3926 37.6342C27.003 38.1225 25.8962 38.1365 25.2272 37.7526C23.8035 36.9356 23.2117 33.7813 24.019 29.5505C24.1149 29.0506 24.2248 28.5534 24.3485 28.0595C26.1972 28.4664 28.2435 28.7591 30.4305 28.9356C31.6794 30.6842 32.987 32.2914 34.3049 33.6987C34.0248 33.9684 33.7381 34.2312 33.445 34.4868C31.6938 36.01 29.9391 37.0907 28.3926 37.6342ZM21.8826 25.3942C19.6818 24.6456 17.8643 23.6728 16.6186 22.6112C15.4991 21.6574 14.9341 20.7101 14.9341 19.9417C14.9341 18.3063 17.3841 16.2203 21.4705 14.8026C21.9665 14.6306 22.4855 14.4684 23.0241 14.3161C23.589 16.1442 24.3298 18.0556 25.2238 19.9884C24.3182 21.9498 23.5668 23.8917 22.9964 25.7414C22.6223 25.6348 22.2509 25.5189 21.8826 25.3942ZM24.0648 10.6117C23.2166 6.2982 23.7799 3.04435 25.1975 2.22769C26.7074 1.35786 30.0461 2.59804 33.5653 5.7075C33.7948 5.91075 34.0205 6.1181 34.2424 6.32945C32.9311 7.73065 31.6355 9.32595 30.3977 11.0642C28.275 11.2599 26.2432 11.5743 24.3751 11.9956C24.26 11.537 24.1565 11.0754 24.0648 10.6117ZM43.5331 15.3956C43.0919 14.6371 42.6343 13.8882 42.1606 13.1494C43.6006 13.3306 44.9804 13.5712 46.276 13.8652C45.8871 15.1059 45.4023 16.403 44.8316 17.7327C44.4144 16.9452 43.9815 16.1659 43.5331 15.3956ZM35.594 7.70065C36.4832 8.65945 37.3739 9.7298 38.2499 10.8912C36.4728 10.8077 34.6927 10.8073 32.9156 10.8901C33.7925 9.73945 34.6908 8.6705 35.594 7.70065ZM27.6039 15.4087C27.1611 16.1729 26.7362 16.9473 26.3297 17.7312C25.7684 16.4061 25.288 15.1031 24.8957 13.8449C26.1834 13.5582 27.5566 13.3238 28.9875 13.1459C28.5085 13.8892 28.0472 14.6439 27.6039 15.4087ZM29.0285 26.874C27.5503 26.7098 26.1564 26.4875 24.8691 26.2085C25.2675 24.9278 25.7585 23.5972 26.332 22.2437C26.7401 23.0282 27.1667 23.803 27.6114 24.5675C28.0688 25.3535 28.5423 26.1233 29.0285 26.874ZM35.6472 32.3178C34.7333 31.3368 33.8218 30.2514 32.9317 29.084C33.7959 29.1177 34.6768 29.1349 35.5723 29.1349C36.4922 29.1349 37.4016 29.1143 38.2966 29.0747C37.4178 30.2631 36.5305 31.3501 35.6472 32.3178ZM44.8497 22.1745C45.453 23.5429 45.9615 24.8666 46.3652 26.1254C45.0567 26.4226 43.6438 26.6619 42.1552 26.8396C42.6322 26.0871 43.0941 25.3252 43.5407 24.5543C43.9947 23.7708 44.4312 22.9773 44.8497 22.1745ZM41.8706 23.5958C41.1869 24.7776 40.4648 25.937 39.7055 27.0721C38.3299 27.169 36.9513 27.2172 35.5723 27.2164C34.1677 27.2164 32.8015 27.173 31.486 27.0881C30.7068 25.9556 29.9709 24.7942 29.2799 23.6063C28.5922 22.4247 27.95 21.2176 27.3544 19.9875C27.9485 18.7571 28.5889 17.5494 29.2743 16.367C29.9594 15.1843 30.6892 14.0279 31.4625 12.9003C32.8047 12.7992 34.1811 12.7466 35.5721 12.7466C36.9695 12.7466 38.3478 12.7998 39.6896 12.9015C40.4551 14.0275 41.1804 15.1799 41.8643 16.3568C42.5519 17.5366 43.2008 18.7385 43.8099 19.9603C43.207 21.1947 42.5602 22.4073 41.8706 23.5958ZM45.8479 2.17049C47.3592 3.03786 47.947 6.5356 46.9974 11.1224C46.9368 11.415 46.8687 11.7131 46.7947 12.0154C44.922 11.5852 42.8887 11.2654 40.7599 11.0666C39.5198 9.30925 38.2348 7.71155 36.9448 6.3284C37.2829 6.0041 37.629 5.6882 37.9828 5.381C41.3149 2.49558 44.4291 1.35628 45.8479 2.17049ZM35.5723 15.9312C37.7981 15.9312 39.6025 17.7268 39.6025 19.9417C39.6025 22.1567 37.7981 23.9522 35.5723 23.9522C33.3465 23.9522 31.5421 22.1567 31.5421 19.9417C31.5421 17.7268 33.3465 15.9312 35.5723 15.9312Z" fill="#585858"/>
</g>
</g>
</g>
<path d="M6.523 56.5H5.39L3.663 53.552H1.848V56.5H0.825V48.8H3.905C4.565 48.8 5.12967 49.0347 5.599 49.504C6.06833 49.966 6.303 50.527 6.303 51.187C6.303 51.6857 6.15267 52.1403 5.852 52.551C5.544 52.969 5.16267 53.2587 4.708 53.42L6.523 56.5ZM3.905 49.757H1.848V52.628H3.905C4.28633 52.628 4.609 52.4887 4.873 52.21C5.14433 51.9313 5.28 51.5903 5.28 51.187C5.28 50.7837 5.14433 50.4463 4.873 50.175C4.609 49.8963 4.28633 49.757 3.905 49.757ZM8.57261 53.09V55.532H12.1476V56.5H7.54961V48.8H12.0926V49.768H8.57261V52.133H11.8176V53.09H8.57261ZM19.6608 56.5H18.5718L17.9448 54.773H14.4798L13.8528 56.5H12.7638L15.6348 48.8H16.7898L19.6608 56.5ZM16.2068 50.021L14.8318 53.816H17.5928L16.2068 50.021ZM23.9088 56.643C22.7355 56.643 21.7712 56.258 21.0158 55.488C20.2605 54.7253 19.8828 53.7793 19.8828 52.65C19.8828 51.5207 20.2605 50.5747 21.0158 49.812C21.7712 49.042 22.7355 48.657 23.9088 48.657C24.6055 48.657 25.2508 48.8257 25.8448 49.163C26.4388 49.5003 26.9008 49.955 27.2308 50.527L26.3398 51.044C26.1198 50.6187 25.7898 50.2813 25.3498 50.032C24.9172 49.7753 24.4368 49.647 23.9088 49.647C23.0142 49.647 22.2882 49.933 21.7308 50.505C21.1735 51.0697 20.8948 51.7847 20.8948 52.65C20.8948 53.508 21.1735 54.2193 21.7308 54.784C22.2882 55.356 23.0142 55.642 23.9088 55.642C24.4368 55.642 24.9172 55.5173 25.3498 55.268C25.7898 55.0113 26.1198 54.674 26.3398 54.256L27.2308 54.762C26.9082 55.334 26.4498 55.7923 25.8558 56.137C25.2692 56.4743 24.6202 56.643 23.9088 56.643ZM27.6765 48.8H33.2315V49.768H30.9545V56.5H29.9425V49.768H27.6765V48.8ZM41.7789 54.542V48.8H42.8019V56.5H41.9769L38.0169 50.747V56.5H36.9939V48.8H37.8189L41.7789 54.542ZM50.609 56.5H49.52L48.893 54.773H45.428L44.801 56.5H43.712L46.583 48.8H47.738L50.609 56.5ZM47.155 50.021L45.78 53.816H48.541L47.155 50.021ZM50.3318 48.8H55.8868V49.768H53.6098V56.5H52.5978V49.768H50.3318V48.8ZM56.8992 56.5V48.8H57.9222V56.5H56.8992ZM62.742 56.5H61.587L58.837 48.8H59.937L62.17 55.224L64.392 48.8H65.503L62.742 56.5ZM67.4291 53.09V55.532H71.0041V56.5H66.4061V48.8H70.9491V49.768H67.4291V52.133H70.6741V53.09H67.4291Z" fill="#121212"/>
<defs>
<clipPath id="clip0_993_26359">
<rect width="45.5" height="40" fill="white" transform="translate(13)"/>
</clipPath>
<clipPath id="clip1_993_26359">
<rect width="45.5" height="40" fill="white" transform="translate(13)"/>
</clipPath>
</defs>
</svg>
