<svg width="42" height="77" viewBox="0 0 42 77" fill="none" xmlns="http://www.w3.org/2000/svg">
<g clip-path="url(#clip0_1134_9110)">
<g clip-path="url(#clip1_1134_9110)">
<mask id="mask0_1134_9110" style="mask-type:luminance" maskUnits="userSpaceOnUse" x="0" y="1" width="42" height="50">
<path d="M42 1H0V51H42V1Z" fill="white"/>
</mask>
<g mask="url(#mask0_1134_9110)">
<path d="M41.9277 0.720032L38.1149 45.6835L20.9759 50.6852L3.8841 45.6904L0.0751953 0.720032H41.9277Z" fill="#585858"/>
<path d="M21.001 46.8631L34.8502 42.8214L38.1083 4.39801H21.001V46.8631Z" fill="#9C9C9C"/>
<path d="M13.5889 15.4285H21.0009V9.91309H7.86279L7.98813 11.3928L9.27597 26.5918H21.0009V21.0764H14.0678L13.5889 15.4285Z" fill="#EBEBEB"/>
<path d="M14.7709 29.3492H9.51123L10.2452 38.0092L20.978 41.1454L21.0021 41.1386V35.4001L20.9792 35.4066L15.144 33.7479L14.7709 29.3492Z" fill="#EBEBEB"/>
<path d="M20.9825 26.5919H27.4344L26.8261 33.745L20.9824 35.4053V41.1433L31.7237 38.0098L31.8024 37.0779L33.0338 22.5575L33.1616 21.0764H20.9825V26.5919Z" fill="white"/>
<path d="M20.9834 15.4151V15.4285H33.6392L33.7442 14.1889L33.9831 11.3928L34.1083 9.91309H20.9834V15.4151Z" fill="white"/>
</g>
</g>
</g>
<path d="M10.112 67.358V63.2H11.4V73H10.112V68.59H5.352V73H4.05V63.2H5.352V67.358H10.112ZM12.6993 63.2H19.7693V64.432H16.8713V73H15.5833V64.432H12.6993V63.2ZM28.7578 63.2H30.2278V73H28.9398V65.342L25.7338 70.676H25.5658L22.3598 65.356V73H21.0578V63.2H22.5278L25.6498 68.38L28.7578 63.2ZM33.6254 63.2V71.768H37.8534V73H32.3234V63.2H33.6254Z" fill="#121212"/>
<defs>
<clipPath id="clip0_1134_9110">
<rect width="42" height="50" fill="white"/>
</clipPath>
<clipPath id="clip1_1134_9110">
<rect width="42" height="50" fill="white" transform="translate(0 1)"/>
</clipPath>
</defs>
</svg>
