<svg width="60" height="77" viewBox="0 0 60 77" fill="none" xmlns="http://www.w3.org/2000/svg">
<path fill-rule="evenodd" clip-rule="evenodd" d="M20.9244 45.1554L11.4253 6.70007L49.5048 17.6634L20.9244 45.1554Z" stroke="black" stroke-width="1.83115" stroke-miterlimit="10" stroke-linejoin="round"/>
<path fill-rule="evenodd" clip-rule="evenodd" d="M30.4578 12.1829L35.204 31.4163L16.1748 25.9328L30.4578 12.1829Z" stroke="black" stroke-width="1.83115" stroke-miterlimit="10" stroke-linejoin="round"/>
<path fill-rule="evenodd" clip-rule="evenodd" d="M25.7363 28.5411L23.3789 18.9866L32.8329 21.7005L25.7363 28.5411Z" stroke="black" stroke-width="1.83115" stroke-miterlimit="10" stroke-linejoin="round"/>
<path fill-rule="evenodd" clip-rule="evenodd" d="M21.0215 9.44403L23.3788 18.9985L13.9248 16.2846L21.0215 9.44403Z" stroke="black" stroke-width="1.83115" stroke-miterlimit="10" stroke-linejoin="round"/>
<path fill-rule="evenodd" clip-rule="evenodd" d="M39.9282 14.8906L42.2856 24.4451L32.8315 21.7312L39.9282 14.8906Z" stroke="black" stroke-width="1.83115" stroke-miterlimit="10" stroke-linejoin="round"/>
<path fill-rule="evenodd" clip-rule="evenodd" d="M25.7378 28.548L28.0951 38.1025L18.6411 35.3886L25.7378 28.548Z" stroke="black" stroke-width="1.83115" stroke-miterlimit="10" stroke-linejoin="round"/>
<path d="M0.252 63.2H7.322V64.432H4.424V73H3.136V64.432H0.252V63.2ZM14.6725 67.358V63.2H15.9605V73H14.6725V68.59H9.91255V73H8.61055V63.2H9.91255V67.358H14.6725ZM25.3098 73H23.8678L21.6698 69.248H19.3598V73H18.0578V63.2H21.9778C22.8178 63.2 23.5365 63.4987 24.1338 64.096C24.7311 64.684 25.0298 65.398 25.0298 66.238C25.0298 66.8727 24.8385 67.4513 24.4558 67.974C24.0638 68.506 23.5785 68.8747 22.9998 69.08L25.3098 73ZM21.9778 64.418H19.3598V68.072H21.9778C22.4631 68.072 22.8738 67.8947 23.2098 67.54C23.5551 67.1853 23.7278 66.7513 23.7278 66.238C23.7278 65.7247 23.5551 65.2953 23.2098 64.95C22.8738 64.5953 22.4631 64.418 21.9778 64.418ZM27.9184 68.66V71.768H32.4684V73H26.6164V63.2H32.3984V64.432H27.9184V67.442H32.0484V68.66H27.9184ZM35.3422 68.66V71.768H39.8922V73H34.0402V63.2H39.8222V64.432H35.3422V67.442H39.4722V68.66H35.3422ZM42.1081 73.154C41.8561 73.154 41.6414 73.0653 41.4641 72.888C41.2867 72.7107 41.1981 72.496 41.1981 72.244C41.1981 71.992 41.2867 71.7773 41.4641 71.6C41.6414 71.4227 41.8561 71.334 42.1081 71.334C42.3694 71.334 42.5841 71.4227 42.7521 71.6C42.9294 71.7773 43.0181 71.992 43.0181 72.244C43.0181 72.496 42.9294 72.7107 42.7521 72.888C42.5841 73.0653 42.3694 73.154 42.1081 73.154ZM47.5667 73.182C46.8481 73.182 46.2181 73.0327 45.6768 72.734C45.1448 72.426 44.7528 71.992 44.5008 71.432L45.6068 70.788C45.9054 71.5347 46.5588 71.908 47.5667 71.908C48.2014 71.908 48.6914 71.7587 49.0368 71.46C49.3914 71.152 49.5688 70.7087 49.5688 70.13V63.2H50.8568V70.13C50.8568 71.11 50.5441 71.866 49.9188 72.398C49.2934 72.9207 48.5094 73.182 47.5667 73.182ZM55.9894 73.182C55.0747 73.182 54.2907 72.972 53.6374 72.552C52.9934 72.1227 52.5407 71.53 52.2794 70.774L53.3994 70.13C53.7727 71.3153 54.6454 71.908 56.0174 71.908C56.6801 71.908 57.1887 71.7727 57.5434 71.502C57.9074 71.2313 58.0894 70.8627 58.0894 70.396C58.0894 69.9387 57.9121 69.5887 57.5574 69.346C57.2401 69.1313 56.6474 68.884 55.7794 68.604L54.8414 68.296C54.6361 68.212 54.3654 68.0907 54.0294 67.932C53.7027 67.764 53.4647 67.596 53.3154 67.428C52.9047 66.98 52.6994 66.434 52.6994 65.79C52.6994 64.9313 52.9981 64.2593 53.5954 63.774C54.1927 63.27 54.9207 63.018 55.7794 63.018C56.5447 63.018 57.2167 63.2093 57.7954 63.592C58.3741 63.9747 58.8081 64.4973 59.0974 65.16L58.0054 65.79C57.5854 64.782 56.8434 64.278 55.7794 64.278C55.2474 64.278 54.8181 64.4087 54.4914 64.67C54.1647 64.9313 54.0014 65.286 54.0014 65.734C54.0014 66.1633 54.1554 66.49 54.4634 66.714C54.7807 66.9473 55.3127 67.1807 56.0594 67.414L56.6334 67.596C56.9507 67.7173 57.1234 67.7827 57.1514 67.792C57.4501 67.904 57.7767 68.058 58.1314 68.254C58.3834 68.394 58.6354 68.6087 58.8874 68.898C59.2141 69.2247 59.3774 69.7147 59.3774 70.368C59.3774 71.2267 59.0647 71.9127 58.4394 72.426C57.8047 72.93 56.9881 73.182 55.9894 73.182Z" fill="#121212"/>
</svg>
