<svg width="79" height="76" viewBox="0 0 79 76" fill="none" xmlns="http://www.w3.org/2000/svg">
<g clip-path="url(#clip0_1134_9103)">
<path d="M15 0.999573H63.831V49.8307H15V0.999573Z" fill="#9C9C9C"/>
<path d="M27.839 41.8063L31.5757 39.5448C32.2968 40.8229 32.9526 41.9045 34.5257 41.9045C36.0335 41.9045 36.9844 41.3147 36.9844 39.0204V23.4177H41.5731V39.0853C41.5731 43.8381 38.7871 46.0015 34.7223 46.0015C31.0514 46.0015 28.9207 44.1008 27.839 41.8063Z" fill="#585858"/>
<path d="M44.0667 41.3147L47.803 39.1514C48.7867 40.7577 50.065 41.9377 52.3265 41.9377C54.228 41.9377 55.4404 40.987 55.4404 39.6758C55.4404 38.1026 54.1949 37.5451 52.097 36.6277L50.9501 36.1356C47.6393 34.7265 45.4433 32.9564 45.4433 29.2197C45.4433 25.7778 48.0654 23.1555 52.1628 23.1555C55.0801 23.1555 57.178 24.1717 58.6856 26.8267L55.1125 29.1214C54.3257 27.712 53.4738 27.1548 52.1627 27.1548C50.8186 27.1548 49.9664 28.0071 49.9664 29.1214C49.9664 30.498 50.8186 31.0556 52.7852 31.9078L53.9324 32.3994C57.8332 34.0713 60.0292 35.7756 60.0292 39.6104C60.0292 43.7408 56.7843 46.0023 52.4248 46.0023C48.1636 46.0023 45.4105 43.9699 44.0667 41.3147Z" fill="#585858"/>
</g>
<path d="M3.598 73.182C2.87933 73.182 2.24933 73.0327 1.708 72.734C1.176 72.426 0.784 71.992 0.532 71.432L1.638 70.788C1.93667 71.5347 2.59 71.908 3.598 71.908C4.23267 71.908 4.72267 71.7587 5.068 71.46C5.42267 71.152 5.6 70.7087 5.6 70.13V63.2H6.888V70.13C6.888 71.11 6.57533 71.866 5.95 72.398C5.32467 72.9207 4.54067 73.182 3.598 73.182ZM16.4232 73H15.0372L14.2392 70.802H9.8292L9.0312 73H7.6452L11.2992 63.2H12.7692L16.4232 73ZM12.0272 64.754L10.2772 69.584H13.7912L12.0272 64.754ZM21.0508 73H19.5808L16.0808 63.2H17.4808L20.3228 71.376L23.1508 63.2H24.5648L21.0508 73ZM32.9935 73H31.6075L30.8095 70.802H26.3995L25.6015 73H24.2155L27.8695 63.2H29.3395L32.9935 73ZM28.5975 64.754L26.8475 69.584H30.3615L28.5975 64.754ZM37.0538 73.182C36.1392 73.182 35.3552 72.972 34.7018 72.552C34.0578 72.1227 33.6052 71.53 33.3438 70.774L34.4638 70.13C34.8372 71.3153 35.7098 71.908 37.0818 71.908C37.7445 71.908 38.2532 71.7727 38.6078 71.502C38.9718 71.2313 39.1538 70.8627 39.1538 70.396C39.1538 69.9387 38.9765 69.5887 38.6218 69.346C38.3045 69.1313 37.7118 68.884 36.8438 68.604L35.9058 68.296C35.7005 68.212 35.4298 68.0907 35.0938 67.932C34.7672 67.764 34.5292 67.596 34.3798 67.428C33.9692 66.98 33.7638 66.434 33.7638 65.79C33.7638 64.9313 34.0625 64.2593 34.6598 63.774C35.2572 63.27 35.9852 63.018 36.8438 63.018C37.6092 63.018 38.2812 63.2093 38.8598 63.592C39.4385 63.9747 39.8725 64.4973 40.1618 65.16L39.0698 65.79C38.6498 64.782 37.9078 64.278 36.8438 64.278C36.3118 64.278 35.8825 64.4087 35.5558 64.67C35.2292 64.9313 35.0658 65.286 35.0658 65.734C35.0658 66.1633 35.2198 66.49 35.5278 66.714C35.8452 66.9473 36.3772 67.1807 37.1238 67.414L37.6978 67.596C38.0152 67.7173 38.1878 67.7827 38.2158 67.792C38.5145 67.904 38.8412 68.058 39.1958 68.254C39.4478 68.394 39.6998 68.6087 39.9518 68.898C40.2785 69.2247 40.4418 69.7147 40.4418 70.368C40.4418 71.2267 40.1292 71.9127 39.5038 72.426C38.8692 72.93 38.0525 73.182 37.0538 73.182ZM46.5212 73.182C45.0279 73.182 43.8006 72.692 42.8392 71.712C41.8779 70.7413 41.3972 69.5373 41.3972 68.1C41.3972 66.6627 41.8779 65.4587 42.8392 64.488C43.8006 63.508 45.0279 63.018 46.5212 63.018C47.4079 63.018 48.2292 63.2327 48.9852 63.662C49.7412 64.0913 50.3292 64.67 50.7492 65.398L49.6152 66.056C49.3352 65.5147 48.9152 65.0853 48.3552 64.768C47.8046 64.4413 47.1932 64.278 46.5212 64.278C45.3826 64.278 44.4586 64.642 43.7492 65.37C43.0399 66.0887 42.6852 66.9987 42.6852 68.1C42.6852 69.192 43.0399 70.0973 43.7492 70.816C44.4586 71.544 45.3826 71.908 46.5212 71.908C47.1932 71.908 47.8046 71.7493 48.3552 71.432C48.9152 71.1053 49.3352 70.676 49.6152 70.144L50.7492 70.788C50.3386 71.516 49.7552 72.0993 48.9992 72.538C48.2526 72.9673 47.4266 73.182 46.5212 73.182ZM59.4758 73H58.0338L55.8358 69.248H53.5258V73H52.2238V63.2H56.1438C56.9838 63.2 57.7025 63.4987 58.2998 64.096C58.8972 64.684 59.1958 65.398 59.1958 66.238C59.1958 66.8727 59.0045 67.4513 58.6218 67.974C58.2298 68.506 57.7445 68.8747 57.1658 69.08L59.4758 73ZM56.1438 64.418H53.5258V68.072H56.1438C56.6292 68.072 57.0398 67.8947 57.3758 67.54C57.7212 67.1853 57.8938 66.7513 57.8938 66.238C57.8938 65.7247 57.7212 65.2953 57.3758 64.95C57.0398 64.5953 56.6292 64.418 56.1438 64.418ZM60.7824 73V63.2H62.0844V73H60.7824ZM64.1867 63.2H67.7427C68.6387 63.2 69.3901 63.5033 69.9967 64.11C70.6034 64.7167 70.9067 65.4633 70.9067 66.35C70.9067 67.2367 70.6034 67.9833 69.9967 68.59C69.3901 69.1967 68.6387 69.5 67.7427 69.5H65.4887V73H64.1867V63.2ZM65.4887 68.282H67.7427C68.2934 68.282 68.7414 68.1 69.0867 67.736C69.4414 67.3533 69.6187 66.8913 69.6187 66.35C69.6187 65.79 69.4414 65.328 69.0867 64.964C68.7321 64.6 68.2841 64.418 67.7427 64.418H65.4887V68.282ZM71.4004 63.2H78.4704V64.432H75.5724V73H74.2844V64.432H71.4004V63.2Z" fill="#121212"/>
<defs>
<clipPath id="clip0_1134_9103">
<rect width="48.831" height="48.8312" fill="white" transform="translate(15.0005 0.999878)"/>
</clipPath>
</defs>
</svg>
