<svg width="42" height="76" viewBox="0 0 42 76" fill="none" xmlns="http://www.w3.org/2000/svg">
<g clip-path="url(#clip0_1134_9124)">
<g clip-path="url(#clip1_1134_9124)">
<path d="M20.9744 50.6396L3.88263 45.6987L0.0737305 1.21307H41.9262L38.1133 45.6919L20.9744 50.6396Z" fill="#585858"/>
<path d="M34.8496 42.8603L38.1078 4.85107H21.0005V46.8584L34.8496 42.8603Z" fill="#9C9C9C"/>
<path d="M8.80566 21.3499L9.27516 26.8059H21.0001V21.3499H8.80566Z" fill="#EBEBEB"/>
<path d="M7.8623 10.3076L8.33858 15.7636H21.0004V10.3076H7.8623Z" fill="#EBEBEB"/>
<path d="M20.9991 35.5206L20.9762 35.527L15.141 33.8862L14.7679 29.5349H9.5083L10.2423 38.1016L20.975 41.204L20.9991 41.1972V35.5206Z" fill="#EBEBEB"/>
<path d="M33.1607 21.3505L34.1064 10.3075H20.9816V15.7634H28.3644L27.8877 21.3505H20.9816V26.8064H27.4334L26.8251 33.8825L20.9814 35.5249V41.2011L31.7227 38.1012L31.8014 37.1794L33.0329 22.8156L33.1607 21.3505Z" fill="white"/>
</g>
</g>
<path d="M12.656 73.182C11.1627 73.182 9.93533 72.692 8.974 71.712C8.01267 70.7413 7.532 69.5373 7.532 68.1C7.532 66.6627 8.01267 65.4587 8.974 64.488C9.93533 63.508 11.1627 63.018 12.656 63.018C13.5427 63.018 14.364 63.2327 15.12 63.662C15.876 64.0913 16.464 64.67 16.884 65.398L15.75 66.056C15.47 65.5147 15.05 65.0853 14.49 64.768C13.9393 64.4413 13.328 64.278 12.656 64.278C11.5173 64.278 10.5933 64.642 9.884 65.37C9.17467 66.0887 8.82 66.9987 8.82 68.1C8.82 69.192 9.17467 70.0973 9.884 70.816C10.5933 71.544 11.5173 71.908 12.656 71.908C13.328 71.908 13.9393 71.7493 14.49 71.432C15.05 71.1053 15.47 70.676 15.75 70.144L16.884 70.788C16.4733 71.516 15.89 72.0993 15.134 72.538C14.3873 72.9673 13.5613 73.182 12.656 73.182ZM21.5226 73.182C20.6079 73.182 19.8239 72.972 19.1706 72.552C18.5266 72.1227 18.0739 71.53 17.8126 70.774L18.9326 70.13C19.3059 71.3153 20.1786 71.908 21.5506 71.908C22.2133 71.908 22.7219 71.7727 23.0766 71.502C23.4406 71.2313 23.6226 70.8627 23.6226 70.396C23.6226 69.9387 23.4453 69.5887 23.0906 69.346C22.7733 69.1313 22.1806 68.884 21.3126 68.604L20.3746 68.296C20.1693 68.212 19.8986 68.0907 19.5626 67.932C19.2359 67.764 18.9979 67.596 18.8486 67.428C18.4379 66.98 18.2326 66.434 18.2326 65.79C18.2326 64.9313 18.5313 64.2593 19.1286 63.774C19.7259 63.27 20.4539 63.018 21.3126 63.018C22.0779 63.018 22.7499 63.2093 23.3286 63.592C23.9073 63.9747 24.3413 64.4973 24.6306 65.16L23.5386 65.79C23.1186 64.782 22.3766 64.278 21.3126 64.278C20.7806 64.278 20.3513 64.4087 20.0246 64.67C19.6979 64.9313 19.5346 65.286 19.5346 65.734C19.5346 66.1633 19.6886 66.49 19.9966 66.714C20.3139 66.9473 20.8459 67.1807 21.5926 67.414L22.1666 67.596C22.4839 67.7173 22.6566 67.7827 22.6846 67.792C22.9833 67.904 23.3099 68.058 23.6646 68.254C23.9166 68.394 24.1686 68.6087 24.4206 68.898C24.7473 69.2247 24.9106 69.7147 24.9106 70.368C24.9106 71.2267 24.5979 71.9127 23.9726 72.426C23.3379 72.93 22.5213 73.182 21.5226 73.182ZM29.2745 73.182C28.3599 73.182 27.5759 72.972 26.9225 72.552C26.2785 72.1227 25.8259 71.53 25.5645 70.774L26.6845 70.13C27.0579 71.3153 27.9305 71.908 29.3025 71.908C29.9652 71.908 30.4739 71.7727 30.8285 71.502C31.1925 71.2313 31.3745 70.8627 31.3745 70.396C31.3745 69.9387 31.1972 69.5887 30.8425 69.346C30.5252 69.1313 29.9325 68.884 29.0645 68.604L28.1265 68.296C27.9212 68.212 27.6505 68.0907 27.3145 67.932C26.9879 67.764 26.7499 67.596 26.6005 67.428C26.1899 66.98 25.9845 66.434 25.9845 65.79C25.9845 64.9313 26.2832 64.2593 26.8805 63.774C27.4779 63.27 28.2059 63.018 29.0645 63.018C29.8299 63.018 30.5019 63.2093 31.0805 63.592C31.6592 63.9747 32.0932 64.4973 32.3825 65.16L31.2905 65.79C30.8705 64.782 30.1285 64.278 29.0645 64.278C28.5325 64.278 28.1032 64.4087 27.7765 64.67C27.4499 64.9313 27.2865 65.286 27.2865 65.734C27.2865 66.1633 27.4405 66.49 27.7485 66.714C28.0659 66.9473 28.5979 67.1807 29.3445 67.414L29.9185 67.596C30.2359 67.7173 30.4085 67.7827 30.4365 67.792C30.7352 67.904 31.0619 68.058 31.4165 68.254C31.6685 68.394 31.9205 68.6087 32.1725 68.898C32.4992 69.2247 32.6625 69.7147 32.6625 70.368C32.6625 71.2267 32.3499 71.9127 31.7245 72.426C31.0899 72.93 30.2732 73.182 29.2745 73.182Z" fill="#121212"/>
<defs>
<clipPath id="clip0_1134_9124">
<rect width="42" height="50" fill="white"/>
</clipPath>
<clipPath id="clip1_1134_9124">
<rect width="42" height="50" fill="white" transform="translate(0 1)"/>
</clipPath>
</defs>
</svg>
