<svg width="57" height="77" viewBox="0 0 57 77" fill="none" xmlns="http://www.w3.org/2000/svg">
<path d="M6 38.414L14.1194 32.5241C18.4331 37.8554 23.0162 40.3127 28.1176 40.3127C33.1918 40.3127 37.6454 37.8844 41.7647 32.5951L50 38.343C44.0563 45.9701 36.6701 50.0001 28.1176 50.0001C19.5925 50.0001 12.1347 45.996 6 38.414Z" fill="url(#paint0_linear_1151_11034)"/>
<path d="M28.0901 12.8131L13.6383 24.6058L6.95801 17.2693L28.1208 0L49.1166 17.2822L42.4056 24.5929L28.0901 12.8131Z" fill="url(#paint1_linear_1151_11034)"/>
<path d="M5.65602 73.1788C4.16268 73.1788 2.93534 72.6888 1.97401 71.7088C1.01267 70.7382 0.532002 69.5341 0.532002 68.0968C0.532002 66.6595 1.01267 65.4555 1.97401 64.4848C2.93534 63.5048 4.16268 63.0148 5.65602 63.0148C6.54269 63.0148 7.36403 63.2295 8.12003 63.6588C8.87603 64.0881 9.46404 64.6668 9.88404 65.3948L8.75003 66.0528C8.47003 65.5115 8.05003 65.0821 7.49003 64.7648C6.93936 64.4381 6.32802 64.2748 5.65602 64.2748C4.51735 64.2748 3.59335 64.6388 2.88401 65.3668C2.17467 66.0855 1.82001 66.9955 1.82001 68.0968C1.82001 69.1888 2.17467 70.0941 2.88401 70.8128C3.59335 71.5408 4.51735 71.9048 5.65602 71.9048C6.32802 71.9048 6.93936 71.7462 7.49003 71.4288C8.05003 71.1022 8.47003 70.6728 8.75003 70.1408L9.88404 70.7848C9.47337 71.5128 8.89003 72.0962 8.13403 72.5348C7.38736 72.9642 6.56136 73.1788 5.65602 73.1788ZM12.6606 63.1968V71.7648H16.8887V72.9968H11.3586V63.1968H12.6606ZM18.1946 72.9968V63.1968H19.4966V72.9968H18.1946ZM26.2049 73.1788C24.7116 73.1788 23.4842 72.6888 22.5229 71.7088C21.5616 70.7382 21.0809 69.5341 21.0809 68.0968C21.0809 66.6595 21.5616 65.4555 22.5229 64.4848C23.4842 63.5048 24.7116 63.0148 26.2049 63.0148C27.0916 63.0148 27.9129 63.2295 28.6689 63.6588C29.4249 64.0881 30.0129 64.6668 30.4329 65.3948L29.2989 66.0528C29.0189 65.5115 28.5989 65.0821 28.0389 64.7648C27.4883 64.4381 26.8769 64.2748 26.2049 64.2748C25.0663 64.2748 24.1423 64.6388 23.4329 65.3668C22.7236 66.0855 22.3689 66.9955 22.3689 68.0968C22.3689 69.1888 22.7236 70.0941 23.4329 70.8128C24.1423 71.5408 25.0663 71.9048 26.2049 71.9048C26.8769 71.9048 27.4883 71.7462 28.0389 71.4288C28.5989 71.1022 29.0189 70.6728 29.2989 70.1408L30.4329 70.7848C30.0223 71.5128 29.4389 72.0962 28.6829 72.5348C27.9363 72.9642 27.1103 73.1788 26.2049 73.1788ZM34.5676 67.9568L39.0336 72.9968H37.4376L33.2095 68.2928V72.9968H31.9075V63.1968H33.2095V67.6208L37.2976 63.1968H38.8936L34.5676 67.9568ZM39.6292 69.7068V63.1968H40.9312V69.6508C40.9312 70.3508 41.1366 70.9015 41.5472 71.3028C41.9672 71.7042 42.5552 71.9048 43.3112 71.9048C44.0672 71.9048 44.6506 71.7042 45.0612 71.3028C45.4812 70.9015 45.6912 70.3508 45.6912 69.6508V63.1968H46.9793V69.7068C46.9793 70.7708 46.6386 71.6155 45.9573 72.2408C45.2759 72.8662 44.3939 73.1788 43.3112 73.1788C42.2192 73.1788 41.3326 72.8662 40.6512 72.2408C39.9699 71.6155 39.6292 70.7708 39.6292 69.7068ZM48.9701 63.1968H52.5261C53.4221 63.1968 54.1735 63.5001 54.7801 64.1068C55.3868 64.7135 55.6901 65.4601 55.6901 66.3468C55.6901 67.2335 55.3868 67.9801 54.7801 68.5868C54.1735 69.1935 53.4221 69.4968 52.5261 69.4968H50.2721V72.9968H48.9701V63.1968ZM50.2721 68.2788H52.5261C53.0768 68.2788 53.5248 68.0968 53.8701 67.7328C54.2248 67.3501 54.4021 66.8881 54.4021 66.3468C54.4021 65.7868 54.2248 65.3248 53.8701 64.9608C53.5155 64.5968 53.0675 64.4148 52.5261 64.4148H50.2721V68.2788Z" fill="#121212"/>
<defs>
<linearGradient id="paint0_linear_1151_11034" x1="6" y1="1221.06" x2="50" y2="1221.06" gradientUnits="userSpaceOnUse">
<stop/>
<stop offset="1" stop-color="#D9D9D9"/>
</linearGradient>
<linearGradient id="paint1_linear_1151_11034" x1="6.95801" y1="1673.44" x2="49.1166" y2="1673.44" gradientUnits="userSpaceOnUse">
<stop stop-color="#9C9C9C"/>
<stop offset="1" stop-color="#D9D9D9"/>
</linearGradient>
</defs>
</svg>
