<svg width="50" height="77" viewBox="0 0 50 77" fill="none" xmlns="http://www.w3.org/2000/svg">
<path d="M9.69203 63.2V64.432H5.35201V67.61H9.51002V68.842H5.35201V73H4.05V63.2H9.69203ZM11.2688 73V63.2H12.5708V73H11.2688ZM19.2231 68.142H24.1231V68.73C24.1231 70.0087 23.6845 71.0727 22.8071 71.922C21.9298 72.762 20.7678 73.182 19.3211 73.182C17.8278 73.182 16.5911 72.692 15.6111 71.712C14.6404 70.7133 14.1551 69.5093 14.1551 68.1C14.1551 66.6906 14.6404 65.4913 15.6111 64.502C16.5911 63.5126 17.8184 63.018 19.2931 63.018C20.1891 63.018 21.0198 63.2373 21.7851 63.676C22.5598 64.1146 23.1431 64.684 23.5351 65.384L22.4151 66.042C22.1351 65.51 21.7105 65.0853 21.1411 64.768C20.5718 64.4413 19.9511 64.278 19.2791 64.278C18.1498 64.278 17.2304 64.6466 16.5211 65.384C15.8024 66.1213 15.4431 67.0266 15.4431 68.1C15.4431 69.1733 15.8024 70.0787 16.5211 70.816C17.2491 71.544 18.1871 71.908 19.3351 71.908C20.2964 71.908 21.0804 71.6747 21.6871 71.208C22.3031 70.732 22.6811 70.102 22.8211 69.318H19.2231V68.142ZM33.4064 63.2H34.8764V73H33.5884V65.342L30.3824 70.676H30.2144L27.0083 65.356V73H25.7063V63.2H27.1763L30.2984 68.38L33.4064 63.2ZM44.812 73H43.426L42.628 70.802H38.218L37.42 73H36.034L39.688 63.2H41.158L44.812 73ZM40.416 64.754L38.666 69.584H42.18L40.416 64.754Z" fill="#121212"/>
<path d="M18.0553 45.8356C21.8886 45.8356 24.9997 42.7245 24.9997 38.8912V31.9467H18.0553C14.222 31.9467 11.1108 35.0578 11.1108 38.8912C11.1108 42.7245 14.222 45.8356 18.0553 45.8356Z" fill="#9C9C9C"/>
<path d="M11.1108 25.0023C11.1108 21.169 14.222 18.0579 18.0553 18.0579H24.9997V31.9468H18.0553C14.222 31.9468 11.1108 28.8356 11.1108 25.0023Z" fill="#585858"/>
<path d="M11.1108 11.1135C11.1108 7.28012 14.222 4.16901 18.0553 4.16901H24.9997V18.0579H18.0553C14.222 18.0579 11.1108 14.9468 11.1108 11.1135Z" fill="#121212"/>
<path d="M25 4.16895H31.9444C35.7778 4.16895 38.8889 7.28006 38.8889 11.1134C38.8889 14.9467 35.7778 18.0578 31.9444 18.0578H25V4.16895Z" fill="#585858"/>
<path d="M38.8889 25.0022C38.8889 28.8355 35.7778 31.9466 31.9444 31.9466C28.1111 31.9466 25 28.8355 25 25.0022C25 21.1689 28.1111 18.0577 31.9444 18.0577C35.7778 18.0577 38.8889 21.1689 38.8889 25.0022Z" fill="#121212"/>
</svg>
