<svg width="650" height="220" viewBox="0 0 650 220" fill="none" xmlns="http://www.w3.org/2000/svg">
<path d="M156.8 215H5V171.2L73.4 97.1L78.5 91.4C82.3 87.6 85.1 84.6 86.9 82.4C90.5 78.2 92.3 74.2 92.3 70.4C92.3 66.8 91.1 63.9 88.7 61.7C86.3 59.5 82.8 58.4 78.2 58.4C67 58.4 58.7 65.5 53.3 79.7L0.5 50.9C7.5 34.5 17.7 22 31.1 13.4C44.7 4.59999 60.1 0.199994 77.3 0.199994C97.7 0.199994 115.3 6.1 130.1 17.9C144.9 29.7 152.3 45.8 152.3 66.2C152.3 79 149.5 90 143.9 99.2C138.5 108.4 129.9 119.7 118.1 133.1L96.8 156.8H156.8V215ZM322.205 190.1C306.805 209.9 285.005 219.8 256.805 219.8C228.605 219.8 206.805 209.9 191.405 190.1C176.005 169.9 168.305 143.2 168.305 110C168.305 76.8 176.005 50.2 191.405 30.2C206.605 10.2 228.405 0.199994 256.805 0.199994C285.205 0.199994 307.005 10.2 322.205 30.2C337.605 50.2 345.305 76.8 345.305 110C345.305 143.2 337.605 169.9 322.205 190.1ZM256.805 58.4C237.805 58.4 228.305 75.6 228.305 110C228.305 144.4 237.805 161.6 256.805 161.6C275.805 161.6 285.305 144.4 285.305 110C285.305 75.6 275.805 58.4 256.805 58.4ZM349.34 26.3L408.44 4.99999H459.44V215H399.44V67.7L363.14 76.4L349.34 26.3ZM628.367 130.4H649.367V184.4H628.367V215H569.567V184.4H481.367V130.4L539.267 4.99999H607.367L548.567 130.4H569.567V101H628.367V130.4Z" fill="url(#paint0_linear_812_4578)" fill-opacity="0.1"/>
<defs>
<linearGradient id="paint0_linear_812_4578" x1="636.704" y1="177" x2="-77.9814" y2="-6.60579" gradientUnits="userSpaceOnUse">
<stop offset="0.0364583" stop-color="#00E0FF"/>
<stop offset="1" stop-color="#0075FF"/>
</linearGradient>
</defs>
</svg>
