<svg width="1920" height="1202" viewBox="0 0 1920 1202" fill="none" xmlns="http://www.w3.org/2000/svg">
<rect width="1920" height="1202" fill="#121212"/>
<g opacity="0.2" clip-path="url(#clip0_812_4953)">
<path d="M1920 0H0V1202H1920V0Z" fill="url(#paint0_radial_812_4953)"/>
<mask id="mask0_812_4953" style="mask-type:luminance" maskUnits="userSpaceOnUse" x="0" y="0" width="1920" height="1202">
<path d="M1920 0H0V1202H1920V0Z" fill="white"/>
</mask>
<g mask="url(#mask0_812_4953)">
<path d="M2201.73 235.097C2211.92 311.472 2155.87 384.481 2085.56 424.049C2015.25 463.616 1932.43 477.244 1852.29 493.38C1772.14 509.516 1689.59 530.322 1627.4 580.463C1503.98 679.969 1492.41 867.704 1363.05 960.331C1289.04 1013.33 1189.8 1024.12 1096.95 1018.03C1004.1 1011.95 912.676 991.03 819.643 988.39C726.61 985.751 627.341 1004.37 560.522 1065.21C507.343 1113.63 481.459 1182.14 439.252 1239.3C365.519 1339.17 238.083 1402.04 108.682 1402.41C102.208 1402.43 87.4086 1406.39 80.96 1406.95" stroke="#121212" stroke-width="0.5105" stroke-miterlimit="10"/>
<path d="M2190.34 206.922C2203.49 283.518 2148.27 359.763 2077.67 401.256C2012.77 439.543 1936.85 455.313 1862.35 471.328C1855.17 472.874 1847.99 474.425 1840.84 476.004C1771.76 491.183 1701.04 510.218 1643.35 548.86C1633.34 555.521 1623.74 562.76 1614.6 570.635C1548 627.992 1514.36 711.613 1472.85 787.853C1437.84 851.713 1398.53 909.121 1336.74 947.859C1330.6 951.717 1324.32 955.326 1317.9 958.703C1243.51 998.011 1149.13 1006.46 1064.17 1005.26C973.491 1003.98 887.944 989.296 797.419 990.359C784.732 990.474 771.873 990.972 758.92 991.825C680.486 996.994 600.077 1016.3 541.77 1064.51C506.737 1093.6 482.483 1130.61 457.866 1167.72C444.667 1187.63 431.36 1207.6 416.269 1226.38C340.101 1321.18 216.44 1383.7 96.9266 1393.13C90.9285 1393.6 77.2889 1397.89 71.3804 1398.95" stroke="#121212" stroke-width="0.7069" stroke-miterlimit="10"/>
<path d="M2178.95 178.747C2195.06 255.564 2140.67 335.046 2069.79 378.462C2004.12 418.94 1926.82 435.97 1851.25 453.486C1843.95 455.181 1836.66 456.887 1829.38 458.628C1759.46 475.247 1688.1 496.337 1630.27 537.758C1620.35 544.864 1610.83 552.511 1601.78 560.808C1535.93 621.232 1502.9 708.036 1457.73 783.36C1419.55 847.009 1375.21 900.002 1310.41 935.389C1303.99 938.913 1297.44 942.205 1290.77 945.279C1213.63 981.092 1115.87 989.205 1031.39 992.489C942.945 995.929 863.219 987.796 775.186 992.33C762.9 992.963 750.392 993.876 737.71 995.057C661.647 1002.15 582.1 1019.56 523.013 1063.8C487.542 1090.36 462.146 1124.36 436.475 1158.67C422.651 1177.14 408.758 1195.8 393.283 1213.45C314.642 1303.18 194.516 1365.44 85.1686 1383.85C79.6287 1384.78 67.1667 1389.38 61.7983 1390.94" stroke="#121212" stroke-width="0.9033" stroke-miterlimit="10"/>
<path d="M2167.57 150.574C2186.63 227.613 2133.08 310.33 2061.9 355.672C1995.46 398.343 1916.8 416.632 1840.15 435.646C1832.74 437.487 1825.33 439.35 1817.93 441.254C1747.17 459.315 1675.09 482.363 1617.2 526.659C1607.35 534.195 1597.91 542.268 1588.97 550.982C1523.86 614.474 1491.3 704.394 1442.6 778.867C1401.15 842.253 1351.9 890.884 1284.09 922.917C1277.39 926.107 1270.56 929.081 1263.63 931.855C1183.75 964.172 1082.66 971.865 998.612 979.716C912.448 987.763 838.502 986.157 752.955 994.299C741.071 995.431 728.914 996.773 716.503 998.287C642.813 1007.27 564.196 1022.88 504.256 1063.09C468.393 1087.16 441.794 1118.11 415.081 1149.61C400.624 1166.66 386.145 1183.99 370.293 1200.53C289.136 1285.19 172.29 1347.4 73.4077 1374.56C68.3082 1375.97 57.0417 1380.86 52.2109 1382.94" stroke="#121212" stroke-width="1.0996" stroke-miterlimit="10"/>
<path d="M2156.18 122.4C2178.2 199.659 2125.37 285.463 2054.01 332.877C1986.7 377.599 1906.77 397.292 1829.05 417.801C1821.52 419.791 1814 421.808 1806.48 423.873C1734.87 443.375 1662.08 468.364 1604.13 515.552C1594.36 523.514 1585 532.015 1576.17 541.152C1511.79 607.71 1479.68 700.74 1427.48 774.372C1382.73 837.486 1328.6 881.761 1257.77 910.443C1250.79 913.301 1243.68 915.938 1236.5 918.427C1153.8 947.07 1049.49 954.426 965.837 966.937C881.989 979.476 813.798 984.491 730.729 996.261C719.247 997.888 707.441 999.66 695.301 1001.51C623.99 1012.37 546.312 1026.19 485.504 1062.38C449.254 1083.95 421.43 1111.85 393.695 1140.55C378.596 1156.17 363.53 1172.18 347.313 1187.59C263.598 1267.17 149.814 1329.73 61.6575 1365.27C56.983 1367.16 46.9273 1372.35 42.6367 1374.93" stroke="#121212" stroke-width="1.296" stroke-miterlimit="10"/>
<path d="M2144.79 94.2249C2169.77 171.706 2117.76 260.733 2046.12 310.085C1978.03 356.987 1896.74 377.952 1817.95 399.961C1810.31 402.1 1802.66 404.271 1795.03 406.5C1722.57 427.443 1649.05 454.359 1591.06 504.453C1581.35 512.838 1572.09 521.769 1563.35 531.327C1499.72 600.952 1468.03 697.078 1412.35 769.881C1364.29 832.717 1305.28 872.645 1231.45 897.976C1224.18 900.5 1216.81 902.817 1209.36 905.008C1123.93 930.137 1016.34 936.889 933.053 954.169C851.535 971.081 789.092 982.813 708.495 998.237C697.418 1000.36 685.962 1002.56 674.091 1004.74C605.161 1017.45 528.432 1029.53 466.744 1061.68C430.118 1080.76 401.037 1105.61 372.298 1131.5C356.546 1145.69 340.894 1160.37 324.321 1174.67C238 1249.14 127.191 1312.58 49.8941 1355.99C45.6317 1358.39 36.8023 1363.84 33.0493 1366.93" stroke="#121212" stroke-width="1.4923" stroke-miterlimit="10"/>
<path d="M2133.41 66.0498C2161.34 143.754 2110.16 236.013 2038.23 287.29C1969.37 336.382 1886.72 358.609 1806.85 382.116C1799.09 384.404 1791.33 386.731 1783.57 389.119C1710.27 411.502 1636.01 440.331 1577.98 493.346C1568.34 502.155 1559.17 511.518 1550.54 521.495C1487.65 594.187 1456.36 693.4 1397.22 765.383C1345.83 827.93 1281.97 863.521 1205.12 885.499C1197.57 887.689 1189.93 889.689 1182.23 891.579C1094.06 913.203 983.183 919.229 900.272 941.392C821.079 962.559 764.388 981.104 686.264 1000.2C675.592 1002.81 664.484 1005.44 652.884 1007.97C586.335 1022.49 510.569 1032.88 447.987 1060.97C410.99 1077.57 380.628 1099.34 350.907 1122.44C334.492 1135.2 318.259 1148.55 301.332 1161.74C212.367 1231.07 104.65 1296.04 38.1336 1346.7C34.2834 1349.64 26.6776 1355.32 23.4648 1358.92" stroke="#121212" stroke-width="1.6887" stroke-miterlimit="10"/>
<path d="M2122.02 37.8774C2152.91 115.803 2102.56 211.304 2030.34 264.5C1960.71 315.787 1876.69 339.272 1795.75 364.276C1787.88 366.711 1780 369.194 1772.12 371.745C1697.98 395.571 1622.96 426.304 1564.91 482.245C1555.34 491.474 1546.26 501.27 1537.73 511.67C1475.58 587.427 1444.68 689.717 1382.1 760.892C1327.36 823.139 1258.66 854.403 1178.81 873.029C1170.97 874.885 1163.06 876.568 1155.1 878.155C1064.19 896.283 950.003 901.461 867.497 928.617C790.602 953.926 739.686 979.373 664.038 1002.17C653.768 1005.26 643.011 1008.31 631.68 1011.19C567.503 1027.51 492.718 1036.23 429.235 1060.26C391.875 1074.39 360.207 1093.06 329.518 1113.38C312.43 1124.69 295.616 1136.72 278.349 1148.81C186.696 1212.97 82.4345 1280.04 26.3782 1337.41C22.958 1340.92 16.558 1346.81 13.8828 1350.91" stroke="#121212" stroke-width="1.8851" stroke-miterlimit="10"/>
<path d="M2110.63 9.70264C2144.48 87.8495 2094.97 186.599 2022.45 241.708C1952.06 295.197 1866.66 319.934 1784.65 346.436C1776.67 349.02 1768.67 351.657 1760.67 354.371C1685.68 379.637 1609.89 412.264 1551.83 471.146C1542.32 480.793 1533.35 491.027 1524.92 501.845C1463.51 580.669 1432.98 686.02 1366.97 756.399C1308.87 818.336 1235.35 845.285 1152.48 860.56C1144.37 862.084 1136.18 863.447 1127.96 864.733C1034.32 879.381 916.767 883.583 834.714 915.847C760.069 945.2 714.97 977.618 641.805 1004.14C631.939 1007.72 621.53 1011.19 610.47 1014.43C548.662 1032.51 474.87 1039.62 410.475 1059.55C372.756 1071.23 339.763 1086.76 308.124 1104.33C290.355 1114.19 272.96 1124.9 255.36 1135.89C160.983 1194.83 60.7155 1264.39 14.6201 1328.14C11.6608 1332.23 6.43582 1338.31 4.30078 1342.91" stroke="#121212" stroke-width="2.0814" stroke-miterlimit="10"/>
<path d="M2099.25 -18.4724C2136.05 59.8956 2087.49 162.025 2014.56 218.913C1943.53 274.734 1856.64 300.591 1773.55 328.591C1765.45 331.324 1757.34 334.115 1749.22 336.99C1673.38 363.696 1596.82 398.213 1538.76 460.039C1529.31 470.102 1520.44 480.774 1512.11 492.012C1451.44 573.904 1421.27 682.301 1351.84 751.901C1290.37 813.514 1212.04 836.162 1126.16 848.083C1117.76 849.273 1109.31 850.336 1100.82 851.304C1004.48 862.644 883.459 865.594 801.933 903.07C729.477 936.377 690.24 975.832 619.571 1006.11C610.104 1010.16 600.046 1014.06 589.261 1017.65C529.807 1037.47 457.027 1043.01 391.716 1058.84C353.641 1068.07 319.306 1080.44 286.73 1095.27C268.273 1103.67 250.299 1113.05 232.371 1122.96C135.24 1176.64 39.5547 1248.82 2.85967 1318.85C0.402068 1323.54 -3.68625 1329.79 -5.28369 1334.9" stroke="#121212" stroke-width="2.2778" stroke-miterlimit="10"/>
<path d="M2087.86 -46.6448C2127.62 31.9444 2079.9 137.309 2006.67 196.123C1934.87 254.136 1846.61 281.254 1762.45 310.751C1754.24 313.633 1746 316.578 1737.77 319.617C1661.08 347.765 1583.73 384.159 1525.69 448.94C1516.3 459.419 1507.52 470.528 1499.3 482.19C1439.37 567.149 1409.56 678.58 1336.71 747.413C1271.87 808.689 1188.73 827.046 1099.84 835.616C1091.16 836.472 1082.43 837.215 1073.69 837.883C974.605 845.727 850.071 847.518 769.157 890.3C698.813 927.492 665.498 974.026 597.345 1008.08C588.275 1012.61 578.568 1016.93 568.059 1020.89C510.945 1042.4 439.189 1046.43 372.964 1058.14C334.531 1064.93 298.854 1074.1 265.342 1086.22C246.193 1093.14 227.64 1101.2 209.388 1110.04C109.481 1158.39 18.8801 1233.12 -8.89592 1309.57C-10.8159 1314.86 -13.806 1321.28 -14.8633 1326.9" stroke="#121212" stroke-width="2.4741" stroke-miterlimit="10"/>
<path d="M2076.47 -74.8196C2119.18 3.99315 2072.3 112.591 1998.78 173.328C1926.22 233.532 1836.58 261.913 1751.35 292.908C1743.02 295.94 1734.67 299.041 1726.31 302.241C1648.79 331.829 1570.51 370.007 1512.61 437.838C1503.26 448.719 1494.61 460.28 1486.48 472.362C1427.3 560.387 1397.69 674.702 1321.58 742.92C1253.23 803.725 1165.42 817.927 1073.52 823.144C1064.55 823.666 1055.55 824.091 1046.55 824.459C944.722 828.808 816.571 829.363 736.374 877.525C668.063 918.549 640.722 972.194 575.112 1010.04C566.438 1015.05 557.076 1019.78 546.849 1024.11C492.057 1047.3 421.34 1049.87 354.204 1057.43C315.412 1061.79 278.397 1067.73 243.947 1077.16C224.11 1082.58 204.974 1089.34 186.399 1097.11C83.7042 1140.06 -1.44909 1217.14 -20.6568 1300.28C-22.011 1306.15 -23.931 1312.77 -24.4507 1318.89" stroke="#121212" stroke-width="2.6705" stroke-miterlimit="10"/>
<path d="M2065.09 -102.995C2110.75 -23.9607 2064.7 87.8734 1990.9 150.536C1917.57 212.932 1826.56 242.573 1740.25 275.066C1731.81 278.244 1723.34 281.501 1714.86 284.862C1636.49 315.893 1557.46 355.984 1499.54 426.734C1490.25 438.035 1481.69 450.031 1473.67 462.532C1415.23 553.624 1386.02 671.009 1306.46 738.425C1234.77 798.924 1142.11 808.806 1047.2 810.672C1037.95 810.859 1028.68 810.968 1019.42 811.035C914.847 811.888 782.969 811.148 703.596 864.752C637.228 909.575 615.923 970.348 552.883 1012.01C544.599 1017.49 535.588 1022.64 525.645 1027.34C473.147 1052.19 403.495 1053.43 335.452 1056.72C296.3 1058.73 257.959 1061.34 222.559 1068.1C202.038 1072.03 182.316 1077.47 163.413 1084.18C57.9304 1121.68 -21.573 1200.86 -32.412 1291C-33.1851 1297.43 -34.0504 1304.26 -34.0299 1310.89" stroke="#121212" stroke-width="2.8668" stroke-miterlimit="10"/>
<path d="M2053.7 -131.169C2102.32 -51.9144 2057.11 63.1555 1983.01 127.744C1908.91 192.332 1816.53 223.233 1729.15 257.223C1641.77 291.213 1550.7 333.969 1486.47 415.63C1410.05 512.788 1385.75 658.174 1291.33 733.929C1209.01 799.984 1099.6 800.248 992.284 797.606C884.969 794.964 749.253 792.885 670.817 851.975C597.875 906.926 587.96 986.558 504.44 1030.57C425.403 1072.22 300.938 1047.74 201.167 1059.04C52.0755 1075.92 -53.3837 1178.43 -43.6122 1302.88" stroke="#121212" stroke-width="3.0632" stroke-miterlimit="10"/>
<path d="M2053.7 -131.169C2102.32 -51.9144 2056.96 62.8887 1982.64 127.092C1908.33 191.296 1815.65 221.658 1727.92 255.019C1640.18 288.381 1548.67 330.348 1483.95 411.135C1406.95 507.251 1381.9 651.301 1286.81 725.857C1203.9 790.863 1093.81 789.914 985.84 786.094C877.867 782.274 741.348 778.761 662.41 836.955C589.002 891.074 578.718 970.048 494.789 1013.33C415.362 1054.28 290.393 1028.91 190.336 1039.69C40.8138 1055.81 -64.8579 1157.93 -55.0838 1282.38" stroke="#121212" stroke-width="2.8668" stroke-miterlimit="10"/>
<path d="M2053.7 -131.169C2102.32 -51.9144 2056.81 62.6218 1982.28 126.443C1907.75 190.265 1814.77 220.084 1726.68 252.819C1638.6 285.554 1546.65 326.735 1481.44 406.646C1403.85 501.72 1378.06 644.438 1282.3 717.791C1198.8 781.752 1088.03 779.586 979.402 774.588C870.771 769.593 733.448 764.645 654.011 821.944C580.137 875.232 569.485 953.547 485.146 996.093C405.333 1036.35 279.857 1010.08 179.512 1020.35C29.5605 1035.69 -76.3211 1137.44 -66.5496 1261.89" stroke="#121212" stroke-width="2.6705" stroke-miterlimit="10"/>
<path d="M2053.7 -131.169C2102.32 -51.9144 2056.66 62.3574 1981.92 125.794C1907.17 189.231 1813.89 218.512 1725.45 250.617C1637.01 282.722 1544.62 323.117 1478.92 402.153C1400.76 496.186 1374.22 637.567 1277.79 709.721C1193.7 772.636 1082.25 769.254 972.961 763.08C863.67 756.907 725.545 750.524 645.609 806.931C571.269 859.387 560.248 937.043 475.5 978.858C395.3 1018.43 269.32 991.251 168.686 1001C18.304 1015.58 -87.7901 1116.95 -78.0186 1241.4" stroke="#121212" stroke-width="2.4741" stroke-miterlimit="10"/>
<path d="M2053.7 -131.169C2102.32 -51.9144 2056.51 62.0905 1981.55 125.145C1906.6 188.2 1813.01 216.937 1724.22 248.417C1635.43 279.895 1542.6 319.504 1476.41 397.662C1397.66 490.652 1370.37 630.699 1273.27 701.655C1188.6 763.525 1076.47 758.924 966.518 751.574C856.568 744.225 717.64 736.408 637.202 791.918C562.396 843.542 551.009 920.54 465.848 961.622C385.26 1000.5 258.775 972.418 157.855 981.659C7.04267 995.467 -99.2639 1096.45 -89.4924 1220.9" stroke="#121212" stroke-width="2.2778" stroke-miterlimit="10"/>
<path d="M2053.7 -131.169C2102.32 -51.9144 2056.36 61.8237 1981.19 124.496C1906.02 187.168 1812.13 215.365 1722.99 246.215C1633.85 277.066 1540.58 315.886 1473.89 393.169C1394.56 485.115 1366.53 623.831 1268.75 693.585C1183.5 754.406 1070.68 748.591 960.077 740.064C849.47 731.537 709.737 722.284 628.798 776.903C553.528 827.695 541.77 904.034 456.2 944.385C375.224 982.568 248.233 953.587 147.026 962.314C-4.21621 975.353 -110.735 1075.96 -100.964 1200.41" stroke="#121212" stroke-width="2.0814" stroke-miterlimit="10"/>
<path d="M2053.7 -131.169C2102.32 -51.9144 2056.21 61.5569 1980.83 123.847C1905.44 186.135 1811.25 213.79 1721.76 244.013C1632.26 274.236 1538.55 312.268 1471.38 388.676C1391.46 479.581 1362.68 616.96 1264.24 685.515C1178.4 745.291 1064.9 738.256 953.636 728.554C842.371 718.851 701.834 708.163 620.395 761.885C544.66 811.845 532.534 887.526 446.554 927.143C365.189 964.634 237.696 934.752 136.2 942.962C-15.4727 955.232 -122.204 1055.46 -112.433 1179.91" stroke="#121212" stroke-width="1.8851" stroke-miterlimit="10"/>
<path d="M2053.7 -131.169C2102.32 -51.9144 2056.06 61.2924 1980.46 123.195C1904.86 185.101 1810.37 212.216 1720.52 241.811C1630.68 271.407 1536.53 308.652 1468.86 384.183C1388.36 474.045 1358.84 610.09 1259.72 677.445C1173.29 736.175 1059.12 727.924 947.192 717.043C835.267 706.163 693.929 694.04 611.988 746.87C535.787 795.998 523.292 871.02 436.905 909.907C355.154 946.705 227.154 915.922 125.371 923.617C-26.7316 935.118 -133.676 1034.97 -123.904 1159.42" stroke="#121212" stroke-width="1.6887" stroke-miterlimit="10"/>
<path d="M2053.7 -131.169C2102.32 -51.9144 2055.91 61.0256 1980.1 122.546C1904.28 184.067 1809.48 210.643 1719.29 239.609C1629.1 268.577 1534.5 305.034 1466.35 379.69C1385.26 468.511 1354.99 603.221 1255.2 669.375C1168.19 727.059 1053.34 717.592 940.751 705.533C828.168 693.477 686.026 679.919 603.587 731.855C526.92 780.151 514.056 854.514 427.259 892.67C345.119 928.776 216.614 897.089 114.545 904.272C-37.9878 915.006 -145.144 1014.48 -135.37 1138.93" stroke="#121212" stroke-width="1.4923" stroke-miterlimit="10"/>
<path d="M2053.7 -131.169C2102.32 -51.9144 2055.76 60.7587 1979.73 121.897C1903.71 183.036 1808.6 209.069 1718.06 237.407C1627.51 265.745 1532.48 301.418 1463.84 375.197C1382.17 462.974 1351.15 596.351 1250.69 661.307C1163.09 717.945 1047.55 707.259 934.31 694.028C821.068 680.794 678.123 665.8 595.182 716.842C518.049 764.309 504.816 838.013 417.61 875.433C335.083 910.847 206.075 878.258 103.716 884.924C-49.247 894.889 -156.613 993.984 -146.842 1118.43" stroke="#121212" stroke-width="1.296" stroke-miterlimit="10"/>
<path d="M2053.7 -131.169C2102.32 -51.9144 2055.62 60.4943 1979.37 121.248C1903.13 182.002 1807.72 207.496 1716.83 235.207C1625.93 262.918 1530.46 297.803 1461.32 370.706C1379.07 457.443 1347.3 589.482 1246.17 653.239C1157.99 708.829 1041.77 696.929 927.87 682.52C813.97 668.11 670.221 651.681 586.78 701.828C509.184 748.464 495.583 821.509 407.964 858.199C325.051 892.92 195.535 859.43 92.8897 865.582C-60.5029 874.777 -168.082 973.495 -158.31 1097.94" stroke="#121212" stroke-width="1.0996" stroke-miterlimit="10"/>
<path d="M2053.7 -131.169C2102.32 -51.9144 2055.46 60.2274 1979.01 120.599C1902.55 180.971 1806.84 205.922 1715.59 233.005C1624.35 260.089 1528.43 294.187 1458.81 366.213C1375.97 451.906 1343.46 582.614 1241.65 645.169C1152.89 699.713 1035.99 686.597 921.429 671.009C806.869 655.422 662.318 637.558 578.378 686.811C500.316 732.614 486.346 805.001 398.318 840.96C315.016 874.989 184.999 840.595 82.0609 846.234C-71.7643 854.66 -179.553 952.999 -169.782 1077.45" stroke="#121212" stroke-width="0.9033" stroke-miterlimit="10"/>
<path d="M2053.7 -131.169C2102.32 -51.9144 2055.32 59.9606 1978.64 119.948C1901.97 179.937 1805.96 204.347 1714.36 230.803C1622.76 257.259 1526.41 290.569 1456.29 361.72C1372.88 446.372 1339.61 575.744 1237.14 637.098C1147.78 690.597 1030.21 676.262 914.988 659.499C799.77 642.736 654.416 623.437 569.974 671.795C491.446 716.767 477.107 788.495 388.67 823.721C304.981 857.057 174.456 821.762 71.2322 826.885C-83.0232 834.541 -191.024 932.502 -181.253 1056.95" stroke="#121212" stroke-width="0.7069" stroke-miterlimit="10"/>
<path d="M2053.7 -131.169C2102.32 -51.9144 2055.17 59.6938 1978.28 119.299C1901.39 178.906 1805.08 202.775 1713.13 228.604C1621.18 254.432 1524.39 286.956 1453.78 357.23C1369.78 440.838 1335.77 568.875 1232.62 629.031C1142.69 681.484 1024.43 665.932 908.549 647.991C792.673 630.05 646.515 609.318 561.572 656.78C482.578 700.92 467.871 771.989 379.026 806.484C294.948 839.126 163.919 802.929 60.4083 807.54C-94.2772 814.43 -202.491 912.01 -192.719 1036.46" stroke="#121212" stroke-width="0.5105" stroke-miterlimit="10"/>
<path d="M2539.54 825.858C2540.23 890.331 2486.26 943.407 2422.58 968.735C2358.9 994.064 2285.35 997.23 2213.51 1004.29C2141.67 1011.34 2066.82 1023.87 2014.55 1061.25C1964.19 1097.26 1940.07 1148.79 1896.55 1188.87C1824.69 1255.05 1703.89 1278.75 1585.85 1285.57C1467.81 1292.39 1345.13 1285.15 1233.95 1308.19C1028.39 1350.81 875.277 1497.03 850.099 1685.22" stroke="#121212" stroke-width="0.5105" stroke-miterlimit="10"/>
<path d="M2522.82 801.833C2523.52 866.305 2469.73 919.65 2406.35 945.402C2342.96 971.153 2269.84 974.933 2198.51 982.729C2127.18 990.525 2052.98 1003.98 2001.38 1042.33C1951.67 1079.27 1928.3 1131.87 1885.52 1173.01C1814.88 1240.96 1695.5 1266.67 1578.72 1275.32C1461.95 1283.97 1340.53 1278.53 1230.42 1303.11C1026.83 1348.57 875.277 1497.03 850.102 1685.22" stroke="#121212" stroke-width="0.7091" stroke-miterlimit="10"/>
<path d="M2506.11 777.807C2506.8 842.28 2453.2 895.894 2390.11 922.066C2327.02 948.241 2254.33 952.636 2183.51 961.17C2112.69 969.704 2039.14 984.082 1988.21 1023.4C1939.15 1061.28 1916.53 1114.95 1874.49 1157.16C1805.07 1226.86 1687.09 1254.6 1571.59 1265.08C1456.09 1275.56 1335.92 1271.91 1226.88 1298.03C1025.27 1346.34 875.274 1497.03 850.099 1685.22" stroke="#121212" stroke-width="0.9076" stroke-miterlimit="10"/>
<path d="M2489.39 753.781C2490.08 818.254 2436.67 872.138 2373.88 898.735C2311.08 925.333 2238.81 930.343 2168.51 939.616C2098.21 948.888 2025.3 964.192 1975.05 1004.48C1926.64 1043.29 1904.76 1098.04 1863.46 1141.31C1795.27 1212.77 1678.7 1242.53 1564.47 1254.84C1450.24 1267.14 1331.32 1265.29 1223.35 1292.96C1023.72 1344.11 875.277 1497.03 850.099 1685.22" stroke="#121212" stroke-width="1.1062" stroke-miterlimit="10"/>
<path d="M2472.67 729.756C2473.37 794.229 2420.14 848.381 2357.64 875.402C2295.14 902.423 2223.3 908.046 2153.51 918.059C2083.72 928.069 2011.46 944.298 1961.88 985.553C1914.12 1025.3 1892.98 1081.12 1852.43 1125.46C1785.46 1198.68 1670.29 1230.46 1557.34 1244.59C1444.38 1258.72 1326.71 1258.67 1219.81 1287.88C1022.16 1341.87 875.277 1497.03 850.099 1685.22" stroke="#121212" stroke-width="1.3047" stroke-miterlimit="10"/>
<path d="M2455.96 705.728C2456.65 770.201 2403.62 824.622 2341.41 852.064C2279.2 879.508 2207.79 885.747 2138.51 896.497C2069.24 907.246 1997.62 924.403 1948.72 966.624C1901.6 1007.3 1881.22 1064.2 1841.41 1109.6C1775.66 1184.58 1661.9 1218.39 1550.21 1234.34C1438.53 1250.3 1322.11 1252.05 1216.28 1282.79C1020.61 1339.63 875.277 1497.03 850.102 1685.22" stroke="#121212" stroke-width="1.5032" stroke-miterlimit="10"/>
<path d="M2439.24 681.702C2439.94 746.175 2387.09 800.866 2325.17 828.731C2263.26 856.598 2192.27 863.452 2123.51 874.938C2054.76 886.427 1983.77 904.507 1935.55 947.7C1889.09 989.311 1869.44 1047.28 1830.37 1093.75C1765.85 1170.48 1653.5 1206.32 1543.09 1224.1C1432.67 1241.88 1317.5 1245.43 1212.75 1277.71C1019.06 1337.4 875.277 1497.03 850.102 1685.22" stroke="#121212" stroke-width="1.7018" stroke-miterlimit="10"/>
<path d="M2422.53 657.677C2423.22 722.15 2370.56 777.11 2308.94 805.398C2247.32 833.688 2176.76 841.157 2108.51 853.382C2040.27 865.608 1969.93 884.614 1922.38 928.773C1876.56 971.317 1857.67 1030.36 1819.34 1077.89C1756.04 1156.39 1645.1 1194.24 1535.96 1213.85C1426.81 1233.47 1312.89 1238.81 1209.21 1272.63C1017.5 1335.16 875.277 1497.02 850.102 1685.22" stroke="#121212" stroke-width="1.9003" stroke-miterlimit="10"/>
<path d="M2405.81 633.651C2406.5 698.124 2354.03 753.353 2292.7 782.064C2231.38 810.775 2161.25 818.86 2093.51 831.825C2025.78 844.79 1956.09 864.721 1909.21 909.851C1864.05 953.328 1845.9 1013.44 1808.31 1062.04C1746.23 1142.29 1636.7 1182.17 1528.82 1203.61C1420.95 1225.05 1308.29 1232.19 1205.67 1267.55C1015.94 1332.93 875.272 1497.03 850.097 1685.22" stroke="#121212" stroke-width="2.0989" stroke-miterlimit="10"/>
<path d="M2389.09 609.623C2389.79 674.096 2337.5 729.595 2276.47 758.729C2215.44 787.863 2145.74 796.563 2078.52 810.266C2011.3 823.969 1942.25 844.826 1896.05 890.925C1851.53 935.334 1834.13 996.525 1797.28 1046.18C1736.43 1128.2 1628.3 1170.1 1521.7 1193.36C1415.1 1216.63 1303.68 1225.57 1202.14 1262.47C1014.39 1330.69 875.279 1497.02 850.102 1685.21" stroke="#121212" stroke-width="2.2974" stroke-miterlimit="10"/>
<path d="M2372.38 585.598C2373.07 650.071 2320.97 705.839 2260.23 735.396C2199.5 764.955 2130.22 774.268 2063.52 788.709C1996.82 803.15 1928.41 824.935 1882.88 872.001C1839.01 917.345 1822.36 979.608 1786.25 1030.33C1726.62 1114.1 1619.9 1158.03 1514.57 1183.12C1409.24 1208.21 1299.08 1218.95 1198.6 1257.39C1012.84 1328.46 875.274 1497.03 850.099 1685.22" stroke="#121212" stroke-width="2.4959" stroke-miterlimit="10"/>
<path d="M2355.66 561.572C2356.35 626.045 2304.44 682.082 2244 712.062C2183.56 742.043 2114.71 751.971 2048.52 767.152C1982.33 782.334 1914.57 805.042 1869.71 853.076C1826.5 899.353 1810.59 962.689 1775.22 1014.48C1716.82 1100.01 1611.51 1145.96 1507.45 1172.88C1403.39 1199.8 1294.47 1212.33 1195.07 1252.31C1011.28 1326.22 875.28 1497.03 850.104 1685.22" stroke="#121212" stroke-width="2.6945" stroke-miterlimit="10"/>
<path d="M2338.94 537.546C2339.64 602.019 2287.92 658.326 2227.77 688.729C2167.62 719.133 2099.2 729.677 2033.52 745.596C1967.84 761.515 1900.73 785.149 1856.54 834.152C1813.97 881.362 1798.82 945.772 1764.19 998.626C1707.01 1085.91 1603.11 1133.89 1500.32 1162.63C1397.53 1191.38 1289.87 1205.71 1191.54 1247.23C1009.73 1323.99 875.277 1497.03 850.102 1685.22" stroke="#121212" stroke-width="2.893" stroke-miterlimit="10"/>
<path d="M2322.23 513.521C2322.92 577.994 2271.39 634.569 2211.53 665.396C2151.67 696.222 2083.68 707.382 2018.52 724.039C1953.36 740.696 1886.89 765.256 1843.38 815.228C1801.46 863.37 1787.05 928.855 1753.16 982.775C1697.2 1071.82 1594.71 1121.82 1493.19 1152.39C1391.67 1182.97 1285.26 1199.1 1188 1242.15C1008.17 1321.76 875.277 1497.03 850.099 1685.22" stroke="#121212" stroke-width="3.0916" stroke-miterlimit="10"/>
<path d="M2305.51 489.495C2306.2 553.968 2254.86 610.813 2195.29 642.063C2135.73 673.312 2068.17 685.087 2003.52 702.483C1938.87 719.878 1873.04 745.363 1830.21 796.303C1788.94 845.379 1775.28 911.938 1742.13 966.923C1687.4 1057.73 1586.31 1109.75 1486.06 1142.15C1385.81 1174.55 1280.66 1192.48 1184.47 1237.07C1006.61 1319.52 875.277 1497.03 850.099 1685.22" stroke="#121212" stroke-width="3.2901" stroke-miterlimit="10"/>
<path d="M2288.79 465.467C2289.49 529.94 2238.33 587.054 2179.06 618.727C2119.79 650.4 2052.66 662.788 1988.52 680.921C1924.39 699.054 1859.2 725.465 1817.04 777.374C1776.42 827.382 1763.5 895.014 1731.1 951.066C1677.59 1043.63 1577.91 1097.67 1478.93 1131.9C1379.96 1166.13 1276.05 1185.85 1180.93 1231.99C1005.06 1317.28 875.274 1497.03 850.099 1685.22" stroke="#121212" stroke-width="3.4887" stroke-miterlimit="10"/>
<path d="M2272.08 441.442C2272.77 505.915 2221.8 563.298 2162.83 595.394C2103.85 627.49 2037.15 640.493 1973.52 659.364C1909.9 678.236 1845.36 705.574 1803.87 758.45C1763.9 809.391 1751.73 878.097 1720.07 935.211C1667.78 1029.53 1569.51 1085.6 1471.81 1121.65C1374.1 1157.71 1271.44 1179.23 1177.4 1226.9C1003.5 1315.05 875.274 1497.03 850.099 1685.22" stroke="#121212" stroke-width="3.6872" stroke-miterlimit="10"/>
<path d="M2255.36 417.416C2256.05 481.889 2205.27 539.542 2146.59 572.061C2087.91 604.58 2021.63 618.198 1958.53 637.808C1895.42 657.419 1831.52 685.681 1790.7 739.526C1751.38 791.402 1739.96 861.18 1709.04 919.359C1657.97 1015.44 1561.11 1073.53 1464.68 1111.41C1368.25 1149.29 1266.84 1172.62 1173.86 1221.82C1001.95 1312.81 875.277 1497.03 850.102 1685.22" stroke="#121212" stroke-width="3.8857" stroke-miterlimit="10"/>
<path d="M2238.65 393.391C2239.34 457.864 2188.74 515.785 2130.36 548.727C2071.97 581.669 2006.12 595.901 1943.53 616.251C1880.93 636.601 1817.68 665.788 1777.54 720.601C1738.87 773.41 1728.19 844.263 1698.01 903.507C1648.17 1001.35 1552.72 1061.46 1457.55 1101.17C1362.39 1140.88 1262.24 1166 1170.33 1216.74C1000.4 1310.58 875.279 1497.03 850.102 1685.22" stroke="#121212" stroke-width="4.0843" stroke-miterlimit="10"/>
<path d="M2236.59 384.597C2237.81 449.731 2186.91 508.492 2127.87 541.801C2068.82 575.111 2002.03 589.309 1938.46 609.426C1879.91 627.908 1820.71 653.64 1779.32 700.141C1775.46 704.468 1771.76 708.973 1768.24 713.661C1728.14 766.941 1716.29 838.691 1685.49 899.024C1664.29 940.529 1635.35 975.625 1601.1 1004.93C1553.46 1045.72 1496.23 1074.88 1439.22 1096.63C1431.99 1099.39 1424.73 1102.07 1417.45 1104.68C1351.15 1128.44 1283.19 1146.37 1217.28 1172.03C1192.85 1181.53 1168.67 1192.12 1145.04 1204.45C1106.67 1224.42 1070.5 1249.23 1037.62 1278.25C996.659 1314.42 961.206 1356.8 929.892 1401.91C875.474 1480.31 832.189 1566.56 811.75 1650.86C810.248 1657.05 808.558 1663.51 807.368 1669.76" stroke="#121212" stroke-width="3.8857" stroke-miterlimit="10"/>
<path d="M2234.54 375.803C2236.29 441.598 2185.09 501.196 2125.38 534.876C2065.67 568.553 1997.93 582.72 1933.39 602.601C1873.57 620.946 1812.99 646.388 1770.38 693.102C1766.4 697.461 1762.58 701.999 1758.93 706.721C1717.41 760.472 1704.39 833.118 1672.96 894.543C1651.37 936.719 1622.24 972.649 1587.1 1002.31C1538.39 1043.48 1479.47 1071.72 1420.9 1092.08C1413.48 1094.68 1406.05 1097.17 1398.6 1099.58C1330.73 1121.59 1261.4 1137.24 1193.89 1161.23C1168.86 1170.11 1144.02 1180.19 1119.76 1192.15C1080.23 1211.54 1042.97 1236.16 1009.56 1265.73C967.877 1302.61 932.987 1346.53 901.033 1392.35C845.478 1472.01 796.15 1556.47 770.396 1636.24C768.522 1642.05 766.141 1648.39 764.641 1654.31" stroke="#121212" stroke-width="3.6872" stroke-miterlimit="10"/>
<path d="M2232.49 367.007C2234.77 433.463 2183.26 493.899 2122.89 527.945C2062.52 561.993 1993.84 576.123 1928.32 595.771C1867.23 613.979 1805.28 639.13 1761.44 686.058C1757.33 690.448 1753.39 695.018 1749.63 699.776C1706.68 753.998 1692.49 827.541 1660.43 890.055C1638.45 932.901 1609.13 969.663 1573.09 999.684C1523.31 1041.23 1462.7 1068.57 1402.57 1087.54C1394.98 1089.95 1387.36 1092.26 1379.75 1094.48C1310.32 1114.73 1239.6 1128.09 1170.5 1150.42C1144.87 1158.69 1119.36 1168.26 1094.47 1179.84C1053.79 1198.66 1015.44 1223.08 981.491 1253.19C939.092 1290.79 904.765 1336.25 872.169 1382.78C815.478 1463.7 760.223 1546.24 729.037 1621.63C726.799 1627.03 723.72 1633.26 721.91 1638.84" stroke="#121212" stroke-width="3.4887" stroke-miterlimit="10"/>
<path d="M2230.44 358.213C2233.25 425.33 2181.43 486.606 2120.4 521.019C2059.37 555.435 1989.74 569.532 1923.25 588.944C1860.89 607.012 1797.57 631.875 1752.51 679.017C1748.27 683.438 1744.21 688.042 1740.33 692.833C1695.95 747.529 1680.59 821.966 1647.9 885.569C1625.53 929.086 1596.01 966.68 1559.09 997.059C1508.23 1038.98 1445.94 1065.41 1384.24 1082.99C1376.47 1085.23 1368.68 1087.36 1360.89 1089.38C1289.9 1107.88 1217.81 1118.95 1147.11 1139.62C1120.88 1147.27 1094.71 1156.34 1069.19 1167.54C1027.35 1185.78 987.906 1210.01 953.426 1240.65C910.31 1278.98 876.546 1325.97 843.307 1373.21C785.482 1455.4 724.454 1535.87 687.68 1607.01C685.094 1612.01 681.298 1618.13 679.181 1623.38" stroke="#121212" stroke-width="3.2901" stroke-miterlimit="10"/>
<path d="M2228.39 349.419C2231.72 417.197 2179.61 479.31 2117.91 514.093C2056.22 548.877 1985.65 562.94 1918.18 582.119C1854.55 600.05 1789.86 624.622 1743.57 671.978C1739.21 676.43 1735.02 681.068 1731.03 685.89C1685.22 741.057 1668.69 816.391 1635.37 881.085C1612.62 925.273 1582.9 963.701 1545.09 994.436C1493.15 1036.73 1429.17 1062.26 1365.91 1078.45C1357.96 1080.51 1350 1082.45 1342.04 1084.29C1269.49 1101.03 1196.01 1109.82 1123.71 1128.82C1096.89 1135.85 1070.05 1144.41 1043.9 1155.24C1000.91 1172.89 960.371 1196.94 925.358 1228.12C881.523 1267.17 848.323 1315.7 814.444 1363.65C755.482 1447.1 688.889 1525.41 646.318 1592.4C643.397 1596.99 638.871 1603.01 636.444 1607.92" stroke="#121212" stroke-width="3.0916" stroke-miterlimit="10"/>
<path d="M2226.34 340.625C2230.2 409.065 2177.78 472.016 2115.43 507.167C2053.07 542.318 1981.56 556.348 1913.11 575.294C1848.21 593.086 1782.15 617.371 1734.64 664.939C1730.14 669.423 1725.84 674.094 1721.73 678.95C1674.49 734.588 1656.8 810.819 1622.85 876.602C1599.7 921.463 1569.79 960.72 1531.08 991.813C1478.07 1034.49 1412.41 1059.1 1347.59 1073.91C1339.46 1075.79 1331.32 1077.55 1323.19 1079.19C1249.08 1094.18 1174.22 1100.68 1100.33 1118.02C1072.9 1124.43 1045.4 1132.49 1018.62 1142.95C974.479 1160.02 932.846 1183.87 897.298 1215.59C852.744 1255.36 820.106 1305.43 785.587 1354.09C725.489 1438.8 653.563 1514.91 604.966 1577.78C601.73 1581.97 596.457 1587.89 593.72 1592.46" stroke="#121212" stroke-width="2.893" stroke-miterlimit="10"/>
<path d="M2224.29 331.831C2228.67 400.932 2175.96 464.722 2112.93 500.241C2049.91 535.76 1977.46 549.756 1908.04 568.469C1841.87 586.124 1774.43 610.116 1725.7 657.9C1721.08 662.415 1716.65 667.12 1712.42 672.009C1663.76 728.119 1644.89 805.249 1610.32 872.121C1586.78 917.65 1556.68 957.744 1517.08 989.193C1463 1032.24 1395.65 1055.95 1329.26 1069.37C1320.95 1071.08 1312.63 1072.65 1304.33 1074.1C1228.66 1087.32 1152.42 1091.55 1076.93 1107.22C1048.91 1113.02 1020.74 1120.56 993.331 1130.65C948.04 1147.14 905.313 1170.8 869.23 1203.07C823.956 1243.56 791.882 1295.16 756.723 1344.53C695.488 1430.5 618.486 1504.44 563.607 1563.17C560.077 1566.95 554.033 1572.77 550.989 1577.01" stroke="#121212" stroke-width="2.6945" stroke-miterlimit="10"/>
<path d="M2222.24 323.037C2227.15 392.799 2174.13 457.428 2110.45 493.315C2046.76 529.202 1973.37 543.165 1902.97 561.644C1835.53 579.162 1766.72 602.863 1716.76 650.864C1712.02 655.41 1707.47 660.148 1703.12 665.071C1653.03 721.654 1633 799.679 1597.79 867.64C1573.86 913.842 1543.57 954.765 1503.08 986.573C1447.92 1030 1378.89 1052.8 1310.94 1064.83C1302.44 1066.36 1293.95 1067.75 1285.48 1069.01C1208.25 1080.48 1130.63 1082.41 1053.54 1096.42C1024.92 1101.6 996.091 1108.64 968.049 1118.36C921.605 1134.26 877.785 1157.73 841.167 1190.54C795.177 1231.75 763.663 1284.89 727.864 1334.96C665.492 1422.2 583.662 1494.06 522.253 1548.56C518.443 1551.94 511.616 1557.65 508.26 1561.55" stroke="#121212" stroke-width="2.4959" stroke-miterlimit="10"/>
<path d="M2220.19 314.244C2225.63 384.666 2172.3 450.132 2107.96 486.387C2043.61 522.642 1969.27 536.573 1897.9 554.814C1829.19 572.193 1759.01 595.608 1707.83 643.82C1702.95 648.397 1698.28 653.167 1693.82 658.124C1642.3 715.178 1621.1 794.099 1585.26 863.149C1560.94 910.022 1530.45 951.777 1489.07 983.943C1432.84 1027.74 1362.12 1049.64 1292.61 1060.28C1283.93 1061.64 1275.27 1062.84 1266.63 1063.9C1187.83 1073.62 1108.83 1073.27 1030.15 1085.61C1000.93 1090.18 971.438 1096.71 942.763 1106.05C895.168 1121.37 850.253 1144.65 813.102 1178C766.392 1219.93 735.442 1274.61 699.003 1325.39C635.497 1413.89 549.051 1483.85 480.896 1533.94C476.82 1536.93 469.194 1542.51 465.531 1546.08" stroke="#121212" stroke-width="2.2974" stroke-miterlimit="10"/>
<path d="M2218.13 305.45C2224.11 376.534 2170.48 442.838 2105.47 479.461C2040.46 516.083 1965.18 529.981 1892.84 547.989C1822.86 565.231 1751.3 588.355 1698.89 636.781C1693.89 641.39 1689.1 646.193 1684.52 651.183C1631.58 708.709 1609.2 788.526 1572.74 858.666C1548.03 906.209 1517.35 948.799 1475.07 981.32C1417.77 1025.5 1345.36 1046.49 1274.28 1055.74C1265.43 1056.92 1256.59 1057.94 1247.77 1058.81C1167.42 1066.77 1087.04 1064.13 1006.77 1074.81C976.947 1078.76 946.785 1084.78 917.481 1093.75C868.731 1108.5 822.725 1131.58 785.039 1165.47C737.61 1208.12 707.223 1264.33 670.141 1315.83C605.499 1405.59 514.601 1473.88 439.537 1519.33C435.208 1521.95 426.772 1527.39 422.799 1530.63" stroke="#121212" stroke-width="2.0989" stroke-miterlimit="10"/>
<path d="M2216.08 296.654C2222.58 368.399 2168.65 435.542 2102.98 472.533C2037.31 509.523 1961.09 523.387 1887.77 541.162C1816.52 558.264 1743.59 581.1 1689.96 629.74C1684.83 634.379 1679.92 639.216 1675.22 644.241C1620.85 702.237 1597.3 782.952 1560.21 854.182C1535.11 902.397 1504.24 945.818 1461.08 978.697C1402.7 1023.25 1328.6 1043.33 1255.96 1051.19C1246.93 1052.2 1237.91 1053.03 1228.93 1053.71C1147.01 1059.91 1065.25 1055 983.378 1064.01C952.96 1067.34 922.132 1072.85 892.198 1081.45C842.296 1095.61 795.197 1118.51 756.977 1152.93C708.828 1196.31 679.004 1254.06 641.282 1306.26C575.503 1397.28 480.251 1464.17 398.182 1504.71C393.6 1506.97 384.353 1512.26 380.07 1515.17" stroke="#121212" stroke-width="1.9003" stroke-miterlimit="10"/>
<path d="M2214.03 287.86C2221.06 360.266 2166.83 428.246 2100.49 465.607C2034.16 502.965 1957 516.795 1882.7 534.337C1810.18 551.302 1735.87 573.847 1681.02 622.701C1675.76 627.372 1670.73 632.242 1665.91 637.298C1610.12 695.768 1585.4 777.377 1547.68 849.696C1522.19 898.581 1491.13 942.837 1447.07 976.072C1387.62 1021 1311.83 1040.17 1237.63 1046.65C1228.42 1047.48 1219.22 1048.12 1210.07 1048.61C1126.59 1053.06 1043.45 1045.86 959.987 1053.2C928.967 1055.92 897.477 1060.93 866.913 1069.15C815.859 1082.73 767.667 1105.44 728.914 1140.4C680.046 1184.5 650.785 1243.78 612.423 1296.69C545.508 1388.98 445.926 1454.74 356.828 1490.1C351.995 1492.02 341.936 1497.14 337.344 1499.71" stroke="#121212" stroke-width="1.7018" stroke-miterlimit="10"/>
<path d="M2211.98 279.066C2219.54 352.133 2165 420.952 2098 458.681C2031.01 496.409 1952.9 510.203 1877.63 527.512C1803.84 544.34 1728.16 566.594 1672.09 615.662C1666.7 620.364 1661.55 625.268 1656.61 630.358C1599.39 689.299 1573.5 771.804 1535.16 845.215C1509.27 894.771 1478.02 939.858 1433.07 973.449C1372.54 1018.76 1295.07 1037.02 1219.31 1042.11C1209.91 1042.76 1200.54 1043.22 1191.22 1043.52C1106.17 1046.21 1021.65 1036.72 936.597 1042.4C904.978 1044.5 872.824 1049 841.628 1056.85C789.422 1069.85 740.135 1092.37 700.849 1127.87C651.264 1172.69 622.567 1233.51 583.562 1287.13C515.51 1380.68 411.564 1445.57 315.472 1475.48C310.385 1477.07 299.515 1482.02 294.615 1484.25" stroke="#121212" stroke-width="1.5032" stroke-miterlimit="10"/>
<path d="M2209.93 270.272C2218.01 344 2163.17 413.659 2095.52 451.755C2027.86 489.851 1948.81 503.612 1872.56 520.685C1797.5 537.373 1720.45 559.339 1663.15 608.621C1657.63 613.354 1652.36 618.29 1647.31 623.415C1588.66 682.827 1561.6 766.229 1522.63 840.729C1496.35 890.956 1464.9 936.875 1419.06 970.824C1357.46 1016.51 1278.31 1033.87 1200.98 1037.56C1191.41 1038.04 1181.86 1038.32 1172.36 1038.42C1085.76 1039.35 999.856 1027.58 913.206 1031.6C880.988 1033.08 848.169 1037.07 816.343 1044.55C762.985 1056.97 712.604 1079.29 672.783 1115.34C622.479 1160.88 594.345 1223.23 554.701 1277.56C485.511 1372.37 377.116 1436.6 274.114 1460.87C268.764 1462.13 257.095 1466.89 251.883 1468.79" stroke="#121212" stroke-width="1.3047" stroke-miterlimit="10"/>
<path d="M2207.88 261.478C2216.49 335.87 2161.35 406.363 2093.03 444.827C2024.71 483.291 1944.71 497.017 1867.49 513.857C1791.16 530.409 1712.73 552.083 1654.22 601.582C1648.57 606.346 1643.18 611.316 1638.01 616.475C1577.94 676.358 1549.71 760.657 1510.1 836.246C1483.44 887.143 1451.79 933.896 1405.07 968.201C1342.39 1014.26 1261.55 1030.71 1182.66 1033.02C1172.9 1033.32 1163.18 1033.41 1153.51 1033.32C1065.35 1032.5 978.066 1018.44 889.818 1020.8C857.001 1021.66 823.516 1025.15 791.058 1032.25C736.548 1044.09 685.074 1066.22 644.718 1102.81C593.695 1149.07 566.123 1212.96 525.837 1268C455.514 1364.07 342.551 1427.81 232.753 1446.26C227.133 1447.2 214.669 1451.77 209.149 1453.33" stroke="#121212" stroke-width="1.1062" stroke-miterlimit="10"/>
<path d="M2205.83 252.684C2214.97 327.735 2159.52 399.069 2090.54 437.901C2021.56 476.732 1940.62 490.428 1862.43 507.032C1784.82 523.445 1705.02 544.831 1645.28 594.543C1639.51 599.339 1633.99 604.342 1628.71 609.532C1567.21 669.887 1537.8 755.082 1497.57 831.762C1470.52 883.331 1438.68 930.915 1391.06 965.579C1327.31 1012.01 1244.78 1027.56 1164.33 1028.48C1154.4 1028.61 1144.49 1028.51 1134.66 1028.23C1044.93 1025.65 956.27 1009.31 866.427 1010C833.011 1010.25 798.861 1013.22 765.773 1019.95C710.108 1031.21 657.544 1053.15 616.653 1090.28C564.91 1137.26 537.902 1202.69 496.975 1258.44C425.515 1355.77 307.858 1419.15 191.396 1431.64C185.5 1432.28 172.25 1436.65 166.42 1437.88" stroke="#121212" stroke-width="0.9076" stroke-miterlimit="10"/>
<path d="M2203.78 243.891C2213.45 319.602 2157.7 391.775 2088.05 430.975C2018.41 470.174 1936.53 483.836 1857.36 500.208C1778.48 516.483 1697.31 537.578 1636.34 587.504C1630.45 592.331 1624.81 597.368 1619.4 602.591C1556.48 663.42 1525.91 749.51 1485.05 827.279C1457.6 879.518 1425.57 927.937 1377.06 962.956C1312.24 1009.77 1228.02 1024.4 1146 1023.94C1135.89 1023.89 1125.81 1023.61 1115.81 1023.13C1024.52 1018.8 934.477 1000.17 843.039 999.194C809.024 998.828 774.21 1001.3 740.49 1007.65C683.673 1018.33 630.016 1040.08 588.59 1077.75C536.13 1125.45 509.683 1192.42 468.116 1248.87C395.52 1347.47 273.037 1410.57 150.041 1417.03C143.859 1417.35 129.83 1421.52 123.691 1422.41" stroke="#121212" stroke-width="0.7091" stroke-miterlimit="10"/>
<path d="M2201.73 235.097C2211.92 311.472 2155.87 384.481 2085.56 424.049C2015.25 463.616 1932.43 477.244 1852.29 493.38C1772.14 509.516 1689.59 530.322 1627.4 580.463C1503.98 679.969 1492.41 867.704 1363.05 960.331C1289.04 1013.33 1189.8 1024.12 1096.95 1018.03C1004.1 1011.95 912.676 991.03 819.643 988.39C726.61 985.751 627.341 1004.37 560.522 1065.21C507.343 1113.63 481.459 1182.14 439.252 1239.3C365.519 1339.17 238.083 1402.04 108.682 1402.41C102.208 1402.43 87.4086 1406.39 80.96 1406.95" stroke="#121212" stroke-width="0.5105" stroke-miterlimit="10"/>
<path d="M2053.7 -131.169C2102.32 -51.9144 2055.17 59.6938 1978.28 119.299C1901.39 178.906 1805.08 202.775 1713.13 228.604C1621.18 254.432 1524.39 286.956 1453.78 357.23C1369.78 440.838 1335.77 568.875 1232.62 629.031C1142.69 681.484 1024.43 665.932 908.549 647.991C792.673 630.05 646.515 609.318 561.572 656.78C482.578 700.92 467.871 771.989 379.026 806.484C294.948 839.126 163.919 802.929 60.4083 807.54C-94.2772 814.43 -202.491 912.01 -192.719 1036.46" stroke="#121212" stroke-width="0.5105" stroke-miterlimit="10"/>
<path d="M2053.7 -131.169C2102.32 -51.9144 2054.67 59.4966 1977.06 118.729C1899.46 177.963 1802.04 201.212 1708.79 226.152C1615.54 251.091 1517.12 282.355 1445.01 351.22C1359.21 433.153 1323.24 559.045 1218.17 616.511C1126.56 666.617 1006.61 648.371 890.173 629.117C773.732 609.864 628.767 589.985 545.293 638.851C467.663 684.296 454.953 757.467 368.113 794.149C285.934 828.863 157.379 795.438 55.6416 802.066C-96.3917 811.968 -202.491 912.01 -192.719 1036.46" stroke="#121212" stroke-width="0.936" stroke-miterlimit="10"/>
<path d="M2053.7 -131.169C2102.32 -51.9144 2054.18 59.2971 1975.85 118.159C1897.52 177.021 1798.99 199.65 1704.44 223.702C1609.89 247.754 1509.87 277.756 1436.24 345.212C1348.65 425.47 1310.7 549.215 1203.72 603.991C1110.44 651.751 988.808 630.812 871.8 610.243C754.793 589.677 611.021 570.649 529.016 620.919C452.754 667.668 442.038 742.942 357.202 781.812C276.92 818.596 150.838 787.945 50.8775 796.589C-98.501 809.506 -202.491 912.008 -192.717 1036.46" stroke="#121212" stroke-width="1.3614" stroke-miterlimit="10"/>
<path d="M2053.7 -131.169C2102.32 -51.9144 2053.68 59.0976 1974.63 117.589C1895.58 176.081 1795.95 198.087 1700.1 221.255C1604.25 244.42 1502.61 273.157 1427.47 339.209C1338.08 417.794 1298.16 539.39 1189.26 591.475C1094.31 636.889 970.998 613.256 853.427 591.374C735.854 569.493 593.275 551.321 512.737 602.993C437.839 651.047 429.12 728.422 346.289 769.48C267.904 808.333 144.297 780.456 46.1081 791.118C-100.618 807.047 -202.494 912.01 -192.722 1036.46" stroke="#121212" stroke-width="1.7869" stroke-miterlimit="10"/>
<path d="M2053.7 -131.169C2102.32 -51.9144 2053.19 58.9004 1973.41 117.02C1893.64 175.141 1792.9 196.527 1695.76 218.805C1598.61 241.083 1495.35 268.558 1418.71 333.202C1327.52 410.11 1285.63 529.56 1174.81 578.955C1078.18 622.025 953.193 595.694 835.057 572.503C716.92 549.309 575.529 531.991 496.461 585.066C422.93 634.423 416.202 713.904 335.378 757.147C258.89 798.07 137.756 772.97 41.344 785.646C-102.73 804.59 -202.493 912.013 -192.719 1036.46" stroke="#121212" stroke-width="2.2123" stroke-miterlimit="10"/>
<path d="M2053.7 -131.169C2102.32 -51.9144 2052.69 58.7009 1972.19 116.45C1891.7 174.199 1789.85 194.964 1691.41 216.355C1592.97 237.746 1488.09 263.959 1409.94 327.194C1316.96 402.427 1273.1 519.733 1160.36 566.435C1062.06 607.159 935.386 578.136 816.684 553.629C697.981 529.123 557.783 512.658 480.184 567.135C408.018 617.797 403.287 699.379 324.467 744.81C249.877 787.803 131.215 765.477 36.5799 780.17C-104.842 802.128 -202.491 912.008 -192.719 1036.46" stroke="#121212" stroke-width="2.6378" stroke-miterlimit="10"/>
<path d="M2053.7 -131.169C2102.32 -51.9144 2052.2 58.5038 1970.97 115.88C1889.75 173.259 1786.81 193.402 1687.07 213.908C1587.33 234.412 1480.83 259.363 1401.17 321.189C1306.39 394.746 1260.56 509.905 1145.9 553.92C1045.93 592.298 917.576 560.579 798.308 534.76C679.04 508.941 540.034 493.33 463.903 549.208C393.103 601.175 390.367 684.859 313.551 732.477C240.858 777.54 124.672 757.988 31.8105 774.696C-106.959 799.667 -202.496 912.008 -192.722 1036.46" stroke="#121212" stroke-width="3.0632" stroke-miterlimit="10"/>
<path d="M2053.7 -131.169C2102.32 -51.9144 2051.66 57.2489 1969.74 113.007C1887.82 168.766 1783.86 186.562 1683.11 204.71C1582.36 222.858 1474.76 245.268 1394.33 305.303C1298.64 376.731 1252.13 490.329 1137.48 534.344C1037.51 572.722 909.514 541.845 790.812 517.338C672.11 492.832 533.993 479.285 458.575 536.825C388.439 590.333 386.46 675.776 310.323 724.974C238.274 771.53 122.841 753.736 30.4944 771.638C-107.508 798.395 -202.496 912.008 -192.722 1036.46" stroke="#121212" stroke-width="2.7229" stroke-miterlimit="10"/>
<path d="M2053.7 -131.169C2102.32 -51.9144 2051.12 55.9964 1968.5 110.134C1885.89 164.273 1780.92 179.721 1679.15 195.513C1577.39 211.304 1468.7 231.173 1387.5 289.418C1290.89 358.713 1243.71 470.754 1129.06 514.769C1029.09 553.146 901.456 523.113 783.319 499.919C665.183 476.725 527.954 465.246 453.251 524.445C383.78 579.496 382.556 666.697 307.098 717.474C235.692 765.525 121.017 749.485 29.1817 768.583C-108.052 797.126 -202.493 912.013 -192.719 1036.46" stroke="#121212" stroke-width="2.3825" stroke-miterlimit="10"/>
<path d="M2053.7 -131.169C2102.32 -51.9144 2050.58 54.7439 1967.27 107.262C1883.96 159.779 1777.97 172.879 1675.2 186.315C1572.41 199.751 1462.64 217.079 1380.66 273.532C1283.13 340.697 1235.28 451.178 1120.63 495.19C1020.66 533.568 893.392 504.376 775.818 482.497C658.245 460.616 521.907 451.202 447.918 512.062C379.111 568.657 378.645 657.614 303.867 709.969C233.104 759.513 119.184 745.23 27.8658 765.525C-108.6 795.851 -202.491 912.013 -192.719 1036.46" stroke="#121212" stroke-width="2.0421" stroke-miterlimit="10"/>
<path d="M2053.7 -131.169C2102.32 -51.9144 2050.04 53.489 1966.03 104.389C1882.02 155.289 1775.03 166.037 1671.23 177.117C1567.44 188.197 1456.57 202.984 1373.82 257.646C1275.37 322.679 1226.86 431.602 1112.21 475.615C1012.24 513.992 885.327 485.644 768.32 465.075C651.312 444.509 515.863 437.16 442.588 499.676C374.446 557.815 374.732 648.529 300.636 702.463C230.515 753.503 117.353 740.975 26.5469 762.465C-109.151 794.577 -202.494 912.01 -192.722 1036.46" stroke="#121212" stroke-width="1.7018" stroke-miterlimit="10"/>
<path d="M2053.7 -131.169C2102.32 -51.9144 2049.5 52.2366 1964.79 101.516C1880.09 150.796 1772.09 159.195 1667.28 167.922C1562.47 176.646 1450.5 188.892 1366.98 241.763C1267.62 304.666 1218.43 412.029 1103.78 456.041C1003.81 494.419 877.263 466.912 760.821 447.659C644.38 428.405 509.819 423.121 437.258 487.298C369.779 546.98 370.823 639.452 297.405 694.965C227.927 747.497 115.52 736.728 25.2285 759.412C-109.699 793.31 -202.496 912.015 -192.725 1036.46" stroke="#121212" stroke-width="1.3614" stroke-miterlimit="10"/>
<path d="M2053.7 -131.169C2102.32 -51.9144 2048.96 50.9841 1963.56 98.6434C1878.15 146.303 1769.14 152.354 1663.32 158.724C1557.5 165.092 1444.44 174.797 1360.15 225.877C1259.87 286.651 1210.01 392.453 1095.36 436.465C995.387 474.843 869.202 448.178 753.326 430.237C637.45 412.296 503.777 409.079 431.931 474.915C365.115 536.14 366.917 630.37 294.177 687.46C225.341 741.487 113.69 732.472 23.913 756.351C-110.246 792.034 -202.496 912.013 -192.724 1036.46" stroke="#121212" stroke-width="1.0211" stroke-miterlimit="10"/>
<path d="M1763.06 -380.962C1811.69 -301.707 1773.33 -184.892 1705.51 -121.017C1637.69 -57.1407 1552.05 -29.6077 1467.46 -3.92575C1382.87 21.7586 1290.85 50.3806 1219.09 112.219C1133.7 185.791 1099.9 305.118 998.055 359.751C909.256 407.389 794.361 389.931 687.911 379.577C581.458 369.223 457.634 373.808 393.239 445.473C333.353 512.122 342.492 612.008 274.786 672.937C210.711 730.6 103.527 724.948 16.7171 751.038C-113.008 790.029 -202.491 912.01 -192.719 1036.46" stroke="#121212" stroke-width="0.5105" stroke-miterlimit="10"/>
<path d="M1795.36 -353.208C1843.98 -273.953 1803.95 -158.686 1734.18 -96.612C1664.41 -34.5383 1576.17 -9.39247 1489.22 14.1451C1402.27 37.6827 1307.92 64.2036 1234.76 124.847C1147.72 196.998 1112.13 314.823 1008.87 368.276C918.825 414.885 802.678 396.405 695.178 385.207C587.679 374.009 462.759 377.726 397.537 448.745C336.883 514.79 345.206 614.049 276.938 674.553C212.337 731.806 104.653 725.782 17.5132 751.627C-112.706 790.25 -202.496 912.01 -192.724 1036.46" stroke="#121212" stroke-width="0.7942" stroke-miterlimit="10"/>
<path d="M1827.65 -325.454C1876.28 -246.199 1834.58 -132.477 1762.86 -72.2042C1691.13 -11.9335 1600.3 10.8276 1510.99 32.2184C1421.68 53.6091 1324.99 78.029 1250.44 137.475C1161.74 208.203 1124.37 324.526 1019.68 376.798C928.399 422.378 810.998 402.874 702.451 390.835C593.905 378.796 467.891 381.644 401.841 452.017C340.416 517.458 347.925 616.09 279.099 676.166C213.965 733.018 105.787 726.619 18.3169 752.219C-112.394 790.474 -202.491 912.01 -192.719 1036.46" stroke="#121212" stroke-width="1.0778" stroke-miterlimit="10"/>
<path d="M1859.94 -297.697C1908.57 -218.442 1865.21 -106.267 1791.53 -47.7964C1717.85 10.6737 1624.42 31.0452 1532.75 50.2916C1441.08 69.5356 1342.05 91.852 1266.11 150.106C1175.76 219.411 1136.6 334.23 1030.49 385.325C937.969 429.876 819.313 409.351 709.719 396.468C600.126 383.585 473.019 385.568 406.139 455.291C343.944 520.132 350.638 618.133 281.252 677.784C215.591 734.232 106.916 727.458 19.1184 752.813C-112.087 790.7 -202.491 912.015 -192.719 1036.46" stroke="#121212" stroke-width="1.3614" stroke-miterlimit="10"/>
<path d="M1892.23 -269.943C1940.86 -190.688 1895.83 -80.0581 1820.2 -23.391C1744.57 33.2785 1648.54 51.2628 1554.51 68.3624C1460.48 85.4621 1359.12 105.675 1281.78 162.734C1189.78 230.618 1148.84 343.933 1041.3 393.847C947.538 437.369 827.628 415.82 716.987 402.095C606.347 388.368 478.144 389.486 410.438 458.56C347.472 522.798 353.35 620.172 283.405 679.394C217.216 735.439 108.045 728.292 19.9172 753.399C-111.779 790.918 -202.493 912.01 -192.719 1036.46" stroke="#121212" stroke-width="1.6451" stroke-miterlimit="10"/>
<path d="M1924.53 -242.189C1973.15 -162.934 1926.46 -53.8522 1848.87 1.01432C1771.29 55.8808 1672.66 71.4804 1576.27 86.4332C1479.89 101.386 1376.18 119.498 1297.46 175.36C1203.8 241.821 1161.07 353.635 1052.11 402.369C957.11 444.862 835.943 422.289 724.255 407.721C612.567 393.152 483.272 393.4 414.736 461.827C350.999 525.461 356.063 622.208 285.561 681.003C218.842 736.643 109.174 729.123 20.7159 753.986C-111.475 791.139 -202.493 912.008 -192.722 1036.46" stroke="#121212" stroke-width="1.9287" stroke-miterlimit="10"/>
<path d="M1956.82 -214.434C2005.45 -135.179 1957.08 -27.6435 1877.54 25.4224C1798 78.4883 1696.78 91.6983 1598.03 104.507C1499.29 117.315 1393.24 133.324 1313.13 187.991C1217.81 253.031 1173.31 363.341 1062.93 410.894C966.679 452.358 844.258 428.763 731.523 413.351C618.788 397.939 488.397 397.321 419.034 465.102C354.53 528.135 358.777 624.249 287.714 682.621C220.468 737.857 110.306 729.963 21.5172 754.58C-111.165 791.366 -202.493 912.01 -192.719 1036.46" stroke="#121212" stroke-width="2.2123" stroke-miterlimit="10"/>
<path d="M1989.11 -186.678C2037.74 -107.423 1987.71 -1.43271 1906.21 49.8302C1824.72 101.093 1720.9 111.918 1619.79 122.58C1518.69 133.242 1410.31 147.149 1328.8 200.621C1231.83 264.238 1185.54 373.046 1073.74 419.419C976.249 459.854 852.572 435.235 738.791 418.981C625.009 402.728 493.525 401.242 423.335 468.374C358.06 530.803 361.493 626.29 289.872 684.234C222.096 739.067 111.434 730.799 22.3183 755.171C-110.855 791.589 -202.491 912.013 -192.719 1036.46" stroke="#121212" stroke-width="2.4959" stroke-miterlimit="10"/>
<path d="M2021.41 -158.924C2070.03 -79.6685 2018.34 24.7757 1934.89 74.238C1851.44 123.7 1745.02 132.138 1641.56 140.653C1538.1 149.168 1427.37 160.974 1344.48 213.249C1245.85 275.443 1197.78 382.748 1084.55 427.943C985.818 467.35 860.887 441.709 746.059 424.611C631.23 407.514 498.653 405.163 427.633 471.646C361.588 533.472 364.204 628.331 292.025 685.849C223.719 740.276 112.564 731.636 23.1172 755.76C-110.551 791.81 -202.493 912.01 -192.719 1036.46" stroke="#121212" stroke-width="2.7796" stroke-miterlimit="10"/>
<path d="M2053.7 -131.169C2102.32 -51.9144 2048.96 50.9841 1963.56 98.6434C1878.15 146.303 1769.14 152.354 1663.32 158.724C1557.5 165.092 1444.44 174.797 1360.15 225.877C1259.87 286.651 1210.01 392.453 1095.36 436.465C995.387 474.843 869.202 448.178 753.326 430.237C637.45 412.296 503.777 409.079 431.931 474.915C365.115 536.14 366.917 630.37 294.177 687.46C225.341 741.487 113.69 732.472 23.913 756.351C-110.246 792.034 -202.496 912.013 -192.724 1036.46" stroke="#121212" stroke-width="3.0632" stroke-miterlimit="10"/>
<path d="M1763.06 -380.962C1811.69 -301.707 1773.33 -184.892 1705.51 -121.017C1637.69 -57.1407 1552.05 -29.6077 1467.46 -3.92575C1382.87 21.7586 1290.85 50.3806 1219.09 112.219C1133.7 185.791 1099.9 305.118 998.055 359.751C909.256 407.389 794.361 389.931 687.911 379.577C581.458 369.223 457.634 373.808 393.239 445.473C333.353 512.122 342.492 612.008 274.786 672.937C210.711 730.6 103.527 724.948 16.7171 751.038C-113.008 790.029 -202.491 912.01 -192.719 1036.46" stroke="#121212" stroke-width="0.5105" stroke-miterlimit="10"/>
<path d="M1763.06 -380.962C1811.69 -301.707 1771.75 -186.394 1702.23 -124.14C1632.71 -61.8862 1544.92 -36.4014 1458.68 -12.2869C1372.44 11.8253 1279.14 39.2284 1207.37 101.069C1121.99 174.641 1088.6 294.37 987.367 349.58C899.095 397.72 784.968 380.993 679.309 371.394C573.65 361.795 450.847 367.35 387.339 439.862C328.277 507.294 338.417 608.135 271.46 669.778C208.098 728.111 101.65 723.162 15.3603 749.747C-113.587 789.478 -202.493 912.01 -192.722 1036.46" stroke="#121212" stroke-width="0.8752" stroke-miterlimit="10"/>
<path d="M1763.06 -380.962C1811.69 -301.707 1770.18 -187.894 1698.95 -127.263C1627.73 -66.6317 1537.78 -43.1927 1449.89 -20.6504C1362 1.89193 1267.43 28.0763 1195.66 89.9144C1110.27 163.486 1077.31 283.614 976.679 339.402C888.937 388.044 775.575 372.045 670.708 363.201C565.842 354.357 444.061 360.886 381.438 434.239C323.2 502.455 334.342 604.25 268.135 666.608C205.484 725.619 99.774 721.373 14.0063 748.454C-114.163 788.925 -202.493 912.008 -192.719 1036.46" stroke="#121212" stroke-width="1.2399" stroke-miterlimit="10"/>
<path d="M1763.06 -380.962C1811.69 -301.707 1768.6 -189.397 1695.67 -130.386C1622.74 -71.3748 1530.65 -49.9864 1441.11 -29.0115C1351.57 -8.03898 1255.71 16.9241 1183.94 78.7622C1098.55 152.334 1066.01 272.864 965.988 329.228C878.774 378.373 766.177 363.105 662.106 355.015C558.034 346.926 437.274 354.429 375.537 428.626C318.124 497.626 330.266 600.373 264.812 663.446C202.87 723.135 97.8997 719.592 12.6517 747.168C-114.739 788.38 -202.491 912.01 -192.719 1036.46" stroke="#121212" stroke-width="1.6045" stroke-miterlimit="10"/>
<path d="M1763.06 -380.962C1811.69 -301.707 1767.02 -190.897 1692.39 -133.509C1617.76 -76.1203 1523.52 -56.7777 1432.33 -37.375C1341.14 -17.9723 1243.99 5.76956 1172.23 67.6101C1086.84 141.182 1054.72 262.111 955.3 319.052C868.613 368.701 756.782 354.16 653.504 346.825C550.226 339.49 430.487 347.967 369.636 423.005C313.047 492.791 326.19 596.49 261.486 660.28C200.256 720.645 96.0233 717.803 11.2975 745.877C-115.315 787.829 -202.491 912.01 -192.719 1036.46" stroke="#121212" stroke-width="1.9692" stroke-miterlimit="10"/>
<path d="M1763.06 -380.962C1811.69 -301.707 1765.45 -192.397 1689.11 -136.631C1612.77 -80.8634 1516.38 -63.569 1423.54 -45.7361C1330.7 -27.9033 1232.28 -5.38021 1160.51 56.4579C1075.12 130.03 1043.42 251.36 944.61 308.878C858.453 359.03 747.387 345.217 644.9 338.639C542.413 332.062 423.698 341.507 363.733 417.392C307.966 487.961 322.11 592.612 258.159 657.116C197.64 718.159 94.147 716.019 9.94093 744.591C-115.893 787.283 -202.493 912.012 -192.721 1036.46" stroke="#121212" stroke-width="2.3339" stroke-miterlimit="10"/>
<path d="M1763.06 -380.962C1811.69 -301.707 1763.87 -193.899 1685.83 -139.754C1607.79 -85.6089 1509.24 -70.3627 1414.76 -54.0996C1320.27 -37.8366 1220.56 -16.5347 1148.8 45.3034C1063.41 118.875 1032.13 240.604 933.922 298.699C848.292 349.354 737.992 336.272 636.301 330.447C534.608 324.622 416.914 335.043 357.835 411.771C302.892 483.125 318.037 588.73 254.836 653.95C195.026 715.668 92.273 714.233 8.58664 743.3C-116.472 786.735 -202.493 912.013 -192.719 1036.46" stroke="#121212" stroke-width="2.6985" stroke-miterlimit="10"/>
<path d="M1763.06 -380.962C1811.69 -301.707 1762.29 -195.4 1682.55 -142.877C1602.81 -90.352 1502.11 -77.1564 1405.97 -62.4632C1309.83 -47.7699 1208.85 -27.6893 1137.08 34.1512C1051.69 107.723 1020.83 229.854 923.233 288.523C838.134 339.68 728.599 327.326 627.699 322.259C526.8 317.191 410.127 328.584 351.934 406.153C297.815 478.29 313.961 584.848 251.512 650.784C192.415 713.18 90.3988 712.447 7.23468 742.009C-117.043 786.185 -202.488 912.01 -192.717 1036.46" stroke="#121212" stroke-width="3.0632" stroke-miterlimit="10"/>
<path d="M1763.06 -380.962C1811.69 -301.707 1762.15 -195.652 1682.19 -143.485C1602.24 -91.3184 1501.24 -78.6469 1404.75 -64.5667C1308.25 -50.4864 1206.82 -31.1679 1134.59 29.8793C1048.66 102.507 1017.1 223.435 918.871 281.028C833.224 331.245 723.077 317.838 621.627 311.82C520.177 305.803 402.878 316.121 344.182 392.828C289.598 464.162 305.213 569.813 242.386 635.096C182.93 696.876 80.5581 695.533 -2.84922 724.676C-127.49 768.227 -213.186 893.622 -203.415 1018.07" stroke="#121212" stroke-width="2.6985" stroke-miterlimit="10"/>
<path d="M1763.06 -380.962C1811.69 -301.707 1762 -195.902 1681.84 -144.093C1601.68 -92.2848 1500.37 -80.1398 1403.52 -66.6725C1306.67 -53.2053 1204.8 -34.6513 1132.11 25.6026C1045.62 97.2898 1013.36 217.016 914.509 273.53C828.314 322.807 717.556 308.344 615.553 301.38C513.549 294.415 395.628 303.659 336.428 379.5C281.375 450.031 296.464 554.773 233.257 619.405C173.443 680.568 70.7179 678.615 -12.9326 707.341C-137.94 750.267 -223.884 875.231 -214.113 999.679" stroke="#121212" stroke-width="2.3339" stroke-miterlimit="10"/>
<path d="M1763.06 -380.962C1811.69 -301.707 1761.85 -196.152 1681.49 -144.704C1601.12 -93.2536 1499.5 -81.6351 1402.3 -68.7809C1305.09 -55.9267 1202.77 -38.1347 1129.62 21.3282C1042.59 92.0731 1009.63 210.598 910.149 266.031C823.406 314.366 712.036 298.851 609.482 290.942C506.929 283.032 388.38 291.196 328.679 366.175C273.16 435.903 287.721 539.736 224.136 603.719C163.963 664.266 60.8822 661.703 -23.0116 690.01C-148.382 732.311 -234.578 856.846 -224.806 981.293" stroke="#121212" stroke-width="1.9692" stroke-miterlimit="10"/>
<path d="M1763.06 -380.962C1811.69 -301.707 1761.71 -196.404 1681.13 -145.312C1600.56 -94.22 1498.63 -83.1279 1401.07 -70.8868C1303.51 -58.6456 1200.75 -41.6181 1127.13 17.0516C1039.55 86.8541 1005.9 204.176 905.785 258.531C818.494 305.926 706.512 289.357 603.405 280.499C500.301 271.64 381.125 278.729 320.922 352.845C264.935 421.77 278.969 524.697 215.004 588.026C154.473 647.957 51.039 644.786 -33.0979 672.673C-158.832 714.349 -245.278 838.453 -235.507 962.901" stroke="#121212" stroke-width="1.6045" stroke-miterlimit="10"/>
<path d="M1763.06 -380.962C1811.69 -301.707 1761.56 -196.654 1680.78 -145.92C1599.99 -95.1864 1497.77 -84.6184 1399.85 -72.9903C1301.93 -61.3621 1198.72 -45.0991 1124.65 12.7796C1036.52 81.6398 1002.16 197.76 901.425 251.035C813.588 297.488 700.992 279.866 597.335 270.06C493.678 260.255 373.88 266.269 313.173 339.519C256.717 407.639 270.223 509.66 205.88 572.34C144.991 631.653 41.2007 627.874 -43.1795 655.342C-169.277 696.393 -255.972 820.067 -246.2 944.515" stroke="#121212" stroke-width="1.2399" stroke-miterlimit="10"/>
<path d="M1763.06 -380.962C1811.69 -301.707 1761.42 -196.907 1680.42 -146.531C1599.43 -96.1552 1496.9 -86.1137 1398.62 -75.0986C1300.34 -64.0835 1196.69 -48.5849 1122.16 8.50293C1033.48 76.4207 998.428 191.339 897.065 243.535C808.681 289.047 695.47 270.373 591.265 259.618C487.058 248.864 366.633 253.802 305.424 326.189C248.502 393.506 261.481 494.618 196.759 556.646C135.511 615.345 31.3678 610.955 -53.2555 638.005C-179.717 678.428 -266.662 801.672 -256.891 926.122" stroke="#121212" stroke-width="0.8752" stroke-miterlimit="10"/>
<path d="M1763.06 -380.962C1811.69 -301.707 1761.27 -197.157 1680.07 -147.139C1598.87 -97.1217 1496.03 -87.6066 1397.4 -77.2045C1298.76 -66.8024 1194.67 -52.0683 1119.68 4.22616C1030.45 71.2016 994.696 184.918 892.703 236.037C803.771 280.609 689.948 260.88 585.191 249.177C480.433 237.474 359.381 241.34 297.669 312.861C240.279 379.375 252.731 479.579 187.63 540.958C126.024 599.041 21.5248 594.04 -63.3418 620.672C-190.167 660.47 -277.363 783.283 -267.591 907.731" stroke="#121212" stroke-width="0.5105" stroke-miterlimit="10"/>
<path d="M1763.06 -380.962C1811.69 -301.707 1761.27 -197.157 1680.07 -147.139C1598.87 -97.1217 1496.03 -87.6066 1397.4 -77.2045C1298.76 -66.8024 1194.67 -52.0683 1119.68 4.22616C1030.45 71.2016 994.696 184.918 892.703 236.037C803.771 280.609 689.948 260.88 585.191 249.177C480.433 237.474 359.381 241.34 297.669 312.861C240.279 379.375 252.731 479.579 187.63 540.958C126.024 599.041 21.5248 594.04 -63.3418 620.672C-190.167 660.47 -277.363 783.283 -267.591 907.731" stroke="#121212" stroke-width="0.5105" stroke-miterlimit="10"/>
<path d="M1709.09 -380.464C1755.29 -302.798 1707.3 -201.525 1629.53 -151.558C1551.74 -101.557 1452.68 -89.7775 1357.2 -78.0099C1261.74 -66.2543 1160.87 -51.0538 1087.07 2.77414C1009.94 59.0926 971.405 149.055 895.45 203.465C885.125 210.86 874.107 217.6 862.206 223.514C775.273 266.68 665.185 250.295 564.293 242.011C487.685 235.784 402.773 238.292 340.685 270.835C320.968 281.102 303.555 294.387 289.4 311.361C255.496 352.022 246.945 404.886 230.157 453.522C219.937 483.125 206.664 511.153 182.899 533.912C123.359 590.98 22.9173 588.631 -59.653 614.864C-63.4878 616.083 -67.2869 617.374 -71.0501 618.734C-188.306 661.155 -270.085 772.133 -265.986 882.616" stroke="#121212" stroke-width="0.6807" stroke-miterlimit="10"/>
<path d="M1655.11 -379.967C1698.9 -303.89 1653.34 -205.893 1579 -155.979C1504.62 -105.992 1409.33 -91.9481 1317.01 -78.8175C1224.72 -65.7109 1127.07 -50.0416 1054.46 1.31744C978.76 54.9939 938.793 139.73 864.226 191.736C854.088 198.806 843.305 205.275 831.703 210.985C746.768 252.747 640.42 239.7 543.394 234.837C469.653 231.26 388.772 236.347 329.705 269.496C311.048 279.967 294.544 293.168 281.127 309.852C248.986 349.832 240.576 401.201 224.098 448.517C214.073 477.305 201.052 504.568 178.161 526.856C120.686 582.912 24.3024 583.21 -55.9689 609.046C-59.6963 610.246 -63.393 611.51 -67.0563 612.84C-181.125 654.198 -263.114 757.108 -264.386 857.495" stroke="#121212" stroke-width="0.8509" stroke-miterlimit="10"/>
<path d="M1601.13 -379.469C1642.51 -304.981 1599.38 -210.261 1528.47 -160.397C1457.49 -110.428 1365.98 -94.119 1276.81 -79.6253C1187.7 -65.1676 1093.27 -49.0296 1021.85 -0.137038C947.577 50.8951 906.179 130.407 833.001 180.012C823.05 186.755 812.503 192.955 801.203 198.46C718.267 238.816 615.655 229.113 522.494 227.668C451.618 226.743 374.725 234.315 318.725 268.161C301.113 278.806 285.532 291.954 272.853 308.347C242.478 347.645 234.207 397.523 218.041 443.514C208.21 471.484 195.446 497.986 173.425 519.805C118.016 574.847 25.6899 577.797 -52.2851 603.236C-55.905 604.416 -59.4992 605.657 -63.0602 606.952C-173.941 647.248 -256.14 742.088 -262.784 832.378" stroke="#121212" stroke-width="1.0211" stroke-miterlimit="10"/>
<path d="M1547.15 -378.969C1586.12 -306.07 1545.41 -214.624 1477.93 -164.813C1410.37 -114.861 1322.63 -96.2874 1236.61 -80.4282C1150.68 -64.6195 1059.47 -48.0127 989.251 -1.58904C916.396 46.7987 873.569 121.087 801.782 168.29C792.018 174.708 781.706 180.637 770.709 185.937C689.769 224.887 590.894 218.526 501.601 220.502C433.59 222.228 360.684 232.277 307.756 266.83C291.185 277.648 276.529 290.74 264.589 306.844C235.978 345.462 227.848 393.847 211.991 438.516C202.353 465.672 189.845 491.409 168.696 512.759C115.354 566.786 27.0848 572.388 -48.5913 597.428C-52.1036 598.591 -55.5955 599.803 -59.0591 601.065C-166.753 640.298 -249.162 727.071 -261.176 807.261" stroke="#121212" stroke-width="1.1912" stroke-miterlimit="10"/>
<path d="M1493.17 -378.471C1529.73 -307.159 1491.45 -218.992 1427.4 -169.232C1363.24 -119.296 1279.29 -98.4583 1196.42 -81.236C1113.66 -64.0763 1025.67 -47.0007 956.647 -3.04356C885.215 42.7022 840.96 111.764 770.56 156.563C760.983 162.655 750.91 168.314 740.209 173.41C661.269 210.956 566.119 207.763 480.702 213.328C415.547 217.574 346.637 230.219 296.776 265.493C281.249 276.477 267.518 289.523 256.315 305.339C229.471 343.277 221.481 390.167 205.932 433.513C196.488 459.851 184.233 484.827 163.958 505.705C112.681 558.721 28.4699 566.969 -44.9099 591.612C-48.3173 592.757 -51.7016 593.944 -55.0655 595.173C-159.575 633.341 -242.191 712.048 -259.576 782.139" stroke="#121212" stroke-width="1.3614" stroke-miterlimit="10"/>
<path d="M1439.19 -377.974C1473.33 -308.25 1437.48 -223.36 1376.86 -173.653C1316.11 -123.734 1235.94 -100.631 1156.22 -82.0436C1076.63 -63.5328 991.872 -45.9884 924.035 -4.50018C854.027 38.6011 808.341 102.439 739.333 144.836C729.943 150.603 720.105 155.988 709.707 160.885C632.766 197.027 541.34 197.155 459.799 206.16C397.502 213.04 332.58 228.154 285.794 264.159C271.309 275.306 258.504 288.307 248.039 303.834C222.958 341.092 215.107 386.489 199.872 428.513C190.62 454.036 178.624 478.247 159.22 498.657C110.009 550.658 29.8551 561.558 -41.2284 585.802C-44.5283 586.927 -47.8102 588.088 -51.0742 589.285C-152.394 626.391 -235.223 697.03 -257.979 757.025" stroke="#121212" stroke-width="1.5316" stroke-miterlimit="10"/>
<path d="M1385.22 -377.476C1416.94 -309.342 1383.52 -227.729 1326.33 -178.071C1268.99 -128.169 1192.58 -102.802 1116.02 -82.8491C1039.61 -62.9872 958.075 -44.9716 891.43 -5.95473C822.845 34.5022 775.731 93.1141 708.111 133.109C698.908 138.55 689.306 143.665 679.209 148.358C604.265 183.093 516.565 186.55 438.904 198.989C379.461 208.509 318.528 226.072 274.819 262.822C261.374 274.128 249.495 287.09 239.772 302.327C216.458 338.904 208.748 382.808 193.82 423.51C184.763 448.216 173.02 471.665 154.488 491.604C107.343 542.592 31.2474 556.141 -37.5372 579.987C-40.7295 581.092 -43.909 582.23 -47.0732 583.391C-145.208 619.434 -228.244 682.003 -256.371 731.9" stroke="#121212" stroke-width="1.7018" stroke-miterlimit="10"/>
<path d="M1331.24 -376.979C1360.55 -310.433 1329.56 -232.097 1275.8 -182.49C1221.86 -132.602 1149.24 -104.971 1075.83 -83.6568C1002.59 -62.4439 924.278 -43.962 858.826 -7.40918C791.667 30.4033 743.122 83.7914 676.89 121.385C667.871 126.501 658.506 131.345 648.709 135.833C575.765 169.162 491.784 175.956 418.005 191.82C361.416 203.987 304.458 223.976 263.841 261.488C251.433 272.948 240.487 285.876 231.501 300.822C209.951 336.719 202.381 379.13 187.763 418.508C178.901 442.398 167.411 465.083 149.753 484.553C104.673 534.527 32.6351 550.725 -33.8532 574.174C-36.938 575.263 -40.0152 576.371 -43.0795 577.501C-138.027 612.482 -221.273 666.983 -254.771 706.781" stroke="#121212" stroke-width="1.872" stroke-miterlimit="10"/>
<path d="M1277.26 -376.481C1304.15 -311.525 1275.59 -236.465 1225.26 -186.909C1174.74 -137.038 1105.89 -107.142 1035.64 -84.4623C965.568 -61.8959 890.478 -42.9452 826.222 -8.86366C760.487 26.3069 710.513 74.4686 645.671 109.661C636.839 114.45 627.71 119.024 618.215 123.308C547.267 155.233 467.013 165.371 397.113 184.649C343.381 199.469 290.386 221.865 252.869 260.154C241.493 271.762 231.481 284.66 223.235 299.317C203.451 334.533 196.02 375.449 181.714 413.507C173.044 436.581 161.813 458.5 145.024 477.502C102.011 526.461 34.0304 545.311 -30.159 568.361C-33.1389 569.431 -36.1111 570.515 -39.0755 571.611C-130.836 605.527 -214.292 651.962 -253.161 681.661" stroke="#121212" stroke-width="2.0421" stroke-miterlimit="10"/>
<path d="M1223.28 -375.983C1247.76 -312.616 1221.63 -240.83 1174.73 -191.33C1127.61 -141.475 1062.54 -109.315 995.436 -85.2723C928.543 -61.3549 856.676 -41.9354 793.613 -10.3204C729.301 22.2058 677.896 65.1436 614.444 97.9318C605.799 102.396 596.905 106.697 587.71 110.781C518.761 141.3 442.233 154.794 376.208 177.478C325.333 194.957 276.286 219.74 241.884 258.817C231.537 270.573 222.464 283.444 214.956 297.81C196.936 332.343 189.645 371.769 175.65 408.502C167.173 430.761 156.196 451.918 140.281 470.448C99.3334 518.396 35.4076 539.895 -26.4829 562.546C-29.3553 563.596 -32.225 564.654 -35.0897 565.716C-123.663 598.569 -207.329 636.935 -251.568 656.537" stroke="#121212" stroke-width="2.2123" stroke-miterlimit="10"/>
<path d="M1169.3 -375.486C1191.37 -313.708 1167.67 -245.198 1124.19 -195.748C1080.48 -145.911 1019.19 -111.486 955.241 -86.0776C891.523 -60.8092 822.879 -40.9209 761.006 -11.7748C698.117 18.1069 645.284 55.8209 583.222 86.2074C574.764 90.3447 566.106 94.3762 557.212 98.2563C490.263 127.371 417.465 144.228 355.31 170.309C307.295 190.457 262.172 217.603 230.907 257.483C221.581 269.378 213.456 282.227 206.684 296.305C190.431 330.158 183.278 368.091 169.593 403.502C161.308 424.943 150.587 445.336 135.545 463.397C96.6658 510.333 36.7977 534.481 -22.7965 556.735C-25.5613 557.766 -28.3287 558.8 -31.0935 559.829C-116.48 591.62 -200.356 621.917 -249.966 631.423" stroke="#121212" stroke-width="2.3825" stroke-miterlimit="10"/>
<path d="M1115.33 -374.986C1134.97 -314.797 1113.7 -249.564 1073.66 -200.164C1033.36 -150.344 975.841 -113.652 915.046 -86.8806C854.502 -60.2611 789.082 -39.9041 728.402 -13.2245C666.936 14.0152 612.675 46.5029 552 74.4855C543.729 78.2982 535.309 82.0581 526.712 85.7338C461.76 113.442 392.702 133.674 334.413 163.143C289.265 185.966 248.033 215.458 219.932 256.151C211.623 268.185 204.447 281.016 198.415 294.805C183.926 327.978 176.914 364.417 163.541 398.504C155.451 419.13 144.986 438.759 130.814 456.351C93.9982 502.272 38.1876 529.07 -19.1077 550.925C-21.7676 551.939 -24.43 552.944 -27.0949 553.942C-109.294 584.67 -193.38 606.899 -248.361 606.306" stroke="#121212" stroke-width="2.5527" stroke-miterlimit="10"/>
<path d="M1061.35 -374.488C1078.58 -315.886 1059.74 -253.932 1023.12 -204.583C986.23 -154.777 932.49 -115.822 874.847 -87.6885C817.477 -59.7179 755.279 -38.8921 695.793 -14.6814C635.75 9.91393 580.058 37.1777 520.773 62.7586C512.689 66.2444 504.504 69.735 496.21 73.2064C433.257 99.511 368.013 123.224 313.51 155.971C271.291 181.552 233.864 213.302 208.95 254.817C201.646 266.988 195.433 279.801 190.139 293.3C177.413 325.792 170.542 360.737 157.478 393.503C149.583 413.312 139.371 432.179 126.072 449.3C91.3228 494.207 39.5699 523.656 -15.4292 545.112C-17.9815 546.107 -20.5415 547.088 -23.1066 548.052C-102.118 577.715 -186.414 591.877 -246.766 581.186" stroke="#121212" stroke-width="2.7229" stroke-miterlimit="10"/>
<path d="M1007.37 -373.99C1022.19 -316.977 1005.78 -258.3 972.588 -209.004C939.106 -159.214 889.142 -117.995 834.65 -88.496C780.452 -59.1744 721.48 -37.8798 663.186 -16.138C604.567 5.81295 547.446 27.8528 489.552 51.0322C481.654 54.1934 473.705 57.4124 465.713 60.6818C404.757 85.5801 343.25 112.635 292.616 148.8C253.261 177.033 219.666 211.143 197.975 253.478C191.67 265.784 186.427 278.58 181.87 291.79C170.911 323.603 164.178 357.054 151.424 388.498C143.721 407.492 133.765 425.595 121.339 442.247C88.6557 486.139 40.9603 518.238 -11.7398 539.297C-14.1846 540.273 -16.6397 541.227 -19.1075 542.157C-94.9322 570.758 -179.438 576.852 -245.161 556.062" stroke="#121212" stroke-width="2.893" stroke-miterlimit="10"/>
<path d="M953.39 -373.493C978.332 -262.05 896.586 -150.702 794.458 -89.3038C692.327 -27.9056 571.249 -2.21407 458.33 39.3054C345.411 80.8249 232.154 146.457 186.998 252.144C168.871 294.572 162.977 340.875 145.37 383.496C117.038 452.077 57.5259 508.73 -15.109 536.267C-87.7464 563.805 -172.462 561.832 -243.556 530.943" stroke="#121212" stroke-width="3.0632" stroke-miterlimit="10"/>
<path d="M953.39 -373.493C978.332 -262.05 896.092 -151.108 793.296 -90.2606C690.499 -29.4105 568.507 -4.47142 454.638 36.2644C340.767 77.0025 226.407 141.723 180.357 246.674C161.872 288.807 155.63 334.824 137.713 377.19C108.882 445.358 48.9143 501.638 -24.0201 528.93C-96.9545 556.223 -181.857 554.098 -252.951 523.209" stroke="#121212" stroke-width="2.9271" stroke-miterlimit="10"/>
<path d="M953.39 -373.493C978.332 -262.05 895.596 -151.517 792.133 -91.2174C688.671 -30.9154 565.765 -6.72878 450.944 33.2233C336.123 73.1778 220.657 136.99 173.714 241.205C154.87 283.045 148.283 328.773 130.056 370.884C100.726 438.641 40.3024 494.544 -32.929 521.593C-106.16 548.641 -191.247 546.362 -262.341 515.475" stroke="#121212" stroke-width="2.7909" stroke-miterlimit="10"/>
<path d="M953.39 -373.493C978.332 -262.05 895.102 -151.926 790.971 -92.1742C686.843 -32.4227 563.024 -8.98617 447.253 30.1822C331.479 69.353 214.91 132.256 167.073 235.736C147.871 277.28 140.938 322.725 122.399 364.579C92.5698 431.924 31.6905 487.452 -41.8379 514.257C-115.366 541.061 -200.64 538.628 -271.731 507.742" stroke="#121212" stroke-width="2.6548" stroke-miterlimit="10"/>
<path d="M953.39 -373.493C978.332 -262.05 894.605 -152.334 789.809 -93.131C685.013 -33.9277 560.284 -11.2435 443.558 27.1411C326.835 65.5282 209.162 127.523 160.433 230.267C140.869 271.515 133.591 316.674 114.742 358.273C84.4108 425.208 23.0784 480.36 -50.7495 506.92C-124.575 533.479 -210.033 530.895 -281.126 500.008" stroke="#121212" stroke-width="2.5186" stroke-miterlimit="10"/>
<path d="M953.39 -373.493C978.333 -262.05 894.111 -152.741 788.649 -94.0878C683.188 -35.4326 557.543 -13.5009 439.867 24.1001C322.192 61.7035 203.415 122.789 153.792 224.798C133.87 265.75 126.244 310.623 107.085 351.967C76.2551 418.488 14.4644 473.268 -59.6579 499.583C-133.78 525.897 -219.425 523.161 -290.516 492.272" stroke="#121212" stroke-width="2.3825" stroke-miterlimit="10"/>
<path d="M953.39 -373.493C978.332 -262.05 893.614 -153.149 787.487 -95.0422C681.359 -36.9375 554.801 -15.7583 436.175 21.0614C317.547 57.8811 197.668 118.058 147.151 219.331C126.871 259.988 118.899 304.577 99.4278 345.664C68.0985 411.774 5.85208 466.176 -68.5671 492.245C-142.989 518.314 -228.815 515.425 -299.909 484.538" stroke="#121212" stroke-width="2.2464" stroke-miterlimit="10"/>
<path d="M953.39 -373.493C978.332 -262.05 893.12 -153.558 786.324 -95.9989C679.532 -38.4424 552.061 -18.0156 432.481 18.0204C312.904 54.0563 191.918 113.325 140.511 213.862C119.872 254.223 111.552 298.526 91.7709 339.358C59.9399 405.057 -2.75968 459.085 -77.4784 484.908C-152.197 510.732 -238.208 507.691 -309.302 476.805" stroke="#121212" stroke-width="2.1102" stroke-miterlimit="10"/>
<path d="M953.39 -373.493C978.332 -262.05 892.623 -153.967 785.162 -96.9557C677.701 -39.9497 549.32 -20.2729 428.79 14.9793C308.26 50.2292 186.171 108.589 133.87 208.391C112.873 248.458 104.207 292.475 84.1139 333.05C51.7836 398.338 -11.3715 451.99 -86.3872 477.569C-161.403 503.148 -247.601 499.955 -318.692 469.068" stroke="#121212" stroke-width="1.9741" stroke-miterlimit="10"/>
<path d="M953.39 -373.493C978.332 -262.05 892.129 -154.373 784 -97.9126C675.873 -41.4546 546.578 -22.5303 425.096 11.9358C303.616 46.4044 180.424 103.855 127.229 202.922C105.874 242.693 96.8602 286.424 76.457 326.742C43.6275 391.616 -19.9833 444.894 -95.296 470.23C-170.609 495.565 -256.991 492.219 -328.084 461.33" stroke="#121212" stroke-width="1.8379" stroke-miterlimit="10"/>
<path d="M953.39 -373.493C978.332 -262.05 891.633 -154.782 782.838 -98.8693C674.045 -42.9571 543.836 -24.7876 421.404 8.89721C298.97 42.5797 174.677 99.1218 120.586 197.453C98.8724 236.929 89.513 280.374 68.7975 320.436C35.4688 384.9 -28.5977 437.802 -104.207 462.893C-179.817 487.983 -266.383 484.485 -337.477 453.596" stroke="#121212" stroke-width="1.7018" stroke-miterlimit="10"/>
<path d="M953.39 -373.493C978.332 -262.05 891.139 -155.19 781.678 -99.8261C672.218 -44.4644 541.095 -27.045 417.71 5.8537C294.326 38.7548 168.927 94.3882 113.946 191.983C91.8735 231.164 82.166 274.325 61.1407 314.131C27.3103 378.183 -37.2119 430.71 -113.118 455.556C-189.025 480.401 -275.778 476.749 -346.872 445.863" stroke="#121212" stroke-width="1.5656" stroke-miterlimit="10"/>
<path d="M953.39 -373.493C978.332 -262.05 890.642 -155.597 780.516 -100.783C670.39 -45.9693 538.355 -29.3023 414.019 2.8151C289.682 34.9325 163.18 89.6548 107.305 186.517C84.8743 225.401 74.8212 268.277 53.4862 307.827C19.1566 371.468 -45.8214 423.621 -122.025 448.221C-198.228 472.821 -285.166 469.018 -356.26 438.131" stroke="#121212" stroke-width="1.4295" stroke-miterlimit="10"/>
<path d="M953.39 -373.493C978.332 -262.05 890.148 -156.005 779.354 -101.74C668.562 -47.4742 535.614 -31.5597 410.327 -0.226C285.038 31.1077 157.432 84.9212 100.664 181.045C77.8753 219.634 67.474 262.223 45.8292 301.519C11.0004 364.747 -54.4332 416.524 -130.934 440.881C-207.434 465.236 -294.559 461.282 -365.652 430.393" stroke="#121212" stroke-width="1.2934" stroke-miterlimit="10"/>
<path d="M953.39 -373.493C978.332 -262.05 889.651 -156.414 778.191 -102.696C666.732 -48.9815 532.872 -33.8171 406.633 -3.26702C280.394 27.283 151.685 80.1878 94.0239 175.576C70.8763 213.869 60.1269 256.175 38.1723 295.214C2.84433 358.03 -63.0449 409.432 -139.845 433.542C-216.642 457.652 -303.951 453.543 -375.045 422.657" stroke="#121212" stroke-width="1.1572" stroke-miterlimit="10"/>
<path d="M953.39 -373.493C978.332 -262.05 889.155 -156.823 777.029 -103.653C664.904 -50.4864 530.13 -36.0744 402.939 -6.30808C275.751 23.4582 145.938 75.4544 87.3832 170.107C63.8773 208.107 52.7822 250.124 30.5153 288.908C-5.31444 351.313 -71.6568 402.341 -148.754 426.205C-225.851 450.072 -313.344 445.81 -384.435 414.923" stroke="#121212" stroke-width="1.0211" stroke-miterlimit="10"/>
<path d="M717.276 -586.72C735.463 -474.131 650.811 -363.583 551.068 -301.764C451.325 -239.946 338.355 -211.3 232.853 -166.138C127.347 -120.974 20.8205 -50.9575 -24.1894 58.7033C-42.2579 102.728 -48.6783 150.945 -66.5343 194.885C-95.2652 265.589 -154.081 323.021 -225.544 349.378C-297.006 375.736 -379.917 370.827 -449.034 336.211" stroke="#121212" stroke-width="3.0632" stroke-miterlimit="10"/>
<path d="M735.44 -570.318C754.148 -457.818 669.146 -347.678 568.451 -286.525C467.756 -225.372 353.106 -197.823 245.937 -153.844C138.763 -109.865 30.4464 -41.2333 -15.6054 67.2713C-34.0937 110.832 -40.8727 158.573 -59.0691 202.116C-88.3453 272.181 -147.74 329.122 -219.637 355.287C-291.535 381.452 -374.796 376.594 -444.065 342.265" stroke="#121212" stroke-width="2.9061" stroke-miterlimit="10"/>
<path d="M753.6 -553.918C772.826 -441.507 687.478 -331.776 585.831 -271.287C484.183 -210.8 367.857 -184.344 259.018 -141.55C150.178 -98.754 40.0693 -31.5093 -7.02442 75.8413C-25.93 118.938 -33.0699 166.2 -51.6043 209.35C-81.4257 278.777 -141.401 335.223 -213.732 361.196C-286.062 387.171 -369.677 382.361 -439.099 348.32" stroke="#121212" stroke-width="2.749" stroke-miterlimit="10"/>
<path d="M771.763 -537.515C791.509 -425.191 705.813 -315.871 603.213 -256.048C500.613 -196.226 382.61 -170.864 272.103 -129.256C161.595 -87.645 49.695 -21.785 1.55931 84.4117C-17.7636 127.044 -25.2643 173.831 -44.1367 216.584C-74.5059 285.372 -135.058 341.327 -207.821 367.108C-280.583 392.891 -364.551 388.131 -434.125 354.376" stroke="#121212" stroke-width="2.5919" stroke-miterlimit="10"/>
<path d="M789.927 -521.113C810.192 -408.877 724.148 -299.964 620.593 -240.809C517.041 -181.651 397.361 -157.385 285.184 -116.96C173.01 -76.5338 59.318 -12.061 10.1404 92.9818C-9.60234 135.15 -17.459 181.461 -36.6743 223.815C-67.5889 291.966 -128.722 347.426 -201.917 373.017C-275.115 398.607 -359.434 393.898 -429.158 360.429" stroke="#121212" stroke-width="2.4349" stroke-miterlimit="10"/>
<path d="M808.09 -504.71C828.877 -392.564 742.482 -284.059 637.978 -225.57C533.471 -167.078 412.114 -143.906 298.268 -104.665C184.425 -65.4249 68.9433 -2.33669 18.7238 101.55C-1.43874 143.257 -9.65632 189.089 -29.207 231.048C-60.6669 298.56 -122.378 353.53 -196.009 378.928C-269.64 404.326 -354.312 399.667 -424.189 366.487" stroke="#121212" stroke-width="2.2778" stroke-miterlimit="10"/>
<path d="M826.25 -488.308C847.555 -376.248 760.814 -268.154 655.358 -210.328C549.901 -152.502 426.865 -130.427 311.353 -92.3688C195.84 -54.3135 78.5666 7.38515 27.3052 110.12C6.72793 151.363 -1.85063 196.719 -21.7418 238.28C-53.7495 305.154 -116.039 359.629 -190.103 384.837C-264.166 410.046 -349.191 405.435 -419.22 372.541" stroke="#121212" stroke-width="2.1207" stroke-miterlimit="10"/>
<path d="M844.413 -471.905C866.237 -359.934 779.149 -252.249 672.737 -195.089C566.328 -137.93 441.615 -116.947 324.436 -80.0749C207.258 -43.2024 88.1919 17.1092 35.8885 118.69C14.8914 159.469 5.95448 204.347 -14.2772 245.513C-46.8302 311.748 -109.699 365.732 -184.195 390.749C-258.691 415.765 -344.069 411.204 -414.249 378.596" stroke="#121212" stroke-width="1.9636" stroke-miterlimit="10"/>
<path d="M862.576 -455.503C884.92 -343.621 797.483 -236.344 690.122 -179.85C582.758 -123.356 456.371 -103.471 337.523 -67.7807C218.672 -32.0933 97.8149 26.8335 44.4696 127.258C23.0552 167.576 13.7573 211.978 -6.81229 252.745C-39.9105 318.34 -103.36 371.832 -178.289 396.655C-253.217 421.479 -338.949 416.969 -409.283 384.65" stroke="#121212" stroke-width="1.8065" stroke-miterlimit="10"/>
<path d="M880.74 -439.1C903.603 -327.307 815.818 -220.44 707.502 -164.612C599.189 -108.784 471.122 -89.9914 350.605 -55.4868C230.088 -20.9822 107.441 36.5575 53.0535 135.828C31.2193 175.682 21.563 219.608 0.652921 259.978C-32.9932 324.937 -97.0188 377.935 -172.383 402.567C-247.746 427.2 -333.829 422.738 -404.313 390.705" stroke="#121212" stroke-width="1.6494" stroke-miterlimit="10"/>
<path d="M898.903 -422.7C922.286 -310.994 834.153 -204.537 724.887 -149.373C615.618 -94.208 485.875 -76.5122 363.691 -43.1927C241.503 -9.87328 117.064 46.2818 61.6345 144.399C39.383 183.788 29.3657 227.236 8.11769 267.212C-26.0737 331.533 -90.6804 384.037 -166.477 408.478C-242.273 432.919 -328.709 428.508 -399.345 396.761" stroke="#121212" stroke-width="1.4923" stroke-miterlimit="10"/>
<path d="M917.064 -406.298C940.967 -294.68 852.485 -188.632 742.267 -134.134C632.046 -79.6349 500.626 -63.0352 376.773 -30.8986C252.92 1.23811 126.689 56.006 70.2184 152.969C47.547 191.895 37.1739 234.866 15.5854 274.443C-19.1512 338.125 -84.3365 390.138 -160.568 414.387C-236.797 438.636 -323.586 434.275 -394.375 402.814" stroke="#121212" stroke-width="1.3353" stroke-miterlimit="10"/>
<path d="M935.227 -389.895C959.649 -278.364 870.822 -172.728 759.649 -118.895C648.476 -65.062 515.379 -49.5562 389.857 -18.6047C264.335 12.3468 136.312 65.7301 78.7993 161.537C55.7107 199.998 44.9766 242.494 23.0477 281.674C-12.2343 344.717 -78.0007 396.237 -154.662 420.296C-231.324 444.353 -318.467 440.043 -389.407 408.87" stroke="#121212" stroke-width="1.1782" stroke-miterlimit="10"/>
<path d="M953.39 -373.493C978.332 -262.05 889.155 -156.823 777.029 -103.653C664.904 -50.4864 530.13 -36.0744 402.939 -6.30808C275.751 23.4582 145.938 75.4544 87.3832 170.107C63.8773 208.107 52.7822 250.124 30.5153 288.908C-5.31444 351.313 -71.6568 402.341 -148.754 426.205C-225.851 450.072 -313.344 445.81 -384.435 414.923" stroke="#121212" stroke-width="1.0211" stroke-miterlimit="10"/>
</g>
<mask id="mask1_812_4953" style="mask-type:luminance" maskUnits="userSpaceOnUse" x="0" y="0" width="1920" height="1202">
<path d="M1920 0H0V1202H1920V0Z" fill="white"/>
</mask>
<g mask="url(#mask1_812_4953)">
<path d="M624.579 -15.5757C588.626 -2.99796 552.205 8.36816 516.147 20.6093C480.049 32.7183 444.135 45.4018 409.628 60.9484C375.168 76.4903 341.514 93.8592 310.718 115.094L299.193 123.068L288.085 131.537C280.538 137.03 273.718 143.305 266.606 149.262C264.802 150.728 263.163 152.351 261.497 153.95L256.497 158.741L251.497 163.532L248.999 165.929L246.664 168.465C240.471 175.254 234.023 181.848 228.514 189.147C216.643 203.145 207.043 218.646 198.152 234.409L192.287 246.614L189.353 252.718L186.773 258.964C183.445 267.334 180.47 275.842 177.792 284.446C172.437 301.661 168.028 319.177 163.159 336.634C158.267 354.071 152.945 371.536 145.385 388.246C130.588 421.765 108.38 452.25 80.9474 477.631C53.4146 502.893 20.703 523.259 -15.1089 536.267C20.2422 522.257 52.4444 501.592 79.1759 475.963C106.018 450.461 127.593 420.065 141.74 386.849C155.961 353.587 162.675 317.965 173.32 283.225C175.982 274.532 178.957 265.906 182.3 257.391L184.896 251.033L187.85 244.811L193.767 232.37C202.734 216.305 212.434 200.489 224.443 186.235C230.075 178.841 236.644 172.172 242.957 165.311L245.338 162.748L247.88 160.327L252.969 155.491L258.059 150.654C259.753 149.041 261.422 147.404 263.255 145.925C270.477 139.922 277.412 133.6 285.061 128.075L296.325 119.558L307.996 111.55C339.213 90.2965 373.061 72.7136 407.972 57.6093C477.939 27.3021 552.051 7.74792 624.579 -15.5757Z" fill="url(#paint1_linear_812_4953)"/>
<path d="M1924.95 478.72L1869.34 490.238C1850.8 494.072 1832.26 497.876 1813.85 502.184C1777.07 510.79 1740.59 521.069 1706.13 535.849C1688.92 543.244 1672.24 551.718 1656.54 561.596C1640.84 571.452 1626.17 582.732 1612.87 595.302C1586.18 620.453 1564.97 650.275 1546.86 681.428C1528.75 712.654 1513.4 745.245 1497.6 777.663C1481.84 810.085 1465.76 842.551 1446 873.207C1426.32 903.803 1402.62 932.634 1373.09 955.657L1367.51 959.905L1364.72 962.028L1361.8 963.997L1350.08 971.812L1337.85 978.892C1335.84 980.12 1333.72 981.161 1331.6 982.209L1325.26 985.378C1308.25 993.626 1290.43 1000.36 1272.14 1005.6C1235.44 1015.76 1197.29 1020.63 1159.2 1021.55C1121.06 1022.74 1082.98 1019.73 1045.25 1015.51C969.805 1006.85 895.145 992.722 819.369 990.236C781.586 989.246 743.557 991.325 706.524 998.6C669.474 1005.56 633.49 1018.07 601.308 1036.7C585.262 1046.09 570.522 1057.33 557.049 1069.78C543.652 1082.33 531.963 1096.41 521.262 1111.09C499.879 1140.52 482.645 1172.41 463.435 1203.14C482.286 1172.21 499.129 1140.17 520.226 1110.43C530.786 1095.6 542.364 1081.32 555.712 1068.54C569.14 1055.86 583.888 1044.36 599.975 1034.71C632.315 1015.67 668.572 1002.87 705.867 995.626C743.156 988.078 781.44 985.762 819.492 986.539C857.562 987.575 895.44 991.489 933.056 996.434C970.696 1001.3 1008.18 1006.92 1045.81 1011.17C1083.43 1015.3 1121.26 1018.21 1159.05 1016.96C1196.82 1015.99 1234.52 1011.06 1270.66 1001C1288.69 995.871 1306.24 989.28 1322.96 981.209L1329.2 978.111C1331.28 977.084 1333.37 976.07 1335.34 974.865L1347.36 967.939L1358.87 960.292L1361.74 958.369L1364.48 956.289L1369.97 952.131C1399.01 929.586 1422.45 901.233 1442.02 870.943C1481.3 810.124 1506.44 742.204 1543.43 679.654C1561.84 648.424 1583.44 618.439 1610.59 593.165C1637.63 567.777 1670.36 548.232 1705.1 533.719C1739.95 519.206 1776.64 509.287 1813.56 501.049C1832.04 496.926 1850.64 493.31 1869.21 489.668L1924.95 478.72Z" fill="#00E0FF" fill-opacity="0.53"/>
<path d="M1942.45 616.604C1920.29 624.172 1898.44 632.588 1877.57 642.827C1874.94 644.063 1872.35 645.378 1869.8 646.748C1867.24 648.106 1864.65 649.416 1862.11 650.811C1857.1 653.698 1852.01 656.463 1847.16 659.595C1837.31 665.612 1827.96 672.324 1819.07 679.505L1812.47 684.964L1806.16 690.72L1803.03 693.612L1800.05 696.65C1798.08 698.686 1796.06 700.675 1794.14 702.749C1790.47 707.038 1786.57 711.151 1783.26 715.695C1781.57 717.938 1779.76 720.106 1778.16 722.407L1773.45 729.357C1767.38 738.754 1761.9 748.5 1757.2 758.594C1752.34 768.619 1748.17 778.939 1744.18 789.317C1736.29 810.117 1729.51 831.315 1721.89 852.316C1714.32 873.306 1706.02 894.254 1694.87 913.965C1683.92 933.723 1671.04 952.595 1656.05 969.879C1641.09 987.186 1624.45 1003.17 1606.58 1017.81C1570.79 1047.11 1530.05 1070.53 1487.72 1090.24C1445.25 1109.89 1401.02 1125.62 1356.83 1141.04C1312.66 1156.51 1268.41 1171.83 1225.77 1190.64C1204.42 1199.97 1183.56 1210.26 1163.26 1221.47C1143.06 1232.84 1123.61 1245.4 1104.96 1258.94C1123.27 1244.99 1142.48 1232.05 1162.55 1220.38C1182.7 1208.83 1203.45 1198.19 1224.69 1188.51C1267.24 1169.21 1311.44 1153.46 1355.44 1137.58C1399.39 1121.61 1443.57 1106.04 1485.64 1086.31C1527.64 1066.61 1567.94 1043.23 1603.23 1014.18C1620.94 999.766 1637.42 984.032 1652.25 966.997C1667.11 949.984 1679.87 931.41 1690.74 911.95C1701.8 892.557 1710.09 871.873 1717.71 850.977C1725.31 830.07 1732.32 808.9 1740.5 788.06C1744.62 777.655 1748.93 767.294 1753.95 757.207C1758.8 747.057 1764.46 737.232 1770.71 727.76L1775.57 720.753C1777.21 718.433 1779.07 716.25 1780.81 713.993C1784.21 709.42 1788.21 705.285 1791.97 700.977C1793.94 698.893 1796.01 696.9 1798.02 694.857L1801.07 691.811L1804.27 688.917L1810.71 683.159L1817.45 677.724C1826.55 670.61 1836.09 663.992 1846.11 658.085C1851.04 655.008 1856.2 652.304 1861.29 649.481C1863.86 648.118 1866.49 646.842 1869.08 645.517C1871.67 644.181 1874.29 642.902 1876.95 641.7C1887.47 636.651 1898.32 632.269 1909.23 628.047C1920.18 623.908 1931.29 620.179 1942.45 616.604Z" fill="url(#paint2_linear_812_4953)"/>
<path d="M1047.85 -32.2786C1022.78 -21.6745 998.764 -8.6809 977.352 7.50043C955.856 23.5856 936.661 42.1541 918.242 61.2827C899.827 80.4426 882.069 100.199 863.212 119.099C844.275 137.893 824.103 155.834 801.388 170.785C778.742 185.81 753.239 196.94 726.779 204.595C723.508 205.684 720.113 206.359 716.782 207.242C713.431 208.059 710.098 208.951 706.732 209.708L696.581 211.747C693.202 212.449 689.815 213.117 686.395 213.605C679.578 214.694 672.766 215.829 665.897 216.567C662.469 216.971 659.047 217.439 655.614 217.79L645.305 218.735C590.267 223.685 534.999 221.084 480.269 223.757C452.908 225.161 425.623 228.171 398.928 233.741C385.598 236.578 372.457 240.145 359.642 244.52C356.465 245.679 353.226 246.701 350.101 247.973L340.718 251.776L331.559 256.014C328.479 257.384 325.607 259.105 322.619 260.634C299.026 273.279 278.154 290.706 263.491 312.203C248.581 333.617 239.434 358.124 231.565 382.753C223.649 407.423 216.986 432.633 206.636 456.762C201.457 468.799 195.405 480.569 187.879 491.519C180.401 502.491 171.438 512.578 161.224 521.391C140.713 539.09 115.477 550.922 89.6616 559.738C63.734 568.575 36.9487 574.698 10.3042 581.1C36.8412 574.32 63.5317 567.81 89.2239 558.634C114.809 549.487 139.63 537.369 159.521 519.665C169.462 510.879 178.197 500.929 185.447 490.067C192.753 479.235 198.618 467.583 203.633 455.637C213.658 431.693 220.071 406.543 227.792 381.702C231.647 369.274 235.812 356.883 240.904 344.774C246.047 332.692 252.199 320.917 259.784 309.936C274.791 287.802 296.208 269.835 320.284 256.851C323.331 255.281 326.27 253.514 329.406 252.105L338.742 247.754L348.293 243.852C351.475 242.549 354.765 241.499 357.996 240.311C371.021 235.825 384.351 232.171 397.85 229.26C424.878 223.55 452.419 220.428 479.987 218.963C493.778 218.18 507.587 218.002 521.349 217.841L562.624 217.526C590.111 217.276 617.587 216.747 644.887 214.389L655.117 213.48C658.522 213.141 661.911 212.687 665.308 212.295C672.118 211.581 678.859 210.477 685.607 209.417C688.994 208.944 692.339 208.292 695.68 207.607L705.716 205.619C709.041 204.881 712.328 204.008 715.638 203.21C718.928 202.347 722.284 201.693 725.504 200.626C731.979 198.602 738.573 196.878 744.863 194.38L754.396 190.885L763.669 186.832C776.118 181.586 787.866 174.951 799.166 167.758C821.699 153.195 841.864 135.581 860.882 117.022C879.839 98.3644 897.739 78.7285 916.411 59.7105C935.179 40.8006 954.757 22.4245 976.592 6.5845C998.346 -9.36123 1022.61 -22.0303 1047.85 -32.2786Z" fill="url(#paint3_linear_812_4953)"/>
<path d="M1922.21 994.059C1905.95 1015.48 1892.88 1038.66 1878.77 1061.38C1864.74 1084.07 1849.41 1106.58 1829.56 1125.58C1809.84 1144.6 1786.92 1160.47 1762.4 1173.39C1737.86 1186.32 1711.74 1196.31 1685.04 1204.15C1711.08 1194.54 1736.46 1183.47 1760.4 1170.14C1784.24 1156.71 1806.61 1140.94 1825.88 1122.24C1845.38 1103.71 1860.65 1081.71 1875.36 1059.46C1889.99 1037.15 1904.36 1014.36 1922.21 994.059Z" fill="url(#paint4_linear_812_4953)"/>
</g>
<mask id="mask2_812_4953" style="mask-type:luminance" maskUnits="userSpaceOnUse" x="0" y="0" width="1920" height="1202">
<path d="M1920 0H0V1202H1920V0Z" fill="white"/>
</mask>
<g mask="url(#mask2_812_4953)">
<path d="M350.605 -55.4868C330.365 -49.0753 310.2 -42.4908 290.445 -34.935C270.613 -27.5788 251.09 -19.5158 232.046 -10.5705C194.025 7.30326 157.373 28.2229 125.54 54.638C117.576 61.2057 109.773 67.9634 102.5 75.2018C95.1629 82.3778 88.169 89.8735 81.7178 97.7634C68.6029 113.406 57.7357 130.595 48.6964 148.608C39.6826 166.667 32.5786 185.574 25.3492 204.443C17.9482 223.247 10.496 242.15 0.652832 259.978C9.44131 241.684 16.3789 222.733 22.976 203.669C29.7216 184.658 36.4263 165.542 45.1098 147.077C62.3616 109.964 89.9303 77.6082 122.173 51.0224C130.26 44.3657 138.757 38.1802 147.354 32.1414C156.045 26.2203 164.892 20.506 173.973 15.1403C183.063 9.7938 192.274 4.62761 201.692 -0.177986C211.057 -5.07974 220.646 -9.58003 230.328 -13.8808C249.697 -22.4751 269.473 -30.1991 289.551 -37.1227C309.665 -43.9596 330.028 -50.1091 350.605 -55.4868Z" fill="url(#paint5_linear_812_4953)" fill-opacity="0.57"/>
</g>
</g>
<defs>
<radialGradient id="paint0_radial_812_4953" cx="0" cy="0" r="1" gradientUnits="userSpaceOnUse" gradientTransform="translate(960 600.983) scale(1483.2 1090.3)">
<stop stop-color="#292A2B"/>
<stop offset="0.0001" stop-color="#1C1C1D"/>
<stop offset="0.287" stop-color="#1B1B1B"/>
<stop offset="0.656"/>
<stop offset="1"/>
<stop offset="1"/>
</radialGradient>
<linearGradient id="paint1_linear_812_4953" x1="304.735" y1="-15.5757" x2="304.735" y2="536.267" gradientUnits="userSpaceOnUse">
<stop stop-color="#00E0FF" stop-opacity="0.35"/>
<stop offset="1" stop-color="#00E0FF" stop-opacity="0"/>
</linearGradient>
<linearGradient id="paint2_linear_812_4953" x1="1523.7" y1="616.604" x2="1523.7" y2="1258.94" gradientUnits="userSpaceOnUse">
<stop stop-color="#00E0FF" stop-opacity="0.43"/>
<stop offset="1" stop-color="#00E0FF" stop-opacity="0"/>
</linearGradient>
<linearGradient id="paint3_linear_812_4953" x1="529.077" y1="-32.2786" x2="529.077" y2="581.1" gradientUnits="userSpaceOnUse">
<stop offset="0.286458" stop-color="#00E0FF"/>
<stop offset="0.572917" stop-color="#2400FF"/>
<stop offset="1" stop-color="#00E0FF" stop-opacity="0"/>
</linearGradient>
<linearGradient id="paint4_linear_812_4953" x1="1803.63" y1="994.059" x2="1803.63" y2="1204.15" gradientUnits="userSpaceOnUse">
<stop stop-color="#2400FF"/>
<stop offset="1" stop-color="#2400FF" stop-opacity="0"/>
</linearGradient>
<linearGradient id="paint5_linear_812_4953" x1="175.629" y1="-55.4868" x2="175.629" y2="259.978" gradientUnits="userSpaceOnUse">
<stop stop-color="#2400FF"/>
<stop offset="1" stop-color="#2400FF" stop-opacity="0"/>
</linearGradient>
<clipPath id="clip0_812_4953">
<rect width="1920" height="1202" fill="white"/>
</clipPath>
</defs>
</svg>
