<svg width="964" height="146" viewBox="0 0 964 146" fill="none" xmlns="http://www.w3.org/2000/svg">
<path d="M4.76837e-07 143V2.99999H32V143H4.76837e-07ZM140.055 79V2.99999H172.055V143H148.055L94.0547 67V143H62.0547V2.99999H86.0547L140.055 79ZM280.039 79V2.99999H312.039V143H288.039L234.039 67V143H202.039V2.99999H226.039L280.039 79ZM460.423 124.8C446.29 138.8 429.09 145.8 408.823 145.8C388.557 145.8 371.357 138.8 357.223 124.8C343.09 110.8 336.023 93.5333 336.023 73C336.023 52.4667 343.09 35.2 357.223 21.2C371.357 7.19999 388.557 0.199991 408.823 0.199991C429.09 0.199991 446.29 7.19999 460.423 21.2C474.557 35.2 481.623 52.4667 481.623 73C481.623 93.5333 474.557 110.8 460.423 124.8ZM368.023 73C368.023 85.2667 371.89 95.2667 379.623 103C387.357 110.733 397.09 114.6 408.823 114.6C420.423 114.6 430.09 110.733 437.823 103C445.69 95.1333 449.623 85.1333 449.623 73C449.623 60.8667 445.69 50.8667 437.823 43C430.09 35.2667 420.423 31.4 408.823 31.4C397.09 31.4 387.357 35.2667 379.623 43C371.89 50.7333 368.023 60.7333 368.023 73ZM573.986 143H533.186L487.586 2.99999H522.586L553.586 106L584.586 2.99999H619.586L573.986 143ZM753.609 143H718.609L711.609 121H659.609L652.609 143H617.609L665.209 2.99999H706.009L753.609 143ZM685.609 39.6L669.209 91H702.009L685.609 39.6ZM751.586 2.99999H855.586V33.8H819.586V143H787.586V33.8H751.586V2.99999ZM907.594 87.4V112.2H963.594V143H875.594V2.99999H962.594V33.8H907.594V57H957.594V87.4H907.594Z" fill="url(#paint0_linear_812_6075)"/>
<defs>
<linearGradient id="paint0_linear_812_6075" x1="941.158" y1="117.49" x2="88.625" y2="-376.459" gradientUnits="userSpaceOnUse">
<stop offset="0.0364583" stop-color="#00E0FF"/>
<stop offset="1" stop-color="#0075FF"/>
</linearGradient>
</defs>
</svg>
