<svg width="355" height="40" viewBox="0 0 355 40" fill="none" xmlns="http://www.w3.org/2000/svg">
<g filter="url(#filter0_d_812_6187)">
<path d="M4 7.44V-4.76837e-07L20.04 16L36.04 -4.76837e-07V32H30.76V12.88L20.04 23.56L4 7.44ZM57.8441 21.36L55.2041 26.64L52.4841 32H46.5641L62.5641 -4.76837e-07L73.2441 21.36H67.2441L62.5641 11.96L57.8441 21.36ZM75.8841 26.68L78.5641 32H72.6041L69.9641 26.68H75.8841ZM88.5531 16.68C87.3131 18.48 85.7531 19.76 83.8731 20.52L90.4331 32H84.3131L75.0331 15.96L79.7931 16C81.2331 16 82.4731 15.48 83.5131 14.44C84.5931 13.4 85.1131 12.12 85.1131 10.64C85.1131 9.2 84.5931 7.96 83.5131 6.92C82.4731 5.88 81.2331 5.36 79.7931 5.36H69.1131L68.5131 4.76L65.7531 -4.76837e-07H79.7931C82.7131 -4.76837e-07 85.2331 1.04 87.3131 3.12C89.3931 5.24 90.4331 7.72 90.4331 10.64C90.4331 12.88 89.8331 14.88 88.5531 16.68ZM113.297 16.68C112.057 18.48 110.497 19.76 108.617 20.52L115.177 32H109.057L99.7769 15.96L104.537 16C105.977 16 107.217 15.48 108.257 14.44C109.337 13.4 109.857 12.12 109.857 10.64C109.857 9.2 109.337 7.96 108.257 6.92C107.217 5.88 105.977 5.36 104.537 5.36H93.8569L93.2569 4.76L90.4969 -4.76837e-07H104.537C107.457 -4.76837e-07 109.977 1.04 112.057 3.12C114.137 5.24 115.177 7.72 115.177 10.64C115.177 12.88 114.577 14.88 113.297 16.68ZM128.647 5.28V26.64L123.327 32V-4.76837e-07L128.647 5.28ZM138.153 -4.76837e-07L147.233 11.68L143.873 16L131.312 -4.76837e-07H138.153ZM131.312 32L143.873 16L147.233 20.32L138.153 32H131.312ZM163.113 -4.76837e-07L150.633 16L147.233 11.68L156.353 -4.76837e-07H163.113ZM147.233 20.32L150.633 16L163.113 32H156.353L147.233 20.32ZM206.39 3.12C208.47 5.24 209.51 7.76 209.51 10.68C209.51 13.6 208.51 16.16 206.39 18.24C204.31 20.32 201.79 21.36 198.87 21.36H188.19V32H182.87V16H188.19H198.87C200.31 16 201.55 15.48 202.59 14.44C203.63 13.4 204.19 12.16 204.19 10.68C204.19 9.24 203.67 7.96 202.59 6.92C201.55 5.88 200.31 5.36 198.87 5.36H188.19L182.87 -4.76837e-07H198.87C201.79 -4.76837e-07 204.31 1.04 206.39 3.12ZM232.481 -4.76837e-07C236.921 -4.76837e-07 240.641 1.6 243.761 4.72C246.921 7.84 248.521 11.6 248.521 16C248.521 20.44 246.921 24.2 243.761 27.28C240.641 30.4 236.921 32 232.481 32C228.041 32 224.321 30.4 221.201 27.28C218.081 24.16 216.481 20.44 216.481 16C216.481 11.6 218.081 7.84 221.201 4.72C224.281 1.6 228.041 -4.76837e-07 232.481 -4.76837e-07ZM232.481 5.36C229.561 5.36 227.041 6.36 224.921 8.48C222.841 10.56 221.841 13.08 221.841 16C221.841 18.92 222.841 21.48 224.921 23.56C227.001 25.64 229.561 26.64 232.481 26.64C235.401 26.64 237.921 25.64 240.001 23.56C242.121 21.44 243.121 18.92 243.121 16C243.121 13.08 242.081 10.56 240.001 8.48C237.921 6.4 235.401 5.36 232.481 5.36ZM253.318 -4.76837e-07L263.398 20.04L260.398 26.04L247.358 -4.76837e-07H253.318ZM293.518 -4.76837e-07H299.478L283.478 32L273.398 11.96L276.398 5.96L283.478 20.04L293.518 -4.76837e-07ZM302.18 31.56L307.5 26.64H323.5V32H302.18V31.56ZM302.18 -4.76837e-07H323.5V5.36H307.5L302.18 -4.76837e-07ZM302.18 13.36H307.5H323.5V18.68H307.5H302.18V13.36ZM348.161 16.68C346.921 18.48 345.361 19.76 343.481 20.52L350.041 32H343.921L334.641 15.96L339.401 16C340.841 16 342.081 15.48 343.121 14.44C344.201 13.4 344.721 12.12 344.721 10.64C344.721 9.2 344.201 7.96 343.121 6.92C342.081 5.88 340.841 5.36 339.401 5.36H328.721L328.121 4.76L325.361 -4.76837e-07H339.401C342.321 -4.76837e-07 344.841 1.04 346.921 3.12C349.001 5.24 350.041 7.72 350.041 10.64C350.041 12.88 349.441 14.88 348.161 16.68Z" fill="white"/>
</g>
<defs>
<filter id="filter0_d_812_6187" x="0" y="0" width="354.041" height="40" filterUnits="userSpaceOnUse" color-interpolation-filters="sRGB">
<feFlood flood-opacity="0" result="BackgroundImageFix"/>
<feColorMatrix in="SourceAlpha" type="matrix" values="0 0 0 0 0 0 0 0 0 0 0 0 0 0 0 0 0 0 127 0" result="hardAlpha"/>
<feOffset dy="4"/>
<feGaussianBlur stdDeviation="2"/>
<feComposite in2="hardAlpha" operator="out"/>
<feColorMatrix type="matrix" values="0 0 0 0 0 0 0 0 0 0 0 0 0 0 0 0 0 0 0.25 0"/>
<feBlend mode="normal" in2="BackgroundImageFix" result="effect1_dropShadow_812_6187"/>
<feBlend mode="normal" in="SourceGraphic" in2="effect1_dropShadow_812_6187" result="shape"/>
</filter>
</defs>
</svg>
