<svg width="350" height="726" viewBox="0 0 350 726" fill="none" xmlns="http://www.w3.org/2000/svg">
<path d="M295.341 1.05823H57.1428C27.5766 1.05823 3.52734 25.0792 3.52734 54.5949V670.632C3.52734 700.148 27.5766 724.169 57.1428 724.169H295.341C324.907 724.169 348.941 700.148 348.941 670.632V54.5949C348.941 25.0789 324.907 1.05823 295.341 1.05823ZM344.722 670.632C344.722 697.855 322.611 719.939 295.341 719.939H57.143C29.8732 719.939 7.76203 697.855 7.76203 670.632V54.5949C7.76203 27.3725 29.8732 5.28763 57.143 5.28763H295.341C322.611 5.28763 344.722 27.3725 344.722 54.5949V670.632Z" fill="#BBBBB9"/>
<rect x="19" y="17" width="314" height="62" fill="black"/>
<path d="M348.941 649.47V670.631C348.941 700.147 324.906 724.168 295.341 724.168H57.1427C27.5766 724.168 3.52728 700.147 3.52728 670.631V649.47H2.46875V670.631C2.46875 700.728 26.9953 725.225 57.1427 725.225H295.341C325.473 725.225 350 700.728 350 670.631V649.47H348.941ZM348.941 645.642H350V80.4316H348.941V645.642ZM295.341 0H57.1427C26.9953 0 2.46875 24.4973 2.46875 54.594V76.6043H3.52728V54.594C3.52728 25.078 27.5766 1.05729 57.1427 1.05729H295.341C324.906 1.05729 348.941 25.0782 348.941 54.594V76.6043H350V54.594C350 24.4973 325.473 0 295.341 0ZM2.46899 80.4316V645.642H3.52752V80.4316H2.46899Z" fill="black"/>
<path d="M295.341 5.28705H57.1427C29.8729 5.28705 7.76172 27.3719 7.76172 54.5944V670.631C7.76172 697.854 29.8729 719.939 57.1427 719.939H295.341C322.61 719.939 344.722 697.854 344.722 670.631V54.5944C344.722 27.3719 322.611 5.28705 295.341 5.28705ZM131.185 23.3955C133.436 23.3955 135.27 25.2274 135.27 27.4759C135.27 29.7246 133.436 31.5564 131.185 31.5564C128.918 31.5564 127.084 29.7246 127.084 27.4759C127.084 25.2274 128.918 23.3955 131.185 23.3955ZM333.196 671.123C333.196 691.465 316.676 707.981 296.295 707.981H56.1885C35.8071 707.981 19.2869 691.48 19.2869 671.123V54.103C19.2869 33.7605 35.8068 17.2453 56.1885 17.2453H107.821C110.147 17.2453 112.025 19.1218 112.025 21.4448C112.025 28.2205 114.769 34.3561 119.212 38.7939C123.655 43.2317 129.798 45.9718 136.582 45.9718H211.578C225.146 45.9718 236.134 34.9963 236.134 21.4445C236.134 20.283 236.611 19.2257 237.356 18.4811C238.132 17.7067 239.175 17.245 240.338 17.245H296.295C316.676 17.245 333.196 33.7603 333.196 54.1027L333.196 671.123Z" fill="#171717"/>
<path d="M131.185 21.7723C128.024 21.7723 125.474 24.3187 125.474 27.4759C125.474 30.633 128.024 33.1796 131.185 33.1796C134.331 33.1796 136.895 30.6333 136.895 27.4759C136.895 24.319 134.331 21.7723 131.185 21.7723ZM131.185 31.5564C128.918 31.5564 127.085 29.7246 127.085 27.4759C127.085 25.2272 128.919 23.3955 131.185 23.3955C133.436 23.3955 135.27 25.2274 135.27 27.4759C135.27 29.7248 133.436 31.5564 131.185 31.5564Z" fill="#2D2D2D"/>
<path d="M135.27 27.4755C135.27 29.7242 133.436 31.556 131.185 31.556C128.918 31.556 127.084 29.7242 127.084 27.4755C127.084 25.2268 128.919 23.3951 131.185 23.3951C133.436 23.3949 135.27 25.2268 135.27 27.4755Z" fill="#181818"/>
<path d="M1.19813 135.841H0V159.535H1.19813V135.841Z" fill="black"/>
<path d="M2.3964 135.841H1.19824V159.535H2.3964V135.841Z" fill="#BBBBB9"/>
<path d="M1.19813 182.751H0V230.978H1.19813V182.751Z" fill="black"/>
<path d="M2.3964 182.751H1.19824V230.978H2.3964V182.751Z" fill="#BBBBB9"/>
<path d="M1.19813 244.66H0V292.886H1.19813V244.66Z" fill="black"/>
<path d="M2.3964 244.66H1.19824V292.886H2.3964V244.66Z" fill="#BBBBB9"/>
<path d="M48.6641 43.3742C48.922 43.5867 49.2681 43.6931 49.7028 43.6931C50.2639 43.6931 50.6713 43.4605 50.9254 42.9943C51.1782 42.5287 51.3053 41.7447 51.3053 40.6413C51.0971 40.9303 50.8053 41.1568 50.4296 41.3197C50.0538 41.4825 49.6487 41.5635 49.2145 41.5635C48.6351 41.5635 48.1122 41.4437 47.6459 41.2041C47.1798 40.9648 46.8107 40.6071 46.539 40.1328C46.2673 39.6581 46.1318 39.0816 46.1318 38.4033C46.1318 37.3995 46.4304 36.6018 47.0283 36.0094C47.6256 35.4174 48.44 35.1209 49.4727 35.1209C50.7575 35.1209 51.6654 35.5329 52.195 36.3555C52.7246 37.1783 52.9896 38.417 52.9896 40.0716C52.9896 41.2468 52.8877 42.21 52.6841 42.9602C52.4805 43.7109 52.1315 44.2807 51.6383 44.6691C51.1447 45.0582 50.4725 45.2524 49.6219 45.2524C48.9515 45.2524 48.3813 45.1233 47.9111 44.8654C47.4404 44.6078 47.0805 44.2689 46.831 43.8484C46.5823 43.428 46.4398 42.9646 46.4038 42.4582H48.169C48.2407 42.8565 48.4062 43.1617 48.6641 43.3742ZM50.7211 39.5833C50.9928 39.2943 51.129 38.9053 51.129 38.4173C51.129 37.8837 50.986 37.47 50.701 37.1762C50.4156 36.8826 50.0289 36.7352 49.5398 36.7352C49.0513 36.7352 48.6641 36.8867 48.3791 37.1894C48.0937 37.4929 47.9512 37.8928 47.9512 38.3898C47.9512 38.8691 48.0891 39.2606 48.3654 39.5633C48.6412 39.866 49.0551 40.0175 49.6077 40.0175C50.0786 40.0175 50.4498 39.8728 50.7211 39.5833Z" fill="white"/>
<path d="M54.6795 39.3992C54.4575 39.1867 54.3467 38.9221 54.3467 38.6056C54.3467 38.2891 54.4575 38.0245 54.6795 37.8119C54.9014 37.5999 55.184 37.4938 55.5284 37.4938C55.8631 37.4938 56.1394 37.5999 56.3568 37.8119C56.5741 38.0245 56.6823 38.2891 56.6823 38.6056C56.6823 38.9221 56.5741 39.1867 56.3568 39.3992C56.1394 39.6117 55.8631 39.7181 55.5284 39.7181C55.184 39.7179 54.9014 39.6117 54.6795 39.3992ZM54.6795 45.0137C54.4575 44.8017 54.3467 44.5373 54.3467 44.2208C54.3467 43.9043 54.4575 43.6397 54.6795 43.4272C54.9014 43.2147 55.184 43.1083 55.5284 43.1083C55.8631 43.1083 56.1394 43.2144 56.3568 43.4272C56.5741 43.6397 56.6823 43.9043 56.6823 44.2208C56.6823 44.5373 56.5741 44.8019 56.3568 45.0137C56.1394 45.2262 55.8631 45.3326 55.5284 45.3326C55.184 45.3326 54.9014 45.2262 54.6795 45.0137Z" fill="white"/>
<path d="M57.8096 37.1013V35.3517H61.0816V45.2388H59.1263V37.1011L57.8096 37.1013Z" fill="white"/>
<path d="M69.6097 36.9931H65.2103V39.3122C65.4001 39.0773 65.6718 38.8855 66.0249 38.7362C66.3777 38.5866 66.7535 38.5123 67.1518 38.5123C67.8761 38.5123 68.4692 38.6706 68.9308 38.987C69.3923 39.3035 69.727 39.7081 69.9352 40.2006C70.1434 40.6937 70.2475 41.2205 70.2475 41.7809C70.2475 42.8208 69.9512 43.6571 69.3585 44.2896C68.7653 44.9226 67.921 45.2393 66.8255 45.2393C65.7935 45.2393 64.97 44.9817 64.3544 44.4662C63.739 43.951 63.3905 43.2772 63.3086 42.4455H65.1557C65.2368 42.8071 65.4206 43.0963 65.7054 43.3134C65.9908 43.5305 66.3546 43.6391 66.7985 43.6391C67.3327 43.6391 67.7355 43.4716 68.0072 43.1376C68.2784 42.8027 68.4144 42.3599 68.4144 41.8079C68.4144 41.2473 68.276 40.8201 68.0002 40.5263C67.7239 40.2327 67.3189 40.0858 66.7847 40.0858C66.4048 40.0858 66.0875 40.1806 65.8346 40.3705C65.5805 40.5601 65.3999 40.8138 65.2912 41.1298H63.4716V35.325H69.6094L69.6097 36.9931Z" fill="white"/>
<path d="M250.524 41.3268H247.888V44.9966H250.524V41.3268Z" fill="white"/>
<path d="M254.996 39.0934H252.36V44.9969H254.996V39.0934Z" fill="white"/>
<path d="M259.469 36.8589H256.833V44.9964H259.469V36.8589Z" fill="white"/>
<path d="M263.943 35.3706H261.307V44.9972H263.943V35.3706Z" fill="white"/>
<path d="M306.594 45.0519H292.577C291.16 45.0519 290.008 43.9015 290.008 42.4872V37.8801C290.008 36.4665 291.16 35.3161 292.577 35.3161H306.594C308.011 35.3161 309.162 36.4665 309.162 37.8801V42.4872C309.162 43.9015 308.011 45.0519 306.594 45.0519ZM292.577 36.0608C291.572 36.0608 290.754 36.8766 290.754 37.8801V42.4872C290.754 43.4907 291.572 44.3073 292.577 44.3073H306.594C307.599 44.3073 308.417 43.4907 308.417 42.4872V37.8801C308.417 36.8766 307.599 36.0608 306.594 36.0608H292.577Z" fill="white"/>
<path d="M307.548 43.6239H291.623C291.521 43.6239 291.438 43.5414 291.438 43.4399V36.9273C291.438 36.8255 291.521 36.7432 291.623 36.7432H307.548C307.65 36.7432 307.733 36.8257 307.733 36.9273V43.4399C307.733 43.5417 307.65 43.6239 307.548 43.6239Z" fill="white"/>
<path d="M310.608 38.2942H309.683V42.0744H310.608V38.2942Z" fill="white"/>
<path d="M278.358 43.6151L276.405 45.5659L274.482 43.5406C274.571 43.3618 274.691 43.1981 274.81 43.0639C274.885 42.9894 274.959 42.9298 275.034 42.8555C275.108 42.7959 275.183 42.7363 275.257 42.6917C275.347 42.6321 275.436 42.5875 275.526 42.5576C275.6 42.513 275.675 42.498 275.749 42.4683C275.824 42.4387 275.898 42.4237 275.988 42.4088C276.122 42.3791 276.256 42.3641 276.405 42.3641C276.584 42.3641 276.748 42.3791 276.912 42.4237C277.017 42.4536 277.121 42.4833 277.211 42.513C277.375 42.5875 277.539 42.6768 277.688 42.781C277.762 42.8406 277.837 42.9001 277.897 42.9597C277.941 43.0043 278.001 43.0639 278.046 43.1235C278.105 43.1981 278.165 43.2726 278.21 43.3469C278.269 43.4364 278.314 43.5259 278.358 43.6151Z" fill="white"/>
<path d="M279.656 39.7132C279.492 39.609 279.328 39.5048 279.164 39.4153C279.015 39.326 278.851 39.2515 278.672 39.177C278.672 39.162 278.657 39.162 278.642 39.177C278.523 39.1174 278.388 39.0578 278.254 39.0279C278.076 38.9534 277.882 38.894 277.688 38.8641C277.494 38.8195 277.3 38.7749 277.092 38.7599C276.868 38.7302 276.644 38.7153 276.406 38.7153C276.182 38.7153 275.958 38.7302 275.735 38.7599C275.556 38.7749 275.362 38.8045 275.183 38.8491C275.049 38.8791 274.915 38.9087 274.781 38.9534C274.736 38.9534 274.691 38.9683 274.647 38.998C274.483 39.0426 274.319 39.1022 274.155 39.1767C273.976 39.2513 273.812 39.3256 273.663 39.4151C272.992 39.7576 272.41 40.249 271.933 40.8298L273.514 42.5126C273.603 42.3785 273.707 42.2596 273.812 42.1554C273.871 42.0661 273.961 41.9766 274.05 41.917C274.095 41.8575 274.155 41.7979 274.214 41.7682C274.289 41.7086 274.364 41.649 274.438 41.6044C274.721 41.4107 275.02 41.2619 275.362 41.1577C275.467 41.113 275.586 41.0831 275.705 41.0682C275.795 41.0535 275.884 41.0385 275.959 41.0235C276.108 41.0086 276.257 40.9936 276.406 40.9936C276.555 40.9936 276.704 41.0086 276.838 41.0235C277.271 41.0682 277.703 41.2172 278.076 41.4257C278.15 41.4553 278.225 41.5002 278.299 41.5595C278.359 41.5895 278.419 41.6341 278.478 41.6787C278.806 41.917 279.09 42.2147 279.313 42.5425C279.328 42.5573 279.343 42.5872 279.358 42.6171L280.998 40.9789C280.625 40.4878 280.162 40.0557 279.656 39.7132Z" fill="white"/>
<path d="M278.358 43.6151L276.405 45.5659L274.482 43.5406C274.571 43.3618 274.691 43.1981 274.81 43.0639C274.885 42.9894 274.959 42.9298 275.034 42.8555C275.108 42.7959 275.183 42.7363 275.257 42.6917C275.347 42.6321 275.436 42.5875 275.526 42.5576C275.6 42.513 275.675 42.498 275.749 42.4683C275.824 42.4387 275.898 42.4237 275.988 42.4088C276.122 42.3791 276.256 42.3641 276.405 42.3641C276.584 42.3641 276.748 42.3791 276.912 42.4237C277.017 42.4536 277.121 42.4833 277.211 42.513C277.375 42.5875 277.539 42.6768 277.688 42.781C277.762 42.8406 277.837 42.9001 277.897 42.9597C277.941 43.0043 278.001 43.0639 278.046 43.1235C278.105 43.1981 278.165 43.2726 278.21 43.3469C278.269 43.4364 278.314 43.5259 278.358 43.6151Z" fill="white"/>
<path d="M279.656 39.7132C279.492 39.609 279.328 39.5048 279.164 39.4153C279.015 39.326 278.851 39.2515 278.672 39.177C278.672 39.162 278.657 39.162 278.642 39.177C278.523 39.1174 278.388 39.0578 278.254 39.0279C278.076 38.9534 277.882 38.894 277.688 38.8641C277.494 38.8195 277.3 38.7749 277.092 38.7599C276.868 38.7302 276.644 38.7153 276.406 38.7153C276.182 38.7153 275.958 38.7302 275.735 38.7599C275.556 38.7749 275.362 38.8045 275.183 38.8491C275.049 38.8791 274.915 38.9087 274.781 38.9534C274.736 38.9534 274.691 38.9683 274.647 38.998C274.483 39.0426 274.319 39.1022 274.155 39.1767C273.976 39.2513 273.812 39.3256 273.663 39.4151C272.992 39.7576 272.41 40.249 271.933 40.8298L273.514 42.5126C273.603 42.3785 273.707 42.2596 273.812 42.1554C273.886 42.0512 273.961 41.9766 274.05 41.917C274.095 41.8575 274.155 41.7979 274.214 41.7682C274.289 41.6937 274.364 41.649 274.438 41.6044C274.721 41.4107 275.02 41.2619 275.362 41.1577C275.467 41.113 275.586 41.0831 275.705 41.0682C275.795 41.0535 275.884 41.0385 275.959 41.0235C276.108 41.0086 276.257 40.9936 276.406 40.9936C276.555 40.9936 276.689 41.0086 276.838 41.0235C277.271 41.0682 277.703 41.2172 278.076 41.4257C278.15 41.4553 278.225 41.5002 278.299 41.5595C278.359 41.5895 278.419 41.6341 278.478 41.6787C278.806 41.917 279.09 42.2147 279.313 42.5425C279.328 42.5573 279.343 42.5872 279.358 42.6171L280.998 40.9789C280.625 40.4878 280.162 40.0557 279.656 39.7132Z" fill="white"/>
<path d="M276.405 34.7996C273.557 34.7996 270.993 36.0207 269.219 37.9717L271.112 39.9671C272.395 38.4778 274.288 37.5397 276.405 37.5397C278.597 37.5397 280.55 38.5524 281.832 40.1309L283.771 38.1949C282.011 36.1102 279.357 34.7996 276.405 34.7996Z" fill="white"/>
</svg>
