<svg width="145" height="76" viewBox="0 0 145 76" fill="none" xmlns="http://www.w3.org/2000/svg">
<g opacity="0.5">
<path d="M0 36.1818C0.51475 32.1918 1.0005 28.3742 1.4877 24.5582C2.0039 20.5974 2.5462 16.6352 3.00585 12.6729C3.1204 11.6031 3.5496 10.9673 4.6081 10.8226C7.09775 10.4762 8.47235 9.20324 9.1872 6.63093C9.7034 4.77916 11.0766 3.07355 12.3932 1.59885C14.168 -0.365454 15.9718 -0.423916 18.2613 0.906084C18.3759 0.964546 18.518 1.05224 18.6325 1.10924C21.6384 2.06362 21.6384 2.06362 23.0695 4.92531C23.4422 4.86685 23.8714 4.78062 24.3861 4.69439V40.4042C16.314 39.0142 8.27225 37.598 0 36.1818ZM17.632 17.4449C18.0032 16.0272 18.3759 14.5525 18.7485 13.107C15.5136 11.7478 10.962 13.1655 9.10165 16.0272C7.0702 19.1505 7.6705 22.6772 10.6184 24.9045C11.0766 25.2509 11.6769 25.5125 11.9349 26.0036C12.3076 26.7549 12.7658 27.68 12.5933 28.4035C12.3366 29.4733 11.2201 29.4441 10.3037 29.1547C9.3322 28.8375 8.41435 28.4035 7.4414 27.9986C6.1538 31.5838 6.66855 32.4797 10.2747 33.2309C10.7053 33.3186 11.1055 33.4063 11.5347 33.4355C14.3391 33.6372 16.4865 32.335 17.4885 29.9074C18.576 27.1889 17.9466 24.355 15.7992 22.5909C14.9974 21.9259 13.9969 21.4641 13.2516 20.7406C12.7078 20.1911 12.022 19.1797 12.2221 18.6872C12.4787 18.0222 13.4807 17.4156 14.2245 17.2709C15.283 17.0692 16.343 17.3586 17.632 17.4449ZM9.8165 9.17547C10.5038 8.97231 11.049 8.82762 11.5638 8.5967C12.1075 8.36578 12.9079 8.10562 13.0225 7.70078C13.7388 5.3287 14.7972 3.18901 16.8591 1.59885C13.9679 0.75993 10.2762 4.72216 9.8165 9.17547ZM17.8321 2.75639C16.0283 3.73855 14.7407 5.79201 14.7407 7.55608C19.0052 6.51401 19.3198 6.0507 17.8321 2.75639ZM21.953 5.35793C21.1512 4.25885 20.4653 3.3337 19.807 2.40855C19.691 2.49624 19.5489 2.58247 19.4344 2.6687C19.6054 3.73855 19.749 4.77916 19.9491 5.9937C20.5219 5.82124 21.0366 5.64732 21.953 5.35793ZM35.4916 37.8012C32.0841 38.6401 28.7927 39.479 25.3881 40.3165V5.2147C25.7883 5.56108 26.1319 5.73501 26.332 5.99516C27.1919 7.12347 28.3069 7.58532 29.6815 7.38362C30.682 7.23747 31.1127 7.61455 31.2548 8.68439C32.6004 18.313 34.0315 27.9416 35.4916 37.8012ZM94.5965 33.2032C94.1384 35.6907 93.7092 38.0613 93.2509 40.4612H88.3848C89.9029 32.221 91.3906 24.0963 92.9088 15.8839H97.0572C96.9992 16.6644 96.9716 17.3879 96.9151 18.3422C97.63 17.705 98.1737 17.1555 98.8045 16.6936C102.296 14.0921 106.475 15.7685 107.046 20.1049C107.562 23.9516 106.675 27.5075 104.156 30.5154C101.638 33.4648 98.4883 34.4455 94.5965 33.2032ZM102.009 22.5047C101.98 21.2624 102.009 20.0771 100.75 19.5845C99.4338 19.0935 98.4594 19.8739 97.7155 20.8853C97.3443 21.3779 96.9717 21.9274 96.8281 22.5062C96.318 24.5523 95.8789 26.6158 95.5115 28.6929C95.455 28.953 95.8276 29.4733 96.1423 29.618C97.3443 30.283 98.7465 29.9366 99.834 28.6359C101.294 26.8718 101.894 24.7043 102.009 22.5062V22.5047ZM62.5095 17.3586C63.9711 16.7229 65.4298 15.7977 66.9755 15.5083C69.6957 14.988 71.6706 16.6352 71.5561 19.4106C71.44 22.2752 70.8398 25.1077 70.4106 27.9709C70.1824 29.4946 69.8961 31.0089 69.5522 32.5104C69.4651 32.886 69.0939 33.4648 68.8083 33.4925C67.4047 33.5802 65.9735 33.551 64.4583 33.551C65.0876 30.1675 65.6879 26.9595 66.2607 23.7207C66.4125 22.8717 66.4795 22.0094 66.4608 21.1469C66.4027 19.5568 65.1152 18.8041 63.9421 19.8462C62.9126 20.7421 61.9672 22.0136 61.5946 23.3159C60.7652 26.1775 60.278 29.1269 59.7922 32.0471C59.5907 33.2046 59.2195 33.7249 57.9594 33.5802C56.9009 33.4633 55.7844 33.551 54.5258 33.551C56.1281 25.0507 57.7013 16.7799 59.276 8.45347H64.2002C63.6275 11.5475 63.0533 14.5539 62.5095 17.3586ZM135.698 27.3336C136.997 23.9234 138.265 20.5018 139.505 17.0692C139.848 16.0856 140.306 15.71 141.365 15.7977C142.539 15.8839 143.74 15.8269 145 15.8269C144.942 16.1149 144.942 16.318 144.856 16.4905C142.367 21.7242 139.992 27.0457 137.329 32.1918C136.213 34.3899 134.582 36.3557 133.009 38.2645C131.718 39.8254 129.945 40.8075 127.855 41.3293C127.397 39.9116 126.968 38.6109 126.597 37.5118C128.113 36.3557 129.572 35.3721 130.86 34.2452C131.891 33.3479 132.121 32.1918 131.834 30.7171C130.832 25.8312 130.001 20.9145 129.086 15.9117H134.209C134.609 19.7292 135.04 23.5745 135.44 27.3921C135.527 27.3336 135.611 27.3336 135.698 27.3336ZM72.9872 25.8312C73.0162 23.8069 73.7876 21.3194 75.4203 19.1227C76.6194 17.4835 78.3177 16.2849 80.2561 15.71C85.7515 14.0629 89.9595 17.5325 89.4447 23.3144C89.2156 25.8589 88.4718 28.2018 86.868 30.226C85.1513 32.3657 82.9183 33.5218 80.2271 33.6957C75.9061 33.9559 72.9292 31.0065 72.9872 25.8312ZM84.7786 22.5632C84.4074 21.1162 84.3494 19.7862 82.8327 19.2674C81.6017 18.8625 80.2285 19.3829 79.5992 20.973C78.8539 22.8525 78.3667 24.8753 78.0811 26.8718C77.881 28.0556 78.3391 29.3009 79.7413 29.7057C81.2015 30.1383 82.26 29.3286 82.7762 28.1725C83.6056 26.3792 84.1203 24.4427 84.7786 22.5632ZM121.472 33.5218H117.523C117.237 33.5218 116.979 33.4633 116.606 33.4049C117.466 28.8083 118.295 24.298 119.154 19.6708C118.381 19.5845 117.695 19.5275 116.921 19.4399C117.179 18.1975 117.408 17.04 117.637 15.8547C118.41 15.8255 119.068 15.7962 119.841 15.7378C120.499 12.5867 121.387 9.52185 124.736 8.16408C126.539 7.44062 128.399 7.41139 130.403 8.01793C130.059 9.34793 129.774 10.5347 129.457 11.6908C126.137 11.72 124.993 12.7606 124.936 15.7977H128.17C127.941 17.1277 127.712 18.2823 127.483 19.5275H124.133C123.219 24.1869 122.332 28.8518 121.472 33.5218ZM54.5534 16.3458C54.2097 17.3879 53.8675 18.4869 53.5238 19.5275C52.3783 19.3536 51.3779 19.1227 50.3469 19.0642C49.4015 19.0058 48.343 19.2952 48.2575 20.365C48.2285 21.0022 48.8577 21.7827 49.374 22.303C50.0598 22.968 50.9762 23.3436 51.691 23.9516C54.0676 25.9744 54.1532 29.3593 51.9202 31.5838C49.5451 33.9559 44.0496 34.3315 41.1292 32.278C41.479 31.2135 41.8415 30.1533 42.2168 29.0977C43.5058 29.3871 44.6789 29.7627 45.9099 29.9366C46.9394 30.0813 47.9979 29.9074 48.372 28.7221C48.7142 27.5938 47.9703 26.9288 47.1395 26.3515C46.4827 25.8882 45.7663 25.4833 45.1371 24.963C42.6474 22.9095 42.5894 19.4399 44.937 17.2724C47.199 15.1897 51.8636 14.6986 54.5534 16.3472V16.3458ZM115.606 15.7977C114.46 21.7827 113.373 27.5938 112.256 33.4355H107.333C108.048 29.561 108.765 25.8019 109.45 22.0429C109.766 20.2788 110.167 18.5439 110.425 16.7813C110.539 15.9702 110.883 15.7392 111.627 15.7685C112.885 15.8562 114.145 15.7977 115.606 15.7977ZM116.664 11.0842C116.577 12.7606 115.262 14.0044 113.687 13.9182C112.342 13.8305 111.34 12.6174 111.425 11.112C111.512 9.46485 112.858 8.19332 114.402 8.27955C115.777 8.39647 116.722 9.58032 116.664 11.0842Z" fill="#121212"/>
<path d="M17.6318 17.4449C16.3428 17.3572 15.2828 17.0693 14.3113 17.271C13.5385 17.4171 12.5655 18.0237 12.3074 18.6887C12.1073 19.1798 12.7946 20.1926 13.3369 20.7407C14.0532 21.4934 15.0552 21.9274 15.8846 22.5924C18.0306 24.3565 18.6903 27.189 17.5738 29.9074C16.6009 32.3658 14.4534 33.6373 11.6201 33.4356C11.1963 33.3984 10.7757 33.3305 10.3615 33.2324C6.72638 32.4812 6.23918 31.5838 7.52678 28.0001C8.47218 28.4035 9.41613 28.8376 10.3891 29.1548C11.3055 29.4441 12.422 29.4734 12.6801 28.4035C12.8512 27.6815 12.393 26.7271 12.0218 26.0037C11.7927 25.5418 11.1619 25.2524 10.7052 24.9046C7.75588 22.6787 7.15558 19.1505 9.18703 16.0287C11.0474 13.1655 15.5989 11.7201 18.8339 13.1085C18.3757 14.554 18.0045 15.9994 17.6318 17.4449Z" fill="#121212"/>
<path d="M44.1988 67.8344C42.8822 70.2912 43.7696 73.5008 41.8803 75.5542C41.5656 75.4665 41.251 75.3525 40.9639 75.2648C41.5946 71.7381 42.2239 68.21 42.8532 64.6541C43.5971 60.4594 44.3134 56.2385 45.1442 52.0468C45.2863 51.2664 45.8866 50.5429 46.2883 49.8209C46.4318 50.6291 46.5449 51.4681 46.6885 52.2778C46.7175 52.4224 46.7465 52.5671 46.8045 52.8273C47.805 52.0176 48.6924 51.1217 49.7233 50.4844C53.1294 48.3448 56.7921 49.9934 57.2213 53.9834C57.7375 58.7261 56.2208 62.89 52.7843 66.2442C50.2946 68.6148 47.3178 68.7581 44.1988 67.8344ZM55.5045 55.689C55.5625 53.7524 55.2464 51.9591 53.2425 51.1787C51.24 50.3982 49.6088 51.5265 48.5778 53.0012C47.3758 54.6776 46.4608 56.6434 45.6865 58.6106C45.1428 60.0561 45.0572 61.6755 44.7426 63.2071C44.1988 65.8671 44.8006 66.7938 47.4903 66.5906C48.8069 66.5029 50.2671 65.8964 51.2676 65.0867C54.1299 62.6868 55.2754 59.3618 55.5045 55.689ZM69.4143 65.2606C67.525 66.2442 65.6371 67.6604 63.5186 68.1808C61.2276 68.7595 59.5688 67.4003 59.0526 65.0297C58.0231 60.3454 59.5108 56.2678 62.6022 52.7981C65.379 49.6762 68.9561 49.039 72.9059 49.8487C73.0509 49.8779 73.164 50.0226 73.4221 50.1965C72.6664 54.501 71.9317 58.8092 71.2181 63.1209C71.018 64.277 71.0746 65.4915 70.8179 66.6491C70.7019 67.1986 70.2162 67.6604 69.9015 68.1515C69.7014 67.6312 69.3868 67.1401 69.2998 66.5906C69.2418 66.0118 69.3853 65.4053 69.4143 65.2606ZM71.4762 51.2664C68.756 50.4567 66.61 51.2664 64.7482 52.8565C61.5437 55.6042 60.2271 59.2171 60.5418 63.4088C60.7709 66.5044 63.175 67.6034 65.6936 65.7517C66.552 65.1159 67.3249 64.2478 67.9556 63.3811C70.5598 59.7667 70.7309 55.4888 71.4762 51.2664ZM105.364 67.8914C106.022 64.2492 106.766 60.6348 107.339 56.9912C107.654 54.967 108.456 52.6241 105.937 51.2941C104.306 50.4274 101.471 51.642 100.212 54.302C98.9247 57.0204 98.323 60.0853 97.4936 63.0347C97.1499 64.3355 97.0919 65.6947 96.7483 66.9954C96.6062 67.5158 95.9769 67.8914 95.5752 68.3254C95.3751 68.1808 95.175 68.0653 94.9459 67.9206C95.6608 64.0753 96.3481 60.2008 97.0339 56.3554C97.35 54.6484 97.5501 52.9135 97.8938 51.2079C98.0083 50.6876 98.4665 50.2535 98.7522 49.7902C98.9813 50.3412 99.2669 50.8615 99.3815 51.4388C99.4685 51.7867 99.2669 52.1915 99.1248 52.972C100.327 52.0176 101.185 51.1787 102.158 50.5429C103.847 49.4731 105.65 49.0682 107.483 50.1965C109.257 51.2941 109.571 53.1445 109.257 54.9962C108.627 58.9862 107.883 62.947 107.111 66.8785C106.995 67.4295 106.395 67.8621 106.022 68.3547C105.851 68.2085 105.593 68.0653 105.364 67.8914ZM122.08 66.1273C121.622 66.5906 121.249 67.2848 120.734 67.4281C115.955 68.9627 111.86 67.9206 111.689 61.5878C111.575 57.6562 112.949 54.0988 115.926 51.3818C116.813 50.5721 118.014 49.9349 119.188 49.6178C121.593 48.9528 123.509 49.9071 124.255 51.8729C125.028 53.8679 124.342 56.4417 122.28 57.3668C120.248 58.292 117.986 58.957 115.784 59.0724C113.493 59.1894 113.178 60.1131 113.435 62.0218C113.98 65.9534 116.412 67.4588 120.134 66.0995C120.62 65.9241 121.105 65.7225 121.622 65.5208C121.736 65.7517 121.907 65.9548 122.08 66.1273ZM113.808 58.1765C116.499 57.5393 118.788 57.2221 120.878 56.4124C122.566 55.7767 123.338 54.1865 122.509 52.3055C121.822 50.7738 119.79 50.4552 118.014 51.5543C115.839 52.9135 114.722 55.024 113.809 58.1751L113.808 58.1765ZM88.9922 51.5265C87.9917 51.3804 87.332 51.2941 86.6447 51.1787C86.5591 50.9478 86.5026 50.7168 86.4156 50.4859C87.2464 50.1673 88.0758 49.8487 89.0778 49.4731C89.565 48.4324 90.1943 47.1594 90.796 45.8879C91.0527 45.9756 91.3108 46.0911 91.5399 46.1773C91.4239 47.3041 91.3108 48.4032 91.1962 49.704C92.4838 49.7917 93.6293 49.8501 94.7734 49.9071C94.8604 50.1381 94.9459 50.3982 95.0315 50.6306C94.3166 50.8615 93.6003 51.3818 92.9145 51.2941C91.1107 51.0924 90.4524 51.8159 90.1943 53.58C89.7651 56.6448 89.1648 59.6512 88.563 62.6868C87.9613 65.8394 88.1338 66.1858 91.74 67.0539C90.8236 67.545 90.2798 68.0945 89.8796 68.0083C88.8791 67.7759 87.6176 67.488 87.1029 66.7645C86.5591 66.0133 86.5301 64.6541 86.7027 63.6412C87.4175 59.6512 88.2194 55.6905 88.9937 51.5251L88.9922 51.5265ZM79.2033 49.7917C79.0887 51.0632 79.0032 51.9898 78.8886 53.4923C80.4633 51.2371 81.8365 49.5315 84.6988 49.7054C84.2986 50.3997 84.155 51.1231 83.8114 51.2094C79.6905 52.307 78.7741 55.8059 77.9447 59.2771C77.3719 61.7324 77.0573 64.2492 76.5135 66.7075C76.37 67.3433 75.7972 67.8636 75.426 68.4131C75.1679 68.2962 74.9098 68.153 74.6532 68.0375C75.7407 62.0233 76.7992 56.0383 77.9447 50.0518C77.9737 49.9364 78.603 49.9071 79.2033 49.7917ZM125.628 67.8051C126.564 62.133 127.528 56.4656 128.519 50.8031C128.577 50.4274 129.006 50.1381 129.263 49.8209C129.492 50.2243 129.894 50.6014 129.95 51.0048C130.037 51.5265 129.863 52.0761 129.779 52.972C131.525 51.4973 132.613 49.2421 135.446 49.9071C135.102 50.4567 134.902 51.1494 134.587 51.2079C130.952 51.9884 130.008 55.0532 129.15 57.9748C128.319 60.7503 128.062 63.6997 127.432 66.5336C127.288 67.1986 126.717 67.7467 126.344 68.3547C126.115 68.1808 125.885 68.0083 125.628 67.8051Z" fill="#121212"/>
</g>
</svg>
