<svg width="185" height="67" viewBox="0 0 185 67" fill="none" xmlns="http://www.w3.org/2000/svg">
<g opacity="0.5" clip-path="url(#clip0_812_9837)">
<path d="M92.5131 36.8992H96.1348V17.2329H92.5131V25.2448H84.8847V17.2329H81.2622V36.8992H84.8847V28.7191H92.5131V36.8992ZM104.597 36.8992C106.3 36.8974 107.934 36.2219 109.138 35.0209C110.343 33.8199 111.02 32.1916 111.022 30.4932V22.0263H107.593V30.4928C107.593 30.8851 107.516 31.2735 107.365 31.6359C107.215 31.9983 106.994 32.3276 106.716 32.605C106.437 32.8823 106.107 33.1023 105.744 33.2524C105.38 33.4025 104.991 33.4799 104.597 33.4799C104.204 33.4799 103.814 33.4025 103.451 33.2524C103.087 33.1023 102.757 32.8823 102.479 32.605C102.2 32.3276 101.98 31.9983 101.829 31.6359C101.679 31.2735 101.601 30.8851 101.601 30.4928V22.0263H98.1712V30.4928C98.1727 32.1914 98.8502 33.82 100.055 35.0211C101.26 36.2222 102.893 36.8976 104.597 36.8992ZM120.072 36.8992C116.394 36.8992 113.122 33.8075 113.122 29.2935V17.2329H116.563V23.7404C117.082 23.2005 117.711 22.7771 118.407 22.4986C119.103 22.2201 119.85 22.093 120.6 22.1256C124.442 22.1256 127.745 25.3265 127.745 29.5127C127.745 33.753 124.163 36.8992 120.074 36.8992H120.072ZM120.683 33.7251C122.659 33.7251 124.443 31.7835 124.443 29.5127C124.443 27.2419 122.659 25.2993 120.683 25.2993C119.582 25.3291 118.537 25.786 117.769 26.5728C117 27.3596 116.571 28.4143 116.571 29.5122C116.571 30.6101 117 31.6648 117.769 32.4516C118.537 33.2384 119.582 33.6953 120.683 33.7251ZM141.728 31.2774C141.728 23.891 133.523 26.1894 133.523 22.9888C133.523 21.2651 134.676 20.7173 135.938 20.7173C136.954 20.7173 138.298 21.483 139.175 22.4138L141.425 19.7875C140.301 18.2831 138.023 17.2433 136.158 17.2433C132.425 17.2433 129.736 19.4048 129.736 22.9888C129.736 29.6364 137.941 27.5294 137.941 31.2509C137.941 32.3985 136.817 33.4118 135.527 33.4118C133.496 33.4118 132.837 32.4268 131.904 31.3871L129.407 33.9582C130.999 35.9008 132.974 36.886 135.334 36.886C138.874 36.886 141.728 34.6976 141.728 31.2771L141.728 31.2774ZM158.459 29.3183C158.459 33.5041 155.155 36.7047 151.313 36.7047C150.564 36.7372 149.816 36.6099 149.12 36.3315C148.424 36.053 147.796 35.6297 147.277 35.0899V41.6304H143.836V29.5392C143.836 25.0231 147.11 21.9343 150.786 21.9343C154.874 21.9343 158.458 25.08 158.458 29.3203L158.459 29.3183ZM155.159 29.3183C155.159 27.0468 153.374 25.1049 151.399 25.1049C150.297 25.133 149.249 25.5892 148.48 26.3763C147.71 27.1634 147.28 28.2191 147.28 29.3183C147.28 30.4175 147.71 31.4731 148.48 32.2602C149.249 33.0473 150.297 33.5036 151.399 33.5317C153.375 33.5317 155.159 31.5877 155.159 29.3183ZM183.79 33.7241C181.76 33.7241 181.184 32.8492 181.184 31.5081V25.572H184.339V22.5631H181.184V18.5958L177.7 20.1547V32.2468C177.7 35.3388 179.839 36.8985 182.774 36.8985C183.234 36.9068 183.694 36.8702 184.147 36.7892L184.998 33.6707C184.614 33.6972 184.175 33.7244 183.79 33.7244L183.79 33.7241Z" fill="#121212"/>
<path d="M121.784 48.022C121.804 48.214 121.765 48.4074 121.672 48.5767C121.579 48.7461 121.437 48.8834 121.264 48.9706C121.092 49.0578 120.897 49.0908 120.705 49.0652C120.513 49.0397 120.333 48.9568 120.19 48.8275C120.046 48.6982 119.945 48.5285 119.9 48.3408C119.855 48.1531 119.868 47.9562 119.938 47.7762C120.007 47.5961 120.13 47.4412 120.289 47.332C120.449 47.2227 120.638 47.1642 120.831 47.1642C120.951 47.1541 121.072 47.1686 121.186 47.207C121.3 47.2453 121.405 47.3066 121.494 47.387C121.584 47.4674 121.656 47.5653 121.705 47.6746C121.755 47.7838 121.782 47.902 121.784 48.022ZM120.007 55.2281H121.652V49.6901H120.007V55.2281ZM111.4 54.0744C110.967 54.0744 110.681 53.8227 110.681 53.1949V50.9775H112.013V49.6901H110.681V48.2196H109.32L109.128 49.6905L108.277 49.7535V50.9779H109.035V53.2145C109.035 54.4978 109.581 55.3618 110.953 55.3618C111.373 55.3612 111.79 55.2933 112.188 55.1608L111.928 53.9692C111.759 54.0329 111.581 54.0683 111.4 54.074L111.4 54.0744ZM95.291 53.9416C94.2246 53.9416 93.5275 53.0728 93.5275 51.5771C93.5275 50.1187 94.3176 49.2391 95.3183 49.2391C95.5607 49.2459 95.7993 49.3005 96.0203 49.3999C96.2414 49.4993 96.4404 49.6414 96.606 49.818L97.4757 48.763C97.1915 48.4677 96.851 48.2319 96.4742 48.0698C96.0973 47.9076 95.6917 47.8222 95.2813 47.8187C93.4376 47.8187 91.8369 49.2184 91.8369 51.6322C91.8369 54.083 93.3819 55.3618 95.2325 55.3618C95.6803 55.3701 96.1243 55.2784 96.532 55.0935C96.9397 54.9085 97.3007 54.635 97.5887 54.293L96.7191 53.2586C96.5432 53.4665 96.3249 53.6347 96.0788 53.752C95.8327 53.8693 95.5644 53.933 95.2917 53.9389L95.291 53.9416ZM105.86 50.6579H105.819L105.7 49.6901H104.357V55.2281H106.003V52.0188C106.299 51.2637 106.808 50.9948 107.226 50.9948C107.429 50.9976 107.631 51.0277 107.826 51.0841L108.1 49.6677C107.89 49.5823 107.663 49.5441 107.437 49.556C107.099 49.5807 106.773 49.6963 106.495 49.8906C106.218 50.0848 105.998 50.3505 105.859 50.6593L105.86 50.6579ZM116.475 49.4029V49.697L115.736 49.7529V50.9772H116.475V55.2277H118.121V50.9772H119.12V49.6898H118.121V49.3557C118.121 48.782 118.353 48.5627 118.754 48.5627C118.952 48.5668 119.147 48.6074 119.33 48.6823L119.626 47.4724C119.272 47.3424 118.897 47.2757 118.52 47.2756C117.021 47.2756 116.476 48.2355 116.476 49.4043L116.475 49.4029ZM103.22 52.2147C103.221 52.4577 103.197 52.7002 103.151 52.9387H99.8312C99.8725 53.2819 100.046 53.5959 100.314 53.8145C100.583 54.0331 100.926 54.1394 101.272 54.111C101.698 54.1026 102.113 53.9772 102.473 53.7486L103.017 54.7377C102.435 55.1325 101.75 55.3493 101.046 55.3615C99.4625 55.3615 98.2364 54.2926 98.2364 52.4605C98.2364 50.6638 99.522 49.5553 100.856 49.5553C102.438 49.5553 103.222 50.7024 103.222 52.2136L103.22 52.2147ZM101.814 51.8546C101.814 51.2458 101.548 50.8072 100.891 50.8072C100.372 50.8072 99.9228 51.1551 99.8101 51.8546H101.814ZM113.098 55.2284H114.744V49.6905H113.1L113.098 55.2284ZM113.923 47.165C113.757 47.182 113.599 47.2467 113.469 47.3513C113.338 47.4559 113.242 47.5959 113.19 47.7544C113.138 47.9128 113.133 48.0829 113.176 48.244C113.219 48.4051 113.308 48.5504 113.432 48.6621C113.556 48.7738 113.71 48.8473 113.875 48.8736C114.04 48.8998 114.209 48.8778 114.362 48.8102C114.515 48.7425 114.645 48.6321 114.736 48.4923C114.827 48.3526 114.876 48.1894 114.876 48.0227C114.874 47.9026 114.847 47.7842 114.798 47.6748C114.748 47.5654 114.676 47.4673 114.587 47.3868C114.497 47.3063 114.392 47.2451 114.278 47.2069C114.164 47.1687 114.043 47.1545 113.923 47.165ZM161.766 49.5563C161.428 49.5701 161.096 49.6512 160.789 49.7946C160.483 49.9381 160.208 50.1411 159.981 50.3917H159.941L159.822 49.6905H158.479V55.2284H160.125V51.4906C160.487 51.1458 160.74 50.9524 161.153 50.9524C161.628 50.9524 161.845 51.2017 161.845 51.9988V55.2266H163.49V51.7888C163.49 50.4045 162.976 49.555 161.768 49.555L161.766 49.5563ZM156.782 54.0744C156.349 54.0744 156.063 53.8223 156.063 53.1945V50.9772H157.395V49.6898H156.063V48.2193H154.702L154.51 49.6901L153.659 49.7532V50.9775H154.417V53.2145C154.417 54.4978 154.963 55.3618 156.335 55.3618C156.755 55.3612 157.172 55.2933 157.57 55.1608L157.31 53.9692C157.141 54.0324 156.963 54.0673 156.782 54.0727V54.0744ZM169.548 52.2126C169.549 52.4556 169.526 52.6981 169.479 52.9366H166.156C166.197 53.2799 166.371 53.5938 166.639 53.8124C166.908 54.031 167.251 54.1373 167.597 54.1089C168.023 54.1005 168.438 53.9751 168.798 53.7465L169.342 54.7357C168.76 55.1306 168.075 55.3473 167.371 55.3594C165.788 55.3594 164.561 54.2905 164.561 52.4583C164.561 50.6617 165.847 49.5533 167.181 49.5533C168.763 49.5533 169.547 50.7004 169.547 52.2115L169.548 52.2126ZM168.142 51.8526C168.142 51.2437 167.876 50.8051 167.219 50.8051C166.7 50.8051 166.251 51.1531 166.138 51.8526H168.142ZM151.241 50.6566H151.201L151.082 49.6887H149.739V55.2266H151.385V52.0174C151.681 51.2624 152.189 50.9934 152.608 50.9934C152.811 50.9962 153.013 51.0262 153.207 51.0827L153.482 49.6663C153.272 49.581 153.046 49.5428 152.819 49.5546C152.481 49.5791 152.155 49.6945 151.877 49.8888C151.599 50.0831 151.379 50.3489 151.24 50.6579L151.241 50.6566ZM172.186 50.6566H172.145L172.026 49.6887H170.683V55.2266H172.328V52.0174C172.625 51.2624 173.133 50.9934 173.552 50.9934C173.755 50.9962 173.956 51.0262 174.151 51.0827L174.425 49.6663C174.215 49.581 173.989 49.5428 173.763 49.5546C173.424 49.5792 173.099 49.6947 172.821 49.889C172.543 50.0832 172.323 50.349 172.185 50.6579L172.186 50.6566ZM127.759 52.2147C127.76 52.4577 127.737 52.7002 127.69 52.9387H124.367C124.408 53.2819 124.582 53.5959 124.85 53.8145C125.119 54.0331 125.462 54.1394 125.808 54.111C126.234 54.1026 126.649 53.9772 127.009 53.7486L127.553 54.7377C126.971 55.1325 126.286 55.3493 125.582 55.3615C123.999 55.3615 122.772 54.2926 122.772 52.4605C122.772 50.6638 124.058 49.5553 125.392 49.5553C126.975 49.556 127.759 50.7028 127.759 52.2147ZM126.353 51.8546C126.353 51.2458 126.087 50.8072 125.43 50.8072C124.911 50.8072 124.462 51.1551 124.349 51.8546H126.353ZM143.092 50.2935C143.092 52.0036 141.783 52.76 140.236 52.76H139.335V55.2284H137.685V47.9534H140.191C141.797 47.9534 143.091 48.5261 143.091 50.2939L143.092 50.2935ZM141.475 50.2935C141.475 49.5322 140.987 49.2592 140.094 49.2592H139.333V51.454H140.138C141.045 51.454 141.474 51.051 141.474 50.2935H141.475ZM132.215 47.4083H133.861V55.2284H132.518L132.4 54.6795H132.359C131.972 55.0871 131.443 55.3314 130.881 55.3622C129.501 55.3622 128.61 54.2695 128.61 52.4611C128.61 50.6527 129.743 49.556 130.913 49.556C131.168 49.5523 131.42 49.6019 131.655 49.7014C131.889 49.8009 132.101 49.9482 132.275 50.1338L132.215 49.2947V47.4083ZM132.215 51.2496C131.964 51.0213 131.636 50.8961 131.296 50.8989C130.763 50.8989 130.296 51.3899 130.296 52.4429C130.296 53.53 130.673 54.0196 131.31 54.0196C131.491 54.0209 131.669 53.976 131.827 53.8892C131.986 53.8023 132.12 53.6764 132.215 53.5234L132.215 51.2496ZM148.357 52.0622V55.2284H147.015L146.896 54.6612H146.855C146.423 55.0877 145.847 55.3378 145.239 55.3625C145.018 55.3705 144.798 55.3326 144.592 55.2512C144.386 55.1699 144.2 55.0469 144.044 54.8899C143.889 54.733 143.767 54.5456 143.688 54.3395C143.609 54.1334 143.573 53.9132 143.584 53.6927C143.584 52.526 144.515 51.8943 146.712 51.6633C146.717 51.5502 146.697 51.4372 146.654 51.3325C146.611 51.2278 146.545 51.1338 146.461 51.0574C146.377 50.981 146.277 50.9239 146.169 50.8902C146.06 50.8566 145.946 50.8472 145.833 50.8627C145.308 50.9005 144.802 51.0728 144.364 51.363L143.779 50.2855C144.486 49.8275 145.307 49.5752 146.151 49.5567C147.571 49.5567 148.357 50.3655 148.357 52.0626L148.357 52.0622ZM146.712 52.6521C145.542 52.8097 145.16 53.1432 145.16 53.5617C145.16 53.9186 145.406 54.093 145.797 54.093C145.975 54.0833 146.148 54.036 146.306 53.9543C146.464 53.8726 146.602 53.7585 146.712 53.6193L146.712 52.6521Z" fill="#121212"/>
<path d="M175.698 29.4244V29.4934C175.694 30.801 175.315 32.0802 174.605 33.1797C173.932 34.2512 172.996 35.1341 171.886 35.7454C170.776 36.3566 169.528 36.6761 168.26 36.6737H168.052C166.982 36.6751 165.923 36.456 164.942 36.0301C164.477 35.8352 164.031 35.595 163.613 35.313L160.622 38.2954C160.783 38.8012 160.768 39.3465 160.578 39.8424C160.388 40.3383 160.035 40.7554 159.577 41.0258C159.119 41.2962 158.583 41.4038 158.055 41.3312C157.528 41.2586 157.041 41.01 156.674 40.6259C156.306 40.2419 156.08 39.745 156.032 39.2165C155.985 38.6879 156.118 38.1587 156.41 37.7154C156.703 37.272 157.138 36.9405 157.643 36.775C158.149 36.6095 158.696 36.6197 159.195 36.804L162.096 33.9116C161.619 33.3253 161.241 32.6643 160.98 31.9552C160.676 31.1152 160.524 30.2281 160.531 29.3352V29.0594C160.538 27.772 160.918 26.514 161.624 25.4361C161.961 24.9054 162.366 24.4211 162.83 23.9958L154.11 17.7325L153.476 17.2526C153.007 17.5388 152.469 17.6914 151.92 17.6939C151.32 17.6925 150.733 17.5139 150.235 17.1805C149.737 16.8471 149.349 16.3739 149.12 15.8207C148.891 15.2675 148.832 14.6591 148.95 14.0725C149.068 13.4858 149.357 12.9471 149.782 12.5245C150.207 12.1018 150.748 11.8142 151.337 11.6979C151.925 11.5817 152.535 11.6419 153.09 11.8712C153.644 12.1004 154.118 12.4883 154.451 12.9859C154.785 13.4835 154.963 14.0684 154.963 14.6667C154.96 14.9371 154.921 15.206 154.846 15.4658C157.854 17.7411 163.011 21.6343 164.579 22.8209C165.347 22.4299 166.178 22.1743 167.034 22.0652V18.4692C166.542 18.267 166.122 17.9218 165.829 17.4786C165.537 17.0353 165.385 16.5145 165.393 15.984C165.393 15.2643 165.68 14.574 166.191 14.0651C166.701 13.5562 167.393 13.2703 168.115 13.2703C168.837 13.2703 169.529 13.5562 170.04 14.0651C170.55 14.574 170.837 15.2643 170.837 15.984C170.846 16.5142 170.695 17.0349 170.403 17.4782C170.111 17.9214 169.692 18.2668 169.2 18.4692V22.0649C170.183 22.1945 171.128 22.5208 171.981 23.0243C173.119 23.6791 174.066 24.6176 174.73 25.7478C175.376 26.8654 175.71 28.1347 175.698 29.4244ZM172.12 29.4289C172.12 29.291 172.114 29.1673 172.103 29.0259C172.035 28.355 171.808 27.7098 171.441 27.1433C171.071 26.5784 170.563 26.1166 169.965 25.8012C169.383 25.5066 168.739 25.3564 168.086 25.3634H168.017C167.302 25.3602 166.603 25.5719 166.011 25.9708C165.399 26.3626 164.899 26.9071 164.563 27.5504C164.249 28.1369 164.089 28.7933 164.098 29.4582V29.6651C164.11 30.3498 164.34 31.0129 164.755 31.5587C165.145 32.1482 165.683 32.6257 166.315 32.9439C166.86 33.2289 167.468 33.3747 168.084 33.3683H168.257C169.312 33.3683 170.245 32.8581 171.058 31.9586C171.725 31.2835 172.105 30.377 172.118 29.4289H172.12Z" fill="#121212"/>
<path d="M49.969 29.9516C49.9105 31.3326 49.9565 32.7181 49.9559 34.1016C49.9552 35.485 49.9966 36.8699 49.9448 38.2516C49.8805 39.9574 49.0236 40.531 47.331 40.1718C46.3116 39.9556 45.619 39.313 44.9378 38.6129C42.0885 35.6826 39.1773 32.8091 36.4155 29.7995C35.4598 28.7581 34.8187 28.7801 33.9124 29.6858C33.2272 30.3723 32.5026 31.0185 31.7422 31.6212C31.6012 31.7532 31.4342 31.8545 31.2517 31.9187C31.0693 31.9829 30.8755 32.0086 30.6826 31.9941C30.4897 31.9796 30.3019 31.9252 30.1312 31.8345C29.9605 31.7438 29.8106 31.6187 29.691 31.4671C29.0721 30.8031 29.0835 29.995 29.7304 29.4265C32.2263 27.2347 34.7689 25.0921 37.3198 22.9629C38.0414 22.3607 38.7631 22.7168 39.408 23.1929C40.5228 24.0158 41.658 24.8159 42.7275 25.6964C44.249 26.9506 45.7545 28.0179 47.9378 27.7397C49.3877 27.5546 50.0305 28.4899 49.969 29.9516ZM36.8205 32.9339C35.5729 31.5012 34.7333 31.2002 33.2872 32.7523C32.98 33.1087 32.6003 33.3959 32.1732 33.5948C31.7461 33.7936 31.2815 33.8996 30.8102 33.9057C30.3388 33.9117 29.8716 33.8177 29.4395 33.6299C29.0074 33.4421 28.6204 33.1648 28.3041 32.8164C26.9773 31.416 27.0831 29.369 28.6274 27.8317C29.4573 27.0044 30.3698 26.2546 31.2623 25.4896C32.1326 24.7435 33.1202 23.921 32.1914 22.7361C31.2419 21.5247 30.2412 22.2879 29.3473 23.0436C28.3445 23.8927 27.302 24.6984 26.3068 25.5554C24.831 26.8289 23.4084 28.03 21.1826 27.7083C19.8458 27.5153 19.2116 28.4802 19.2185 29.8051C19.2244 31.1868 19.2185 32.5682 19.2185 33.9499C19.2185 35.0551 19.213 36.1604 19.2185 37.2656C19.2299 39.9963 19.5716 40.4266 22.3534 40.3052C24.469 40.2128 26.3096 40.4159 27.6239 42.3371C28.108 43.0438 28.9012 43.4813 29.7899 42.8929C30.643 42.3282 30.6226 41.5104 30.208 40.6972C29.9023 40.098 29.6499 39.4861 30.2996 39.0397C31.1101 38.4826 31.5548 39.2513 32.0199 39.7116C33.2488 40.9282 34.4497 42.1734 35.6576 43.411C36.3094 44.0788 37.0438 44.4108 37.8447 43.7275C38.7154 42.9842 38.4861 42.1251 37.8748 41.3453C37.4498 40.8034 36.9328 40.3342 36.4702 39.8209C36.05 39.3548 35.5365 38.8597 36.1742 38.2312C36.7637 37.649 37.3101 37.9699 37.7904 38.4495C38.7209 39.3779 39.6576 40.3007 40.5681 41.2481C41.3084 42.0179 42.1355 42.5519 43.0795 41.7028C44.1549 40.7351 43.5138 39.8412 42.7396 39.0452C40.7614 37.0112 38.6808 35.0693 36.8215 32.9343L36.8205 32.9339ZM51.3539 61.7051C49.183 61.7396 47.571 62.4466 46.1757 64.1817C43.8372 67.0903 41.2852 67.6847 37.8374 66.255C36.8186 65.7772 35.7065 65.5295 34.5806 65.5295C33.4547 65.5295 32.3427 65.7772 31.3238 66.255C27.876 67.685 25.3241 67.0903 22.9855 64.1817C21.5903 62.4466 19.9772 61.7392 17.8074 61.7051C13.6099 61.6393 11.5241 60.0665 10.4549 56.0424C9.93347 54.0794 8.95939 52.7894 7.14055 51.8469C3.09485 49.7512 2.07997 47.4279 2.9759 42.9811C3.2712 41.5149 3.45481 40.0056 2.32997 38.8483C0.62835 37.0974 -0.0452439 35.282 0.00454932 33.5C-0.0455897 31.718 0.626967 29.9026 2.32997 28.1517C3.45481 26.9944 3.2712 25.4851 2.9759 24.0189C2.07997 19.5717 3.09589 17.2485 7.14055 15.1532C8.95939 14.211 9.93347 12.9206 10.4549 10.9576C11.5241 6.93346 13.6102 5.36075 17.8074 5.2949C19.9782 5.26043 21.5903 4.55336 22.9855 2.81827C25.3241 -0.0903195 27.876 -0.684655 31.3238 0.744991C32.3494 1.20243 33.4571 1.44867 34.5804 1.46895C35.7038 1.44867 36.8115 1.20243 37.8371 0.744991C41.2849 -0.685 43.8368 -0.0903195 46.1754 2.81827C47.5706 4.55336 49.1837 5.26077 51.3535 5.2949C55.551 5.36075 57.6368 6.93346 58.706 10.9576C59.2274 12.9206 60.2015 14.2106 62.0203 15.1532C66.066 17.2488 67.0809 19.5721 66.185 24.0189C65.8897 25.4851 65.7061 26.9944 66.8309 28.1517C68.5325 29.9026 69.2061 31.718 69.1563 33.5C69.2065 35.282 68.5339 37.0974 66.8309 38.8483C65.7061 40.0056 65.8897 41.5149 66.185 42.9811C67.0809 47.4283 66.065 49.7512 62.0203 51.8469C60.2015 52.789 59.2274 54.0794 58.706 56.0424C57.6375 60.0662 55.5514 61.6399 51.3539 61.7051ZM63.2704 33.5003C63.2704 27.8432 61.5877 22.3131 58.4353 17.6094C55.2828 12.9057 50.8022 9.23957 45.5598 7.07468C40.3175 4.90979 34.549 4.34336 28.9837 5.44701C23.4185 6.55066 18.3065 9.27483 14.2942 13.275C10.2819 17.2752 7.54947 22.3718 6.44248 27.9202C5.33549 33.4686 5.90365 39.2197 8.07509 44.4462C10.2465 49.6727 13.9238 54.1399 18.6417 57.2828C23.3597 60.4258 28.9065 62.1033 34.5808 62.1033C38.3484 62.1033 42.079 61.3634 45.5598 59.926C49.0406 58.4886 52.2033 56.3817 54.8674 53.7257C57.5314 51.0696 59.6447 47.9165 61.0865 44.4462C62.5283 40.9759 63.2704 37.2565 63.2704 33.5003ZM59.891 33.5003C59.8913 38.4915 58.4071 43.3706 55.6261 47.5207C52.845 51.6708 48.892 54.9056 44.2669 56.8158C39.6419 58.7261 34.5525 59.226 29.6424 58.2525C24.7323 57.279 20.2221 54.8758 16.682 51.3466C13.142 47.8175 10.7311 43.321 9.75431 38.4258C8.77752 33.5307 9.27868 28.4566 11.1944 23.8454C13.1101 19.2342 16.3544 15.2929 20.5169 12.5199C24.6794 9.74699 29.5732 8.26693 34.5794 8.26693C41.2899 8.27413 47.7236 10.9349 52.4688 15.6655C57.214 20.3961 59.8833 26.8101 59.891 33.5003ZM56.9757 33.5003C56.9757 29.0844 55.6622 24.7677 53.2014 21.096C50.7406 17.4243 47.243 14.5625 43.1509 12.8726C39.0587 11.1827 34.5558 10.7406 30.2116 11.6021C25.8675 12.4637 21.8771 14.5902 18.7451 17.7127C15.6131 20.8353 13.4803 24.8136 12.6162 29.1447C11.7521 33.4758 12.1957 37.9651 13.8907 42.0448C15.5858 46.1246 18.4563 49.6116 22.1391 52.0649C25.822 54.5182 30.1518 55.8277 34.5811 55.8276C40.5185 55.8208 46.2108 53.4663 50.4091 49.2806C54.6074 45.0949 56.969 39.4198 56.9757 33.5003Z" fill="#121212"/>
</g>
<defs>
<clipPath id="clip0_812_9837">
<rect width="185" height="67" fill="white"/>
</clipPath>
</defs>
</svg>
