<svg width="1092" height="110" viewBox="0 0 1092 110" fill="none" xmlns="http://www.w3.org/2000/svg">
<path d="M0.4 108L0.4 1.8L27.25 1.8L49.6 53.7L72.1 1.8L98.95 1.8L98.95 108H71.95L72.1 77.4L73.75 55.95L72.85 55.8L58.9 92.25H40.45L26.2 55.8L25.45 55.95L27.25 77.4V108H0.4ZM168.883 1.8L206.833 108H178.033L171.133 86.7H142.783L136.183 108L107.383 108L144.433 1.8L168.883 1.8ZM148.783 62.85H164.683L157.333 31.8H156.583L148.783 62.85ZM271.499 108L246.899 74.25H242.099L242.099 108H214.949L214.949 1.8L257.399 1.8C269.099 1.8 278.499 4.65 285.599 10.35C292.799 16.05 296.549 24.85 296.849 36.75C296.849 55.55 289.899 67.15 275.999 71.55L304.949 108L271.499 108ZM242.099 51.15H257.849C263.149 51.15 266.899 49.15 269.099 45.15C271.299 41.05 271.299 37 269.099 33C266.899 28.9 263.149 26.85 257.849 26.85L242.099 26.85V51.15ZM369.471 108L344.871 74.25H340.071V108H312.921V1.8L355.371 1.8C367.071 1.8 376.471 4.65 383.571 10.35C390.771 16.05 394.521 24.85 394.821 36.75C394.821 55.55 387.871 67.15 373.971 71.55L402.921 108L369.471 108ZM340.071 51.15H355.821C361.121 51.15 364.871 49.15 367.071 45.15C369.271 41.05 369.271 37 367.071 33C364.871 28.9 361.121 26.85 355.821 26.85H340.071V51.15ZM437.744 1.8V108H410.894V1.8L437.744 1.8ZM496.196 38.1L514.796 1.8L545.996 1.8L516.296 55.05L545.996 108H514.796L496.196 71.85L478.046 108L446.696 108L476.546 55.05L446.696 1.8L478.046 1.8L496.196 38.1ZM581.765 108V1.8L624.215 1.8C636.415 1.8 645.915 5.5 652.715 12.9C659.615 20.3 663.065 29.1 663.065 39.3C663.065 49.5 659.615 58.35 652.715 65.85C645.915 73.25 636.465 76.95 624.365 76.95H608.615V108H581.765ZM608.615 53.1H624.215C627.315 53.1 629.915 52.2 632.015 50.4C634.115 48.6 635.415 46.4 635.915 43.8C636.415 41.2 636.415 38.65 635.915 36.15C635.415 33.55 634.115 31.35 632.015 29.55C629.915 27.75 627.315 26.85 624.215 26.85L608.615 26.85V53.1ZM672.94 73.05V36.75C672.94 25.25 677.24 16.3 685.84 9.89999C694.54 3.49999 704.89 0.299992 716.89 0.299992C728.79 0.299992 739.09 3.49999 747.79 9.89999C756.59 16.3 760.99 25.25 760.99 36.75V73.05C760.99 84.55 756.64 93.5 747.94 99.9C739.24 106.3 728.94 109.5 717.04 109.5C705.14 109.5 694.79 106.3 685.99 99.9C677.29 93.5 672.94 84.55 672.94 73.05ZM699.79 36.75V73.05C699.79 76.75 701.49 79.6 704.89 81.6C708.29 83.6 712.34 84.6 717.04 84.6C721.64 84.6 725.64 83.6 729.04 81.6C732.44 79.5 734.14 76.65 734.14 73.05V36.75C734.14 32.85 732.39 29.9 728.89 27.9C725.49 25.8 721.39 24.75 716.59 24.75C712.09 24.75 708.14 25.85 704.74 28.05C701.44 30.15 699.79 33.05 699.79 36.75ZM862.248 52.95L875.148 1.8L902.898 1.8L872.298 108H847.398L837.948 78.6L834.198 54.3H833.748L829.698 78.45L821.298 108H796.398L765.648 1.8L793.548 1.8L806.148 52.65L808.848 75.15H809.598L812.148 52.8L823.998 15.6L844.398 15.6L855.348 52.95L858.798 75.15H859.248L862.248 52.95ZM939.454 27V43.5L982.504 43.5V66.75H939.454V82.65H986.254V108L912.304 108V1.8L986.254 1.8V27L939.454 27ZM1058.04 108L1033.44 74.25H1028.64V108L1001.49 108V1.8L1043.94 1.8C1055.64 1.8 1065.04 4.65 1072.14 10.35C1079.34 16.05 1083.09 24.85 1083.39 36.75C1083.39 55.55 1076.44 67.15 1062.54 71.55L1091.49 108H1058.04ZM1028.64 51.15L1044.39 51.15C1049.69 51.15 1053.44 49.15 1055.64 45.15C1057.84 41.05 1057.84 37 1055.64 33C1053.44 28.9 1049.69 26.85 1044.39 26.85L1028.64 26.85V51.15Z" fill="url(#paint0_linear_812_5241)" fill-opacity="0.05"/>
<defs>
<linearGradient id="paint0_linear_812_5241" x1="-93.6855" y1="55" x2="1093" y2="55" gradientUnits="userSpaceOnUse">
<stop stop-color="#00E0FF" stop-opacity="0.51"/>
<stop offset="0.319108" stop-color="#02B4E1"/>
<stop offset="0.578125" stop-color="#0085FF"/>
<stop offset="0.786458" stop-color="#006CCF"/>
<stop offset="1" stop-color="#1D01C9"/>
</linearGradient>
</defs>
</svg>
