<svg width="86" height="119" viewBox="0 0 86 119" fill="none" xmlns="http://www.w3.org/2000/svg">
<g clip-path="url(#clip0_278_865)">
<g clip-path="url(#clip1_278_865)">
<g clip-path="url(#clip2_278_865)">
<path d="M42.6629 0.0234375C22.4079 0.0234375 23.6725 8.84383 23.6725 8.84383L23.695 17.982H43.0241V20.7256H16.0179C16.0179 20.7256 3.05664 19.2495 3.05664 39.7718C3.05664 60.2948 14.3695 59.567 14.3695 59.567H21.121V50.0435C21.121 50.0435 20.757 38.6835 32.2533 38.6835H51.4242C51.4242 38.6835 62.195 38.8583 62.195 28.2305V10.6581C62.195 10.6581 63.8309 0.0234375 42.6629 0.0234375ZM32.0049 6.16869C32.4616 6.16828 32.914 6.25832 33.3361 6.43365C33.7581 6.60898 34.1416 6.86616 34.4646 7.19049C34.7876 7.51481 35.0437 7.8999 35.2183 8.32373C35.3929 8.74755 35.4826 9.2018 35.4822 9.66046C35.4826 10.1191 35.3929 10.5734 35.2183 10.9972C35.0437 11.421 34.7876 11.8061 34.4646 12.1304C34.1416 12.4548 33.7581 12.7119 33.3361 12.8873C32.914 13.0626 32.4616 13.1526 32.0049 13.1522C31.5481 13.1526 31.0958 13.0626 30.6737 12.8873C30.2516 12.7119 29.8681 12.4548 29.5452 12.1304C29.2222 11.8061 28.9661 11.421 28.7915 10.9972C28.6169 10.5734 28.5272 10.1191 28.5276 9.66046C28.5272 9.2018 28.6169 8.74755 28.7915 8.32373C28.9661 7.8999 29.2222 7.51481 29.5452 7.19049C29.8681 6.86616 30.2516 6.60898 30.6737 6.43365C31.0958 6.25832 31.5481 6.16828 32.0049 6.16869Z" fill="url(#paint0_linear_278_865)"/>
<path d="M43.2356 79.7264C63.4906 79.7264 62.2259 70.906 62.2259 70.906L62.2034 61.7681H42.8741V59.0246H69.8803C69.8803 59.0246 82.8415 60.5007 82.8415 39.9777C82.8415 19.455 71.5287 20.1829 71.5287 20.1829H64.7772V29.706C64.7772 29.706 65.1411 41.066 53.6449 41.066H34.4739C34.4739 41.066 23.7031 40.8913 23.7031 51.5194V69.0921C23.7031 69.0921 22.068 79.7264 43.2356 79.7264ZM53.8936 73.5818C53.4368 73.5822 52.9845 73.4922 52.5624 73.3168C52.1403 73.1415 51.7568 72.8843 51.4339 72.56C51.1109 72.2357 50.8548 71.8506 50.6802 71.4267C50.5056 71.0029 50.4159 70.5487 50.4163 70.09C50.4158 69.6313 50.5055 69.1771 50.6801 68.7532C50.8547 68.3293 51.1108 67.9442 51.4337 67.6198C51.7567 67.2955 52.1402 67.0383 52.5623 66.8629C52.9844 66.6876 53.4368 66.5975 53.8936 66.5979C54.3503 66.5975 54.8027 66.6876 55.2248 66.8629C55.6468 67.0382 56.0303 67.2954 56.3533 67.6197C56.6763 67.9441 56.9324 68.3292 57.107 68.753C57.2816 69.1768 57.3713 69.631 57.3709 70.0897C57.3713 70.5484 57.2816 71.0026 57.107 71.4264C56.9324 71.8503 56.6763 72.2354 56.3533 72.5597C56.0303 72.884 55.6468 73.1412 55.2248 73.3165C54.8027 73.4918 54.3503 73.5822 53.8936 73.5818Z" fill="url(#paint1_linear_278_865)"/>
</g>
</g>
</g>
<path d="M1.65 97.6H7.238C8.646 97.6 9.82667 98.0767 10.78 99.03C11.7333 99.9833 12.21 101.157 12.21 102.55C12.21 103.943 11.7333 105.117 10.78 106.07C9.82667 107.023 8.646 107.5 7.238 107.5H3.696V113H1.65V97.6ZM3.696 105.586H7.238C8.10333 105.586 8.80733 105.3 9.35 104.728C9.90733 104.127 10.186 103.401 10.186 102.55C10.186 101.67 9.90733 100.944 9.35 100.372C8.79267 99.8 8.08867 99.514 7.238 99.514H3.696V105.586ZM23.3709 97.6H25.6589L20.2029 106.774V113H18.1569V106.752L12.7229 97.6H15.0109L19.1909 104.816L23.3709 97.6ZM26.2202 97.6H37.3302V99.536H32.7762V113H30.7522V99.536H26.2202V97.6ZM48.8811 104.134V97.6H50.9051V113H48.8811V106.07H41.4011V113H39.3551V97.6H41.4011V104.134H48.8811ZM53.3868 105.3C53.3868 103.071 54.1568 101.186 55.6968 99.646C57.2368 98.0913 59.1214 97.314 61.3508 97.314C63.5801 97.314 65.4648 98.0913 67.0048 99.646C68.5594 101.186 69.3368 103.071 69.3368 105.3C69.3368 107.515 68.5594 109.399 67.0048 110.954C65.4648 112.509 63.5801 113.286 61.3508 113.286C59.1214 113.286 57.2368 112.509 55.6968 110.954C54.1568 109.385 53.3868 107.5 53.3868 105.3ZM67.2908 105.3C67.2908 103.599 66.7188 102.176 65.5748 101.032C64.4601 99.8733 63.0521 99.294 61.3508 99.294C59.6641 99.294 58.2488 99.8733 57.1048 101.032C55.9754 102.191 55.4108 103.613 55.4108 105.3C55.4108 106.972 55.9754 108.395 57.1048 109.568C58.2488 110.712 59.6641 111.284 61.3508 111.284C63.0521 111.284 64.4601 110.712 65.5748 109.568C66.7188 108.395 67.2908 106.972 67.2908 105.3ZM81.3665 109.084V97.6H83.4125V113H81.7625L73.8425 101.494V113H71.7965V97.6H73.4465L81.3665 109.084Z" fill="#121212"/>
<defs>
<linearGradient id="paint0_linear_278_865" x1="10.7242" y1="7.19227" x2="50.4272" y2="46.336" gradientUnits="userSpaceOnUse">
<stop stop-color="#387EB8"/>
<stop offset="1" stop-color="#366994"/>
</linearGradient>
<linearGradient id="paint1_linear_278_865" x1="34.9914" y1="32.4338" x2="77.6197" y2="72.5645" gradientUnits="userSpaceOnUse">
<stop stop-color="#FFE052"/>
<stop offset="1" stop-color="#FFC331"/>
</linearGradient>
<clipPath id="clip0_278_865">
<rect width="80" height="80" fill="white" transform="translate(3)"/>
</clipPath>
<clipPath id="clip1_278_865">
<rect width="80" height="80" fill="white" transform="translate(3)"/>
</clipPath>
<clipPath id="clip2_278_865">
<rect width="80" height="80" fill="white" transform="translate(3)"/>
</clipPath>
</defs>
</svg>
