<svg width="89" height="119" viewBox="0 0 89 119" fill="none" xmlns="http://www.w3.org/2000/svg">
<path d="M3.696 97.6V111.064H10.34V113H1.65V97.6H3.696ZM25.1419 113H22.9639L21.7099 109.546H14.7799L13.5259 113H11.3479L17.0899 97.6H19.3999L25.1419 113ZM18.2339 100.042L15.4839 107.632H21.0059L18.2339 100.042ZM38.3546 113H36.0886L32.6346 107.104H29.0046V113H26.9586V97.6H33.1186C34.4386 97.6 35.5679 98.0693 36.5066 99.008C37.4453 99.932 37.9146 101.054 37.9146 102.374C37.9146 103.371 37.6139 104.281 37.0126 105.102C36.3966 105.938 35.6339 106.517 34.7246 106.84L38.3546 113ZM33.1186 99.514H29.0046V105.256H33.1186C33.8813 105.256 34.5266 104.977 35.0546 104.42C35.5973 103.863 35.8686 103.181 35.8686 102.374C35.8686 101.567 35.5973 100.893 35.0546 100.35C34.5266 99.7927 33.8813 99.514 33.1186 99.514ZM52.7278 113H50.5498L49.2958 109.546H42.3658L41.1118 113H38.9338L44.6758 97.6H46.9858L52.7278 113ZM45.8198 100.042L43.0698 107.632H48.5918L45.8198 100.042ZM59.9997 113H57.6897L52.1897 97.6H54.3897L58.8557 110.448L63.2997 97.6H65.5217L59.9997 113ZM69.3737 106.18V111.064H76.5237V113H67.3277V97.6H76.4137V99.536H69.3737V104.266H75.8637V106.18H69.3737ZM81.0398 97.6V111.064H87.6838V113H78.9938V97.6H81.0398Z" fill="#121212"/>
<g clip-path="url(#clip0_278_872)">
<path d="M83.8127 18.0987C83.8004 18.0624 83.7858 18.0269 83.769 17.9925C83.7466 17.9253 83.7189 17.86 83.6861 17.7972C83.6608 17.7581 83.6326 17.7211 83.6018 17.6862C83.5674 17.6349 83.5298 17.5859 83.4893 17.5393C83.4533 17.505 83.408 17.4768 83.369 17.4456C83.3244 17.4072 83.2774 17.3717 83.2283 17.3393L68.1877 8.67997C67.9977 8.57026 67.7821 8.5125 67.5627 8.5125C67.3433 8.5125 67.1277 8.57026 66.9377 8.67997L51.894 17.344C51.8457 17.3767 51.7997 17.4128 51.7565 17.4518C51.7139 17.4805 51.6732 17.5118 51.6346 17.5456C51.5937 17.5913 51.5561 17.6399 51.5221 17.6909C51.4955 17.7284 51.4611 17.7612 51.4377 17.8018C51.4061 17.865 51.379 17.9302 51.3565 17.9972C51.344 18.0331 51.3236 18.0659 51.3127 18.1034C51.2841 18.2094 51.2693 18.3186 51.269 18.4284V34.8722L38.7346 42.0893V9.91278C38.7348 9.80245 38.7201 9.69259 38.6908 9.58622C38.6815 9.54872 38.6596 9.51591 38.6471 9.47997C38.6252 9.41331 38.5981 9.34851 38.5658 9.28622C38.544 9.24559 38.508 9.21278 38.4815 9.17372C38.4471 9.12244 38.4095 9.07338 38.369 9.02684C38.33 8.9935 38.2893 8.96221 38.2471 8.93309C38.2033 8.8951 38.1574 8.85963 38.1096 8.82684L23.0643 0.167468C22.8742 0.0577578 22.6587 0 22.4393 0C22.2198 0 22.0043 0.0577578 21.8143 0.167468L6.77208 8.82684C6.72324 8.85878 6.67724 8.89485 6.63458 8.93466C6.59148 8.96326 6.55026 8.99457 6.51114 9.02841C6.47072 9.07412 6.43365 9.12269 6.4002 9.17372C6.37207 9.21278 6.3377 9.24559 6.31426 9.28622C6.28224 9.34842 6.25558 9.41324 6.23457 9.47997C6.21751 9.51398 6.20238 9.54893 6.18926 9.58466C6.16052 9.69167 6.14581 9.80197 6.14551 9.91278V61.4284C6.14491 61.6484 6.20239 61.8647 6.31213 62.0553C6.42187 62.246 6.57999 62.4044 6.77051 62.5144L36.8486 79.8331C36.9155 79.8668 36.985 79.895 37.0565 79.9175C37.0893 79.93 37.1205 79.9487 37.1549 79.9581C37.3647 80.0143 37.5857 80.0143 37.7955 79.9581C37.8268 79.9503 37.8533 79.9331 37.8815 79.9237C37.9569 79.9 38.0301 79.8697 38.1002 79.8331L68.1877 62.5144C68.3782 62.4044 68.5364 62.246 68.6461 62.0553C68.7558 61.8647 68.8133 61.6484 68.8127 61.4284V44.9815L83.2252 36.6831C83.4169 36.5724 83.5758 36.4129 83.6856 36.2207C83.7954 36.0285 83.8522 35.8107 83.8502 35.5893V18.4253C83.8511 18.3153 83.8385 18.2056 83.8127 18.0987ZM22.4377 2.70028L34.9674 9.91122L22.4361 17.1268L9.90801 9.91278L22.4377 2.70028ZM36.2268 12.0753V43.5315L28.9565 47.7175L23.6924 50.7487V19.2972L30.9627 15.1112L36.2268 12.0753ZM36.2268 76.5722L8.65176 60.7034V12.0815L13.9158 15.1097L21.1846 19.2972V52.919C21.1877 52.9663 21.194 53.0132 21.2033 53.0597C21.2071 53.1217 21.2154 53.1833 21.2283 53.244C21.2442 53.2925 21.2641 53.3395 21.2877 53.3847C21.3051 53.4385 21.3271 53.4908 21.3533 53.5409C21.3822 53.5833 21.4135 53.624 21.4471 53.6628C21.4783 53.7089 21.5128 53.7528 21.5502 53.794C21.5861 53.8284 21.6315 53.8534 21.6705 53.8847C21.7132 53.9217 21.7581 53.9562 21.8049 53.9878L36.2096 62.1409L36.2268 76.5722ZM37.4768 59.9831L24.9674 52.9019L38.1065 45.3378L52.5221 37.0393L65.0424 44.2472L55.8549 49.4909L37.4768 59.9831ZM66.308 60.6972L38.7315 76.58V62.1565L59.1565 50.5003L66.308 46.4143V60.6972ZM66.308 42.0831L61.044 39.0628L53.7736 34.8768V20.5925L59.0377 23.6237L66.308 27.8128V42.0831ZM67.558 25.6331L55.0268 18.419L67.558 11.2065L80.0861 18.4175L67.558 25.6331ZM68.808 42.0831V27.8128L76.094 23.6237L81.3565 20.5925V34.8722L68.808 42.0831Z" fill="#E7392C"/>
</g>
<defs>
<clipPath id="clip0_278_872">
<rect width="80" height="80" fill="white" transform="translate(5)"/>
</clipPath>
</defs>
</svg>
