<svg width="80" height="119" viewBox="0 0 80 119" fill="none" xmlns="http://www.w3.org/2000/svg">
<g clip-path="url(#clip0_278_859)">
<g clip-path="url(#clip1_278_859)">
<path d="M55.4316 55.8714C58.3837 55.5494 60.6234 52.8687 60.5216 49.6513C60.42 46.4343 57.8747 43.8605 54.8206 43.8605H54.6172C51.4609 43.9678 49.0178 46.7559 49.1197 50.0802C49.2216 51.6889 49.8322 53.0829 50.7484 54.0481C47.2872 61.2332 41.9934 66.4878 34.0528 70.8846C28.6572 73.8873 23.0581 74.9597 17.4591 74.2092C12.8778 73.5657 9.31468 71.4211 7.07468 67.8819C3.81718 62.6273 3.51187 56.9435 6.26062 51.26C8.195 47.1848 11.2487 44.1821 13.1831 42.6808C12.7759 41.2867 12.165 38.9276 11.8597 37.2119C-2.90188 48.4719 -1.37469 63.6997 3.10468 70.8846C6.46406 76.2468 13.285 79.5711 20.8184 79.5711C22.8544 79.5711 24.8903 79.3565 26.9266 78.8206C39.9575 76.1395 49.8325 67.9892 55.4316 55.8714ZM73.3491 42.5738C65.6119 33.0295 54.21 27.7749 41.1791 27.7749H39.5503C38.6341 25.8446 36.6997 24.5576 34.5619 24.5576H34.3581C31.2025 24.6649 28.7594 27.4529 28.8609 30.7776C28.9628 33.9946 31.5078 36.5684 34.5619 36.5684H34.7653C37.005 36.4611 38.9394 34.9597 39.7537 32.9221H41.5862C49.3234 32.9221 56.6531 35.2813 63.2706 39.8927C68.3606 43.4316 72.0256 48.043 74.0615 53.6192C75.7922 58.1232 75.6903 62.52 73.8578 66.2735C71.0075 71.957 66.2228 75.067 59.9109 75.067C55.8387 75.067 51.9703 73.78 49.9341 72.8148C48.8144 73.8873 46.7781 75.6029 45.3528 76.6757C49.7306 78.8202 54.21 80 58.4856 80C68.2587 80 75.4869 74.3162 78.2356 68.6327C81.1878 62.4127 80.984 51.6889 73.3491 42.5738ZM21.6328 57.694C21.7347 60.9113 24.2797 63.4848 27.3337 63.4848H27.5375C30.6934 63.3778 33.1366 60.5894 33.0347 57.2651C32.9331 54.0477 30.3878 51.4743 27.3337 51.4743H27.1303C26.9266 51.4743 26.6209 51.4743 26.4178 51.5813C22.2437 44.2891 20.5131 36.3538 21.1241 27.7745C21.5309 21.3402 23.5672 15.7637 27.1303 11.1523C30.0825 7.18451 35.7834 5.25424 39.6522 5.14726C50.4431 4.93264 55.0241 19.088 55.3297 24.7718C56.6531 25.0934 58.8928 25.8443 60.42 26.3805C59.1981 9.00812 49.0178 0 39.245 0C30.0825 0 21.6328 6.97055 18.2731 17.2654C13.5903 30.9919 16.6444 44.1821 22.3453 54.5843C21.8366 55.3348 21.5309 56.5143 21.6328 57.694Z" fill="#764ABC"/>
</g>
</g>
<path d="M18.046 113H15.78L12.326 107.104H8.696V113H6.65V97.6H12.81C14.13 97.6 15.2593 98.0693 16.198 99.008C17.1367 99.932 17.606 101.054 17.606 102.374C17.606 103.371 17.3053 104.281 16.704 105.102C16.088 105.938 15.3253 106.517 14.416 106.84L18.046 113ZM12.81 99.514H8.696V105.256H12.81C13.5727 105.256 14.218 104.977 14.746 104.42C15.2887 103.863 15.56 103.181 15.56 102.374C15.56 101.567 15.2887 100.893 14.746 100.35C14.218 99.7927 13.5727 99.514 12.81 99.514ZM22.1452 106.18V111.064H29.2952V113H20.0992V97.6H29.1852V99.536H22.1452V104.266H28.6352V106.18H22.1452ZM31.7652 97.6H37.7712C39.8539 97.6 41.5919 98.348 42.9852 99.844C44.3786 101.325 45.0752 103.144 45.0752 105.3C45.0752 107.441 44.3786 109.267 42.9852 110.778C41.5919 112.259 39.8539 113 37.7712 113H31.7652V97.6ZM33.8112 111.064H37.7712C39.3406 111.064 40.6239 110.514 41.6212 109.414C42.6186 108.299 43.1172 106.928 43.1172 105.3C43.1172 103.672 42.6186 102.301 41.6212 101.186C40.6239 100.086 39.3406 99.536 37.7712 99.536H33.8112V111.064ZM47.2508 107.83V97.6H49.2968V107.742C49.2968 108.842 49.6195 109.707 50.2648 110.338C50.9248 110.969 51.8488 111.284 53.0368 111.284C54.2248 111.284 55.1415 110.969 55.7868 110.338C56.4468 109.707 56.7768 108.842 56.7768 107.742V97.6H58.8008V107.83C58.8008 109.502 58.2655 110.829 57.1948 111.812C56.1242 112.795 54.7382 113.286 53.0368 113.286C51.3208 113.286 49.9275 112.795 48.8568 111.812C47.7862 110.829 47.2508 109.502 47.2508 107.83ZM67.699 105.058L72.649 113H70.317L66.533 106.928L62.749 113H60.439L65.389 105.08L60.725 97.6H63.035L66.533 103.21L70.031 97.6H72.341L67.699 105.058Z" fill="#121212"/>
<defs>
<clipPath id="clip0_278_859">
<rect width="80" height="80" fill="white"/>
</clipPath>
<clipPath id="clip1_278_859">
<rect width="80" height="80" fill="white"/>
</clipPath>
</defs>
</svg>
