<svg width="143" height="119" viewBox="0 0 143 119" fill="none" xmlns="http://www.w3.org/2000/svg">
<g clip-path="url(#clip0_278_860)">
<g clip-path="url(#clip1_278_860)">
<mask id="mask0_278_860" style="mask-type:luminance" maskUnits="userSpaceOnUse" x="26" y="0" width="91" height="80">
<path d="M116.286 0H26V80H116.286V0Z" fill="white"/>
</mask>
<g mask="url(#mask0_278_860)">
<path d="M100.227 25.9031C99.2665 25.5751 98.2977 25.2713 97.3217 24.9919C97.4857 24.3252 97.6366 23.6666 97.7706 23.0196C99.9701 12.3947 98.5322 3.83503 93.6208 1.01678C88.9118 -1.68497 81.2107 1.13222 73.433 7.86801C72.6665 8.53304 71.917 9.21723 71.1852 9.91994C70.6953 9.45266 70.1968 8.99445 69.6898 8.54555C61.5384 1.34345 53.368 -1.69199 48.4619 1.13432C43.7571 3.8445 42.364 11.8912 44.3442 21.9606C44.5412 22.9579 44.7637 23.95 45.0113 24.9361C43.8548 25.2631 42.7388 25.6112 41.6708 25.9817C32.1139 29.2975 26.0107 34.4936 26.0107 39.8834C26.0107 45.4501 32.5628 51.0336 42.5167 54.4192C43.3237 54.6926 44.1374 54.9459 44.957 55.1789C44.6908 56.2409 44.4545 57.3101 44.2483 58.3852C42.3605 68.2799 43.8347 76.1364 48.5268 78.8294C53.3729 81.6105 61.5067 78.7522 69.4264 71.8627C70.0686 71.3026 70.6967 70.7267 71.31 70.1354C72.1025 70.8963 72.9162 71.635 73.75 72.3508C81.4219 78.9199 88.9986 81.5726 93.6861 78.8722C98.5276 76.0831 100.101 67.6431 98.0583 57.3747C97.8974 56.5702 97.7169 55.7697 97.5171 54.974C98.0883 54.8055 98.6489 54.6322 99.1954 54.4519C109.544 51.0403 116.276 45.5245 116.276 39.8834C116.276 34.474 109.976 29.2427 100.227 25.9031ZM97.9828 50.8098C97.4892 50.9722 96.9829 51.1291 96.4667 51.2817C95.3242 47.6827 93.7827 43.8561 91.8959 39.902C93.6963 36.0424 95.1786 32.2645 96.289 28.6891C97.2124 28.955 98.1084 29.2354 98.9722 29.5312C107.325 32.3929 112.42 36.6234 112.42 39.8834C112.42 43.3557 106.918 47.8634 97.9828 50.8098ZM94.2756 58.1199C95.179 62.6603 95.3077 66.7655 94.7093 69.975C94.1719 72.8589 93.0909 74.7813 91.7538 75.5515C88.9094 77.1901 82.826 75.0603 76.2651 69.442C75.4895 68.7766 74.7327 68.0897 73.9954 67.3824C76.5391 64.6143 79.081 61.3964 81.5619 57.8224C85.9257 57.4371 90.0483 56.807 93.7869 55.947C93.971 56.6863 94.1346 57.4112 94.2756 58.1199ZM56.7843 75.2684C54.0051 76.2449 51.7915 76.2729 50.4534 75.5052C47.6061 73.8712 46.4224 67.5627 48.037 59.101C48.2289 58.1011 48.4487 57.1067 48.696 56.1189C52.3934 56.9329 56.486 57.5182 60.86 57.8712C63.3578 61.3684 65.9731 64.5827 68.6088 67.3975C68.0486 67.9368 67.4753 68.4624 66.8891 68.9736C63.3867 72.0199 59.8773 74.1813 56.7843 75.2684ZM43.7642 50.7884C39.3627 49.2912 35.7277 47.3456 33.2362 45.2224C30.9972 43.3147 29.8671 41.4203 29.8671 39.8834C29.8671 36.6126 34.7672 32.4406 42.9401 29.6052C43.932 29.2613 44.9701 28.9368 46.0473 28.6322C47.177 32.2884 48.6586 36.1112 50.4467 39.9768C48.6354 43.8996 47.1326 47.7834 45.9919 51.4827C45.2437 51.2695 44.5009 51.0379 43.7642 50.7884ZM48.1287 21.2234C46.4323 12.5964 47.5589 6.08871 50.3941 4.45538C53.4138 2.71573 60.0913 5.19608 67.1296 11.415C67.5886 11.8215 68.0401 12.2362 68.4839 12.6589C65.8613 15.4613 63.27 18.6519 60.7944 22.1284C56.5491 22.5199 52.4854 23.1487 48.7492 23.9912C48.5191 23.074 48.3121 22.1509 48.1287 21.2234ZM87.0653 30.7912C86.1828 29.2743 85.2676 27.7765 84.3203 26.2989C87.2003 26.6613 89.9598 27.1424 92.551 27.7305C91.7732 30.2119 90.8036 32.8059 89.6622 35.4655C88.8279 33.8904 87.9621 32.3319 87.0653 30.7912ZM71.187 15.4013C72.9655 17.3189 74.7468 19.4596 76.4989 21.7824C72.9447 21.6154 69.3845 21.6147 65.8303 21.7803C67.5841 19.4789 69.3806 17.341 71.187 15.4013ZM55.2068 30.8175C54.3212 32.3458 53.4715 33.8946 52.6585 35.4624C51.5358 32.8122 50.575 30.2063 49.7905 27.6898C52.3659 27.1164 55.1123 26.6477 57.974 26.2919C57.0161 27.7785 56.0935 29.2878 55.2068 30.8175ZM58.0561 53.748C55.0996 53.4196 52.3119 52.975 49.7372 52.4171C50.5341 49.8557 51.5161 47.1943 52.6631 44.4873C53.4793 46.0563 54.3325 47.606 55.2219 49.135C56.1366 50.707 57.0837 52.2466 58.0561 53.748ZM71.2935 64.6357C69.4656 62.6736 67.6426 60.5027 65.8624 58.168C67.5908 58.2354 69.3527 58.2698 71.1436 58.2698C72.9835 58.2698 74.8022 58.2287 76.5923 58.1494C74.8346 60.5263 73.06 62.7003 71.2935 64.6357ZM89.6985 44.3491C90.9051 47.0859 91.922 49.7333 92.7295 52.2508C90.1124 52.8452 87.2867 53.3238 84.3094 53.6792C85.2634 52.1742 86.1873 50.6504 87.0804 49.1087C87.9885 47.5417 88.8614 45.9547 89.6985 44.3491ZM83.7403 47.1915C82.3729 49.5552 80.9287 51.8739 79.41 54.1441C76.6588 54.338 73.9016 54.4344 71.1436 54.4329C68.3344 54.4329 65.6021 54.3459 62.971 54.1761C61.4126 51.9111 59.9409 49.5883 58.5589 47.2126C57.1835 44.8494 55.8991 42.4352 54.7078 39.975C55.8961 37.5143 57.1769 35.0989 58.5477 32.734C59.9179 30.3685 61.3775 28.0559 62.9241 25.8006C65.6085 25.5985 68.3612 25.4933 71.1433 25.4933C73.938 25.4933 76.6946 25.5996 79.3782 25.8031C80.9093 28.055 82.3599 30.3599 83.7276 32.7136C85.1028 35.0733 86.4006 37.4769 87.6189 39.9206C86.4131 42.3893 85.1195 44.8145 83.7403 47.1915ZM91.6949 4.34099C94.7174 6.07573 95.893 13.0712 93.9939 22.2448C93.8726 22.8301 93.7365 23.4263 93.5884 24.0308C89.8431 23.1705 85.7765 22.5308 81.5189 22.1333C79.0387 18.6185 76.4686 15.4231 73.8886 12.6568C74.5648 12.0082 75.257 11.3764 75.9647 10.762C82.6289 4.99117 88.8572 2.71257 91.6949 4.34099ZM71.1436 31.8624C75.5952 31.8624 79.2041 35.4536 79.2041 39.8834C79.2041 44.3133 75.5952 47.9045 71.1436 47.9045C66.692 47.9045 63.0832 44.3133 63.0832 39.8834C63.0832 35.4536 66.692 31.8624 71.1436 31.8624Z" fill="#00D8FF"/>
</g>
</g>
</g>
<path d="M13.046 113H10.78L7.326 107.104H3.696V113H1.65V97.6H7.81C9.13 97.6 10.2593 98.0693 11.198 99.008C12.1367 99.932 12.606 101.054 12.606 102.374C12.606 103.371 12.3053 104.281 11.704 105.102C11.088 105.938 10.3253 106.517 9.416 106.84L13.046 113ZM7.81 99.514H3.696V105.256H7.81C8.57267 105.256 9.218 104.977 9.746 104.42C10.2887 103.863 10.56 103.181 10.56 102.374C10.56 101.567 10.2887 100.893 9.746 100.35C9.218 99.7927 8.57267 99.514 7.81 99.514ZM17.1452 106.18V111.064H24.2952V113H15.0992V97.6H24.1852V99.536H17.1452V104.266H23.6352V106.18H17.1452ZM39.3216 113H37.1436L35.8896 109.546H28.9596L27.7056 113H25.5276L31.2696 97.6H33.5796L39.3216 113ZM32.4136 100.042L29.6636 107.632H35.1856L32.4136 100.042ZM47.8177 113.286C45.471 113.286 43.5424 112.516 42.0317 110.976C40.521 109.451 39.7657 107.559 39.7657 105.3C39.7657 103.041 40.521 101.149 42.0317 99.624C43.5424 98.084 45.471 97.314 47.8177 97.314C49.211 97.314 50.5017 97.6513 51.6897 98.326C52.8777 99.0007 53.8017 99.91 54.4617 101.054L52.6797 102.088C52.2397 101.237 51.5797 100.563 50.6997 100.064C49.8344 99.5507 48.8737 99.294 47.8177 99.294C46.0284 99.294 44.5764 99.866 43.4617 101.01C42.347 102.139 41.7897 103.569 41.7897 105.3C41.7897 107.016 42.347 108.439 43.4617 109.568C44.5764 110.712 46.0284 111.284 47.8177 111.284C48.8737 111.284 49.8344 111.035 50.6997 110.536C51.5797 110.023 52.2397 109.348 52.6797 108.512L54.4617 109.524C53.8164 110.668 52.8997 111.585 51.7117 112.274C50.5384 112.949 49.2404 113.286 47.8177 113.286ZM55.353 97.6H66.463V99.536H61.909V113H59.885V99.536H55.353V97.6ZM83.5579 109.084V97.6H85.6039V113H83.9539L76.0339 101.494V113H73.9879V97.6H75.6379L83.5579 109.084ZM101.218 113H99.04L97.786 109.546H90.856L89.602 113H87.424L93.166 97.6H95.476L101.218 113ZM94.31 100.042L91.56 107.632H97.082L94.31 100.042ZM100.664 97.6H111.774V99.536H107.22V113H105.196V99.536H100.664V97.6ZM113.798 113V97.6H115.844V113H113.798ZM125.484 113H123.174L117.674 97.6H119.874L124.34 110.448L128.784 97.6H131.006L125.484 113ZM134.858 106.18V111.064H142.008V113H132.812V97.6H141.898V99.536H134.858V104.266H141.348V106.18H134.858Z" fill="#121212"/>
<defs>
<clipPath id="clip0_278_860">
<rect width="91" height="80" fill="white" transform="translate(26)"/>
</clipPath>
<clipPath id="clip1_278_860">
<rect width="91" height="80" fill="white" transform="translate(26)"/>
</clipPath>
</defs>
</svg>
