<svg width="93" height="119" viewBox="0 0 93 119" fill="none" xmlns="http://www.w3.org/2000/svg">
<path d="M7 0H87V80H7V0Z" fill="#E7E7E7"/>
<path d="M8.8 105.366H16.5V106.29C16.5 108.299 15.8107 109.971 14.432 111.306C13.0533 112.626 11.2273 113.286 8.954 113.286C6.60733 113.286 4.664 112.516 3.124 110.976C1.59867 109.407 0.836 107.515 0.836 105.3C0.836 103.085 1.59867 101.201 3.124 99.646C4.664 98.0913 6.59267 97.314 8.91 97.314C10.318 97.314 11.6233 97.6587 12.826 98.348C14.0433 99.0373 14.96 99.932 15.576 101.032L13.816 102.066C13.376 101.23 12.7087 100.563 11.814 100.064C10.9193 99.5507 9.944 99.294 8.888 99.294C7.11333 99.294 5.66867 99.8733 4.554 101.032C3.42467 102.191 2.86 103.613 2.86 105.3C2.86 106.987 3.42467 108.409 4.554 109.568C5.698 110.712 7.172 111.284 8.976 111.284C10.4867 111.284 11.7187 110.917 12.672 110.184C13.64 109.436 14.234 108.446 14.454 107.214H8.8V105.366ZM18.1739 105.3C18.1739 103.071 18.9439 101.186 20.4839 99.646C22.0239 98.0913 23.9086 97.314 26.1379 97.314C28.3672 97.314 30.2519 98.0913 31.7919 99.646C33.3466 101.186 34.1239 103.071 34.1239 105.3C34.1239 107.515 33.3466 109.399 31.7919 110.954C30.2519 112.509 28.3672 113.286 26.1379 113.286C23.9086 113.286 22.0239 112.509 20.4839 110.954C18.9439 109.385 18.1739 107.5 18.1739 105.3ZM32.0779 105.3C32.0779 103.599 31.5059 102.176 30.3619 101.032C29.2472 99.8733 27.8392 99.294 26.1379 99.294C24.4512 99.294 23.0359 99.8733 21.8919 101.032C20.7626 102.191 20.1979 103.613 20.1979 105.3C20.1979 106.972 20.7626 108.395 21.8919 109.568C23.0359 110.712 24.4512 111.284 26.1379 111.284C27.8392 111.284 29.2472 110.712 30.3619 109.568C31.5059 108.395 32.0779 106.972 32.0779 105.3ZM38.6296 97.6V111.064H45.2736V113H36.5836V97.6H38.6296ZM60.0755 113H57.8975L56.6435 109.546H49.7135L48.4595 113H46.2815L52.0235 97.6H54.3335L60.0755 113ZM53.1675 100.042L50.4175 107.632H55.9395L53.1675 100.042ZM71.4622 109.084V97.6H73.5082V113H71.8582L63.9382 101.494V113H61.8922V97.6H63.5422L71.4622 109.084ZM83.9523 105.366H91.6523V106.29C91.6523 108.299 90.963 109.971 89.5843 111.306C88.2057 112.626 86.3797 113.286 84.1063 113.286C81.7597 113.286 79.8163 112.516 78.2763 110.976C76.751 109.407 75.9883 107.515 75.9883 105.3C75.9883 103.085 76.751 101.201 78.2763 99.646C79.8163 98.0913 81.745 97.314 84.0623 97.314C85.4703 97.314 86.7757 97.6587 87.9783 98.348C89.1957 99.0373 90.1123 99.932 90.7283 101.032L88.9683 102.066C88.5283 101.23 87.861 100.563 86.9663 100.064C86.0717 99.5507 85.0963 99.294 84.0403 99.294C82.2657 99.294 80.821 99.8733 79.7063 101.032C78.577 102.191 78.0123 103.613 78.0123 105.3C78.0123 106.987 78.577 108.409 79.7063 109.568C80.8503 110.712 82.3243 111.284 84.1283 111.284C85.639 111.284 86.871 110.917 87.8243 110.184C88.7923 109.436 89.3863 108.446 89.6063 107.214H83.9523V105.366Z" fill="#121212"/>
<path d="M53.6349 34.7331C52.5279 35.0137 51.6138 35.164 50.6795 35.4947C49.9381 35.6851 49.1865 35.8855 48.3232 36.106L48.2623 36.116C47.8357 36.2363 47.7951 36.2463 47.399 35.7954C46.9217 35.2642 46.5764 34.9235 45.9162 34.6028C43.9155 33.6407 41.9858 33.9213 40.1881 35.0738C38.035 36.4467 36.928 38.4811 36.9585 41.0065C36.9889 43.5119 38.7256 45.5662 41.1428 45.907C43.3772 46.1876 45.185 45.446 46.6068 43.8526C46.8201 43.592 47.0131 43.3214 47.2264 43.0208C47.3076 42.9206 47.3787 42.8104 47.46 42.6901H41.3561C40.6959 42.6901 40.5334 42.2892 40.7569 41.7581C41.1631 40.786 41.9248 39.1626 42.3717 38.3508C42.4631 38.1704 42.6866 37.7696 43.0725 37.7696H53.3404C53.7974 36.4267 54.5388 35.0738 55.5341 33.7911C57.8396 30.7947 60.5411 29.2313 64.3903 28.5799C67.62 28.0187 70.6567 28.3294 73.4192 30.1733C75.9176 31.8569 77.4614 34.1418 77.8778 37.1382C78.416 41.3572 77.177 44.7846 74.1504 47.7208C72.1497 49.8153 69.5903 51.1281 66.645 51.7194C66.0763 51.8196 65.5177 51.8697 64.9692 51.9198C64.6747 51.9399 64.3903 51.9699 64.106 52C61.2318 51.9399 58.6013 51.1281 56.3873 49.2541C54.8334 47.9213 53.7568 46.2878 53.2287 44.3937C52.8529 45.1253 52.4162 45.8368 51.8068 46.5083C49.6131 49.4746 46.6373 51.3185 42.8795 51.8096C39.7717 52.2205 36.8975 51.6292 34.3585 49.7552C32.0226 48.0015 30.6921 45.6965 30.3468 42.8204C29.9304 39.4131 30.946 36.2664 33.028 33.6708C35.2827 30.7646 38.2585 28.9207 41.8944 28.2693C44.8701 27.6479 47.7139 28.0789 50.2834 29.8025C51.9592 30.8949 53.1576 32.3881 53.9498 34.2019C54.1427 34.4825 54.0107 34.6429 53.6349 34.7331ZM17.9054 35.2943C17.7785 35.2943 17.747 35.2342 17.81 35.1339L18.4752 34.2921C18.5382 34.2019 18.6966 34.1418 18.8236 34.1418H30.1233C30.2452 34.1418 30.2757 34.232 30.2148 34.3222L29.6765 35.1339C29.6155 35.2342 29.453 35.3243 29.3616 35.3243L17.9054 35.2943ZM13.1265 38.1704C13 38.1704 12.9684 38.1003 13.0316 38.0101L13.6962 37.1683C13.7596 37.0781 13.9178 37.0079 14.0441 37.0079H28.478C28.5999 37.0079 28.6609 37.1082 28.6304 37.1984L28.3765 37.95C28.346 38.0702 28.2241 38.1404 28.0921 38.1404L13.1265 38.1704ZM20.6903 40.8562C20.6273 40.9464 20.6588 41.0366 20.7847 41.0366L27.6859 41.0666C27.7773 41.0666 27.9093 40.9764 27.9093 40.8562L27.9702 40.1046C27.9702 39.9743 27.9093 39.8841 27.7773 39.8841H21.45C21.323 39.8841 21.1971 39.9743 21.1331 40.0745L20.6903 40.8562ZM71.6216 39.0523C71.6012 38.7918 71.5911 38.5713 71.5505 38.3508C70.9817 35.2642 68.0974 33.5105 65.0911 34.2019C62.1458 34.8533 60.2466 36.6973 59.556 39.6336C58.9872 42.0688 60.1857 44.534 62.4607 45.5362C64.2075 46.2878 65.9442 46.1976 67.62 45.3458C70.1184 43.9829 71.4794 42.0688 71.6419 39.383C71.6317 39.2628 71.6317 39.1525 71.6216 39.0523Z" fill="#00AED8"/>
</svg>
