<svg width="128" height="119" viewBox="0 0 128 119" fill="none" xmlns="http://www.w3.org/2000/svg">
<g clip-path="url(#clip0_278_867)">
<mask id="mask0_278_867" style="mask-type:luminance" maskUnits="userSpaceOnUse" x="1" y="2" width="126" height="76">
<path d="M1.7998 39.9996C1.7998 60.939 29.6484 77.9141 63.9999 77.9141C98.3515 77.9141 126.2 60.939 126.2 39.9996C126.2 19.0604 98.3515 2.08511 63.9999 2.08511C29.6484 2.08511 1.7998 19.0604 1.7998 39.9996Z" fill="white"/>
</mask>
<g mask="url(#mask0_278_867)">
<path d="M1.7998 39.9996C1.7998 60.939 29.6484 77.9141 63.9999 77.9141C98.3515 77.9141 126.2 60.939 126.2 39.9996C126.2 19.0604 98.3515 2.08511 63.9999 2.08511C29.6484 2.08511 1.7998 19.0604 1.7998 39.9996Z" fill="url(#paint0_radial_278_867)"/>
</g>
<mask id="mask1_278_867" style="mask-type:luminance" maskUnits="userSpaceOnUse" x="-1" y="-3" width="130" height="86">
<path d="M-0.791992 -2.23209H128.792V82.2314H-0.791992V-2.23209Z" fill="white"/>
</mask>
<g mask="url(#mask1_278_867)">
<path d="M63.9999 75.0996C97.0097 75.0996 123.77 59.385 123.77 40.0001C123.77 20.6154 97.0097 4.9005 63.9999 4.9005C30.9901 4.9005 4.22949 20.6154 4.22949 40.0001C4.22949 59.385 30.9901 75.0996 63.9999 75.0996Z" fill="#777BB3"/>
</g>
<mask id="mask2_278_867" style="mask-type:luminance" maskUnits="userSpaceOnUse" x="-1" y="-3" width="130" height="86">
<path d="M-0.791992 -2.23209H128.792V82.2314H-0.791992V-2.23209Z" fill="white"/>
</mask>
<g mask="url(#mask2_278_867)">
<path d="M35.5936 44.351C38.3078 44.351 40.3341 43.7709 41.6163 42.6275C42.8847 41.4959 43.7607 39.5352 44.2199 36.8003C44.648 34.244 44.4849 32.4591 43.7353 31.4958C42.9688 30.512 41.3117 30.013 38.81 30.013H34.4723L32.0676 44.351H35.5936ZM21.4062 62.0127C21.2048 62.0127 21.0136 61.9084 20.8856 61.728C20.7574 61.5479 20.7054 61.3107 20.7439 61.0815L27.1169 23.0857C27.1785 22.7184 27.4563 22.453 27.7794 22.453H41.5148C45.8316 22.453 49.0446 23.8112 51.0642 26.4903C53.0945 29.1835 53.7215 32.9481 52.9276 37.6794C52.6045 39.6069 52.0489 41.3971 51.2761 42.9998C50.5024 44.6043 49.4799 46.089 48.2365 47.4133C46.7481 49.0275 45.0635 50.198 43.234 50.8867C41.4336 51.5663 39.1213 51.911 36.3616 51.911H30.7999L29.2116 61.3797C29.1499 61.7473 28.8723 62.0127 28.5492 62.0127H21.4062Z" fill="black"/>
<path d="M35.0288 30.7952H38.8101C41.8295 30.7952 42.8783 31.563 43.2346 32.0205C43.8259 32.7801 43.9374 34.3818 43.5575 36.6522C43.1305 39.1939 42.339 40.996 41.2047 42.008C40.0434 43.044 38.1555 43.569 35.5937 43.569H32.8864L35.0288 30.7952ZM41.515 21.6711H27.7793C27.1332 21.6711 26.5777 22.2019 26.4545 22.9367L20.0815 60.9326C20.0045 61.3911 20.1085 61.8653 20.3647 62.2258C20.6212 62.5864 21.0032 62.7949 21.4063 62.7949H28.5492C29.1955 62.7949 29.751 62.2642 29.8743 61.5293L31.3564 52.6932H36.3618C39.1923 52.6932 41.5752 52.3355 43.4436 51.6304C45.3651 50.9069 47.1329 49.6804 48.6976 47.9849C49.9917 46.6053 51.0576 45.0568 51.8652 43.3819C52.6731 41.7064 53.2535 39.838 53.5903 37.8286C54.4261 32.8484 53.7471 28.8604 51.5725 25.9761C49.4191 23.1195 46.0351 21.6711 41.515 21.6711ZM31.2488 45.1332H35.5937C38.4736 45.1332 40.6187 44.5047 42.0281 43.2473C43.4378 41.9898 44.3885 39.891 44.8826 36.9499C45.3552 34.1261 45.1399 32.1334 44.2367 30.9725C43.3323 29.8117 41.5237 29.2311 38.8101 29.2311H33.9161L31.2488 45.1332ZM41.515 23.2352C45.647 23.2352 48.6614 24.4918 50.5561 27.0051C52.4506 29.5184 53.0211 33.0265 52.2652 37.5304C51.9541 39.3857 51.4279 41.0821 50.687 42.6188C49.9453 44.1566 48.9768 45.5628 47.78 46.8378C46.3536 48.3845 44.7692 49.4867 43.0256 50.1431C41.2821 50.8014 39.0614 51.129 36.3618 51.129H30.2434L28.5492 61.2308H21.4063L27.7793 23.2352H41.515Z" fill="white"/>
<path d="M69.3052 51.9111C69.1036 51.9111 68.9126 51.8069 68.7846 51.6265C68.6561 51.4463 68.6041 51.2094 68.6426 50.9799L71.4617 34.1683C71.7299 32.5695 71.6638 31.4219 71.2757 30.9371C71.0381 30.6407 70.3245 30.1435 68.2145 30.1435H63.1072L59.5628 51.2782C59.5011 51.6458 59.2233 51.9111 58.9002 51.9111H51.8136C51.6121 51.9111 51.4211 51.8069 51.2928 51.6265C51.1646 51.4463 51.1126 51.2091 51.1511 50.9799L57.5241 12.9841C57.5857 12.6168 57.8636 12.3514 58.1866 12.3514H65.2732C65.4748 12.3514 65.6658 12.4557 65.794 12.6359C65.9223 12.8162 65.9742 13.0532 65.9358 13.2826L64.3979 22.4532H69.8921C74.0777 22.4532 76.9159 23.3082 78.569 25.0674C80.2541 26.862 80.7798 29.7314 80.1319 33.5969L77.1668 51.2782C77.1051 51.6458 76.8275 51.9111 76.5042 51.9111H69.3052Z" fill="black"/>
<path d="M65.2734 11.5695H58.1868C57.5404 11.5695 56.985 12.1003 56.8617 12.8352L50.4887 50.831C50.4118 51.2895 50.5157 51.7637 50.7722 52.1243C51.0286 52.4848 51.4106 52.6934 51.8138 52.6934H58.9004C59.5465 52.6934 60.1022 52.1626 60.2255 51.4277L63.6637 30.9258H68.2146C70.3211 30.9258 70.7631 31.4471 70.7809 31.4696C70.9087 31.6288 71.0767 32.3666 70.7993 34.0194L67.9802 50.831C67.9033 51.2895 68.0072 51.7637 68.2637 52.1243C68.5202 52.4848 68.9022 52.6934 69.3053 52.6934H76.5044C77.1505 52.6934 77.7062 52.1626 77.8295 51.4277L80.7944 33.7464C81.4902 29.596 80.8949 26.4826 79.0259 24.4919C77.2423 22.5938 74.2547 21.6713 69.8923 21.6713H65.2165L66.5985 13.4322C66.6752 12.9736 66.5715 12.4991 66.315 12.1389C66.0585 11.7783 65.6765 11.5695 65.2734 11.5695ZM65.2734 13.1337L63.5791 23.2354H69.8923C73.8646 23.2354 76.6045 24.0388 78.1125 25.6437C79.6205 27.2495 80.0722 29.8514 79.4695 33.4482L76.5044 51.1292H69.3053L72.1244 34.3178C72.4452 32.4054 72.3273 31.1009 71.7703 30.4054C71.2131 29.7099 70.0277 29.3616 68.2146 29.3616H62.5508L58.9004 51.1292H51.8138L58.1868 13.1337H65.2734Z" fill="white"/>
<path d="M91.345 44.351C94.0593 44.351 96.0856 43.7709 97.3677 42.6275C98.6361 41.4961 99.5121 39.5355 99.9715 36.8003C100.4 34.244 100.237 32.4591 99.4867 31.4958C98.7202 30.512 97.0631 30.013 94.5614 30.013H90.2237L87.819 44.351H91.345ZM77.1578 62.0127C76.9565 62.0127 76.7653 61.9084 76.6373 61.728C76.509 61.5479 76.4568 61.3107 76.4953 61.0815L82.8683 23.0857C82.9302 22.7184 83.2078 22.453 83.5311 22.453H97.2662C101.583 22.453 104.796 23.8112 106.816 26.4903C108.846 29.1832 109.473 32.9479 108.679 37.6794C108.356 39.6069 107.8 41.3971 107.028 42.9998C106.254 44.6043 105.231 46.089 103.988 47.4133C102.5 49.0275 100.815 50.198 98.9855 50.8867C97.185 51.5663 94.8728 51.911 92.113 51.911H86.5511L84.9634 61.3797C84.9016 61.7473 84.624 62.0127 84.3007 62.0127H77.1578Z" fill="black"/>
<path d="M90.78 30.7952H94.5614C97.5807 30.7952 98.6295 31.563 98.9859 32.0205C99.5773 32.7801 99.6889 34.3818 99.3087 36.6519C98.8817 39.1939 98.09 40.996 96.956 42.008C95.7947 43.044 93.9067 43.569 91.3449 43.569H88.6379L90.78 30.7952ZM97.2662 21.6711H83.5308C82.8847 21.6711 82.3292 22.2019 82.2059 22.9367L75.8329 60.9326C75.756 61.3911 75.8599 61.8653 76.1162 62.2258C76.3726 62.5864 76.7546 62.7949 77.1578 62.7949H84.3006C84.9468 62.7949 85.5024 62.2642 85.6257 61.5293L87.1076 52.6932H92.113C94.9436 52.6932 97.3265 52.3355 99.1949 51.6304C101.116 50.9069 102.885 49.6801 104.449 47.9843C105.743 46.605 106.809 45.0568 107.616 43.3819C108.424 41.7064 109.005 39.838 109.342 37.8286C110.177 32.8482 109.498 28.8601 107.324 25.9759C105.17 23.1195 101.787 21.6711 97.2662 21.6711ZM87.0003 45.1332H91.3449C94.2248 45.1332 96.3699 44.5047 97.7794 43.2473C99.1892 41.9898 100.14 39.891 100.634 36.9499C101.107 34.1261 100.891 32.1334 99.9879 30.9725C99.0835 29.8117 97.275 29.2311 94.5614 29.2311H89.6673L87.0003 45.1332ZM97.2662 23.2352C101.398 23.2352 104.413 24.4918 106.307 27.0051C108.202 29.5184 108.772 33.0265 108.016 37.5304C107.705 39.3857 107.179 41.0821 106.438 42.6188C105.697 44.1566 104.728 45.5628 103.531 46.8378C102.105 48.3845 100.52 49.4867 98.7769 50.1431C97.0333 50.8014 94.8127 51.129 92.113 51.129H85.9947L84.3006 61.2308H77.1578L83.5308 23.2352H97.2662Z" fill="white"/>
</g>
</g>
<path d="M45.65 97.6H51.238C52.646 97.6 53.8267 98.0767 54.78 99.03C55.7333 99.9833 56.21 101.157 56.21 102.55C56.21 103.943 55.7333 105.117 54.78 106.07C53.8267 107.023 52.646 107.5 51.238 107.5H47.696V113H45.65V97.6ZM47.696 105.586H51.238C52.1033 105.586 52.8073 105.3 53.35 104.728C53.9073 104.127 54.186 103.401 54.186 102.55C54.186 101.67 53.9073 100.944 53.35 100.372C52.7927 99.8 52.0887 99.514 51.238 99.514H47.696V105.586ZM68.1526 104.134V97.6H70.1766V113H68.1526V106.07H60.6726V113H58.6266V97.6H60.6726V104.134H68.1526ZM73.4723 97.6H79.0603C80.4683 97.6 81.6489 98.0767 82.6023 99.03C83.5556 99.9833 84.0323 101.157 84.0323 102.55C84.0323 103.943 83.5556 105.117 82.6023 106.07C81.6489 107.023 80.4683 107.5 79.0603 107.5H75.5183V113H73.4723V97.6ZM75.5183 105.586H79.0603C79.9256 105.586 80.6296 105.3 81.1723 104.728C81.7296 104.127 82.0083 103.401 82.0083 102.55C82.0083 101.67 81.7296 100.944 81.1723 100.372C80.6149 99.8 79.9109 99.514 79.0603 99.514H75.5183V105.586Z" fill="#121212"/>
<defs>
<radialGradient id="paint0_radial_278_867" cx="0" cy="0" r="1" gradientUnits="userSpaceOnUse" gradientTransform="translate(39.1451 15.4147) scale(81.6777 94.6455)">
<stop stop-color="#AEB2D5"/>
<stop offset="0.3" stop-color="#AEB2D5"/>
<stop offset="0.75" stop-color="#484C89"/>
<stop offset="1" stop-color="#484C89"/>
</radialGradient>
<clipPath id="clip0_278_867">
<rect width="128" height="80" fill="white"/>
</clipPath>
</defs>
</svg>
