<svg width="60" height="119" viewBox="0 0 60 119" fill="none" xmlns="http://www.w3.org/2000/svg">
<g clip-path="url(#clip0_278_862)">
<mask id="mask0_278_862" style="mask-type:luminance" maskUnits="userSpaceOnUse" x="0" y="0" width="60" height="80">
<path d="M59.2593 0H0V80H59.2593V0Z" fill="white"/>
</mask>
<g mask="url(#mask0_278_862)">
<path d="M19.1102 61.8428C19.1102 61.8428 16.0556 63.6173 21.2842 64.2178C27.6186 64.9396 30.8558 64.8363 37.8364 63.5163C37.8364 63.5163 39.6718 64.6659 42.2346 65.6617C26.5863 72.3616 6.81905 65.2735 19.1102 61.8428Z" fill="#5382A1"/>
<path d="M17.1978 53.0996C17.1978 53.0996 13.7717 55.6332 19.0042 56.1738C25.7707 56.8712 31.1144 56.9283 40.3611 55.1495C40.3611 55.1495 41.64 56.4448 43.6511 57.1532C24.7311 62.6802 3.65776 57.5891 17.1978 53.0996Z" fill="#5382A1"/>
<path d="M33.3188 38.2695C37.1747 42.7042 32.3058 46.695 32.3058 46.695C32.3058 46.695 42.0962 41.646 37.5999 35.3232C33.4005 29.4272 30.18 26.4973 47.614 16.3965C47.614 16.3965 20.2484 23.2244 33.3188 38.2695Z" fill="#E76F00"/>
<path d="M54.0164 68.3102C54.0164 68.3102 56.2769 70.1708 51.5267 71.6103C42.4944 74.3439 13.9326 75.1694 5.9982 71.7192C3.1461 70.4799 8.4948 68.7597 10.1772 68.3985C11.9318 68.0184 12.9346 68.0894 12.9346 68.0894C9.76266 65.857 -7.5675 72.4725 4.13183 74.3668C36.0373 79.5359 62.2922 72.0394 54.0164 68.3102Z" fill="#5382A1"/>
<path d="M20.5793 44.0413C20.5793 44.0413 6.05124 47.4887 15.4347 48.7403C19.3966 49.2702 27.2947 49.1504 34.6516 48.5345C40.6641 48.0281 46.7014 46.9507 46.7014 46.9507C46.7014 46.9507 44.5813 47.8577 43.0475 48.904C28.2943 52.7803 -0.206342 50.977 7.99862 47.0119C14.9376 43.6612 20.5793 44.0413 20.5793 44.0413Z" fill="#5382A1"/>
<path d="M46.6412 58.5942C61.6388 50.8087 54.7045 43.3271 49.8645 44.3352C48.6781 44.5817 48.1493 44.7953 48.1493 44.7953C48.1493 44.7953 48.5897 44.1063 49.4308 43.808C59.0057 40.445 66.3696 53.7264 46.3398 58.9865C46.3398 58.9865 46.572 58.7796 46.6412 58.5942Z" fill="#5382A1"/>
<path d="M37.5992 0.0851921C37.5992 0.0851921 45.9051 8.38577 29.7215 21.149C16.7441 31.3876 26.7622 37.2253 29.7162 43.8951C22.141 37.0674 16.5817 31.0567 20.3114 25.4628C25.7853 17.2507 40.9503 13.2697 37.5992 0.0851921Z" fill="#E76F00"/>
<path d="M22.0542 79.6906C36.4498 80.6113 58.5559 79.1798 59.0794 72.375C59.0794 72.375 58.0731 74.9549 47.1822 77.0034C34.8952 79.3133 19.7411 79.0437 10.7529 77.5632C10.7532 77.5632 12.5927 79.0846 22.0542 79.6906Z" fill="#5382A1"/>
</g>
</g>
<path d="M9.654 113.286C8.52467 113.286 7.53467 113.051 6.684 112.582C5.848 112.098 5.232 111.416 4.836 110.536L6.574 109.524C7.04333 110.697 8.07 111.284 9.654 111.284C10.6513 111.284 11.4213 111.049 11.964 110.58C12.5213 110.096 12.8 109.399 12.8 108.49V97.6H14.824V108.49C14.824 110.03 14.3327 111.218 13.35 112.054C12.3673 112.875 11.1353 113.286 9.654 113.286ZM29.8079 113H27.6299L26.3759 109.546H19.4459L18.1919 113H16.0139L21.7559 97.6H24.0659L29.8079 113ZM22.8999 100.042L20.1499 107.632H25.6719L22.8999 100.042ZM37.0798 113H34.7698L29.2698 97.6H31.4698L35.9358 110.448L40.3798 97.6H42.6018L37.0798 113ZM55.847 113H53.669L52.415 109.546H45.485L44.231 113H42.053L47.795 97.6H50.105L55.847 113ZM48.939 100.042L46.189 107.632H51.711L48.939 100.042Z" fill="#121212"/>
<defs>
<clipPath id="clip0_278_862">
<rect width="60" height="80" fill="white"/>
</clipPath>
</defs>
</svg>
