<svg width="80" height="119" viewBox="0 0 80 119" fill="none" xmlns="http://www.w3.org/2000/svg">
<g clip-path="url(#clip0_278_861)">
<g clip-path="url(#clip1_278_861)">
<g clip-path="url(#clip2_278_861)">
<path d="M17.7811 0H62.0935C64.2498 0 66.3436 0.34375 68.3748 1.0625C71.3123 2.125 73.9686 4 75.9686 6.4375C77.9998 8.875 79.3435 11.875 79.8123 15C79.9998 16.1562 80.0311 17.3125 80.0311 18.4688V61.6875C80.0311 63.0625 79.9686 64.4688 79.6873 65.8125C79.0623 68.9062 77.5936 71.8125 75.4686 74.1562C73.3748 76.5 70.6248 78.25 67.6561 79.1875C65.8436 79.75 63.9686 80 62.0623 80C61.2186 80 17.6561 80 16.9998 79.9688C13.8123 79.8125 10.6561 78.7812 7.99981 77C5.40606 75.25 3.28106 72.8125 1.90606 70C0.718559 67.5938 0.124809 64.9062 0.124809 62.2188V17.7812C0.0623086 15.125 0.624808 12.5 1.78106 10.125C3.12481 7.3125 5.21856 4.84375 7.81231 3.09375C10.4686 1.28125 13.5936 0.21875 16.7811 0.0625C17.0936 0 17.4373 0 17.7811 0Z" fill="url(#paint0_linear_278_861)"/>
<path d="M67.5 65.4375C67.2188 65 66.9063 64.5625 66.5625 64.1562C65.7813 63.2188 64.875 62.4062 63.875 61.7188C62.625 60.875 61.1563 60.3438 59.6563 60.2812C58.5938 60.2187 57.5313 60.4062 56.5313 60.7812C55.5313 61.125 54.5625 61.625 53.625 62.125C52.5313 62.6875 51.4375 63.25 50.2813 63.7188C48.9063 64.2812 47.4688 64.7188 46 65.0312C44.1563 65.375 42.2813 65.5 40.4375 65.4688C37.0938 65.4062 33.75 64.9062 30.5625 63.9688C27.75 63.125 25.0625 61.9688 22.5313 60.5C20.3125 59.2188 18.25 57.75 16.3125 56.0938C14.7188 54.7188 13.25 53.25 11.875 51.6875C10.9375 50.5938 10.0313 49.4375 9.1875 48.25C8.84375 47.7812 8.53125 47.2812 8.25 46.7812L0 37.875V17.7188C0 7.9375 7.90625 0 17.6875 0H33.4688L45.1563 11.875C71.5313 29.8125 63 49.5938 63 49.5938C63 49.5938 70.5 58.0312 67.5 65.4375Z" fill="url(#paint1_linear_278_861)"/>
<path d="M45.2188 11.875C71.5938 29.8125 63.0625 49.5938 63.0625 49.5938C63.0625 49.5938 70.5625 58.0625 67.5313 65.4688C67.5313 65.4688 64.4375 60.2812 59.25 60.2812C54.25 60.2812 51.3125 65.4688 41.25 65.4688C18.8438 65.4688 8.25 46.75 8.25 46.75C28.4375 60.0312 42.2188 50.625 42.2188 50.625C33.125 45.3438 13.7812 20.0938 13.7812 20.0938C30.625 34.4375 37.9062 38.2188 37.9062 38.2188C33.5625 34.625 21.375 17.0625 21.375 17.0625C31.125 26.9375 50.5 40.7188 50.5 40.7188C56 25.4688 45.2188 11.875 45.2188 11.875Z" fill="white"/>
</g>
</g>
</g>
<path d="M14.622 113.286C13.1847 113.286 11.9527 112.956 10.926 112.296C9.914 111.621 9.20267 110.69 8.792 109.502L10.552 108.49C11.1387 110.353 12.51 111.284 14.666 111.284C15.7073 111.284 16.5067 111.071 17.064 110.646C17.636 110.221 17.922 109.641 17.922 108.908C17.922 108.189 17.6433 107.639 17.086 107.258C16.5873 106.921 15.656 106.532 14.292 106.092L12.818 105.608C12.4953 105.476 12.07 105.285 11.542 105.036C11.0287 104.772 10.6547 104.508 10.42 104.244C9.77467 103.54 9.452 102.682 9.452 101.67C9.452 100.321 9.92133 99.2647 10.86 98.502C11.7987 97.71 12.9427 97.314 14.292 97.314C15.4947 97.314 16.5507 97.6147 17.46 98.216C18.3693 98.8173 19.0513 99.6387 19.506 100.68L17.79 101.67C17.13 100.086 15.964 99.294 14.292 99.294C13.456 99.294 12.7813 99.4993 12.268 99.91C11.7547 100.321 11.498 100.878 11.498 101.582C11.498 102.257 11.74 102.77 12.224 103.122C12.7227 103.489 13.5587 103.855 14.732 104.222L15.634 104.508C16.1327 104.699 16.404 104.801 16.448 104.816C16.9173 104.992 17.4307 105.234 17.988 105.542C18.384 105.762 18.78 106.099 19.176 106.554C19.6893 107.067 19.946 107.837 19.946 108.864C19.946 110.213 19.4547 111.291 18.472 112.098C17.4747 112.89 16.1913 113.286 14.622 113.286ZM27.6371 113H25.2611L20.8391 97.6H22.9951L26.5151 110.272L30.2551 97.6H32.3231L36.0631 110.272L39.5831 97.6H41.7391L37.3171 113H34.9411L31.2891 100.702L27.6371 113ZM43.9391 113V97.6H45.9851V113H43.9391ZM58.1547 97.6V99.536H51.3347V104.53H57.8687V106.466H51.3347V113H49.2887V97.6H58.1547ZM59.3784 97.6H70.4884V99.536H65.9344V113H63.9104V99.536H59.3784V97.6Z" fill="#121212"/>
<defs>
<linearGradient id="paint0_linear_278_861" x1="47.5907" y1="-2.85469" x2="32.4761" y2="82.8644" gradientUnits="userSpaceOnUse">
<stop stop-color="#FAAE42"/>
<stop offset="1" stop-color="#EF3E31"/>
</linearGradient>
<linearGradient id="paint1_linear_278_861" x1="40.8163" y1="1.2925" x2="29.7541" y2="64.0291" gradientUnits="userSpaceOnUse">
<stop stop-color="#E39F3A"/>
<stop offset="1" stop-color="#D33929"/>
</linearGradient>
<clipPath id="clip0_278_861">
<rect width="80" height="80" fill="white"/>
</clipPath>
<clipPath id="clip1_278_861">
<rect width="80" height="80" fill="white"/>
</clipPath>
<clipPath id="clip2_278_861">
<rect width="80" height="80" fill="white"/>
</clipPath>
</defs>
</svg>
