<svg width="70" height="119" viewBox="0 0 70 119" fill="none" xmlns="http://www.w3.org/2000/svg">
<g clip-path="url(#clip0_278_856)">
<g clip-path="url(#clip1_278_856)">
<path d="M34.9575 79.4242L6.47122 71.5188L0.123047 0.341797H69.8772L63.5224 71.5079L34.9575 79.4242Z" fill="#264DE4"/>
<path d="M58.0819 66.9769L63.5122 6.16211H35V73.3738L58.0819 66.9769Z" fill="#2965F1"/>
<path d="M14.6758 32.5605L15.4583 41.2901H34.9999V32.5605H14.6758Z" fill="#EBEBEB"/>
<path d="M13.1035 14.8926L13.8973 23.6221H35.0004V14.8926H13.1035Z" fill="#EBEBEB"/>
<path d="M34.9991 55.2334L34.9608 55.2436L25.2355 52.6185L24.6137 45.6562H15.8477L17.071 59.363L34.9589 64.3268L34.9991 64.316V55.2334Z" fill="#EBEBEB"/>
<path d="M55.2675 32.5614L56.8438 14.8926H34.969V23.6221H47.2738L46.4791 32.5614H34.969V41.2909H45.722L44.7081 52.6126L34.9688 55.2404V64.3223L52.8708 59.3626L53.0021 57.8877L55.0545 34.9055L55.2675 32.5614Z" fill="white"/>
</g>
</g>
<path d="M22.888 113.286C20.5413 113.286 18.6127 112.516 17.102 110.976C15.5913 109.451 14.836 107.559 14.836 105.3C14.836 103.041 15.5913 101.149 17.102 99.624C18.6127 98.084 20.5413 97.314 22.888 97.314C24.2813 97.314 25.572 97.6513 26.76 98.326C27.948 99.0007 28.872 99.91 29.532 101.054L27.75 102.088C27.31 101.237 26.65 100.563 25.77 100.064C24.9047 99.5507 23.944 99.294 22.888 99.294C21.0987 99.294 19.6467 99.866 18.532 101.01C17.4173 102.139 16.86 103.569 16.86 105.3C16.86 107.016 17.4173 108.439 18.532 109.568C19.6467 110.712 21.0987 111.284 22.888 111.284C23.944 111.284 24.9047 111.035 25.77 110.536C26.65 110.023 27.31 109.348 27.75 108.512L29.532 109.524C28.8867 110.668 27.97 111.585 26.782 112.274C25.6087 112.949 24.3107 113.286 22.888 113.286ZM36.8212 113.286C35.3839 113.286 34.1519 112.956 33.1252 112.296C32.1132 111.621 31.4019 110.69 30.9912 109.502L32.7512 108.49C33.3379 110.353 34.7092 111.284 36.8652 111.284C37.9066 111.284 38.7059 111.071 39.2632 110.646C39.8352 110.221 40.1212 109.641 40.1212 108.908C40.1212 108.189 39.8426 107.639 39.2852 107.258C38.7866 106.921 37.8552 106.532 36.4912 106.092L35.0172 105.608C34.6946 105.476 34.2692 105.285 33.7412 105.036C33.2279 104.772 32.8539 104.508 32.6192 104.244C31.9739 103.54 31.6512 102.682 31.6512 101.67C31.6512 100.321 32.1206 99.2647 33.0592 98.502C33.9979 97.71 35.1419 97.314 36.4912 97.314C37.6939 97.314 38.7499 97.6147 39.6592 98.216C40.5686 98.8173 41.2506 99.6387 41.7052 100.68L39.9892 101.67C39.3292 100.086 38.1632 99.294 36.4912 99.294C35.6552 99.294 34.9806 99.4993 34.4672 99.91C33.9539 100.321 33.6972 100.878 33.6972 101.582C33.6972 102.257 33.9392 102.77 34.4232 103.122C34.9219 103.489 35.7579 103.855 36.9312 104.222L37.8332 104.508C38.3319 104.699 38.6032 104.801 38.6472 104.816C39.1166 104.992 39.6299 105.234 40.1872 105.542C40.5832 105.762 40.9792 106.099 41.3752 106.554C41.8886 107.067 42.1452 107.837 42.1452 108.864C42.1452 110.213 41.6539 111.291 40.6712 112.098C39.6739 112.89 38.3906 113.286 36.8212 113.286ZM49.0029 113.286C47.5655 113.286 46.3335 112.956 45.3069 112.296C44.2949 111.621 43.5835 110.69 43.1729 109.502L44.9329 108.49C45.5195 110.353 46.8909 111.284 49.0469 111.284C50.0882 111.284 50.8875 111.071 51.4449 110.646C52.0169 110.221 52.3029 109.641 52.3029 108.908C52.3029 108.189 52.0242 107.639 51.4669 107.258C50.9682 106.921 50.0369 106.532 48.6729 106.092L47.1989 105.608C46.8762 105.476 46.4509 105.285 45.9229 105.036C45.4095 104.772 45.0355 104.508 44.8009 104.244C44.1555 103.54 43.8329 102.682 43.8329 101.67C43.8329 100.321 44.3022 99.2647 45.2409 98.502C46.1795 97.71 47.3235 97.314 48.6729 97.314C49.8755 97.314 50.9315 97.6147 51.8409 98.216C52.7502 98.8173 53.4322 99.6387 53.8869 100.68L52.1709 101.67C51.5109 100.086 50.3449 99.294 48.6729 99.294C47.8369 99.294 47.1622 99.4993 46.6489 99.91C46.1355 100.321 45.8789 100.878 45.8789 101.582C45.8789 102.257 46.1209 102.77 46.6049 103.122C47.1035 103.489 47.9395 103.855 49.1129 104.222L50.0149 104.508C50.5135 104.699 50.7849 104.801 50.8289 104.816C51.2982 104.992 51.8115 105.234 52.3689 105.542C52.7649 105.762 53.1609 106.099 53.5569 106.554C54.0702 107.067 54.3269 107.837 54.3269 108.864C54.3269 110.213 53.8355 111.291 52.8529 112.098C51.8555 112.89 50.5722 113.286 49.0029 113.286Z" fill="#121212"/>
<defs>
<clipPath id="clip0_278_856">
<rect width="70" height="80" fill="white"/>
</clipPath>
<clipPath id="clip1_278_856">
<rect width="70" height="80" fill="white"/>
</clipPath>
</defs>
</svg>
