<svg width="124" height="119" viewBox="0 0 124 119" fill="none" xmlns="http://www.w3.org/2000/svg">
<g clip-path="url(#clip0_933_2675)">
<g clip-path="url(#clip1_933_2675)">
<path d="M22 0H102V80H22V0Z" fill="#9C9C9C"/>
<path d="M43.0355 66.854L49.1573 63.149C50.3386 65.243 51.413 67.0149 53.9902 67.0149C56.4605 67.0149 58.0183 66.0487 58.0183 62.2899V36.728H65.5361V62.3962C65.5361 70.1827 60.9717 73.7271 54.3123 73.7271C48.2983 73.7271 44.8076 70.6131 43.0355 66.854Z" fill="#585858"/>
<path d="M69.6195 66.0482L75.7407 62.5041C77.3523 65.1357 79.4466 67.0688 83.1516 67.0688C86.2669 67.0688 88.2532 65.5113 88.2532 63.3632C88.2532 60.7857 86.2126 59.8725 82.7757 58.3694L80.8966 57.5632C75.4726 55.2547 71.8748 52.3547 71.8748 46.2329C71.8748 40.5941 76.1707 36.2979 82.8835 36.2979C87.6629 36.2979 91.0998 37.9628 93.5698 42.3125L87.716 46.0719C86.4269 43.7628 85.0313 42.85 82.8832 42.85C80.6813 42.85 79.2851 44.2463 79.2851 46.0719C79.2851 48.3272 80.6813 49.2407 83.9032 50.6369L85.7826 51.4422C92.1732 54.1813 95.771 56.9735 95.771 63.256C95.771 70.0229 90.4548 73.7279 83.3126 73.7279C76.3316 73.7279 71.8211 70.3982 69.6195 66.0482Z" fill="#585858"/>
</g>
</g>
<path d="M5.654 113.286C4.52467 113.286 3.53467 113.051 2.684 112.582C1.848 112.098 1.232 111.416 0.836 110.536L2.574 109.524C3.04333 110.697 4.07 111.284 5.654 111.284C6.65133 111.284 7.42133 111.049 7.964 110.58C8.52133 110.096 8.8 109.399 8.8 108.49V97.6H10.824V108.49C10.824 110.03 10.3327 111.218 9.35 112.054C8.36733 112.875 7.13533 113.286 5.654 113.286ZM25.8079 113H23.6299L22.3759 109.546H15.4459L14.1919 113H12.0139L17.7559 97.6H20.0659L25.8079 113ZM18.8999 100.042L16.1499 107.632H21.6719L18.8999 100.042ZM33.0798 113H30.7698L25.2698 97.6H27.4698L31.9358 110.448L36.3798 97.6H38.6018L33.0798 113ZM51.847 113H49.669L48.415 109.546H41.485L40.231 113H38.053L43.795 97.6H46.105L51.847 113ZM44.939 100.042L42.189 107.632H47.711L44.939 100.042ZM58.2275 113.286C56.7901 113.286 55.5581 112.956 54.5315 112.296C53.5195 111.621 52.8081 110.69 52.3975 109.502L54.1575 108.49C54.7441 110.353 56.1155 111.284 58.2715 111.284C59.3128 111.284 60.1121 111.071 60.6695 110.646C61.2415 110.221 61.5275 109.641 61.5275 108.908C61.5275 108.189 61.2488 107.639 60.6915 107.258C60.1928 106.921 59.2615 106.532 57.8975 106.092L56.4235 105.608C56.1008 105.476 55.6755 105.285 55.1475 105.036C54.6341 104.772 54.2601 104.508 54.0255 104.244C53.3801 103.54 53.0575 102.682 53.0575 101.67C53.0575 100.321 53.5268 99.2647 54.4655 98.502C55.4041 97.71 56.5481 97.314 57.8975 97.314C59.1001 97.314 60.1561 97.6147 61.0655 98.216C61.9748 98.8173 62.6568 99.6387 63.1115 100.68L61.3955 101.67C60.7355 100.086 59.5695 99.294 57.8975 99.294C57.0615 99.294 56.3868 99.4993 55.8735 99.91C55.3601 100.321 55.1035 100.878 55.1035 101.582C55.1035 102.257 55.3455 102.77 55.8295 103.122C56.3281 103.489 57.1641 103.855 58.3375 104.222L59.2395 104.508C59.7381 104.699 60.0095 104.801 60.0535 104.816C60.5228 104.992 61.0361 105.234 61.5935 105.542C61.9895 105.762 62.3855 106.099 62.7815 106.554C63.2948 107.067 63.5515 107.837 63.5515 108.864C63.5515 110.213 63.0601 111.291 62.0775 112.098C61.0801 112.89 59.7968 113.286 58.2275 113.286ZM73.1048 113.286C70.7581 113.286 68.8295 112.516 67.3188 110.976C65.8081 109.451 65.0528 107.559 65.0528 105.3C65.0528 103.041 65.8081 101.149 67.3188 99.624C68.8295 98.084 70.7581 97.314 73.1048 97.314C74.4981 97.314 75.7888 97.6513 76.9768 98.326C78.1648 99.0007 79.0888 99.91 79.7488 101.054L77.9668 102.088C77.5268 101.237 76.8668 100.563 75.9868 100.064C75.1215 99.5507 74.1608 99.294 73.1048 99.294C71.3155 99.294 69.8635 99.866 68.7488 101.01C67.6341 102.139 67.0768 103.569 67.0768 105.3C67.0768 107.016 67.6341 108.439 68.7488 109.568C69.8635 110.712 71.3155 111.284 73.1048 111.284C74.1608 111.284 75.1215 111.035 75.9868 110.536C76.8668 110.023 77.5268 109.348 77.9668 108.512L79.7488 109.524C79.1035 110.668 78.1868 111.585 76.9988 112.274C75.8255 112.949 74.5275 113.286 73.1048 113.286ZM93.462 113H91.196L87.742 107.104H84.112V113H82.066V97.6H88.226C89.546 97.6 90.6753 98.0693 91.614 99.008C92.5527 99.932 93.022 101.054 93.022 102.374C93.022 103.371 92.7213 104.281 92.12 105.102C91.504 105.938 90.7413 106.517 89.832 106.84L93.462 113ZM88.226 99.514H84.112V105.256H88.226C88.9887 105.256 89.634 104.977 90.162 104.42C90.7047 103.863 90.976 103.181 90.976 102.374C90.976 101.567 90.7047 100.893 90.162 100.35C89.634 99.7927 88.9887 99.514 88.226 99.514ZM95.5152 113V97.6H97.5612V113H95.5152ZM100.865 97.6H106.453C107.861 97.6 109.042 98.0767 109.995 99.03C110.948 99.9833 111.425 101.157 111.425 102.55C111.425 103.943 110.948 105.117 109.995 106.07C109.042 107.023 107.861 107.5 106.453 107.5H102.911V113H100.865V97.6ZM102.911 105.586H106.453C107.318 105.586 108.022 105.3 108.565 104.728C109.122 104.127 109.401 103.401 109.401 102.55C109.401 101.67 109.122 100.944 108.565 100.372C108.008 99.8 107.304 99.514 106.453 99.514H102.911V105.586ZM112.201 97.6H123.311V99.536H118.757V113H116.733V99.536H112.201V97.6Z" fill="#121212"/>
<defs>
<clipPath id="clip0_933_2675">
<rect width="80" height="80" fill="white" transform="translate(22)"/>
</clipPath>
<clipPath id="clip1_933_2675">
<rect width="80" height="80" fill="white" transform="translate(22)"/>
</clipPath>
</defs>
</svg>
