<svg width="95" height="119" viewBox="0 0 95 119" fill="none" xmlns="http://www.w3.org/2000/svg">
<path fill-rule="evenodd" clip-rule="evenodd" d="M32.4783 72.2489L17.2798 10.7203L78.2069 28.2616L32.4783 72.2489Z" stroke="black" stroke-width="3" stroke-miterlimit="10" stroke-linejoin="round"/>
<path fill-rule="evenodd" clip-rule="evenodd" d="M47.7323 19.4927L55.3261 50.2661L24.8794 41.4926L47.7323 19.4927Z" stroke="black" stroke-width="3" stroke-miterlimit="10" stroke-linejoin="round"/>
<path fill-rule="evenodd" clip-rule="evenodd" d="M40.1775 45.6664L36.4058 30.3792L51.5322 34.7215L40.1775 45.6664Z" stroke="black" stroke-width="3" stroke-miterlimit="10" stroke-linejoin="round"/>
<path fill-rule="evenodd" clip-rule="evenodd" d="M32.6325 15.1107L36.4043 30.3979L21.2778 26.0557L32.6325 15.1107Z" stroke="black" stroke-width="3" stroke-miterlimit="10" stroke-linejoin="round"/>
<path fill-rule="evenodd" clip-rule="evenodd" d="M62.884 23.8251L66.6557 39.1123L51.5293 34.77L62.884 23.8251Z" stroke="black" stroke-width="3" stroke-miterlimit="10" stroke-linejoin="round"/>
<path fill-rule="evenodd" clip-rule="evenodd" d="M40.1789 45.677L43.9507 60.9642L28.8242 56.6219L40.1789 45.677Z" stroke="black" stroke-width="3" stroke-miterlimit="10" stroke-linejoin="round"/>
<path d="M0.396 97.6H11.506V99.536H6.952V113H4.928V99.536H0.396V97.6ZM23.0569 104.134V97.6H25.0809V113H23.0569V106.07H15.5769V113H13.5309V97.6H15.5769V104.134H23.0569ZM39.7726 113H37.5066L34.0526 107.104H30.4226V113H28.3766V97.6H34.5366C35.8566 97.6 36.9859 98.0693 37.9246 99.008C38.8632 99.932 39.3326 101.054 39.3326 102.374C39.3326 103.371 39.0319 104.281 38.4306 105.102C37.8146 105.938 37.0519 106.517 36.1426 106.84L39.7726 113ZM34.5366 99.514H30.4226V105.256H34.5366C35.2992 105.256 35.9446 104.977 36.4726 104.42C37.0152 103.863 37.2866 103.181 37.2866 102.374C37.2866 101.567 37.0152 100.893 36.4726 100.35C35.9446 99.7927 35.2992 99.514 34.5366 99.514ZM43.8718 106.18V111.064H51.0218V113H41.8258V97.6H50.9118V99.536H43.8718V104.266H50.3618V106.18H43.8718ZM55.5378 106.18V111.064H62.6878V113H53.4918V97.6H62.5778V99.536H55.5378V104.266H62.0278V106.18H55.5378ZM66.1698 113.242C65.7738 113.242 65.4365 113.103 65.1578 112.824C64.8791 112.545 64.7398 112.208 64.7398 111.812C64.7398 111.416 64.8791 111.079 65.1578 110.8C65.4365 110.521 65.7738 110.382 66.1698 110.382C66.5805 110.382 66.9178 110.521 67.1818 110.8C67.4605 111.079 67.5998 111.416 67.5998 111.812C67.5998 112.208 67.4605 112.545 67.1818 112.824C66.9178 113.103 66.5805 113.242 66.1698 113.242ZM74.7477 113.286C73.6184 113.286 72.6284 113.051 71.7778 112.582C70.9418 112.098 70.3258 111.416 69.9298 110.536L71.6678 109.524C72.1371 110.697 73.1638 111.284 74.7477 111.284C75.7451 111.284 76.5151 111.049 77.0578 110.58C77.6151 110.096 77.8938 109.399 77.8938 108.49V97.6H79.9178V108.49C79.9178 110.03 79.4264 111.218 78.4438 112.054C77.4611 112.875 76.2291 113.286 74.7477 113.286ZM87.9833 113.286C86.546 113.286 85.314 112.956 84.2873 112.296C83.2753 111.621 82.564 110.69 82.1533 109.502L83.9133 108.49C84.5 110.353 85.8713 111.284 88.0273 111.284C89.0687 111.284 89.868 111.071 90.4253 110.646C90.9973 110.221 91.2833 109.641 91.2833 108.908C91.2833 108.189 91.0047 107.639 90.4473 107.258C89.9487 106.921 89.0173 106.532 87.6533 106.092L86.1793 105.608C85.8567 105.476 85.4313 105.285 84.9033 105.036C84.39 104.772 84.016 104.508 83.7813 104.244C83.136 103.54 82.8133 102.682 82.8133 101.67C82.8133 100.321 83.2827 99.2647 84.2213 98.502C85.16 97.71 86.304 97.314 87.6533 97.314C88.856 97.314 89.912 97.6147 90.8213 98.216C91.7307 98.8173 92.4127 99.6387 92.8673 100.68L91.1513 101.67C90.4913 100.086 89.3253 99.294 87.6533 99.294C86.8173 99.294 86.1427 99.4993 85.6293 99.91C85.116 100.321 84.8593 100.878 84.8593 101.582C84.8593 102.257 85.1013 102.77 85.5853 103.122C86.084 103.489 86.92 103.855 88.0933 104.222L88.9953 104.508C89.494 104.699 89.7653 104.801 89.8093 104.816C90.2787 104.992 90.792 105.234 91.3493 105.542C91.7453 105.762 92.1413 106.099 92.5373 106.554C93.0507 107.067 93.3073 107.837 93.3073 108.864C93.3073 110.213 92.816 111.291 91.8333 112.098C90.836 112.89 89.5527 113.286 87.9833 113.286Z" fill="#121212"/>
</svg>
