<svg width="89" height="119" viewBox="0 0 89 119" fill="none" xmlns="http://www.w3.org/2000/svg">
<path d="M10 61.4626L22.9168 52.0387C29.7793 60.5688 37.0704 64.5005 45.1861 64.5005C53.2584 64.5005 60.3434 60.6153 66.8967 52.1524L79.9979 61.3489C70.5422 73.5524 58.7918 80.0003 45.1861 80.0003C31.6238 80.0003 19.7594 73.5938 10 61.4626Z" fill="url(#paint0_linear_933_2728)"/>
<path d="M45.1427 20.5011L22.1519 39.3695L11.5244 27.631L45.1915 0L78.5928 27.6516L67.9166 39.3488L45.1427 20.5011Z" fill="url(#paint1_linear_933_2728)"/>
<path d="M8.888 113.286C6.54133 113.286 4.61267 112.516 3.102 110.976C1.59133 109.451 0.836 107.559 0.836 105.3C0.836 103.041 1.59133 101.149 3.102 99.624C4.61267 98.084 6.54133 97.314 8.888 97.314C10.2813 97.314 11.572 97.6513 12.76 98.326C13.948 99.0007 14.872 99.91 15.532 101.054L13.75 102.088C13.31 101.237 12.65 100.563 11.77 100.064C10.9047 99.5507 9.944 99.294 8.888 99.294C7.09867 99.294 5.64667 99.866 4.532 101.01C3.41733 102.139 2.86 103.569 2.86 105.3C2.86 107.016 3.41733 108.439 4.532 109.568C5.64667 110.712 7.09867 111.284 8.888 111.284C9.944 111.284 10.9047 111.035 11.77 110.536C12.65 110.023 13.31 109.348 13.75 108.512L15.532 109.524C14.8867 110.668 13.97 111.585 12.782 112.274C11.6087 112.949 10.3107 113.286 8.888 113.286ZM19.8952 97.6V111.064H26.5392V113H17.8492V97.6H19.8952ZM28.5914 113V97.6H30.6374V113H28.5914ZM41.179 113.286C38.8323 113.286 36.9037 112.516 35.393 110.976C33.8823 109.451 33.127 107.559 33.127 105.3C33.127 103.041 33.8823 101.149 35.393 99.624C36.9037 98.084 38.8323 97.314 41.179 97.314C42.5723 97.314 43.863 97.6513 45.051 98.326C46.239 99.0007 47.163 99.91 47.823 101.054L46.041 102.088C45.601 101.237 44.941 100.563 44.061 100.064C43.1957 99.5507 42.235 99.294 41.179 99.294C39.3897 99.294 37.9377 99.866 36.823 101.01C35.7083 102.139 35.151 103.569 35.151 105.3C35.151 107.016 35.7083 108.439 36.823 109.568C37.9377 110.712 39.3897 111.284 41.179 111.284C42.235 111.284 43.1957 111.035 44.061 110.536C44.941 110.023 45.601 109.348 46.041 108.512L47.823 109.524C47.1777 110.668 46.261 111.585 45.073 112.274C43.8997 112.949 42.6017 113.286 41.179 113.286ZM54.3202 105.08L61.3382 113H58.8302L52.1862 105.608V113H50.1402V97.6H52.1862V104.552L58.6102 97.6H61.1182L54.3202 105.08ZM62.2743 107.83V97.6H64.3203V107.742C64.3203 108.842 64.6429 109.707 65.2883 110.338C65.9483 110.969 66.8723 111.284 68.0603 111.284C69.2483 111.284 70.1649 110.969 70.8103 110.338C71.4703 109.707 71.8003 108.842 71.8003 107.742V97.6H73.8243V107.83C73.8243 109.502 73.2889 110.829 72.2183 111.812C71.1476 112.795 69.7616 113.286 68.0603 113.286C66.3443 113.286 64.9509 112.795 63.8803 111.812C62.8096 110.829 62.2743 109.502 62.2743 107.83ZM76.9527 97.6H82.5407C83.9487 97.6 85.1294 98.0767 86.0827 99.03C87.0361 99.9833 87.5127 101.157 87.5127 102.55C87.5127 103.943 87.0361 105.117 86.0827 106.07C85.1294 107.023 83.9487 107.5 82.5407 107.5H78.9987V113H76.9527V97.6ZM78.9987 105.586H82.5407C83.4061 105.586 84.1101 105.3 84.6527 104.728C85.2101 104.127 85.4887 103.401 85.4887 102.55C85.4887 101.67 85.2101 100.944 84.6527 100.372C84.0954 99.8 83.3914 99.514 82.5407 99.514H78.9987V105.586Z" fill="#121212"/>
<defs>
<linearGradient id="paint0_linear_933_2728" x1="10" y1="1953.71" x2="79.9979" y2="1953.71" gradientUnits="userSpaceOnUse">
<stop/>
<stop offset="1" stop-color="#D9D9D9"/>
</linearGradient>
<linearGradient id="paint1_linear_933_2728" x1="11.5244" y1="2677.52" x2="78.5928" y2="2677.52" gradientUnits="userSpaceOnUse">
<stop stop-color="#9C9C9C"/>
<stop offset="1" stop-color="#D9D9D9"/>
</linearGradient>
</defs>
</svg>
