<svg width="80" height="119" viewBox="0 0 80 119" fill="none" xmlns="http://www.w3.org/2000/svg">
<path d="M15.516 97.6V99.536H8.696V104.53H15.23V106.466H8.696V113H6.65V97.6H15.516ZM17.9938 113V97.6H20.0398V113H17.9938ZM30.4934 105.366H38.1934V106.29C38.1934 108.299 37.504 109.971 36.1254 111.306C34.7467 112.626 32.9207 113.286 30.6474 113.286C28.3007 113.286 26.3574 112.516 24.8174 110.976C23.292 109.407 22.5294 107.515 22.5294 105.3C22.5294 103.085 23.292 101.201 24.8174 99.646C26.3574 98.0913 28.286 97.314 30.6034 97.314C32.0114 97.314 33.3167 97.6587 34.5194 98.348C35.7367 99.0373 36.6534 99.932 37.2694 101.032L35.5094 102.066C35.0694 101.23 34.402 100.563 33.5074 100.064C32.6127 99.5507 31.6374 99.294 30.5814 99.294C28.8067 99.294 27.362 99.8733 26.2474 101.032C25.118 102.191 24.5534 103.613 24.5534 105.3C24.5534 106.987 25.118 108.409 26.2474 109.568C27.3914 110.712 28.8654 111.284 30.6694 111.284C32.18 111.284 33.412 110.917 34.3654 110.184C35.3334 109.436 35.9274 108.446 36.1474 107.214H30.4934V105.366ZM52.7812 97.6H55.0913V113H53.0673V100.966L48.0293 109.348H47.7653L42.7273 100.988V113H40.6813V97.6H42.9913L47.8973 105.74L52.7812 97.6ZM70.7044 113H68.5264L67.2724 109.546H60.3424L59.0884 113H56.9104L62.6524 97.6H64.9624L70.7044 113ZM63.7964 100.042L61.0464 107.632H66.5684L63.7964 100.042Z" fill="#121212"/>
<path d="M28.8889 73.3333C35.0223 73.3333 40.0001 68.3556 40.0001 62.2222V51.1111H28.8889C22.7556 51.1111 17.7778 56.0889 17.7778 62.2222C17.7778 68.3556 22.7556 73.3333 28.8889 73.3333Z" fill="#9C9C9C"/>
<path d="M17.7778 40C17.7778 33.8667 22.7556 28.8889 28.8889 28.8889H40.0001V51.1111H28.8889C22.7556 51.1111 17.7778 46.1333 17.7778 40Z" fill="#585858"/>
<path d="M17.7778 17.7778C17.7778 11.6444 22.7556 6.66667 28.8889 6.66667H40.0001V28.8889H28.8889C22.7556 28.8889 17.7778 23.9111 17.7778 17.7778Z" fill="#121212"/>
<path d="M40 6.66667H51.1111C57.2444 6.66667 62.2222 11.6444 62.2222 17.7778C62.2222 23.9111 57.2444 28.8889 51.1111 28.8889H40V6.66667Z" fill="#585858"/>
<path d="M62.2222 40C62.2222 46.1333 57.2444 51.1111 51.1111 51.1111C44.9778 51.1111 40 46.1333 40 40C40 33.8667 44.9778 28.8889 51.1111 28.8889C57.2444 28.8889 62.2222 33.8667 62.2222 40Z" fill="#121212"/>
</svg>
